<svg width="80" height="168" viewBox="0 0 80 168" fill="none" xmlns="http://www.w3.org/2000/svg">
<rect y="41" width="80" height="10" fill="white"/>
<path d="M24.1925 163.626C34.2554 169.458 50.722 169.458 60.9374 163.626C71.1529 157.794 71.1529 148.125 61.0899 142.293C51.027 136.461 34.5603 136.461 24.3449 142.293C14.1295 148.125 14.1295 157.794 24.1925 163.626Z" fill="#EAEAEA"/>
<path d="M66.8721 100.39V116.02C66.8714 116.166 66.8342 116.309 66.7643 116.435C66.6943 116.56 66.5942 116.664 66.4742 116.734C66.3542 116.805 66.2187 116.84 66.0817 116.836C65.9448 116.832 65.8113 116.789 65.6951 116.711L65.3429 116.474L64.2772 100.311L66.8721 100.39Z" fill="url(#paint0_linear)"/>
<path d="M66.8721 100.39V116.02C66.8714 116.166 66.8342 116.309 66.7643 116.435C66.6943 116.56 66.5942 116.664 66.4742 116.734C66.3542 116.805 66.2187 116.84 66.0817 116.836C65.9448 116.832 65.8113 116.789 65.6951 116.711L65.3429 116.474L64.2772 100.311L66.8721 100.39Z" fill="url(#paint1_linear)"/>
<path d="M58.1045 82.6177C58.1045 82.6177 59.0313 86.3993 59.5966 88.1667C60.1619 89.9341 59.5966 90.6154 59.0035 92.2051C58.2157 94.2983 54.935 91.8398 54.935 91.8398L53.8044 88.0779L55.6579 82.6177H58.1045Z" fill="#F4B2A3"/>
<path d="M61.9417 102.691V122.853C61.9417 122.853 63.7952 122.982 64.3142 121.866C64.8332 120.75 65.2409 121.925 65.5653 121.421C65.8897 120.918 65.5653 100.627 65.5653 100.627L61.9417 102.691Z" fill="url(#paint2_linear)"/>
<path d="M36.8171 108.902L61.0424 123.613C61.1852 123.72 61.3531 123.781 61.527 123.79C61.7008 123.799 61.8736 123.755 62.0254 123.665C62.1772 123.574 62.302 123.44 62.3855 123.277C62.469 123.114 62.5077 122.93 62.4974 122.745V103.135L46.3534 92.8171L36.8171 108.902Z" fill="url(#paint3_linear)"/>
<path d="M50.4222 89.4108L66.8721 100.39L62.4978 103.175L46.3538 92.8666L50.4222 89.4108Z" fill="url(#paint4_linear)"/>
<path d="M58.3089 98.3169C58.0281 98.3199 57.7571 98.2078 57.5518 98.0038C57.3465 97.7998 57.2227 97.5195 57.206 97.2209C57.1147 95.5777 56.8757 93.9477 56.4924 92.3531C56.1155 90.97 55.3368 89.7498 54.2682 88.8677C54.0682 88.6953 53.9315 88.4533 53.8824 88.1843C53.8332 87.9152 53.8747 87.6362 53.9995 87.3965C54.0774 87.2462 54.1852 87.116 54.3155 87.0149C54.4457 86.9138 54.5951 86.8443 54.7533 86.8114C54.9114 86.7784 55.0744 86.7828 55.2307 86.8242C55.3871 86.8656 55.5331 86.943 55.6584 87.0509C57.0845 88.2333 58.1252 89.8637 58.6332 91.7113C59.071 93.4657 59.3473 95.2613 59.4581 97.0728C59.4669 97.2328 59.4449 97.3931 59.3935 97.5437C59.342 97.6943 59.2622 97.8321 59.1589 97.9487C59.0556 98.0652 58.931 98.158 58.7928 98.2213C58.6546 98.2846 58.5057 98.3172 58.3552 98.3169H58.3089Z" fill="url(#paint5_linear)"/>
<path d="M56.1675 85.1547C56.3511 85.2969 56.4829 85.5025 56.5403 85.7365C56.5977 85.9705 56.5773 86.2185 56.4826 86.4383C56.0068 87.4231 55.6309 88.4591 55.3612 89.5288C55.4915 90.0554 55.7079 90.5535 56.0006 91C56.1448 91.2473 56.1977 91.5429 56.1489 91.8294C56.1204 92.1502 56.0185 92.4587 55.8524 92.7279C55.4539 93.113 53.6745 89.2721 53.6745 89.2721L54.6569 85.7076C54.7011 85.5467 54.781 85.3994 54.8898 85.2782C54.9986 85.157 55.1332 85.0654 55.2822 85.0112C55.4312 84.957 55.5902 84.9418 55.7459 84.9667C55.9016 84.9917 56.0493 85.0562 56.1767 85.1547H56.1675Z" fill="#F4B2A3"/>
<path d="M62.4976 103.174L65.7227 101.121V103.174L63.1834 104.932L63.1185 122.774L62.4976 122.883V103.174Z" fill="url(#paint6_linear)"/>
<path style="mix-blend-mode:overlay" opacity="0.33" d="M56.8168 99.5017L63.6933 98.2675L66.8721 100.39L60.1902 101.704L56.8168 99.5017Z" fill="url(#paint7_linear)"/>
<path d="M65.111 103.56L63.9896 103.945V122.28C64.1197 122.162 64.2267 122.018 64.3047 121.856C64.6939 121.026 64.9905 121.441 65.2314 121.53L65.111 103.56Z" fill="url(#paint8_linear)"/>
<path d="M39.7463 109.277V110.669L61.0616 123.613C61.1884 123.702 61.3337 123.757 61.4849 123.772C61.636 123.786 61.7883 123.762 61.9283 123.699C62.0683 123.637 62.1918 123.539 62.2879 123.414C62.384 123.289 62.4498 123.14 62.4795 122.982L39.7463 109.277Z" fill="url(#paint9_linear)"/>
<path d="M57.3449 84.1185H55.3709C54.5059 84.1185 53.8047 83.3714 53.8047 82.4499V79.2211C53.8047 78.2996 54.5059 77.5525 55.3709 77.5525H57.3449C58.2099 77.5525 58.9111 78.2996 58.9111 79.2211V82.4499C58.9111 83.3714 58.2099 84.1185 57.3449 84.1185Z" fill="url(#paint10_linear)"/>
<path d="M57.6408 82.884C57.2877 82.884 57.0014 82.5789 57.0014 82.2027C57.0014 81.8264 57.2877 81.5214 57.6408 81.5214C57.994 81.5214 58.2803 81.8264 58.2803 82.2027C58.2803 82.5789 57.994 82.884 57.6408 82.884Z" fill="url(#paint11_linear)"/>
<path d="M57.7613 82.7953C57.4542 82.7953 57.2053 82.5301 57.2053 82.2029C57.2053 81.8757 57.4542 81.6105 57.7613 81.6105C58.0684 81.6105 58.3174 81.8757 58.3174 82.2029C58.3174 82.5301 58.0684 82.7953 57.7613 82.7953Z" fill="url(#paint12_linear)"/>
<path d="M45.1667 141.593C44.93 142.533 44.8146 143.503 44.8238 144.476C44.8886 145.8 45.0184 147.044 45.8617 147.36C46.7051 147.676 48.642 148.673 49.1517 148.13C49.6614 147.587 50.3194 147.992 51.2554 148.752C53.6822 150.159 56.2148 151.348 58.827 152.306C59.9391 152.612 61.496 151.862 62.6266 151.062C63.7573 150.262 63.3588 149.087 62.0799 148.298C60.2279 147.136 58.6041 145.604 57.2978 143.785C55.3053 141.179 52.8958 138.513 52.8958 138.513L45.1667 141.593Z" fill="#001A27"/>
<path style="mix-blend-mode:multiply" opacity="0.5" d="M62.7387 149.098C62.7387 149.957 60.3755 150.865 58.8834 150.816C57.3914 150.766 45.2324 144.546 44.8339 144.299C44.8339 145.869 45.0563 147.083 45.8626 147.38C46.6689 147.676 48.6428 148.693 49.1526 148.15C49.6623 147.607 50.3203 148.012 51.2563 148.772C53.6831 150.179 56.2157 151.368 58.8278 152.326C59.9399 152.633 61.4969 151.882 62.6275 151.082C63.5543 150.441 63.4616 149.582 62.7387 148.841C62.7295 148.91 62.7387 148.999 62.7387 149.098Z" fill="url(#paint13_linear)"/>
<path style="mix-blend-mode:multiply" opacity="0.2" d="M44.8707 143.114C46.5938 144.134 48.5774 144.542 50.5331 144.279C53.4988 143.726 54.7962 142.462 55.0835 141.06C53.8602 139.599 52.8778 138.513 52.8778 138.513L45.1487 141.603C45.0264 142.1 44.9336 142.605 44.8707 143.114Z" fill="url(#paint14_linear)"/>
<path d="M28.4202 148.643C28.1751 148.687 27.9507 148.816 27.7827 149.011C27.6147 149.206 27.5129 149.456 27.4935 149.719C27.4176 150.668 27.4022 151.622 27.4471 152.573C27.5861 154.459 27.6047 154.548 28.5129 155.535C29.4211 156.522 29.8567 157.263 30.839 156.917C31.3487 156.74 31.9141 157.372 32.7481 158.379C34.4437 160.278 36.3056 162.001 38.3087 163.523C40.5421 164.708 41.404 163.948 42.7571 163.365C44.1101 162.782 44.9071 161.558 43.9248 160.077C42.9424 158.596 42.2195 157.717 40.0787 154.479C38.6223 152.073 37.3546 149.543 36.2883 146.915L28.4202 148.643Z" fill="#001A27"/>
<path style="mix-blend-mode:multiply" opacity="0.5" d="M44.3608 160.946C44.5832 161.529 41.5805 163.187 39.6714 162.852C37.7623 162.516 27.4661 151.398 27.4569 151.388C27.4569 151.596 27.4569 152.435 27.4569 152.613C27.5959 154.499 27.6144 154.587 28.5226 155.575C29.4308 156.562 29.8664 157.303 30.8488 156.957C31.3585 156.779 31.9238 157.411 32.7579 158.418C34.4535 160.318 36.3154 162.04 38.3184 163.563C40.5519 164.748 41.4137 163.987 42.7668 163.405C43.8882 162.852 44.6296 161.934 44.3608 160.946Z" fill="url(#paint15_linear)"/>
<path style="mix-blend-mode:multiply" opacity="0.2" d="M36.2895 146.915L28.4121 148.643C28.167 148.686 27.9426 148.816 27.7746 149.011C27.6066 149.206 27.5048 149.456 27.4854 149.719C28.5552 151.093 30.0903 151.963 31.7577 152.138C34.3804 152.287 37.3831 151.674 37.6333 149.996C36.8548 148.278 36.2895 146.915 36.2895 146.915Z" fill="url(#paint16_linear)"/>
<path d="M41.0991 91.4152C41.0991 91.4152 41.7571 109.188 43.0453 112.565C44.3334 115.942 42.9526 118.144 43.1379 123.426C43.3233 128.708 45.2231 141.446 45.3621 142.324C45.5012 143.203 48.9209 143.233 50.3388 142.887C52.3591 142.394 53.9439 142.028 54.0458 139.58C54.1477 137.131 53.5732 124.206 54.0458 120.385C54.3678 117 54.3678 113.59 54.0458 110.205C53.879 106.779 55.5379 90.7142 55.3525 85.5206C55.2304 82.5501 55.3794 79.574 55.7974 76.6342L45.3714 77.0192L41.0991 91.4152Z" fill="#555555"/>
<path d="M48.2172 140.379C48.0226 138.809 46.4842 125.647 47.068 121.826C47.6519 118.005 49.2922 114.588 48.2172 109.869C45.4369 97.7142 54.584 80.3759 54.584 80.3759L45.3165 77.1768L41.0905 91.4147C41.0905 91.4147 41.7485 109.188 43.0367 112.564C44.3248 115.941 42.944 118.143 43.1293 123.426C43.3147 128.708 45.2145 141.445 45.3535 142.324C45.4926 143.203 48.9123 143.232 50.3302 142.887C50.9425 142.754 51.5462 142.579 52.1374 142.363C51.1179 142.689 48.4026 141.84 48.2172 140.379Z" fill="black" fill-opacity="0.3"/>
<path d="M25.9655 85.6387C25.9655 85.6387 25.6411 100.232 26.8922 110.659C28.1433 121.086 27.0312 124.324 26.6142 127.444C26.1971 130.564 27.6243 144.486 27.4668 147.271C27.3092 150.055 29.8393 150.944 32.8327 150.648C36.7343 150.263 37.1699 149.167 37.522 144.625C37.8557 140.369 37.6796 130.801 38.0132 128.274C38.3469 125.746 39.3477 122.3 39.5053 117.896C40.0431 111.311 40.9717 104.768 42.2855 98.3068C43.1104 94.7818 44.139 85.4709 43.5923 82.6371C43.0455 79.8033 25.9655 85.6387 25.9655 85.6387Z" fill="#555555"/>
<path d="M34.667 149.996L34.4353 150.083L34.667 149.996Z" fill="url(#paint17_linear)"/>
<path d="M26.8835 110.659C28.1253 121.086 27.0225 124.324 26.6054 127.444C26.1884 130.564 27.6156 144.486 27.4581 147.271C27.3005 150.055 29.8305 150.944 32.824 150.648C33.4067 150.596 33.9856 150.504 34.557 150.371C33.21 150.534 31.8575 150.122 30.7944 149.226C29.8676 148.347 31.1743 146.096 31.3597 143.144C31.545 140.191 30.3495 129.942 30.989 127C31.6284 124.058 33.6858 117.353 32.7683 108.319C30.9797 90.8422 43.1665 85.2932 43.1665 85.2932L35.5023 82.8445C30.8685 83.9701 25.966 85.6388 25.966 85.6388C25.966 85.6388 25.6416 100.232 26.8835 110.659Z" fill="black" fill-opacity="0.3"/>
<path d="M33.9549 150.251L34.2329 150.154L33.9549 150.251Z" fill="url(#paint18_linear)"/>
<path d="M56.3263 35.6481C56.3263 35.6481 58.7081 63.9463 58.912 69.3275C59.0602 73.277 58.9954 76.644 58.912 78.1646C58.9087 78.2766 58.8838 78.3868 58.8389 78.4883C58.794 78.5897 58.7301 78.6802 58.651 78.7543C58.572 78.8283 58.4795 78.8843 58.3793 78.9187C58.2791 78.9532 58.1734 78.9653 58.0686 78.9545L55.7888 78.757L54.5748 50.8241L56.3263 35.6481Z" fill="#252525"/>
<path d="M46.5857 22.5553C46.5857 22.5553 51.5901 22.9601 53.7958 25.0139C56.0015 27.0676 56.3444 32.7055 56.4834 39.3111C56.6224 45.9167 55.5566 52.0088 56.0015 57.8738C56.4834 64.4399 58.0311 77.7102 58.1052 78.9938C58.1793 80.2774 57.3823 81.4721 54.8986 82.4299C52.4149 83.3876 49.5235 81.8276 48.226 75.5873C46.9286 69.3471 48.6894 57.0938 48.6894 57.0938L49.8756 56.7679L49.9776 40.723L48.226 27.0972L46.5857 22.5553Z" fill="#555555"/>
<path d="M33.7415 25.3101C33.7415 25.3101 25.0022 30.9579 23.3434 33.1103C21.6845 35.2628 20.8597 46.8053 20.8597 46.8053C20.8597 46.8053 23.7141 63.1958 24.8169 68.1326C25.9197 73.0695 23.8901 86.6657 24.4091 87.7519C24.9281 88.838 25.2339 89.1243 28.5517 88.9268C31.8695 88.7293 42.7217 87.1495 45.5576 85.1945C48.1988 83.4074 50.0153 80.1984 50.0894 75.2023C50.1635 70.2061 49.9967 60.283 49.9967 60.283L38.505 40.6737L37.6987 33.683L33.7415 25.3101Z" fill="#555555"/>
<path d="M34.752 25.3101L36.2255 34.7593L48.3196 57.4295L50.3955 58.4564L49.8395 35.4505L44.594 22.5553L34.752 25.3101Z" fill="url(#paint19_linear)"/>
<path d="M44.1118 31.7478C43.9473 30.3265 43.9008 28.8925 43.9728 27.4625C44.1572 26.6086 44.6121 25.8485 45.261 25.3101L48.2266 29.4373C48.2266 29.4373 46.4287 31.185 45.9004 31.7478C45.3722 32.3106 44.1118 31.7478 44.1118 31.7478Z" fill="#C4C4C4"/>
<path d="M43.0466 32.5278L44.2699 48.1876L47.4486 54.1514L50.127 57.0542L48.987 42.8656L44.6869 31.7181L43.0466 32.5278Z" fill="#48CDB7"/>
<path d="M44.9639 21.4888C44.9639 21.4888 46.8637 28.8349 47.4105 31.5996C47.9573 34.3642 49.8942 56.1359 49.9961 58.0514C50.0819 58.809 50.0819 59.5747 49.9961 60.3323L50.4873 58.7525C50.4873 58.7525 51.4141 38.5211 51.4141 37.198C51.4141 35.8749 51.4141 35.8749 51.136 35.3417C50.858 34.8086 49.2825 32.4981 49.1621 32.0538C48.9952 31.412 50.5336 28.361 50.3946 27.7291C49.1321 25.4484 47.6707 23.2996 46.0296 21.3111C45.9488 21.2478 45.8571 21.2022 45.7597 21.1769C45.6623 21.1516 45.5611 21.147 45.462 21.1635C45.363 21.1801 45.2679 21.2173 45.1824 21.2731C45.0969 21.329 45.0227 21.4023 44.9639 21.4888Z" fill="#333333"/>
<path d="M35.4939 16.9174C35.4939 16.9174 35.4939 19.297 35.3086 21.4988C35.2038 22.7814 35.0336 24.057 34.7989 25.32L43.2601 31.2936L44.1405 29.4867L44.502 21.8938L43.9459 18.6058L36.0871 11.2301L35.4939 16.9174Z" fill="#F4B2A3"/>
<path d="M42.3881 28.302C42.3881 28.302 42.5271 31.6789 43.2129 32.4194C42.7041 32.7032 42.1404 32.8571 41.5663 32.8691C40.9921 32.8811 40.4232 32.7508 39.9044 32.4885C38.4308 31.5011 38.505 28.0354 38.505 28.0354L40.3585 27.4628L42.0637 27.8281L42.3881 28.302Z" fill="#C4C4C4"/>
<path d="M43.1382 32.1723C41.1642 32.1723 39.8297 30.0495 39.7649 29.9705L40.8584 28.914C40.9511 28.5092 42.2671 30.79 43.5923 30.6123C44.9176 30.4346 44.9917 27.9365 44.9639 26.9787L44.7786 24.7966L46.4004 25.1521L46.0853 26.4456C46.1687 29.4867 45.5014 31.886 43.6016 32.1427C43.4479 32.1633 43.2931 32.1732 43.1382 32.1723Z" fill="#48CDB7"/>
<path d="M44.1406 29.4769C44.1406 29.4769 44.5206 26.5839 44.9654 26.5148C45.4103 26.4456 45.8922 27.3738 46.0682 28.1834C46.2443 28.9931 46.6706 30.4643 46.8931 30.5136C47.1155 30.563 47.4491 28.3118 47.0506 26.3765C46.6521 24.4413 45.6512 22.19 45.1971 22.0222C44.743 21.8543 44.2703 21.9333 44.3908 22.3678C44.6318 23.1972 43.5197 30.7605 44.1406 29.4769Z" fill="url(#paint20_linear)"/>
<path d="M42.3041 30.1384C43.1245 29.5665 44.1242 29.3641 45.0844 29.5756C45.6497 29.8817 45.3346 32.2415 45.0844 32.6562C44.8846 32.8864 44.6301 33.0548 44.3479 33.1434C44.0656 33.2321 43.7661 33.2377 43.4811 33.1598C42.925 32.9821 41.7388 31.4812 41.8129 30.9579C41.8685 30.6263 42.0451 30.3316 42.3041 30.1384Z" fill="#48CDB7"/>
<path d="M35.1954 22.5553C34.8365 23.1922 34.6146 23.906 34.5457 24.6453C34.4768 25.3846 34.5626 26.1309 34.7969 26.8306C35.529 28.6079 38.2259 32.2316 39.653 32.9129C41.0802 33.5942 41.0988 32.3698 41.1451 30.2568C41.1451 28.6869 41.4788 28.0649 41.8865 28.0352C41.986 28.0119 42.0899 28.0257 42.181 28.0742C42.2721 28.1227 42.3448 28.2031 42.387 28.3018C42.387 28.3018 42.4796 27.7588 41.4602 27.3145C40.4408 26.8701 37.8459 26.1888 36.6504 25.1126C35.925 24.4444 35.4159 23.5495 35.1954 22.5553Z" fill="url(#paint21_linear)"/>
<path d="M47.9308 66.8885L45.8919 67.1946C45.6742 67.2174 45.4566 67.1502 45.2841 67.0068C45.1116 66.8635 44.9974 66.6549 44.9651 66.4244C44.9437 66.1925 45.0068 65.9606 45.1414 65.7768C45.2759 65.593 45.4716 65.4714 45.688 65.437L47.7269 65.131C47.9446 65.1081 48.1622 65.1754 48.3347 65.3187C48.5072 65.4621 48.6214 65.6706 48.6536 65.9011C48.675 66.1331 48.6119 66.3649 48.4774 66.5487C48.3428 66.7325 48.1471 66.8541 47.9308 66.8885Z" fill="#3B3544"/>
<path d="M48.079 66.1578L46.3367 66.4243C46.1525 66.439 45.97 66.379 45.8256 66.2563C45.6813 66.1336 45.5858 65.9573 45.5582 65.7628C45.5318 65.5586 45.5822 65.3516 45.6986 65.187C45.8149 65.0223 45.9877 64.9134 46.1791 64.884L47.9214 64.6174C48.1131 64.5893 48.3074 64.643 48.4619 64.767C48.6165 64.8909 48.7187 65.075 48.7462 65.279C48.7591 65.3838 48.7519 65.4903 48.7249 65.5921C48.698 65.6938 48.6519 65.7886 48.5895 65.8708C48.5271 65.953 48.4497 66.0208 48.3619 66.0702C48.2741 66.1195 48.1779 66.1493 48.079 66.1578Z" fill="#7F7787"/>
<path d="M47.3281 65.9207L46.4014 66.0688C46.2969 66.0858 46.1904 66.0579 46.1052 65.9913C46.0201 65.9246 45.9632 65.8246 45.9473 65.7133C45.9339 65.6036 45.9613 65.4927 46.0237 65.4041C46.086 65.3156 46.1783 65.2565 46.2809 65.2394L47.2076 65.0913C47.3121 65.0743 47.4186 65.1022 47.5038 65.1688C47.5889 65.2355 47.6458 65.3355 47.6617 65.4468C47.6751 65.5565 47.6477 65.6674 47.5853 65.756C47.523 65.8445 47.4307 65.9036 47.3281 65.9207Z" fill="#E5EFFF"/>
<path d="M47.8922 73.6324L45.8533 73.9385C45.6356 73.9613 45.418 73.8941 45.2455 73.7507C45.073 73.6074 44.9588 73.3989 44.9266 73.1683C44.9052 72.9364 44.9683 72.7045 45.1028 72.5207C45.2374 72.3369 45.4331 72.2153 45.6494 72.1809L47.6883 71.8748C47.906 71.852 48.1236 71.9193 48.2961 72.0626C48.4686 72.206 48.5828 72.4145 48.615 72.645C48.6365 72.877 48.5734 73.1088 48.4388 73.2926C48.3043 73.4764 48.1086 73.598 47.8922 73.6324Z" fill="#3B3544"/>
<path d="M48.0416 72.9115L46.2993 73.1781C46.1077 73.2063 45.9134 73.1526 45.7589 73.0286C45.6043 72.9047 45.5021 72.7206 45.4745 72.5166C45.4481 72.3124 45.4985 72.1054 45.6149 71.9407C45.7312 71.7761 45.904 71.6672 46.0954 71.6378L47.8377 71.3712C48.0294 71.343 48.2237 71.3968 48.3782 71.5207C48.5328 71.6447 48.635 71.8288 48.6625 72.0328C48.689 72.2369 48.6386 72.4439 48.5222 72.6086C48.4059 72.7733 48.2331 72.8822 48.0416 72.9115Z" fill="#7F7787"/>
<path d="M47.291 72.6647L46.3643 72.8128C46.2598 72.8298 46.1533 72.8019 46.0681 72.7353C45.983 72.6686 45.9261 72.5687 45.9101 72.4574C45.8968 72.3476 45.9242 72.2367 45.9866 72.1482C46.0489 72.0596 46.1412 72.0005 46.2438 71.9834L47.1705 71.8353C47.275 71.8183 47.3815 71.8462 47.4667 71.9129C47.5518 71.9795 47.6086 72.0795 47.6246 72.1908C47.638 72.3005 47.6105 72.4115 47.5482 72.5C47.4859 72.5885 47.3936 72.6476 47.291 72.6647Z" fill="#E5EFFF"/>
<path d="M39.5256 31.7381C39.1724 31.7381 38.8861 31.433 38.8861 31.0568C38.8861 30.6805 39.1724 30.3755 39.5256 30.3755C39.8787 30.3755 40.165 30.6805 40.165 31.0568C40.165 31.433 39.8787 31.7381 39.5256 31.7381Z" fill="url(#paint22_linear)"/>
<path d="M50.1924 61.8923L49.97 60.5692L49.6734 60.0657C49.6734 59.7991 49.6178 59.5325 49.5622 59.2659L38.5894 40.6736L38.367 38.6988C35.0493 32.7746 32.1671 27.4328 31.9539 26.5541C31.1384 27.0971 30.1004 27.7784 29.1088 28.5288C29.3497 32.2611 30.397 35.4405 30.7121 35.7959C31.0272 36.1514 34.4191 36.7339 34.6786 37.2474C34.938 37.7608 33.9186 41.8584 34.1318 42.4015C34.4376 43.0927 48.274 58.2588 48.793 60.2829C48.9042 60.7272 48.9598 61.1419 49.071 61.4776C49.3708 62.3631 49.7237 63.2272 50.1275 64.0646L50.1924 63.3931C50.1924 62.8303 50.1924 62.3169 50.1924 61.8923Z" fill="url(#paint23_linear)"/>
<path d="M35.3076 21.4889C35.3076 21.4889 31.6006 23.4636 31.7025 27.4625C31.8045 31.4614 32.1937 34.9567 32.5273 35.2924C32.861 35.6281 36.2343 36.2304 36.4938 36.7439C36.7533 37.2573 35.7339 41.3549 35.947 41.898C36.2251 42.6188 48.7918 57.696 49.3108 59.7597C49.6301 61.1756 49.8746 62.6096 50.0429 64.0547C50.0429 64.0547 51.7018 59.651 49.6166 56.0965C47.9021 53.1343 35.5856 28.3808 35.1037 26.3764C34.9027 25.1918 34.9279 23.9761 35.1778 22.8021C35.2705 22.1504 35.3076 21.4889 35.3076 21.4889Z" fill="#333333"/>
<path d="M31.2117 86.0737C31.0727 84.4939 31.017 83.7928 30.98 82.4006C30.8966 79.6063 36.1605 73.4352 36.1605 73.4352L34.1309 73.5833L32.472 72.8033L32.3886 72.0726C31.1548 69.4988 30.1316 66.8163 29.3304 64.0551C28.5797 60.856 29.664 55.6723 30.6185 50.2318C32.7871 37.7218 28.6816 34.3449 28.6816 34.3449L23.1211 33.5452C21.6383 36.5073 20.8877 46.8254 20.8877 46.8254C20.8877 46.8254 23.7142 63.1961 24.8171 68.133C25.9199 73.0699 23.8903 86.6661 24.4093 87.7522C24.9283 88.8383 25.2341 89.1246 28.5519 88.9272C32.7752 88.5728 36.9689 87.893 41.1001 86.8932C41.1001 86.8932 31.3321 87.4757 31.2117 86.0737Z" fill="black" fill-opacity="0.3"/>
<path d="M25.9018 75.3208L29.72 78.1151L32.7598 73.9483L29.1176 70.4728L25.9018 75.3208Z" fill="url(#paint24_linear)"/>
<path d="M22.3154 34.1867C22.0429 34.5218 21.818 34.8977 21.6482 35.3025C20.1468 38.7978 11.2037 59.6808 11.0091 61.4976C10.8052 63.4723 14.2527 67.3034 17.0793 69.6533C19.3498 71.5392 25.3459 76.1305 27.6072 77.8683C27.7219 77.9554 27.8519 78.0169 27.9895 78.0491C28.127 78.0814 28.2693 78.0838 28.4077 78.0561C28.5461 78.0285 28.6779 77.9714 28.7951 77.8882C28.9124 77.805 29.0127 77.6975 29.09 77.5721L31.7683 73.2474C31.8657 73.0987 31.9108 72.9181 31.8955 72.7375C31.8803 72.5569 31.8057 72.3878 31.6849 72.26C29.5507 69.8606 27.3019 67.5801 24.9474 65.4273C23.5194 64.2319 22.1521 62.9563 20.8512 61.6062C20.8512 61.6062 27.4404 53.5689 28.8768 46.6573C30.3133 39.7457 30.6747 35.8653 28.191 33.8806C25.939 32.0836 23.8631 32.3206 22.3154 34.1867Z" fill="#555555"/>
<path d="M28.2548 79.9808L34.2231 71.8054C34.4008 71.564 34.6595 71.4054 34.9447 71.363C35.2299 71.3207 35.5194 71.3978 35.7522 71.5783L35.9469 71.7362C36.0688 71.8304 36.1713 71.9501 36.2481 72.0881C36.3249 72.2261 36.3743 72.3793 36.3934 72.5384C36.4125 72.6975 36.4009 72.8591 36.3591 73.0132C36.3174 73.1673 36.2465 73.3107 36.1507 73.4345L29.9879 81.4619C29.8081 81.6948 29.5518 81.8458 29.2711 81.8843C28.9904 81.9229 28.7065 81.846 28.4772 81.6693C28.3553 81.5766 28.2524 81.4585 28.1748 81.3221C28.0971 81.1858 28.0463 81.0339 28.0255 80.876C28.0047 80.718 28.0143 80.5572 28.0537 80.4033C28.0931 80.2494 28.1616 80.1056 28.2548 79.9808Z" fill="url(#paint25_linear)"/>
<path d="M29.1649 74.8661L28.062 76.3472C28.0023 76.429 27.9279 76.4973 27.8432 76.5482C27.7584 76.5991 27.665 76.6314 27.5683 76.6434C27.4717 76.6553 27.3738 76.6466 27.2804 76.6178C27.1869 76.589 27.0998 76.5406 27.0241 76.4755C26.9486 76.412 26.8856 76.3333 26.8387 76.2438C26.7918 76.1543 26.7619 76.0559 26.7507 75.9541C26.7395 75.8523 26.7473 75.7492 26.7735 75.6506C26.7997 75.552 26.8439 75.4599 26.9036 75.3795L28.0064 73.8985C28.0661 73.8166 28.1405 73.7483 28.2253 73.6974C28.3101 73.6465 28.4035 73.6142 28.5001 73.6022C28.5968 73.5903 28.6947 73.599 28.7881 73.6278C28.8816 73.6566 28.9687 73.705 29.0444 73.7701C29.1199 73.8336 29.1829 73.9124 29.2298 74.0018C29.2767 74.0913 29.3066 74.1897 29.3178 74.2915C29.329 74.3933 29.3212 74.4964 29.295 74.595C29.2688 74.6936 29.2245 74.7857 29.1649 74.8661Z" fill="url(#paint26_linear)"/>
<path d="M28.8779 74.3232L27.9512 75.5871C27.8996 75.6628 27.8337 75.7261 27.7578 75.773C27.6819 75.82 27.5976 75.8495 27.5104 75.8597C27.4231 75.8699 27.3348 75.8606 27.2511 75.8324C27.1675 75.8042 27.0903 75.7576 27.0244 75.6957C26.9534 75.6407 26.894 75.5705 26.85 75.4897C26.8059 75.4088 26.7782 75.319 26.7686 75.226C26.759 75.1331 26.7677 75.039 26.7942 74.9499C26.8207 74.8607 26.8644 74.7784 26.9225 74.7083L27.8493 73.4445C27.9009 73.3688 27.9667 73.3055 28.0426 73.2586C28.1186 73.2116 28.2028 73.1821 28.2901 73.1719C28.3773 73.1616 28.4656 73.1709 28.5493 73.1992C28.633 73.2274 28.7102 73.274 28.776 73.3359C28.847 73.3908 28.9064 73.461 28.9505 73.5419C28.9946 73.6228 29.0223 73.7126 29.0319 73.8055C29.0415 73.8985 29.0327 73.9926 29.0062 74.0817C28.9797 74.1709 28.936 74.2531 28.8779 74.3232Z" fill="#51495A"/>
<path d="M28.247 74.6391L27.7373 75.3303C27.7093 75.3679 27.6746 75.3993 27.6352 75.4226C27.5959 75.446 27.5526 75.4608 27.5078 75.4663C27.4631 75.4718 27.4177 75.4679 27.3744 75.4547C27.3311 75.4415 27.2906 75.4194 27.2554 75.3895C27.22 75.3597 27.1906 75.3228 27.1687 75.2808C27.1468 75.2389 27.1329 75.1928 27.1277 75.1451C27.1225 75.0974 27.1262 75.0491 27.1386 75.003C27.151 74.9568 27.1717 74.9137 27.1997 74.8761L27.7095 74.1849C27.7374 74.1473 27.7721 74.1159 27.8115 74.0926C27.8508 74.0693 27.8941 74.0544 27.9389 74.0489C27.9836 74.0434 28.029 74.0474 28.0723 74.0605C28.1156 74.0737 28.1561 74.0958 28.1914 74.1257C28.2267 74.1555 28.2561 74.1924 28.278 74.2344C28.2999 74.2763 28.3139 74.3224 28.319 74.3701C28.3242 74.4178 28.3205 74.4661 28.3081 74.5123C28.2958 74.5584 28.275 74.6015 28.247 74.6391Z" fill="#E5EFFF"/>
<path d="M27.7272 75.3306C27.7272 75.3306 25.8737 73.1485 23.1583 70.0186C20.4429 66.8886 20.86 61.6456 20.86 61.6456C20.86 61.6456 19.8498 57.2715 24.0758 48.3851C26.3834 43.5371 25.8737 32.7747 25.9293 32.6858C25.2646 32.5592 24.5802 32.6284 23.9497 32.8859C23.3193 33.1435 22.7668 33.5795 22.352 34.1471C22.0795 34.4822 21.8546 34.8581 21.6848 35.2629C20.1834 38.7582 11.2403 59.6412 11.0457 61.458C10.8418 63.4327 14.2893 67.2638 17.1159 69.6137C19.3864 71.4996 25.3825 76.0909 27.6438 77.8287C27.7585 77.9158 27.8885 77.9773 28.0261 78.0095C28.1636 78.0418 28.3059 78.0442 28.4443 78.0165C28.5827 77.9889 28.7145 77.9318 28.8317 77.8486C28.949 77.7654 29.0492 77.6579 29.1266 77.5325L29.6919 76.6142L27.7272 75.3306Z" fill="black" fill-opacity="0.3"/>
<path d="M37.0315 17.2925C37.0315 17.2925 37.7451 23.4438 40.859 25.31C43.9729 27.1761 44.2509 25.31 44.2509 25.31L44.6309 21.4888L37.0315 17.2925Z" fill="black" fill-opacity="0.1"/>
<path d="M48.3937 9.20581C48.8108 11.5846 48.8108 14.025 48.3937 16.4038C47.6709 20.2644 46.6051 22.7526 45.6135 23.0883C44.6219 23.424 40.5998 21.6961 38.598 19.6029C36.5962 17.5097 35.1134 12.4444 35.1134 12.4444L36.9669 7.01383L44.974 6.60901L48.3937 9.20581Z" fill="#F4B2A3"/>
<path d="M32.5831 5.37491C31.8907 6.88189 31.596 8.5611 31.7305 10.2328C31.8695 13.3134 33.7415 13.7874 33.7415 15.7621C33.6586 16.3619 33.7937 16.9729 34.1192 17.4701C34.4447 17.9674 34.9361 18.3136 35.4931 18.4379C35.7104 18.5246 35.9382 18.5778 36.1696 18.5959C36.214 18.6015 36.259 18.597 36.3016 18.5826C36.3442 18.5683 36.3835 18.5445 36.4168 18.5127C36.4501 18.481 36.4767 18.442 36.4948 18.3985C36.5129 18.355 36.5221 18.3078 36.5218 18.2602V16.6211L37.2169 11.9903C37.2169 11.9903 38.0139 12.9777 38.6997 12.7408C39.3855 12.5038 40.2195 9.23556 39.6264 8.49503C38.0443 7.01077 36.3486 5.66986 34.5571 4.48627C33.8527 4.08145 33.1855 4.30855 32.5831 5.37491Z" fill="#D4D4D4"/>
<path d="M34.8902 4.94071C34.6749 4.61014 34.5596 4.21742 34.5596 3.8151C34.5596 3.41278 34.6749 3.02005 34.8902 2.68949C35.9124 1.36795 37.3527 0.490052 38.9401 0.221042C40.2424 -0.0765138 41.5894 -0.0736213 42.8906 0.229525C44.1918 0.532671 45.417 1.12905 46.4838 1.97857C48.8285 4.06194 49.6626 8.51502 49.6811 9.05807C49.6997 9.60113 49.2177 9.78873 48.4578 10.0455C46.5547 10.8156 44.4615 10.8679 42.5266 10.1936C40.1541 9.20618 34.8902 4.94071 34.8902 4.94071Z" fill="#D4D4D4"/>
<g style="mix-blend-mode:multiply" opacity="0.5">
<path d="M48.5047 10.1043C49.2646 9.80805 49.7465 9.61058 49.728 9.11689C49.6417 8.44637 49.499 7.78546 49.3017 7.14213C44.9923 2.96552 42.0174 6.214 38.6626 5.92766C37.7785 5.92763 36.9213 5.60389 36.2346 5.01068C35.5479 4.41748 35.0735 3.59085 34.8907 2.66931C34.6755 2.99988 34.5601 3.3926 34.5601 3.79492C34.5601 4.19724 34.6755 4.58997 34.8907 4.92053C34.8907 4.92053 40.1547 9.20576 42.5735 10.2622C44.5094 10.9334 46.6027 10.8776 48.5047 10.1043Z" fill="#C4C4C4"/>
</g>
<g style="mix-blend-mode:multiply" opacity="0.5">
<path d="M38.5783 11.447C37.6515 10.6077 36.317 11.6148 36.317 11.6148C36.317 11.6148 34.1947 12.8392 32.9158 11.5457C31.6369 10.2523 31.9891 7.22101 31.9891 7.18152C31.7768 8.18177 31.6957 9.20854 31.7481 10.2325C31.8871 13.3131 33.7592 13.7871 33.7592 15.7618C33.6762 16.3616 33.8113 16.9726 34.1368 17.4698C34.4624 17.9671 34.9538 18.3133 35.5107 18.4376C35.728 18.5243 35.9558 18.5775 36.1873 18.5956C36.2316 18.6012 36.2766 18.5967 36.3192 18.5823C36.3619 18.568 36.4011 18.5442 36.4344 18.5124C36.4677 18.4807 36.4943 18.4417 36.5124 18.3982C36.5305 18.3547 36.5397 18.3075 36.5394 18.2599V16.6209L37.216 11.99C37.216 11.99 38.013 12.9774 38.6988 12.7405C38.8563 12.7405 39.0231 12.4739 39.1807 12.1678C39.0217 11.8912 38.8177 11.6472 38.5783 11.447Z" fill="#C4C4C4"/>
</g>
<path d="M37.7544 12.7504C37.7544 12.7504 37.532 11.2101 36.3272 11.6149C34.8722 12.1086 35.5951 14.8733 36.4106 15.4558C36.6331 15.6193 36.8688 15.7614 37.1149 15.8804C37.1775 15.9095 37.2459 15.9218 37.3139 15.9162C37.382 15.9106 37.4478 15.8873 37.5054 15.8483C37.5631 15.8093 37.6109 15.7558 37.6446 15.6926C37.6783 15.6293 37.6969 15.5582 37.6988 15.4854L37.7544 12.7504Z" fill="#F7A2A6"/>
<path d="M37.5869 13.0372C37.5869 13.0372 37.4294 11.961 36.5953 12.2473C35.5759 12.5929 36.0948 14.6565 36.6602 15.0613C36.8153 15.1754 36.9797 15.2746 37.1513 15.3576C37.195 15.379 37.2431 15.3885 37.2911 15.3851C37.3391 15.3816 37.3855 15.3654 37.4261 15.3379C37.4666 15.3104 37.5001 15.2725 37.5233 15.2276C37.5466 15.1827 37.5589 15.1323 37.5591 15.0811L37.5869 13.0372Z" fill="url(#paint27_linear)"/>
<defs>
<linearGradient id="paint0_linear" x1="64.5923" y1="104.616" x2="70.976" y2="118.971" gradientUnits="userSpaceOnUse">
<stop stop-color="#393243"/>
<stop offset="1" stop-color="#82788B"/>
</linearGradient>
<linearGradient id="paint1_linear" x1="64.5923" y1="104.616" x2="70.976" y2="118.971" gradientUnits="userSpaceOnUse">
<stop stop-color="#393243"/>
<stop offset="1" stop-color="#17002A"/>
</linearGradient>
<linearGradient id="paint2_linear" x1="8.85399" y1="2522.85" x2="-154.497" y2="2589.2" gradientUnits="userSpaceOnUse">
<stop stop-color="#393243"/>
<stop offset="1" stop-color="#82788B"/>
</linearGradient>
<linearGradient id="paint3_linear" x1="-405.94" y1="2888.5" x2="135.197" y2="3624.54" gradientUnits="userSpaceOnUse">
<stop stop-color="#393243"/>
<stop offset="1" stop-color="#82788B"/>
</linearGradient>
<linearGradient id="paint4_linear" x1="-156.777" y1="1401.26" x2="-117.843" y2="1486.32" gradientUnits="userSpaceOnUse">
<stop stop-color="#393243"/>
<stop offset="1" stop-color="#82788B"/>
</linearGradient>
<linearGradient id="paint5_linear" x1="-4.63426" y1="1129.44" x2="48.1196" y2="1166.99" gradientUnits="userSpaceOnUse">
<stop stop-color="#393243"/>
<stop offset="1" stop-color="#82788B"/>
</linearGradient>
<linearGradient id="paint6_linear" x1="57.6922" y1="2649.86" x2="-1.75709" y2="2647.68" gradientUnits="userSpaceOnUse">
<stop stop-color="#393243"/>
<stop offset="1" stop-color="#17002A"/>
</linearGradient>
<linearGradient id="paint7_linear" x1="63.2299" y1="97.754" x2="60.1737" y2="101.958" gradientUnits="userSpaceOnUse">
<stop stop-color="white"/>
<stop offset="1" stop-color="white"/>
</linearGradient>
<linearGradient id="paint8_linear" x1="37.5383" y1="2117.91" x2="73.1635" y2="2121.37" gradientUnits="userSpaceOnUse">
<stop stop-color="#393243"/>
<stop offset="1" stop-color="#17002A"/>
</linearGradient>
<linearGradient id="paint9_linear" x1="-1598.64" y1="2189.16" x2="227.366" y2="1154.7" gradientUnits="userSpaceOnUse">
<stop stop-color="#393243"/>
<stop offset="1" stop-color="#17002A"/>
</linearGradient>
<linearGradient id="paint10_linear" x1="55.445" y1="80.8404" x2="62.8961" y2="80.8404" gradientUnits="userSpaceOnUse">
<stop stop-color="#AFD1FF"/>
<stop offset="1" stop-color="#F9FAFF"/>
</linearGradient>
<linearGradient id="paint11_linear" x1="57.2886" y1="82.2027" x2="62.0614" y2="82.2027" gradientUnits="userSpaceOnUse">
<stop stop-color="#6B87FF"/>
<stop offset="1" stop-color="#F9FAFF"/>
</linearGradient>
<linearGradient id="paint12_linear" x1="52.173" y1="80.9588" x2="58.134" y2="82.1302" gradientUnits="userSpaceOnUse">
<stop stop-color="#89AAFF"/>
<stop offset="1" stop-color="white"/>
</linearGradient>
<linearGradient id="paint13_linear" x1="128.678" y1="1360.6" x2="-238.833" y2="1360.6" gradientUnits="userSpaceOnUse">
<stop stop-color="#522A32"/>
<stop offset="1" stop-color="#B67775"/>
</linearGradient>
<linearGradient id="paint14_linear" x1="29.96" y1="983.856" x2="18.0677" y2="1018.75" gradientUnits="userSpaceOnUse">
<stop stop-color="#522A32"/>
<stop offset="1" stop-color="#B67775"/>
</linearGradient>
<linearGradient id="paint15_linear" x1="422.096" y1="2195.92" x2="112.083" y2="2195.92" gradientUnits="userSpaceOnUse">
<stop stop-color="#522A32"/>
<stop offset="1" stop-color="#B67775"/>
</linearGradient>
<linearGradient id="paint16_linear" x1="200" y1="947.605" x2="188.674" y2="984.499" gradientUnits="userSpaceOnUse">
<stop stop-color="#522A32"/>
<stop offset="1" stop-color="#B67775"/>
</linearGradient>
<linearGradient id="paint17_linear" x1="43.274" y1="163.188" x2="38.2069" y2="163.64" gradientUnits="userSpaceOnUse">
<stop stop-color="#393243"/>
<stop offset="1" stop-color="#17002A"/>
</linearGradient>
<linearGradient id="paint18_linear" x1="44.5643" y1="164.827" x2="38.4917" y2="165.412" gradientUnits="userSpaceOnUse">
<stop stop-color="#393243"/>
<stop offset="1" stop-color="#17002A"/>
</linearGradient>
<linearGradient id="paint19_linear" x1="9.21515" y1="1870.74" x2="-195.86" y2="1192.01" gradientUnits="userSpaceOnUse">
<stop stop-color="#AFD1FF"/>
<stop offset="1" stop-color="#F9FAFF"/>
</linearGradient>
<linearGradient id="paint20_linear" x1="43.047" y1="26.2087" x2="44.6781" y2="26.2087" gradientUnits="userSpaceOnUse">
<stop stop-color="#AFD1FF"/>
<stop offset="1" stop-color="white"/>
</linearGradient>
<linearGradient id="paint21_linear" x1="132.618" y1="407.61" x2="117.629" y2="305.003" gradientUnits="userSpaceOnUse">
<stop stop-color="#89AAFF"/>
<stop offset="1" stop-color="white"/>
</linearGradient>
<linearGradient id="paint22_linear" x1="52.481" y1="73.2287" x2="45.8818" y2="73.2287" gradientUnits="userSpaceOnUse">
<stop stop-color="#6B87FF"/>
<stop offset="1" stop-color="#F9FAFF"/>
</linearGradient>
<linearGradient id="paint23_linear" x1="-826.464" y1="2834.59" x2="679.018" y2="2336.34" gradientUnits="userSpaceOnUse">
<stop stop-color="#393243"/>
<stop offset="1" stop-color="#17002A"/>
</linearGradient>
<linearGradient id="paint24_linear" x1="-53.4893" y1="674.98" x2="-62.0556" y2="616.527" gradientUnits="userSpaceOnUse">
<stop stop-color="#AFD1FF"/>
<stop offset="1" stop-color="#F9FAFF"/>
</linearGradient>
<linearGradient id="paint25_linear" x1="201.218" y1="910.525" x2="6.84421" y2="782.021" gradientUnits="userSpaceOnUse">
<stop stop-color="#393243"/>
<stop offset="1" stop-color="#82788B"/>
</linearGradient>
<linearGradient id="paint26_linear" x1="88.6717" y1="305.727" x2="81.5334" y2="305.727" gradientUnits="userSpaceOnUse">
<stop stop-color="#393243"/>
<stop offset="1" stop-color="#82788B"/>
</linearGradient>
<linearGradient id="paint27_linear" x1="58.6062" y1="50.755" x2="66.236" y2="64.153" gradientUnits="userSpaceOnUse">
<stop stop-color="#EF8C93"/>
<stop offset="1" stop-color="#FFB9B9"/>
</linearGradient>
</defs>
</svg>
