<svg width="76" height="90" viewBox="0 0 76 90" fill="none" xmlns="http://www.w3.org/2000/svg">
<path d="M27.6876 3.91496L28.7166 3.32422L28.6404 31.1082L73.3463 56.9294L72.3173 57.5202L27.6113 31.718L27.6876 3.91496Z" fill="#505454"/>
<path d="M28.2789 3.55298L28.2026 31.337L72.9276 57.1582L73.0039 29.3551L28.2789 3.55298Z" fill="#C6C6C6"/>
<path d="M72.413 29.7362L73.423 29.1454L28.717 3.32422L27.688 3.91496L72.413 29.7362Z" fill="#F2F2F2"/>
<path d="M72.9272 28.0215C72.8129 27.9262 72.6795 27.8309 72.5652 27.7737L27.3447 1.64763L28.3547 1.05688L73.5752 27.1639C73.8038 27.2973 74.0516 27.5069 74.2421 27.6784C74.9091 28.3454 75.4998 29.5269 75.4998 30.4988L75.4427 58.1494V65.1611L74.3946 65.7709L74.4136 58.7592L74.4899 31.1086C74.4899 30.0224 73.7848 28.7075 72.9272 28.0215Z" fill="#555555"/>
<path d="M72.5465 27.7545C73.6137 28.3643 74.4903 29.8697 74.4712 31.1084L74.395 58.759V59.2354V61.5412L25.3252 33.1855V30.9559C25.3252 30.8797 25.3252 30.7844 25.3252 30.7082L25.4014 2.7527C25.4014 1.5331 26.278 1.03764 27.3452 1.64744L72.5465 27.7545ZM27.6119 31.7182L72.3179 57.5394L72.3941 29.7554L27.6882 3.91513L27.6119 31.7182Z" fill="#171919"/>
<path d="M28.2789 3.55298L28.2026 31.337L72.9276 57.1582L73.0039 29.3551L28.2789 3.55298Z" fill="url(#paint0_linear)"/>
<path d="M72.5465 27.7545C73.6137 28.3643 74.4903 29.8697 74.4712 31.1084L74.395 58.759V59.2354V61.5412L25.3252 33.1855V30.9559C25.3252 30.8797 25.3252 30.7844 25.3252 30.7082L25.4014 2.7527C25.4014 1.5331 26.278 1.03764 27.3452 1.64744L72.5465 27.7545ZM27.6119 31.7182L72.3179 57.5394L72.3941 29.7554L27.6882 3.91513L27.6119 31.7182Z" fill="url(#paint1_linear)"/>
<path d="M47.0674 16.8923L54.9948 21.3706V24.1146L47.0483 19.6364L47.0674 16.8923Z" fill="black" fill-opacity="0.1"/>
<path d="M33.2645 14.1865L42.9655 19.915L42.8973 27.9452L33.2134 22.2167L33.2645 14.1865Z" fill="#48CDB7"/>
<path d="M44.793 21.0847L54.3325 26.6844L54.2654 34.5809L44.7427 28.998L44.793 21.0847Z" fill="#E4E4E4"/>
<path opacity="0.44" d="M25.3438 32.2897L59.7974 20.3986L50.0978 14.7961L27.3447 1.6473C26.4109 1.11372 25.6296 1.41862 25.439 2.31426L25.3438 32.2897Z" fill="white"/>
<path d="M27.3447 1.6475L28.3547 1.05676C27.8211 0.75186 27.3257 0.713748 26.9827 0.923366L25.9536 1.51411C26.3157 1.30449 26.7921 1.3426 27.3447 1.6475Z" fill="#434849"/>
<path d="M39.6356 57.0819L45.2381 53.8614C45.7527 53.5565 46.191 52.8323 46.191 52.2225C46.191 51.3078 45.867 50.6028 45.2953 50.2788L55.5476 56.2434C56.1193 56.5674 56.4432 57.2724 56.4432 58.1871C56.4432 58.7779 56.024 59.5211 55.4904 59.826L49.8879 63.0465C49.602 63.218 49.3734 63.6182 49.3734 63.9421C49.3734 64.1136 49.4305 64.228 49.5258 64.2661L39.2735 58.3015C39.1783 58.2443 39.1211 58.13 39.1211 57.9775C39.1211 57.6536 39.3498 57.2534 39.6356 57.0819Z" fill="url(#paint2_linear)"/>
<path d="M49.0306 50.8506L38.7593 44.886L38.0352 46.1437L48.3065 52.1083L49.0306 50.8506Z" fill="#212525"/>
<path d="M56.272 54.9858L46.0197 49.0212L38.7593 44.886L49.0306 50.8506L56.272 54.9858Z" fill="#1C1E1F"/>
<path d="M49.0308 50.8506L48.3066 52.1083L55.548 56.2435C56.1197 56.5675 56.4437 57.2725 56.4437 58.1872C56.4437 58.778 56.0244 59.5212 55.4908 59.8261L49.8883 63.0466C49.6025 63.2181 49.3738 63.6183 49.3738 63.9422C49.3738 64.2662 49.6025 64.3996 49.8883 64.2471L55.4908 61.0076C56.577 60.3787 57.4727 58.8351 57.4727 57.5965C57.4727 56.3769 57.0344 55.4241 56.2721 54.9858L49.0308 50.8506Z" fill="#A9A9A9"/>
<path d="M74.4136 61.5412L25.3247 33.1855L25.3057 36.711C25.3057 37.9496 26.1632 39.436 27.2494 40.0648L44.6668 50.1075L55.2049 56.1864L72.4889 66.1719C73.5561 66.7817 74.4326 66.2862 74.4326 65.0666L74.4136 61.5412Z" fill="#D4D4D4"/>
<path d="M29.917 22.9902L69.8589 46.0292L69.8398 49.1735L29.8979 26.1155L29.917 22.9902Z" fill="black" fill-opacity="0.1"/>
<path d="M62.3125 25.8489L70.2399 30.3271V33.0712L62.2935 28.593L62.3125 25.8489Z" fill="black" fill-opacity="0.1"/>
<path d="M29.8218 27.3733L69.7637 50.4123L69.7446 53.5566L29.8027 30.4985L29.8218 27.3733Z" fill="black" fill-opacity="0.1"/>
<path d="M56.4163 27.9451L65.7365 33.416L65.671 41.131L56.3672 35.6764L56.4163 27.9451Z" fill="#E4E4E4"/>
<path d="M30.6797 7.84058L38.6071 12.3188V15.0629L30.6606 10.5847L30.6797 7.84058Z" fill="#E1E1E1"/>
<path d="M53.0967 72.6767L56.3614 74.8437L56.7842 73.9838L53.6394 71.7375L53.0967 72.6767Z" fill="#545453"/>
<path d="M56.4144 74.4291C56.38 74.4879 56.3237 74.5308 56.2579 74.5483C56.192 74.5658 56.1218 74.5566 56.0627 74.5226L53.5217 73.0264C53.4875 73.013 53.4566 72.9925 53.4311 72.9661C53.4055 72.9397 53.3859 72.9082 53.3736 72.8736C53.3614 72.839 53.3567 72.8021 53.3599 72.7655C53.3631 72.729 53.3741 72.6935 53.3922 72.6616C53.4103 72.6296 53.4351 72.602 53.4648 72.5804C53.4945 72.5589 53.5286 72.544 53.5646 72.5368C53.6006 72.5295 53.6377 72.5301 53.6734 72.5385C53.7092 72.5469 53.7427 72.5628 53.7718 72.5853L56.3128 74.0814C56.3723 74.1141 56.4165 74.169 56.4356 74.2342C56.4546 74.2994 56.447 74.3695 56.4144 74.4291Z" fill="#3D3D3D"/>
<path d="M36.0431 79.3991L49.4882 71.585L58.2029 76.6162L58.1968 78.1611L49.4842 73.1319L36.0391 80.9441L36.0431 79.3991Z" fill="#555555"/>
<path d="M44.7578 84.4304L44.7517 85.9754L36.0391 80.9441L36.0431 79.3992L44.7578 84.4304Z" fill="#C1C1C1"/>
<path d="M58.2031 76.6165L58.1971 78.1614L44.752 85.9756L44.7581 84.4306L58.2031 76.6165Z" fill="#808080"/>
<path d="M58.2033 76.9336L44.7582 84.7457L36.0435 79.7145L49.4886 71.9023L58.2033 76.9336Z" fill="#DBDDDD"/>
<path d="M58.2033 76.9336L44.7582 84.7457L36.0435 79.7145L49.4886 71.9023L58.2033 76.9336Z" fill="url(#paint3_linear)"/>
<path d="M32.8335 80.552C32.8461 80.6926 32.8961 80.8273 32.9783 80.942C33.0605 81.0568 33.172 81.1474 33.301 81.2045L41.6519 86.0223C41.9981 86.1989 42.3813 86.2909 42.7699 86.2909C43.1586 86.2909 43.5417 86.1989 43.888 86.0223L60.3091 76.4803C60.4357 76.4234 60.5449 76.3339 60.6256 76.2211C60.7063 76.1082 60.7556 75.976 60.7686 75.8379C60.7686 76.3529 60.7686 76.2145 60.7686 76.7295C60.755 76.8683 60.7048 77.0009 60.623 77.1138C60.5411 77.2267 60.4307 77.3158 60.303 77.3719L43.8819 86.9139C43.5356 87.0903 43.1525 87.1822 42.7638 87.1822C42.3752 87.1822 41.9921 87.0903 41.6458 86.9139L33.299 82.0961C33.1695 82.0382 33.0579 81.9465 32.976 81.8306C32.8941 81.7148 32.8449 81.579 32.8335 81.4375C32.8335 80.9266 32.8335 81.067 32.8335 80.552Z" fill="#A9A9A9"/>
<path d="M40.064 82.6883V82.8164C40.0543 82.9178 40.018 83.0148 39.9588 83.0976C39.8995 83.1805 39.8194 83.2461 39.7265 83.288C39.4709 83.417 39.1886 83.4842 38.9022 83.4842C38.6159 83.4842 38.3336 83.417 38.0779 83.288C37.983 83.2454 37.9012 83.1784 37.8408 83.0937C37.7804 83.009 37.7437 82.9098 37.7344 82.8062V82.6802C37.7435 82.7838 37.7801 82.8831 37.8405 82.9679C37.9009 83.0526 37.9829 83.1196 38.0779 83.162C38.3333 83.2919 38.6157 83.3597 38.9022 83.3597C39.1887 83.3597 39.4712 83.2919 39.7265 83.162C39.8195 83.1203 39.8997 83.0546 39.959 82.9718C40.0183 82.8889 40.0545 82.7918 40.064 82.6903V82.6883Z" fill="#212121"/>
<path d="M60.3003 75.1792L51.9535 70.3655C51.6072 70.1893 51.2241 70.0974 50.8355 70.0974C50.4469 70.0974 50.0638 70.1893 49.7174 70.3655L33.2963 79.9075C32.6864 80.2653 32.6864 80.8447 33.2963 81.2024L41.6512 86.0223C41.9974 86.1988 42.3806 86.2908 42.7692 86.2908C43.1579 86.2908 43.541 86.1988 43.8873 86.0223L60.3084 76.4802C60.9223 76.1224 60.9203 75.5431 60.3003 75.1792ZM53.5168 72.5365C53.5338 72.5073 53.5564 72.4818 53.5833 72.4614C53.6102 72.441 53.6409 72.4261 53.6736 72.4176C53.7062 72.4091 53.7403 72.4072 53.7737 72.4119C53.8072 72.4166 53.8394 72.4278 53.8684 72.445L56.4013 73.9595C56.4601 73.994 56.5027 74.0504 56.5199 74.1164C56.5371 74.1823 56.5273 74.2524 56.4928 74.3112C56.4583 74.3699 56.4019 74.4126 56.3359 74.4297C56.27 74.4469 56.1999 74.4371 56.1411 74.4026L53.6082 72.8902C53.5788 72.8732 53.553 72.8505 53.5324 72.8234C53.5118 72.7964 53.4969 72.7655 53.4883 72.7325C53.4798 72.6996 53.4779 72.6653 53.4828 72.6317C53.4877 72.598 53.4992 72.5657 53.5168 72.5365ZM39.724 83.2658C39.469 83.3954 39.1869 83.4629 38.9007 83.4629C38.6146 83.4629 38.3325 83.3954 38.0775 83.2658C37.6221 83.0015 37.616 82.5746 38.0775 82.3124C38.3328 82.1824 38.6153 82.1147 38.9018 82.1147C39.1883 82.1147 39.4707 82.1824 39.7261 82.3124C40.1733 82.5746 40.1774 83.0015 39.724 83.2658ZM44.7573 84.4306L36.0426 79.3993L49.4877 71.5851L58.2024 76.6164L44.7573 84.4306Z" fill="url(#paint4_linear)"/>
<path d="M55.1358 79.6513C55.1816 79.6179 55.2355 79.5972 55.2919 79.5915C55.3484 79.5858 55.4054 79.5952 55.457 79.6188L55.6196 79.7123L55.2984 79.7448C55.168 79.8294 55.0594 79.9437 54.9817 80.0783C54.904 80.213 54.8592 80.3641 54.8512 80.5194C54.8457 80.5749 54.855 80.6308 54.8782 80.6815C54.9014 80.7323 54.9377 80.7759 54.9833 80.808L54.8207 80.7145C54.7751 80.6824 54.7388 80.6387 54.7156 80.588C54.6924 80.5373 54.683 80.4813 54.6885 80.4258C54.6968 80.2706 54.7416 80.1196 54.8193 79.985C54.897 79.8504 55.0054 79.736 55.1358 79.6513Z" fill="#A0A5A6"/>
<path d="M53.0171 80.8711C53.0628 80.8374 53.1168 80.8167 53.1733 80.8109C53.2298 80.8052 53.2868 80.8148 53.3383 80.8386L53.5009 80.9321L53.1797 80.9646C53.0493 81.0492 52.9408 81.1635 52.863 81.2981C52.7853 81.4328 52.7406 81.5839 52.7325 81.7391C52.727 81.7947 52.7364 81.8506 52.7596 81.9013C52.7828 81.9521 52.8191 81.9957 52.8647 82.0278L52.702 81.9343C52.6564 81.9022 52.6202 81.8585 52.5969 81.8078C52.5737 81.7571 52.5644 81.7011 52.5699 81.6456C52.5779 81.4904 52.6227 81.3393 52.7004 81.2046C52.7782 81.07 52.8867 80.9557 53.0171 80.8711Z" fill="#A0A5A6"/>
<path d="M39.7207 82.2085C40.176 82.4727 40.1801 82.8996 39.7207 83.1619C39.4653 83.2918 39.1829 83.3596 38.8964 83.3596C38.6098 83.3596 38.3274 83.2918 38.072 83.1619C37.6167 82.8976 37.6126 82.4707 38.072 82.2064C38.3275 82.0768 38.6101 82.0094 38.8966 82.0098C39.1831 82.0101 39.4655 82.0782 39.7207 82.2085Z" fill="#686867"/>
<path d="M41.3573 66.0056C41.1205 66.045 19.1893 52.5884 19.1893 52.5884L4.02197 61.714L5.87276 62.8565L19.2209 54.9009L39.3467 67.6985L41.3573 66.0056Z" fill="#3D3D3D"/>
<path d="M4.94629 62.2841L26.5065 74.8153L40.8057 66.5598L19.2455 54.0286L4.94629 62.2841Z" fill="url(#paint5_linear)"/>
<path d="M1.89548 62.7815L25.5729 76.542C25.9191 76.7184 26.3021 76.8104 26.6907 76.8104C27.0792 76.8104 27.4622 76.7184 27.8084 76.542L44.1853 67.0888C44.8049 66.7317 44.8088 66.1516 44.1853 65.7925L20.5217 52.034C20.1751 51.8577 19.7918 51.7659 19.4029 51.7659C19.0141 51.7659 18.6308 51.8577 18.2842 52.034L1.90732 61.4891C1.28973 61.8463 1.28776 62.4204 1.89548 62.7815ZM4.93605 61.9291L19.2451 53.6756L40.8053 66.2049L26.5062 74.4565L4.93605 61.9291Z" fill="url(#paint6_linear)"/>
<path d="M1.89514 62.7814L25.5725 76.5419C25.9187 76.7183 26.3018 76.8102 26.6903 76.8102C27.0789 76.8102 27.4619 76.7183 27.8081 76.5419L44.185 67.0887C44.4967 66.9092 44.6526 66.6724 44.6526 66.4356V67.2071C44.6526 67.4439 44.4967 67.6807 44.185 67.8602L27.8081 77.3134C27.4619 77.4898 27.0789 77.5817 26.6903 77.5817C26.3018 77.5817 25.9187 77.4898 25.5725 77.3134L1.90895 63.5529C1.78253 63.4956 1.67345 63.4059 1.59273 63.293C1.51202 63.1801 1.46251 63.0478 1.44922 62.9097C1.44922 62.225 1.44922 62.8229 1.44922 62.1382C1.4612 62.2749 1.50863 62.4062 1.58683 62.519C1.66503 62.6318 1.7713 62.7222 1.89514 62.7814Z" fill="#A9A9A9"/>
<path d="M34.1011 70.9344V71.0252C34.1079 71.0969 34.1336 71.1655 34.1756 71.224C34.2175 71.2826 34.2742 71.329 34.3398 71.3586C34.5205 71.4505 34.7202 71.4983 34.9229 71.4983C35.1255 71.4983 35.3253 71.4505 35.5059 71.3586C35.5734 71.3287 35.6317 71.2813 35.6747 71.2212C35.7177 71.1612 35.7439 71.0908 35.7506 71.0173V70.9265C35.7441 70.9998 35.7182 71.0701 35.6756 71.1301C35.6329 71.1901 35.575 71.2377 35.5079 71.2679C35.3273 71.3597 35.1275 71.4076 34.9249 71.4076C34.7222 71.4076 34.5224 71.3597 34.3418 71.2679C34.2757 71.2383 34.2188 71.1916 34.1768 71.1326C34.1348 71.0736 34.1094 71.0045 34.103 70.9324L34.1011 70.9344Z" fill="#3D3D3D"/>
<path d="M34.3435 70.5931C34.0199 70.7805 34.018 71.0824 34.3435 71.2679C34.5242 71.3597 34.7239 71.4076 34.9266 71.4076C35.1292 71.4076 35.329 71.3597 35.5096 71.2679C35.8313 71.0824 35.8352 70.7786 35.5096 70.5911C35.3289 70.4996 35.129 70.4521 34.9264 70.4524C34.7237 70.4527 34.524 70.5009 34.3435 70.5931Z" fill="#565656"/>
<path d="M36.9639 71.7947L36.9441 71.4534L35.3735 72.361L35.3854 72.7024L36.9639 71.7947Z" fill="#686867"/>
<path d="M5.63519 65.2655C5.64575 65.2597 5.65763 65.2566 5.66972 65.2566C5.6818 65.2566 5.69369 65.2597 5.70425 65.2655L9.09406 67.2347L9.12563 67.2584C9.16433 67.2978 9.18806 67.3494 9.19272 67.4044C9.19405 67.4164 9.19219 67.4286 9.18735 67.4397C9.1825 67.4508 9.17482 67.4604 9.16509 67.4675L9.02698 67.5465C9.03686 67.5394 9.04465 67.5298 9.04952 67.5187C9.05438 67.5076 9.05614 67.4954 9.0546 67.4833C9.05026 67.4352 9.03094 67.3897 8.99935 67.3531C8.98881 67.3423 8.97686 67.3331 8.96384 67.3255L5.56613 65.3524C5.55563 65.3463 5.54372 65.3431 5.5316 65.3431C5.51948 65.3431 5.50757 65.3463 5.49707 65.3524L5.63519 65.2655Z" fill="#BFC1C1"/>
<path d="M5.56594 65.3525C5.51267 65.3229 5.46729 65.3525 5.46729 65.4097C5.46887 65.4436 5.47845 65.4766 5.49525 65.5061C5.51206 65.5356 5.53561 65.5607 5.56397 65.5794L8.95576 67.5505C9.00903 67.5821 9.05441 67.5505 9.05441 67.4953C9.05245 67.4612 9.0425 67.4281 9.02536 67.3986C9.00822 67.3692 8.98437 67.3441 8.95576 67.3256L5.56594 65.3525Z" fill="#838484"/>
<path d="M10.6641 57.1107C10.4668 57.2271 10.4668 57.4166 10.6641 57.533C10.7772 57.5903 10.9023 57.6202 11.0291 57.6202C11.156 57.6202 11.281 57.5903 11.3942 57.533C11.4383 57.518 11.4766 57.4896 11.5037 57.4517C11.5308 57.4138 11.5454 57.3684 11.5454 57.3218C11.5454 57.2753 11.5308 57.2299 11.5037 57.192C11.4766 57.1541 11.4383 57.1257 11.3942 57.1107C11.2815 57.0519 11.1562 57.0212 11.0291 57.0212C10.902 57.0212 10.7768 57.0519 10.6641 57.1107Z" fill="#3D3D3D"/>
<defs>
<linearGradient id="paint0_linear" x1="50.6032" y1="3.55298" x2="50.6032" y2="57.1582" gradientUnits="userSpaceOnUse">
<stop stop-color="#F7F7F7"/>
<stop offset="1" stop-color="white"/>
</linearGradient>
<linearGradient id="paint1_linear" x1="49.8984" y1="1.38647" x2="49.8984" y2="61.5412" gradientUnits="userSpaceOnUse">
<stop stop-color="#555555"/>
<stop offset="1" stop-color="#949494"/>
</linearGradient>
<linearGradient id="paint2_linear" x1="50.6031" y1="52.7615" x2="40.6115" y2="62.2534" gradientUnits="userSpaceOnUse">
<stop stop-color="#A9A9A9"/>
<stop offset="1" stop-color="#F3F3F3"/>
</linearGradient>
<linearGradient id="paint3_linear" x1="47.1234" y1="71.9023" x2="47.1234" y2="84.7457" gradientUnits="userSpaceOnUse">
<stop stop-color="white"/>
<stop offset="1" stop-color="#D1D1D1"/>
</linearGradient>
<linearGradient id="paint4_linear" x1="46.803" y1="70.0974" x2="46.803" y2="86.2908" gradientUnits="userSpaceOnUse">
<stop stop-color="#AAAAAA"/>
<stop offset="1" stop-color="#F7F7F7"/>
</linearGradient>
<linearGradient id="paint5_linear" x1="22.876" y1="54.0286" x2="22.876" y2="74.8153" gradientUnits="userSpaceOnUse">
<stop stop-color="white"/>
<stop offset="1" stop-color="#D1D1D1"/>
</linearGradient>
<linearGradient id="paint6_linear" x1="23.0467" y1="51.7659" x2="23.0467" y2="76.8104" gradientUnits="userSpaceOnUse">
<stop stop-color="#AAAAAA"/>
<stop offset="1" stop-color="#F7F7F7"/>
</linearGradient>
</defs>
</svg>
