<svg width="75" height="90" viewBox="0 0 75 90" fill="none" xmlns="http://www.w3.org/2000/svg">
<path d="M66.4336 66.3897L52.4985 74.3202L38.6768 17.4471L52.6118 9.40332L66.4336 66.3897Z" fill="url(#paint0_linear)"/>
<path d="M37.3182 0.566406L23.3832 8.61021L38.6777 17.4471L52.6128 9.40326L37.3182 0.566406Z" fill="#CCCCCC"/>
<path d="M37.8187 1L23.7704 9.04381L39.065 17.7674L53 9.83686L37.8187 1Z" fill="white"/>
<path d="M27.4602 14.0483L33.6913 15.861L39.356 48.716L22.8152 40.5589L27.4602 14.0483Z" fill="#BBBBBB"/>
<path d="M21.9104 56.7599L33.353 49.9623L22.5902 45.7705L21.9104 56.7599Z" fill="#BBBBBB"/>
<path d="M26.4405 41.3519L39.356 33.0815L38.1097 50.642L25.081 48.3761L26.4405 41.3519Z" fill="#F1F1F1"/>
<path d="M23.0423 8.27039L37.3172 0L53.065 9.06344L67 66.6163L52.4985 75L39.4698 67.5227L37.3172 57.0997L24.4018 49.6224L22.4758 57.0997L22.0227 57.3263L8.88066 49.7357L23.0423 8.27039ZM40.2628 21.9789L52.7251 73.6405L65.7538 66.0499L52.2719 10.1964L39.2432 17.6737L40.2628 21.9789ZM34.5982 43.5045C33.0121 35.4607 31.8792 30.0227 31.426 27.3036C31.1994 26.0574 30.9728 24.9245 30.8595 23.9048C30.6329 24.6979 30.5196 25.4909 30.293 26.5106C29.7266 29.003 29.1601 31.0423 28.7069 32.5151L27.0075 39.0861L34.5982 43.5045ZM30.293 11.8958L38.6767 16.7674L51.4789 9.40332L37.3172 1.24622L24.4018 8.61027L30.293 11.8958Z" fill="url(#paint1_linear)"/>
<path d="M46.0439 78.9929C46.5374 78.7079 46.5374 78.246 46.0439 77.9611L21.0242 63.5159C20.5307 63.231 19.7306 63.231 19.2371 63.5159C18.7436 63.8009 18.7436 64.2628 19.2371 64.5477L44.2568 78.9929C44.7503 79.2778 45.5504 79.2778 46.0439 78.9929Z" fill="#48CDB7"/>
<path d="M42.4697 81.0567C42.9632 80.7718 42.9632 80.3098 42.4697 80.0249L27.2792 71.2546C26.7857 70.9697 25.9856 70.9697 25.4921 71.2546C24.9986 71.5396 24.9986 72.0015 25.4921 72.2864L40.6826 81.0567C41.1761 81.3416 41.9762 81.3416 42.4697 81.0567Z" fill="#48CDB7"/>
<path d="M38.8975 82.0885C39.391 82.3734 39.391 82.8354 38.8975 83.1203C38.404 83.4052 37.6038 83.4052 37.1103 83.1203L17.452 71.7705C16.9585 71.4856 16.9585 71.0237 17.452 70.7387C17.9455 70.4538 18.7456 70.4538 19.2391 70.7387L38.8975 82.0885Z" fill="#48CDB7"/>
<path d="M35.3232 85.1839C35.8167 84.899 35.8167 84.437 35.3232 84.1521L24.6005 77.9613C24.107 77.6764 23.3069 77.6764 22.8134 77.9613C22.3199 78.2462 22.3199 78.7082 22.8134 78.9931L33.5361 85.1839C34.0296 85.4688 34.8297 85.4688 35.3232 85.1839Z" fill="#48CDB7"/>
<path d="M31.749 86.2157C32.2425 86.5006 32.2425 86.9625 31.749 87.2475C31.2555 87.5324 30.4554 87.5324 29.9619 87.2475L13.8778 77.9613C13.3843 77.6764 13.3843 77.2144 13.8778 76.9295C14.3713 76.6446 15.1714 76.6446 15.6649 76.9295L31.749 86.2157Z" fill="#48CDB7"/>
<defs>
<linearGradient id="paint0_linear" x1="52.5552" y1="9.40332" x2="52.5552" y2="74.3202" gradientUnits="userSpaceOnUse">
<stop stop-color="#B8B8B8"/>
<stop offset="1" stop-color="#F7F7F7"/>
</linearGradient>
<linearGradient id="paint1_linear" x1="23" y1="59" x2="38" y2="16.5" gradientUnits="userSpaceOnUse">
<stop stop-color="#D7D7D7"/>
<stop offset="1" stop-color="#F2F2F2"/>
</linearGradient>
</defs>
</svg>
