<svg width="75" height="90" viewBox="0 0 75 90" fill="none" xmlns="http://www.w3.org/2000/svg">
<g clip-path="url(#clip0)">
<path d="M27.553 52.4807C30.8981 50.5402 35.3875 49.8346 39.7009 50.1874L43.3981 36.7806L39.7009 27.5193L20.7749 29.989C20.7749 29.989 2.72909 46.3065 0.440354 54.774C0.352326 55.1268 0.264298 55.5678 0.17627 55.9206L23.5037 57.3319C23.8558 55.656 25.1763 53.8919 27.553 52.4807Z" fill="#AAAAAA"/>
<path d="M27.553 31.753C30.8981 29.8126 35.3875 29.1069 39.7009 29.4598L43.3981 16.0529C22.8875 14.2007 3.6974 22.3153 0.440354 34.1345C0.352326 34.4873 0.264298 34.9283 0.17627 35.2811L23.5037 36.6924C23.8558 34.9283 25.1763 33.1643 27.553 31.753Z" fill="#F1F1F1"/>
<path d="M51.585 58.4785V58.3021C51.585 56.1852 50.2646 54.1566 47.4477 52.5689C45.247 51.3341 42.5181 50.5403 39.7012 50.2756L43.3984 36.8688C46.3033 37.1334 49.0322 37.5744 51.585 38.1918C65.8455 41.4554 75.3526 49.3936 75.0005 58.6549L51.585 58.4785Z" fill="#9D8FE9"/>
<path d="M47.4477 15.6119C50.2646 17.2878 51.673 19.4046 51.585 21.5215L75.0005 21.7861C75.3526 10.849 62.0603 1.67585 43.3984 0L39.7012 13.4068C42.6061 13.6714 45.2469 14.3771 47.4477 15.6119Z" fill="#48CDB7"/>
<path d="M23.5037 46.8357V36.6924L0.17627 35.2812V45.4245L23.5037 46.8357Z" fill="#CCCCCC"/>
<path d="M43.3979 16.1411V36.8688L39.7007 50.2756V29.4597L43.3979 16.1411Z" fill="#0584C4"/>
<path d="M51.585 21.5056V58.4785L75.0004 58.6549V21.7861L51.585 21.5056Z" fill="#33BCA6"/>
<path d="M51.5845 21.6097V58.3021C51.5845 56.1852 50.2641 54.1566 47.4472 52.5689C45.2465 51.3341 42.5176 50.5402 39.7007 50.2756V13.4068C46.1267 13.936 51.6725 17.1996 51.5845 21.6097Z" fill="#87DED0"/>
<path d="M51.5845 68.5336V43.6604H23.4155V68.6218C23.4155 70.7387 24.824 72.7673 27.5529 74.355C33.0106 77.5303 41.9895 77.5303 47.4472 74.355C50.2641 72.7673 51.6726 70.6505 51.5845 68.5336Z" fill="#BFBFBF"/>
<path d="M27.5528 49.4818C22.095 46.3065 22.095 41.1025 27.5528 37.9272C33.0105 34.7519 41.9894 34.7519 47.4472 37.9272C52.9049 41.1025 52.9049 46.3065 47.4472 49.4818C41.9894 52.6571 33.0986 52.6571 27.5528 49.4818Z" fill="#F1F1F1"/>
<path d="M51.5846 29.548C51.4966 31.5766 50.1761 33.6053 47.4473 35.1048L64.0846 44.7189C71.3029 40.5733 74.824 35.7222 75.0001 29.8126L51.5846 29.548Z" fill="#F1F1F1"/>
<path d="M64.0846 44.7085V73.6494L47.4473 64.0353V35.0986L64.0846 44.7085Z" fill="#CCCCCC"/>
<path d="M75.0005 29.8126V58.6542L75.0891 58.6549C74.913 64.6526 71.304 69.4155 64.0859 73.6492L64.0833 73.6503C59.5947 76.2074 54.4903 77.971 48.506 79.0294L48.5049 79.0298C48.5046 79.0298 48.5052 79.0297 48.5049 79.0298L41.6377 66.0639C43.7504 65.7111 45.775 65.0055 47.4476 64.0353C47.8268 63.8269 48.1796 63.6083 48.5049 63.3808V60.1544L51.5174 59.1141C51.5537 58.9026 51.5764 58.6906 51.5856 58.4785L53.3203 58.4915L64.085 54.7743V44.807L75.0005 29.8126Z" fill="url(#paint0_linear)"/>
<path d="M41.6372 47.1885L48.5034 60.1544C54.4893 59.0959 59.595 57.3319 64.0844 54.774L47.4471 45.1599C45.7745 46.1301 43.7499 46.7475 41.6372 47.1885Z" fill="#F1F1F1"/>
<path d="M41.6372 47.1885V55.4796L48.5034 68.4454V60.1544L41.6372 47.1885Z" fill="#CCCCCC"/>
<path d="M27.5528 64.0353C24.4718 62.2712 23.0634 59.8016 23.5035 57.4201L0 47.806C0 47.806 0 57.6847 0 58.3903C0.0880282 69.3275 14.3486 78.677 33.6268 79.9118C38.9085 80.2646 43.3979 80 48.5035 79.118V68.5336C43.662 69.3275 31.338 66.2404 27.5528 64.0353Z" fill="#CCCCCC"/>
<path d="M27.5529 53.451C24.4719 51.6869 23.0635 49.2172 23.5036 46.8357L0.176172 45.4245C-2.02453 57.3319 12.9403 68.0044 33.5388 69.2393C38.8205 69.5921 43.31 69.3275 48.4156 68.4454L41.5494 55.4796C36.7959 56.3617 31.3381 55.656 27.5529 53.451Z" fill="#F1F1F1"/>
</g>
<defs>
<linearGradient id="paint0_linear" x1="75.001" y1="54" x2="48.001" y2="77" gradientUnits="userSpaceOnUse">
<stop stop-color="#AAAAAA"/>
<stop offset="1" stop-color="#CCCCCC"/>
</linearGradient>
<clipPath id="clip0">
<rect width="75" height="80" fill="white"/>
</clipPath>
</defs>
</svg>
