<svg width="75" height="90" viewBox="0 0 75 90" fill="none" xmlns="http://www.w3.org/2000/svg">
<g clip-path="url(#clip0)">
<path d="M14.5865 22.2061C12.9537 23.2946 10.7766 24.0566 8.92611 24.492C8.16414 24.7097 7.40217 24.8186 6.64019 24.9274C6.42249 23.8389 6.31363 22.8592 6.20478 21.8795C2.72147 21.8795 3.37459 16.9811 3.37459 16.9811L12.1917 12.1916C12.4094 12.0827 12.6271 11.865 12.9537 11.7561C14.913 10.8853 17.3078 10.9942 20.138 12.3004C21.5531 14.9129 16.9813 20.5733 14.5865 22.2061Z" fill="url(#paint0_linear)"/>
<path d="M61.2845 66.7271L31.4586 49.5283C33.9623 47.1335 36.4659 44.6299 39.0784 42.2351C42.4528 39.1872 45.9361 36.2482 49.0929 32.8737C51.27 30.5878 56.1684 26.6691 58.2366 24.2743C61.3933 27.9753 63.5704 33.0914 63.5704 37.4456C63.5704 38.4252 63.4615 39.2961 63.2438 40.058C63.5704 40.1669 63.897 40.3846 64.2235 40.6023C70.2105 43.9768 75 52.3585 75 59.1074C75 62.4818 73.8026 64.8766 71.9521 65.9651H71.8433L62.5907 70.9724L61.1756 66.836H62.0464C61.8287 66.9448 61.5022 66.836 61.2845 66.7271Z" fill="url(#paint1_linear)"/>
<path d="M30.3698 48.8752L29.9343 48.6574C31.2406 47.5689 32.6557 46.4804 33.9619 45.3918C32.7645 46.4804 31.5671 47.6778 30.3698 48.8752Z" fill="#52A5EA"/>
<path d="M9.9057 25.5805C12.0828 24.9274 14.5864 24.0566 16.3281 22.4238C18.2874 20.5733 19.3759 17.1988 18.8317 14.4775C19.0494 14.5863 19.2671 14.6952 19.3759 14.9129C19.4848 13.9332 19.5937 13.0624 19.8114 12.3004C18.2874 11.7562 17.3077 10.7765 17.3077 10.7765L26.4514 5.76922C26.4514 5.76922 26.5603 5.76922 26.5603 5.66036C29.1728 4.24527 32.7649 4.46298 36.6836 6.7489C41.1466 9.36138 45.1742 13.9332 47.7867 19.1582C49.4195 18.7228 51.4877 19.0493 53.7736 20.3556C55.0799 21.1175 56.3861 22.2061 57.5835 23.4035C55.2976 26.0159 50.2903 30.1524 47.7867 32.656C47.3513 33.0914 46.807 33.6357 46.3716 34.0711C46.2627 34.0711 46.1539 34.0711 46.045 34.18C40.3847 38.7518 34.7243 43.4325 28.955 47.8955L19.4848 42.4528V42.344C19.1582 42.1263 18.8317 42.0174 18.3963 41.7997C12.9536 38.8607 8.59946 32.4383 6.85781 26.1248C7.83749 26.0159 8.92602 25.7982 9.9057 25.5805Z" fill="url(#paint2_linear)"/>
<path d="M53.6647 20.3556C59.1073 23.5123 63.5703 31.2409 63.5703 37.4456C63.5703 38.4252 63.4615 39.2961 63.2438 40.058L54.1001 45.0653C30.6966 48.5486 38.534 24.1655 38.534 24.1655L47.6777 19.1582C49.3105 18.7228 51.3787 19.0493 53.6647 20.3556Z" fill="url(#paint3_linear)"/>
<path d="M0.000160217 24.6009C0.000160217 32.2206 5.44284 41.582 12.0829 45.3919C12.3006 45.5007 12.5183 45.6096 12.8449 45.7184C12.9537 45.8273 13.0626 45.8273 13.1714 45.9361L24.0568 52.2496L25.5807 53.1205L28.6286 54.8621L35.2687 58.7808L48.3311 66.2917L49.855 67.1625L55.1888 70.2104C55.842 70.537 56.3862 70.8636 57.0394 71.0813C62.1555 73.0406 65.9653 70.2104 65.9653 64.1147C65.9653 57.2569 61.1758 48.984 55.1888 45.5007C54.8623 45.283 54.5357 45.1742 54.2092 45.0653C54.4269 44.3033 54.5357 43.4325 54.5357 42.4528C54.5357 36.6836 50.8347 29.717 45.9363 26.2337C45.5009 25.9071 45.0655 25.5805 44.6301 25.3628C43.215 24.492 41.7999 24.0566 40.6025 24.0566C40.0582 24.0566 39.514 24.0566 39.0785 24.1655C38.9697 24.1655 38.752 24.2743 38.6431 24.2743C36.0306 19.0493 32.0031 14.4775 27.5401 11.865C26.0161 10.9942 24.601 10.4499 23.2948 10.1234C21.2266 9.68795 19.2672 9.7968 17.7433 10.6676C15.2396 11.865 13.6068 14.5864 13.2803 18.5051C12.9537 18.2874 12.5183 18.0697 12.1917 17.852C9.79697 16.4369 7.51105 16.0014 5.55169 16.328C2.17723 16.6546 0.000160217 19.7025 0.000160217 24.6009Z" fill="#F1F1F1"/>
<path d="M1.41529 24.6008C1.41529 28.0842 2.61267 32.0029 4.78975 35.7039C6.85796 39.1872 9.47044 42.1262 12.3006 43.8679C12.5183 43.9768 12.6272 44.0856 12.8449 44.1945C13.0626 44.3033 13.2803 44.4122 13.498 44.521C13.6069 44.521 13.6069 44.6299 13.7157 44.6299L14.5866 45.0653V45.1741L28.1932 53.0116L34.7244 56.8215L55.842 69.013C56.0597 69.1219 56.2774 69.2307 56.4951 69.3396C56.8217 69.4485 57.1482 69.6662 57.4748 69.775C58.3456 70.1016 59.2164 70.3193 59.9784 70.3193C62.8086 70.3193 64.4414 68.0334 64.4414 64.1146C64.4414 63.135 64.3326 61.9376 64.1148 60.849C63.7883 58.9985 63.0263 57.148 62.0466 55.2975C61.8289 54.9709 61.7201 54.6444 61.5024 54.3178C59.543 51.0522 57.0394 48.3309 54.4269 46.8069C54.1003 46.6981 53.8826 46.4804 53.5561 46.3715L52.4675 45.8273L52.7941 44.6299C53.0118 43.9768 53.0118 43.2148 53.0118 42.344C53.0118 39.4049 51.9233 36.0305 50.1816 33.0914C49.2019 31.3498 47.8957 29.717 46.4806 28.4107C46.0452 27.9753 45.5009 27.5399 45.0655 27.2133C44.6301 26.8868 44.3035 26.6691 43.8681 26.4514C42.5619 25.6894 41.2556 25.254 40.1671 25.254C39.7317 25.254 39.4051 25.254 39.0786 25.3628L37.8812 25.6894L37.3369 24.6008C34.7244 19.4847 30.9146 15.1306 26.7781 12.8447C25.6896 12.1916 24.6011 11.7561 23.6214 11.4296C23.4037 11.3207 23.186 11.3207 22.9683 11.2119C22.3151 11.103 21.662 10.9942 21.1178 10.9942C20.1381 10.9942 19.1584 11.2119 18.3964 11.5384C18.2876 11.5384 18.1787 11.6473 18.0699 11.6473C16.8725 12.3004 15.8928 13.4978 15.3485 15.1306C15.022 16.0014 14.8043 17.09 14.6954 18.1785L14.4777 20.6821L13.6069 20.029L12.4095 19.267C12.0829 19.0493 11.7564 18.8316 11.4298 18.6139C11.1032 18.3962 10.6678 18.1785 10.3413 18.0696C9.14388 17.5254 7.83764 17.1988 6.7491 17.1988C6.42254 17.1988 6.20484 17.1988 5.87828 17.3077H5.76942C3.04809 18.0696 1.41529 20.5733 1.41529 24.6008Z" fill="url(#paint4_linear)"/>
<path d="M18.9405 11.7562C18.8317 11.7562 18.7228 11.865 18.6139 11.865C16.6546 12.9535 15.4572 15.2395 15.2395 18.3962L15.0218 20.4644L14.3687 20.8998L14.5864 18.5051C14.9129 15.3483 16.1103 13.0624 17.9608 11.9739C18.0697 11.865 18.1785 11.865 18.2874 11.865C19.0494 11.5384 19.9202 11.3207 20.791 11.3207C20.1379 11.3207 19.4848 11.4296 18.9405 11.7562Z" fill="#AACDEC"/>
<path d="M39.6227 25.4717L38.4253 25.7982L38.3164 25.6894L38.8607 25.4717C39.1872 25.3628 39.6227 25.3628 39.9492 25.3628C39.9492 25.4717 39.7315 25.4717 39.6227 25.4717Z" fill="#428BD0"/>
<path d="M55.08 47.1335C54.7534 46.9158 54.4268 46.807 54.1003 46.6981C54.2091 46.2627 54.318 45.7184 54.318 45.1742C54.5357 45.283 54.7534 45.3919 54.9711 45.5007C61.0669 48.984 65.8564 57.2569 65.8564 64.1147C65.8564 64.4412 65.8564 64.6589 65.8564 64.8766C65.5299 58.2366 60.8492 50.3991 55.08 47.1335Z" fill="#F1F1F1"/>
<path d="M45.8273 27.7576C45.3919 27.4311 44.9565 27.1045 44.5211 26.8868C42.2352 25.5806 40.2758 25.254 38.5342 25.6894C35.9217 20.4644 31.8941 15.8926 27.4311 13.2801C25.9072 12.4093 24.4921 11.865 23.1858 11.5385C21.1176 11.103 19.1582 11.2119 17.6343 12.0827C15.1307 13.2801 13.4979 16.0015 13.1713 19.9202C12.8448 19.7025 12.4093 19.4848 12.0828 19.2671C9.688 17.852 7.40208 17.4165 5.44272 17.7431C2.28597 18.2874 0.217758 21.0087 5.34058e-05 25.3628C5.34058e-05 25.0363 5.34058e-05 24.8186 5.34058e-05 24.492C5.34058e-05 19.5936 2.17712 16.6546 5.44272 16.0015C7.29323 15.6749 9.57915 16.1103 12.0828 17.5254C12.4093 17.7431 12.8448 17.9608 13.1713 18.1785C13.4979 14.2598 15.1307 11.5385 17.6343 10.3411C19.1582 9.5791 21.1176 9.36139 23.1858 9.79681C24.4921 10.1234 26.016 10.6676 27.4311 11.5385C31.8941 14.1509 35.9217 18.7228 38.5342 23.9478C40.167 23.5123 42.2352 23.8389 44.5211 25.1451C44.9565 25.3628 45.3919 25.6894 45.8273 26.016C50.7257 29.6081 54.4268 36.4659 54.4268 42.2351C54.4268 42.5617 54.4268 42.7794 54.4268 42.9971C54.1002 37.6633 50.508 31.1321 45.8273 27.7576Z" fill="#F1F1F1"/>
<path d="M43.2149 42.344L48.2222 50.0726V66.2917L49.855 67.1625V49.6371L44.5212 41.582L43.2149 42.344Z" fill="black" fill-opacity="0.05"/>
<path d="M19.0494 28.6285L24.0566 36.3571V52.3585L25.5806 53.2293V35.9216L20.3556 27.7576L19.0494 28.6285Z" fill="black" fill-opacity="0.05"/>
<path d="M33.962 33.2003L35.9214 36.1393C36.3568 36.9013 37.1187 37.3367 37.9896 37.3367C38.2073 37.3367 38.5338 37.3367 38.7515 37.2279C39.8401 36.9013 40.6021 35.9216 40.6021 34.8331V23.9478C40.0578 23.9478 39.5135 23.9478 39.0781 24.0566V34.8331C39.0781 35.3774 38.7515 35.7039 38.425 35.8128C38.0984 35.9216 37.663 35.8128 37.3365 35.3774L35.3771 32.4383L33.962 33.2003Z" fill="black" fill-opacity="0.05"/>
<path d="M35.2685 51.1611V78.5921C35.2685 79.5718 35.8127 80.4427 36.5747 80.8781C37.0101 81.0958 37.4455 81.2046 37.881 81.2046C38.3164 81.2046 38.7518 81.0958 39.1872 80.8781L46.4804 76.6328C49.2017 75 50.9434 72.0609 50.9434 68.9042V67.9245L50.8345 67.8157L49.4194 66.9448V68.7953C49.4194 71.4078 48.0043 73.9114 45.7184 75.2177L38.4252 79.463C38.0987 79.6807 37.6632 79.6807 37.3367 79.463C37.0101 79.2453 36.7924 78.9187 36.7924 78.4833V51.1611C36.7924 48.5486 38.2075 46.045 40.4934 44.7387L44.3033 42.5617L44.521 41.582L43.5413 41.2554L39.7315 43.4325C37.0101 44.9564 35.2685 47.8955 35.2685 51.1611Z" fill="#48CDB7"/>
<path d="M11.1029 37.4456V64.4412C11.1029 65.4209 11.6472 66.2917 12.4092 66.7271C12.8446 66.9449 13.28 67.0537 13.7154 67.0537C14.1508 67.0537 14.5863 66.9449 15.0217 66.7271L22.3148 62.4819C25.0362 60.8491 26.7778 57.91 26.7778 54.7533V53.8824L26.3424 53.6647L25.145 53.0116V54.7533C25.145 57.3658 23.7299 59.8694 21.444 61.1756L14.1508 65.4209C13.8243 65.6386 13.3889 65.6386 13.0623 65.4209C12.7357 65.2032 12.518 64.8766 12.518 64.4412V37.4456C12.518 34.8331 13.9331 32.3295 16.2191 31.0232L20.0289 28.8462L20.2466 27.7576L19.2669 27.5399L15.4571 29.717C12.7357 31.3498 11.1029 34.2888 11.1029 37.4456Z" fill="#555555"/>
<path d="M29.2819 13.8244V32.1118C29.2819 33.0914 29.7173 33.9623 30.5881 34.3977C31.0235 34.6154 31.4589 34.7242 31.8943 34.7242C32.3298 34.7242 32.7652 34.6154 33.2006 34.3977L34.9422 33.418L35.1599 32.3295L34.1803 32.1118L32.4386 33.0914C32.1121 33.3091 31.6766 33.3091 31.3501 33.0914C31.0235 32.8737 30.8058 32.5472 30.8058 32.1118V13.8244C30.8058 12.1916 31.3501 10.6676 32.2209 9.47025C32.7652 8.70827 33.5271 8.05515 34.398 7.51088L44.0859 1.74165C44.4125 1.52395 44.8479 1.52395 45.1745 1.74165C45.501 1.95936 45.7187 2.28592 45.7187 2.72133V16.1103C46.263 16.9811 46.8073 17.852 47.2427 18.7228V2.61248C47.2427 1.6328 46.6984 0.761974 45.9364 0.32656C45.0656 -0.108853 44.0859 -0.108853 43.2151 0.32656L33.636 6.20464C32.3298 6.96662 31.3501 8.05515 30.5881 9.25254C29.8261 10.5588 29.2819 12.1916 29.2819 13.8244Z" fill="#555555"/>
<path d="M46.9158 77.8302C45.5007 78.701 43.6502 77.6125 43.6502 75.9797C43.6502 75.2177 44.0856 74.5646 44.7388 74.1292C46.1539 73.2583 47.8955 74.3469 47.8955 75.9797C47.8955 76.7416 47.5689 77.5036 46.9158 77.8302Z" fill="#48CDB7"/>
<path d="M37.1189 54.7533C35.7038 55.6241 33.8533 54.5356 33.8533 52.9028C33.8533 52.1408 34.2887 51.4877 34.9418 51.0522C36.3569 50.1814 38.0986 51.27 38.0986 52.9028C38.2074 53.6647 37.772 54.3178 37.1189 54.7533Z" fill="#48CDB7"/>
<path d="M15.6747 32.8737C14.2596 33.7445 12.4091 32.656 12.4091 31.0232C12.4091 30.2612 12.8445 29.6081 13.4976 29.1727C14.9127 28.3019 16.6544 29.3904 16.6544 31.0232C16.7632 31.7852 16.4367 32.4383 15.6747 32.8737Z" fill="#555555"/>
<path d="M31.4588 16.0015C30.0437 16.8723 28.1932 15.7837 28.1932 14.1509C28.1932 13.389 28.6286 12.7358 29.2818 12.3004C30.8057 11.5385 32.5474 12.5181 32.5474 14.1509C32.5474 14.9129 32.1119 15.6749 31.4588 16.0015Z" fill="#555555"/>
<path d="M47.678 13.7155C46.2629 14.5864 44.4124 13.4978 44.4124 11.865C44.4124 11.1031 44.8478 10.4499 45.5009 10.0145C46.916 9.1437 48.6576 10.2322 48.6576 11.865C48.7665 12.627 48.3311 13.389 47.678 13.7155Z" fill="#555555"/>
</g>
<defs>
<linearGradient id="paint0_linear" x1="15.1867" y1="21.8741" x2="10.0857" y2="13.0389" gradientUnits="userSpaceOnUse">
<stop stop-color="#A7A7A7"/>
<stop offset="0.6647" stop-color="#CFCFCF"/>
</linearGradient>
<linearGradient id="paint1_linear" x1="64.4097" y1="70.3575" x2="44.8794" y2="38.2758" gradientUnits="userSpaceOnUse">
<stop stop-color="#A7A7A7"/>
<stop offset="1" stop-color="#F5F5F5"/>
</linearGradient>
<linearGradient id="paint2_linear" x1="35.1606" y1="30.8714" x2="21.9586" y2="8.02074" gradientUnits="userSpaceOnUse">
<stop stop-color="#A7A7A7"/>
<stop offset="1" stop-color="#F5F5F5"/>
</linearGradient>
<linearGradient id="paint3_linear" x1="55.8741" y1="44.3485" x2="42.8034" y2="21.7095" gradientUnits="userSpaceOnUse">
<stop stop-color="#A7A7A7"/>
<stop offset="1" stop-color="#F5F5F5"/>
</linearGradient>
<linearGradient id="paint4_linear" x1="32.9283" y1="10.9942" x2="32.9283" y2="70.3193" gradientUnits="userSpaceOnUse">
<stop stop-color="#BFBFBF"/>
<stop offset="1" stop-color="#EDEDED"/>
</linearGradient>
<clipPath id="clip0">
<rect width="75" height="81.2046" transform="matrix(-1 0 0 1 75 0)" fill="white"/>
</clipPath>
</defs>
</svg>
