<svg width="75" height="90" viewBox="0 0 75 90" fill="none" xmlns="http://www.w3.org/2000/svg">
<path d="M14.5865 29.4329C12.9537 30.5214 10.7766 31.2834 8.92611 31.7188C8.16414 31.9365 7.40217 32.0454 6.64019 32.1542C6.42249 31.0657 6.31363 30.086 6.20478 29.1063C2.72147 29.1063 3.37459 24.2079 3.37459 24.2079L12.1917 19.4184C12.4094 19.3095 12.6271 19.0918 12.9537 18.983C14.913 18.1121 17.3078 18.221 20.138 19.5272C21.5531 22.1397 16.9813 27.8001 14.5865 29.4329Z" fill="url(#paint0_linear)"/>
<path d="M61.2845 73.9539L31.4586 56.7551C33.9623 54.3603 36.4659 51.8567 39.0784 49.4619C42.4528 46.414 45.9361 43.475 49.0929 40.1005C51.27 37.8146 56.1684 33.8959 58.2366 31.5011C61.3933 35.2021 63.5704 40.3182 63.5704 44.6724C63.5704 45.652 63.4615 46.5229 63.2438 47.2848C63.5704 47.3937 63.897 47.6114 64.2235 47.8291C70.2105 51.2036 75 59.5853 75 66.3342C75 69.7086 73.8026 72.1034 71.9521 73.192H71.8433L62.5907 78.1992L61.1756 74.0628H62.0464C61.8287 74.1716 61.5022 74.0628 61.2845 73.9539Z" fill="url(#paint1_linear)"/>
<path d="M30.3698 56.102L29.9343 55.8843C31.2406 54.7957 32.6557 53.7072 33.9619 52.6187C32.7645 53.7072 31.5671 54.9046 30.3698 56.102Z" fill="#52A5EA"/>
<path d="M9.9057 32.8073C12.0828 32.1542 14.5864 31.2834 16.3281 29.6506C18.2874 27.8001 19.3759 24.4256 18.8317 21.7043C19.0494 21.8131 19.2671 21.922 19.3759 22.1397C19.4848 21.16 19.5937 20.2892 19.8114 19.5272C18.2874 18.9829 17.3077 18.0032 17.3077 18.0032L26.4514 12.996C26.4514 12.996 26.5603 12.996 26.5603 12.8871C29.1728 11.472 32.7649 11.6898 36.6836 13.9757C41.1466 16.5882 45.1742 21.16 47.7867 26.385C49.4195 25.9495 51.4877 26.2761 53.7736 27.5823C55.0799 28.3443 56.3861 29.4329 57.5835 30.6302C55.2976 33.2427 50.2903 37.3792 47.7867 39.8828C47.3513 40.3182 46.807 40.8625 46.3716 41.2979C46.2627 41.2979 46.1539 41.2979 46.045 41.4067C40.3847 45.9786 34.7243 50.6593 28.955 55.1223L19.4848 49.6796V49.5707C19.1582 49.353 18.8317 49.2442 18.3963 49.0265C12.9536 46.0874 8.59946 39.6651 6.85781 33.3516C7.83749 33.2427 8.92602 33.025 9.9057 32.8073Z" fill="url(#paint2_linear)"/>
<path d="M53.6647 27.5823C59.1073 30.7391 63.5703 38.4677 63.5703 44.6723C63.5703 45.652 63.4615 46.5228 63.2438 47.2848L54.1001 52.2921C30.6966 55.7754 38.534 31.3922 38.534 31.3922L47.6777 26.3849C49.3105 25.9495 51.3787 26.2761 53.6647 27.5823Z" fill="url(#paint3_linear)"/>
<path d="M0.000160217 31.8276C0.000160217 39.4474 5.44284 48.8088 12.0829 52.6186C12.3006 52.7275 12.5183 52.8363 12.8449 52.9452C12.9537 53.0541 13.0626 53.0541 13.1714 53.1629L24.0568 59.4764L25.5807 60.3472L28.6286 62.0889L35.2687 66.0076L48.3311 73.5185L49.855 74.3893L55.1888 77.4372C55.842 77.7638 56.3862 78.0903 57.0394 78.308C62.1555 80.2674 65.9653 77.4372 65.9653 71.3414C65.9653 64.4837 61.1758 56.2108 55.1888 52.7275C54.8623 52.5098 54.5357 52.4009 54.2092 52.2921C54.4269 51.5301 54.5357 50.6593 54.5357 49.6796C54.5357 43.9104 50.8347 36.9438 45.9363 33.4604C45.5009 33.1339 45.0655 32.8073 44.6301 32.5896C43.215 31.7188 41.7999 31.2834 40.6025 31.2834C40.0582 31.2834 39.514 31.2834 39.0785 31.3922C38.9697 31.3922 38.752 31.5011 38.6431 31.5011C36.0306 26.2761 32.0031 21.7043 27.5401 19.0918C26.0161 18.221 24.601 17.6767 23.2948 17.3501C21.2266 16.9147 19.2672 17.0236 17.7433 17.8944C15.2396 19.0918 13.6068 21.8131 13.2803 25.7319C12.9537 25.5141 12.5183 25.2964 12.1917 25.0787C9.79697 23.6636 7.51105 23.2282 5.55169 23.5548C2.17723 23.8813 0.000160217 26.9292 0.000160217 31.8276Z" fill="#F1F1F1"/>
<path d="M1.41529 31.8276C1.41529 35.3109 2.61267 39.2297 4.78975 42.9307C6.85796 46.414 9.47044 49.353 12.3006 51.0947C12.5183 51.2035 12.6272 51.3124 12.8449 51.4212C13.0626 51.5301 13.2803 51.6389 13.498 51.7478C13.6069 51.7478 13.6069 51.8567 13.7157 51.8567L14.5866 52.2921V52.4009L28.1932 60.2384L34.7244 64.0482L55.842 76.2398C56.0597 76.3487 56.2774 76.4575 56.4951 76.5664C56.8217 76.6752 57.1482 76.8929 57.4748 77.0018C58.3456 77.3284 59.2164 77.5461 59.9784 77.5461C62.8086 77.5461 64.4414 75.2601 64.4414 71.3414C64.4414 70.3617 64.3326 69.1643 64.1148 68.0758C63.7883 66.2253 63.0263 64.3748 62.0466 62.5243C61.8289 62.1977 61.7201 61.8712 61.5024 61.5446C59.543 58.279 57.0394 55.5577 54.4269 54.0337C54.1003 53.9249 53.8826 53.7072 53.5561 53.5983L52.4675 53.054L52.7941 51.8567C53.0118 51.2035 53.0118 50.4416 53.0118 49.5707C53.0118 46.6317 51.9233 43.2572 50.1816 40.3182C49.2019 38.5765 47.8957 36.9437 46.4806 35.6375C46.0452 35.2021 45.5009 34.7667 45.0655 34.4401C44.6301 34.1135 44.3035 33.8958 43.8681 33.6781C42.5619 32.9162 41.2556 32.4807 40.1671 32.4807C39.7317 32.4807 39.4051 32.4807 39.0786 32.5896L37.8812 32.9162L37.3369 31.8276C34.7244 26.7115 30.9146 22.3574 26.7781 20.0715C25.6896 19.4183 24.6011 18.9829 23.6214 18.6564C23.4037 18.5475 23.186 18.5475 22.9683 18.4387C22.3151 18.3298 21.662 18.2209 21.1178 18.2209C20.1381 18.2209 19.1584 18.4387 18.3964 18.7652C18.2876 18.7652 18.1787 18.8741 18.0699 18.8741C16.8725 19.5272 15.8928 20.7246 15.3485 22.3574C15.022 23.2282 14.8043 24.3167 14.6954 25.4053L14.4777 27.9089L13.6069 27.2558L12.4095 26.4938C12.0829 26.2761 11.7564 26.0584 11.4298 25.8407C11.1032 25.623 10.6678 25.4053 10.3413 25.2964C9.14388 24.7522 7.83764 24.4256 6.7491 24.4256C6.42254 24.4256 6.20484 24.4256 5.87828 24.5344H5.76942C3.04809 25.2964 1.41529 27.8 1.41529 31.8276Z" fill="url(#paint4_linear)"/>
<path d="M39.6227 32.6985L38.4253 33.025L38.3164 32.9162L38.8607 32.6985C39.1872 32.5896 39.6227 32.5896 39.9492 32.5896C39.9492 32.6985 39.7315 32.6985 39.6227 32.6985Z" fill="#428BD0"/>
<path d="M55.08 54.3602C54.7534 54.1425 54.4268 54.0337 54.1003 53.9248C54.2091 53.4894 54.318 52.9451 54.318 52.4009C54.5357 52.5097 54.7534 52.6186 54.9711 52.7274C61.0669 56.2107 65.8564 64.4836 65.8564 71.3414C65.8564 71.6679 65.8564 71.8856 65.8564 72.1033C65.5299 65.4633 60.8492 57.6258 55.08 54.3602Z" fill="#F1F1F1"/>
<path d="M45.8273 34.9844C45.3919 34.6578 44.9565 34.3312 44.5211 34.1135C42.2352 32.8073 40.2758 32.4807 38.5342 32.9162C35.9217 27.6912 31.8941 23.1193 27.4311 20.5069C25.9072 19.636 24.4921 19.0918 23.1858 18.7652C21.1176 18.3298 19.1582 18.4386 17.6343 19.3095C15.1307 20.5069 13.4979 23.2282 13.1713 27.1469C12.8448 26.9292 12.4093 26.7115 12.0828 26.4938C9.688 25.0787 7.40208 24.6433 5.44272 24.9699C2.28597 25.5141 0.217758 28.2355 5.34058e-05 32.5896C5.34058e-05 32.263 5.34058e-05 32.0453 5.34058e-05 31.7188C5.34058e-05 26.8204 2.17712 23.8813 5.44272 23.2282C7.29323 22.9016 9.57915 23.3371 12.0828 24.7521C12.4093 24.9699 12.8448 25.1876 13.1713 25.4053C13.4979 21.4865 15.1307 18.7652 17.6343 17.5678C19.1582 16.8058 21.1176 16.5881 23.1858 17.0236C24.4921 17.3501 26.016 17.8944 27.4311 18.7652C31.8941 21.3777 35.9217 25.9495 38.5342 31.1745C40.167 30.7391 42.2352 31.0656 44.5211 32.3719C44.9565 32.5896 45.3919 32.9161 45.8273 33.2427C50.7257 36.8349 54.4268 43.6926 54.4268 49.4619C54.4268 49.7884 54.4268 50.0061 54.4268 50.2238C54.1002 44.89 50.508 38.3588 45.8273 34.9844Z" fill="#F1F1F1"/>
<path fill-rule="evenodd" clip-rule="evenodd" d="M30.6099 32.0949C30.6099 31.8078 30.7535 31.6642 30.9689 31.6642C31.4713 31.5924 32.1892 32.0949 32.6916 32.8127C32.907 33.1717 33.0505 33.4588 33.0505 33.7459V36.4256C34.2527 37.7417 35.2728 39.3438 35.993 40.9959C36.8544 40.637 37.644 40.2781 37.7876 40.2063C37.9311 40.1346 38.1465 40.2063 38.3618 40.3499C38.7925 40.637 39.0797 41.3549 39.0079 41.8573C39.0079 42.1445 38.8643 42.288 38.7207 42.3598C38.6663 42.387 38.5087 42.4555 38.2831 42.5536C37.9137 42.7141 37.362 42.9538 36.7826 43.2212C36.998 44.1544 37.1415 45.0876 37.1415 45.9489C37.1415 47.5999 36.7108 48.8202 35.993 49.6098C36.8544 50.7584 38.1465 52.4811 38.29 52.6965C38.3618 52.7683 38.3618 52.9836 38.2183 53.2708C37.9311 53.7732 37.3569 54.2039 36.8544 54.2757C36.6391 54.2757 36.4955 54.2757 36.4237 54.1321C36.2485 53.9132 35.5924 53.0263 34.9607 52.1723L34.9606 52.1721C34.5569 51.6264 34.1632 51.0942 33.9113 50.7584C33.3293 50.8113 32.7083 50.7862 32.0483 50.5969C31.8243 50.7377 31.5833 50.8505 31.3272 50.9341V54.2757C31.3272 54.3475 31.3271 54.3475 31.2554 54.4193C31.2554 54.4552 31.2374 54.4731 31.2195 54.4911C31.2015 54.509 31.1836 54.5269 31.1836 54.5628C31.1477 54.5987 31.1118 54.6167 31.0759 54.6346C31.04 54.6526 31.0041 54.6705 30.9682 54.7064C30.5375 54.9935 29.7479 54.9935 29.3172 54.7064C29.1019 54.5628 28.9583 54.4193 28.9583 54.2757V50.954C28.3665 50.8058 27.7408 50.5513 27.092 50.1841C26.0414 49.5894 25.051 48.7593 24.1676 47.7785L22.4261 48.5331H22.2826H22.139C22.0672 48.5331 21.9954 48.4613 21.9236 48.3895C21.4929 48.1024 21.2058 47.3846 21.2058 46.8821C21.2058 46.6668 21.3494 46.4514 21.4929 46.3796C21.5515 46.3504 22.0516 46.1301 22.6916 45.8503C21.207 43.5679 20.2727 40.8811 20.2727 38.4836C20.2727 34.9024 22.3571 33.1079 25.2466 33.8427C26.4888 32.9822 28.2932 33.0281 30.3222 34.1766C30.4131 34.229 30.5036 34.2832 30.5936 34.3393C30.5968 33.9071 30.5999 33.5063 30.6026 33.1645C30.6069 32.6224 30.6099 32.2289 30.6099 32.0949ZM47.608 64.343C47.2681 64.2484 46.912 64.0999 46.5445 63.8946C44.1039 62.5307 42.1658 59.1569 42.1658 56.3574C42.1658 53.6297 44.1039 52.4812 46.5445 53.845C48.8111 55.1783 50.6443 58.1832 50.8942 60.7898C51.5663 61.7899 52 62.9984 52 64.0381C52 65.8327 50.7079 66.5505 49.1287 65.6891C48.5713 65.3851 48.0496 64.9111 47.608 64.343Z" fill="black" fill-opacity="0.1"/>
<path d="M16.8269 39.991C16.8269 39.991 18.6215 47.5282 20.8467 48.8203C21.7799 49.3945 22.5695 49.7534 22.5695 49.7534C22.5695 49.7534 23.718 49.1074 25.2255 48.1742C28.1686 46.4514 32.6191 43.8673 32.6909 43.7955C32.8344 43.6519 32.978 43.5084 33.1216 43.293C33.1933 43.2212 33.2651 43.0777 33.2651 43.0059C33.3369 42.8623 33.4087 42.7188 33.4087 42.5752C33.5522 42.2163 33.5522 41.7856 33.5522 41.3549C33.5522 38.7707 31.7577 35.6841 29.5324 34.392C28.4557 33.8177 27.5225 33.6742 26.8047 34.0331C26.7329 34.1049 26.5176 34.1766 26.2304 34.3202C26.0869 34.392 26.0151 34.4638 25.8715 34.5356C23.4309 36.1148 16.8269 39.991 16.8269 39.991Z" fill="url(#paint5_linear)"/>
<path d="M20.8458 38.6271C20.8458 41.9291 22.7121 45.7336 25.2963 48.246C28.2394 46.5232 32.6899 43.939 32.7617 43.8673C32.9052 43.7237 33.0488 43.5801 33.1924 43.3648C33.2642 43.293 33.3359 43.1494 33.3359 43.0776C32.4028 39.7757 30.0339 36.4737 27.3062 34.8944C26.9473 34.6791 26.6602 34.5355 26.373 34.392C26.2295 34.4638 26.1577 34.5355 26.0141 34.6073C24.5785 35.3969 22.5686 36.6172 20.9176 37.5504C20.8458 37.9093 20.8458 38.2682 20.8458 38.6271Z" fill="#7A7876"/>
<path d="M29.4603 36.6173L32.1162 36.9044C32.1162 36.9044 31.542 35.9712 30.8959 35.397C30.2499 34.8227 29.891 34.6791 29.891 34.6791H26.8043L29.4603 36.6173Z" fill="#7A7876"/>
<path d="M23.79 47.1693C23.79 49.7535 21.9955 50.7584 19.7702 49.4663C17.545 48.1742 15.7504 45.0876 15.7504 42.5034C15.7504 39.9193 17.545 38.9143 19.7702 40.2064C21.9955 41.4985 23.79 44.5851 23.79 47.1693Z" fill="#B3B3B5"/>
<path d="M23.7183 47.3129C23.7183 44.7287 21.9237 41.6421 19.6984 40.35C18.191 39.4886 16.8989 39.7039 16.1811 40.7089C16.8271 39.5604 18.191 39.345 19.7702 40.2064C21.9955 41.4985 23.79 44.5851 23.79 47.1693C23.79 47.9589 23.5747 48.6767 23.2876 49.1074C23.5747 48.6767 23.7183 48.0307 23.7183 47.3129Z" fill="#EAEAEB"/>
<path d="M16.6822 43.293C16.6822 43.293 18.1896 45.0158 18.046 45.8054C17.9742 46.0925 17.9742 46.3797 17.9742 46.3797C17.9742 46.3797 11.7292 49.1074 11.6574 49.1074C11.5856 49.1074 11.5138 49.1074 11.442 49.1074C11.3702 49.1074 11.2985 49.1074 11.2267 49.0356C11.1549 48.9638 11.0113 48.9638 10.9396 48.8921C10.3653 48.4614 9.9346 47.4564 10.0064 46.7386C10.0782 46.3797 10.2217 46.1643 10.3653 46.0208C10.6524 45.8772 16.6822 43.293 16.6822 43.293Z" fill="url(#paint6_linear)"/>
<path d="M17.185 46.2361C17.7592 46.6668 18.3335 46.4514 18.4053 45.6618C18.477 44.8722 18.0463 43.9391 17.4721 43.5084C16.8978 43.0777 16.3236 43.293 16.2518 44.0826C16.1082 44.8005 16.5389 45.7336 17.185 46.2361Z" fill="#B3B3B5"/>
<path d="M17.2573 46.2361C16.683 45.8054 16.2523 44.8004 16.3241 44.0826C16.3959 43.5801 16.683 43.293 17.0419 43.293C16.683 43.2212 16.3241 43.5084 16.3241 44.0826C16.1088 44.8004 16.5395 45.7336 17.2573 46.2361C17.4009 46.3797 17.6162 46.4514 17.7598 46.4514C17.5444 46.4514 17.4009 46.3797 17.2573 46.2361Z" fill="#EAEAEB"/>
<path d="M12.7359 30.085C12.7359 30.1568 12.7359 30.2286 12.8077 30.3004C12.8077 30.3722 16.5404 35.3251 16.8993 35.7558C17.0428 35.9712 17.33 36.043 17.6889 35.9712C18.4785 35.8994 19.2681 35.2534 19.627 34.5355C19.6988 34.3202 19.7706 34.1766 19.6988 33.9613C19.6988 33.8895 19.627 33.8177 19.5552 33.7459C19.0527 33.0999 15.679 28.5058 15.5354 28.3622C15.3918 28.2187 15.1047 28.0751 14.7458 28.1469C13.9562 28.2187 13.1666 28.8647 12.8077 29.5826C12.7359 29.7261 12.7359 29.7979 12.7359 29.9415C12.7359 29.9415 12.7359 30.0132 12.7359 30.085Z" fill="url(#paint7_linear)"/>
<path d="M19.5561 33.7459C19.6279 33.8177 19.6279 33.8895 19.6279 34.033V33.9613C19.6279 33.8895 19.6279 33.8177 19.5561 33.7459Z" fill="#B3B3B5"/>
<path d="M19.5561 33.7459C19.6279 33.8177 19.6279 33.8895 19.6279 34.033V33.9613C19.6279 33.8895 19.6279 33.8177 19.5561 33.7459Z" fill="#EAEAEB"/>
<path d="M21.2771 50.543C21.2771 50.543 23.5024 49.897 24.1484 50.2559C24.4355 50.3995 24.6509 50.543 24.6509 50.543C24.6509 50.543 24.6509 57.3624 24.6509 57.4341C24.6509 57.5059 24.6509 57.5777 24.5791 57.6495C24.5791 57.7213 24.5073 57.7931 24.4355 57.8648C24.3637 57.9366 24.292 58.0084 24.1484 58.0802C23.5024 58.4391 22.4256 58.4391 21.7796 58.0802C21.4924 57.9366 21.2771 57.6495 21.2771 57.4341C21.2053 57.0752 21.2771 50.543 21.2771 50.543Z" fill="url(#paint8_linear)"/>
<path d="M24.1483 51.2609C24.7943 50.9019 24.7943 50.2559 24.1483 49.897C23.5022 49.5381 22.4255 49.5381 21.7795 49.897C21.1334 50.2559 21.1334 50.9019 21.7795 51.2609C22.4255 51.6198 23.5022 51.6198 24.1483 51.2609Z" fill="#B3B3B5"/>
<path d="M24.1489 51.1891C23.5029 51.548 22.4261 51.548 21.7801 51.1891C21.3494 50.902 21.2058 50.5431 21.3494 50.2559C21.134 50.6148 21.2776 50.9737 21.7801 51.2609C22.4261 51.6198 23.5029 51.6198 24.1489 51.1891C24.3642 51.1173 24.5078 50.9737 24.5796 50.8302C24.5078 50.9737 24.3642 51.1173 24.1489 51.1891Z" fill="#EAEAEB"/>
<path d="M21.0627 33.5306C21.7088 33.6024 22.3548 33.7459 23.0726 34.0331C23.3598 34.1766 23.5751 34.2484 23.8622 34.4638C24.6518 34.8945 25.4414 35.5405 26.1593 36.2583C27.5231 37.6222 28.6717 39.345 29.4613 41.1395C29.7484 41.7856 29.9637 42.4316 30.1791 43.0059C30.4662 44.0826 30.6816 45.1594 30.6816 46.1643C30.6816 46.9539 30.6098 47.6 30.3944 48.1742C30.2509 48.6049 30.0355 49.0356 29.8202 49.3945C29.7484 49.5381 29.6766 49.6099 29.533 49.7534C29.892 49.4663 30.1073 49.251 30.1791 49.251C30.4662 49.0356 30.6816 48.8203 30.8969 48.4614C31.1123 48.1024 31.3276 47.7435 31.3994 47.3128C31.543 46.7386 31.6865 46.0925 31.6865 45.3747C31.6865 44.6569 31.6147 43.9391 31.4712 43.2212C31.3276 42.4316 31.0405 41.7138 30.7533 40.9242C30.1073 39.345 29.1741 37.8375 28.0256 36.5455C27.1642 35.6123 26.2311 34.7509 25.2261 34.1766C24.939 34.0331 24.6518 33.8895 24.3647 33.7459C23.0726 33.2435 21.9959 33.1717 21.0627 33.5306Z" fill="url(#paint9_linear)"/>
<path d="M15.6083 37.1197C15.6083 37.1197 20.4895 47.6717 24.0069 49.7534C25.5143 50.6148 25.8732 51.8351 25.8732 51.8351C25.8732 51.8351 26.591 51.7633 27.3088 51.3326C27.3088 51.3326 27.3806 51.3326 27.3806 51.2609C27.3806 51.2609 27.4524 51.2609 27.4524 51.1891C28.1702 50.7584 28.9598 50.1841 29.4623 49.7534C29.5341 49.6099 29.6777 49.5381 29.7494 49.3945C29.9648 49.0356 30.1801 48.6049 30.3237 48.1742C30.5391 47.5999 30.6108 46.8821 30.6108 46.1643C30.6108 41.8573 27.596 36.6172 23.7915 34.4638C22.7865 33.8895 21.8534 33.6024 21.0638 33.5306C20.992 33.5306 20.9202 33.6024 20.8484 33.6024C20.3459 33.8895 19.5563 33.9613 18.5514 34.392C18.1207 34.6073 17.69 34.8227 17.1157 35.1816C17.0439 35.2534 16.9722 35.2534 16.9004 35.3251C16.3979 35.6841 15.6083 37.1197 15.6083 37.1197Z" fill="url(#paint10_linear)"/>
<path d="M19.2692 33.8178C18.8385 34.0331 18.336 34.3202 17.9053 34.6074C18.1207 34.5356 18.2643 34.4638 18.4796 34.392C19.5563 34.1049 20.9202 34.392 22.4276 35.2534C26.1603 37.4069 29.247 42.647 29.247 46.954C29.247 47.7436 29.1752 48.3896 28.9598 48.9639C28.8163 49.3946 28.6009 49.8253 28.3856 50.1842C28.1702 50.4713 27.9549 50.7584 27.6678 50.9738C27.596 50.9738 27.5242 51.0456 27.3806 51.1891C27.3806 51.1891 27.4524 51.1891 27.4524 51.1173C28.1702 50.6866 28.8881 50.256 29.0316 50.1842C29.1752 50.0406 29.3188 49.897 29.4623 49.7535C29.5341 49.6099 29.6777 49.5381 29.7494 49.3946C29.9648 49.0357 30.1801 48.605 30.3237 48.1743C30.5391 47.6 30.6108 46.8822 30.6108 46.1644C30.6108 41.8574 27.596 36.6173 23.7915 34.4638C22.7865 33.8895 21.8534 33.6024 21.0638 33.5306C20.4177 33.4589 19.7717 33.6024 19.2692 33.8178Z" fill="url(#paint11_linear)"/>
<path d="M17.8339 34.6791C17.5467 34.8227 17.3314 35.0381 17.116 35.1816C17.4032 35.0381 17.6185 34.8227 17.8339 34.6791C17.9056 34.6791 17.9056 34.6791 17.8339 34.6791Z" fill="url(#paint12_linear)"/>
<path d="M16.8994 35.3251C16.9712 35.2534 17.043 35.2534 17.1147 35.1816C17.1147 35.1816 17.1147 35.1816 17.043 35.1816C17.043 35.2534 16.9712 35.3251 16.8994 35.3251Z" fill="url(#paint13_linear)"/>
<path d="M14.9615 40.0628C14.9615 40.3499 14.9615 40.7088 15.0333 40.996C15.105 41.7856 15.2486 42.5752 15.5357 43.3648C16.0382 44.8722 16.8278 46.4514 17.761 47.7435C18.1199 48.246 18.4788 48.7485 18.9095 49.1792C19.6991 50.0405 20.5605 50.6866 21.4219 51.2609C22.714 51.9787 23.8625 52.2658 24.8675 52.1222C25.8006 51.9787 26.5185 51.548 27.0927 50.7584C27.5952 49.9688 27.8823 48.892 27.8823 47.5999C27.8823 45.8054 27.3081 43.7955 26.3749 42.0009C25.5853 40.4217 24.5085 38.986 23.2882 37.9093C22.714 37.335 22.0679 36.8326 21.3501 36.4737C20.2016 35.8276 19.1249 35.5405 18.1917 35.6123C18.0481 35.6123 17.8328 35.6123 17.6892 35.6841C16.756 35.8994 15.9664 36.4737 15.464 37.4068C15.3204 37.6222 15.2486 37.8375 15.1768 38.1247C15.0333 38.5554 14.9615 39.2732 14.9615 40.0628Z" fill="#FDFDFD"/>
<path d="M16.6125 45.9489C17.4738 47.5999 18.4788 48.7485 18.9095 49.1792L21.4219 43.7955L16.6125 45.9489Z" fill="#D7D7D8"/>
<path d="M15.0323 40.996C15.104 41.7856 15.2476 42.5752 15.5347 43.3648L21.4209 43.7955L15.0323 40.996Z" fill="#D9D9DA"/>
<path d="M21.4209 43.7955L27.1635 44.2979C27.3789 44.6569 27.666 45.6618 27.8096 46.3796C27.8096 46.595 27.8813 46.8103 27.8813 47.0257L21.4209 43.7955Z" fill="#D9D9DA"/>
<path d="M21.422 43.7955L26.375 41.9291C25.5854 40.3499 24.5087 38.9143 23.2884 37.8375L21.422 43.7955Z" fill="#D7D7D8"/>
<path d="M22.6412 35.6123C22.6412 35.6123 24.8665 35.8994 25.1536 35.9712C25.2254 35.9712 25.6561 36.1148 26.1586 36.1866C27.0199 36.4019 28.0967 36.6173 28.0967 36.5455C27.2353 35.6123 26.3021 34.7509 25.2972 34.1767C25.01 34.0331 24.7229 33.8895 24.4358 33.746C23.8615 33.746 23.4308 33.8178 23.1437 34.0331C22.2823 34.6074 22.6412 35.6123 22.6412 35.6123Z" fill="#8F8C8A"/>
<path d="M21.2766 27.0702C21.2766 27.0702 23.5019 26.4241 24.1479 26.7831C24.435 26.9266 24.6504 27.0702 24.6504 27.0702C24.6504 27.0702 24.6504 34.6073 24.6504 34.6791C24.6504 34.7509 24.6504 34.8227 24.5786 34.8945C24.5786 34.9663 24.5068 35.038 24.435 35.1098C24.3633 35.1816 24.2915 35.2534 24.1479 35.3252C23.5019 35.6841 22.4251 35.6841 21.7791 35.3252C21.492 35.1816 21.2766 34.8945 21.2766 34.6791C21.2048 34.4638 21.2766 27.0702 21.2766 27.0702Z" fill="url(#paint14_linear)"/>
<path d="M24.1493 27.8598C24.7953 27.5009 24.7953 26.8548 24.1493 26.4959C23.5032 26.137 22.4265 26.137 21.7804 26.4959C21.1344 26.8548 21.1344 27.5009 21.7804 27.8598C22.4265 28.2187 23.5032 28.2187 24.1493 27.8598Z" fill="#B3B3B5"/>
<path d="M24.1484 27.788C23.5024 28.1469 22.4256 28.1469 21.7796 27.788C21.3489 27.5009 21.2053 27.142 21.3489 26.8549C21.1335 27.2138 21.2771 27.5727 21.7796 27.8598C22.4256 28.2187 23.5024 28.2187 24.1484 27.788C24.3638 27.7162 24.5073 27.5727 24.5791 27.4291C24.5073 27.5727 24.3638 27.6445 24.1484 27.788Z" fill="#EAEAEB"/>
<path d="M28.743 42.7905C28.743 42.7905 29.4608 42.8623 30.1786 43.0059C30.6811 43.0777 31.1836 43.1494 31.2554 43.2212C31.2554 43.2212 31.3271 43.2212 31.4707 43.293C31.3271 42.5034 31.04 41.7856 30.7529 40.996C30.6811 40.996 30.5375 40.996 30.4657 40.996C30.0351 40.996 29.6761 41.0678 29.4608 41.1395C28.3841 41.5702 28.743 42.7905 28.743 42.7905Z" fill="#8F8C8A"/>
<path d="M34.1265 37.048C34.1265 37.048 35.6339 38.7708 35.4904 39.5604C35.4186 39.8475 35.4186 40.1346 35.4186 40.1346C35.4186 40.1346 29.1735 42.8624 29.1017 42.8624C29.0299 42.8624 28.9582 42.8624 28.8864 42.8624C28.8146 42.8624 28.7428 42.8624 28.671 42.7906C28.5992 42.7188 28.4557 42.7188 28.3839 42.647C27.8096 42.2163 27.3789 41.2114 27.4507 40.4935C27.5225 40.1346 27.6661 39.9193 27.8096 39.7757C28.0968 39.6321 34.1265 37.048 34.1265 37.048Z" fill="url(#paint15_linear)"/>
<path d="M34.6293 39.9193C35.2036 40.35 35.7778 40.1346 35.8496 39.345C35.9214 38.5554 35.4907 37.6222 34.9164 37.1915C34.3422 36.7608 33.7679 36.9762 33.6961 37.7658C33.6243 38.4836 33.9832 39.4886 34.6293 39.9193Z" fill="#B3B3B5"/>
<path d="M34.7016 39.9193C34.1274 39.4886 33.6967 38.4836 33.7685 37.7658C33.8402 37.2633 34.1274 36.9762 34.4863 36.9762C34.1274 36.9044 33.7685 37.1915 33.7685 37.7658C33.6249 38.4836 33.9838 39.4886 34.7016 39.9193C34.8452 40.0628 35.0605 40.1346 35.2041 40.1346C34.9888 40.1346 34.8452 40.0628 34.7016 39.9193Z" fill="#EAEAEB"/>
<path d="M34.7734 55.1371C34.7734 55.1371 33.8403 56.4292 33.0507 56.501C32.7635 56.5728 32.0457 57.2906 32.0457 57.2906C32.0457 57.2906 27.9541 51.7634 27.8823 51.6916C27.8823 51.6198 27.5234 51.1891 27.5234 51.1173C27.5234 51.0455 27.5234 50.8302 27.667 50.6866C27.9541 50.1842 28.8873 49.251 29.6051 49.1792C29.964 49.1074 30.1076 49.1074 30.2511 49.1792C30.4665 49.3946 34.7734 55.1371 34.7734 55.1371Z" fill="url(#paint16_linear)"/>
<path d="M32.1886 56.4293C31.8297 57.1471 31.9733 57.4342 32.6911 57.3624C33.4089 57.2906 34.2703 56.6446 34.6292 55.9268C34.9881 55.209 34.8446 54.9218 34.1268 54.9936C33.4807 55.1372 32.6193 55.7114 32.1886 56.4293Z" fill="#B3B3B5"/>
<path d="M40.4432 51.8352C40.4432 51.8352 42.3814 60.0184 44.822 61.3822C45.8269 61.9565 46.6883 62.3872 46.6883 62.3872C46.6883 62.3872 47.9804 61.6694 48.124 61.5258C48.2675 61.3822 48.4829 61.2387 48.5547 61.0233C48.6982 60.808 48.8418 60.5209 48.9136 60.2337C49.0571 59.8748 49.0571 59.4441 49.0571 58.9416C49.0571 56.2139 47.119 52.8401 44.6784 51.4045C43.5299 50.7584 42.5249 50.6149 41.7353 51.0456C40.9457 51.4045 40.4432 51.8352 40.4432 51.8352Z" fill="url(#paint17_linear)"/>
<path d="M47.981 59.5877C47.981 62.3154 46.0428 63.4639 43.6022 62.1C41.1616 60.7362 39.2235 57.3624 39.2235 54.5629C39.2235 51.8352 41.1616 50.6866 43.6022 52.0505C46.0428 53.4861 47.981 56.7881 47.981 59.5877Z" fill="#B3B3B5"/>
<path d="M47.1914 59.5159C47.1914 61.9565 45.4686 62.9614 43.3152 61.7411C41.1617 60.5208 39.4389 57.506 39.4389 55.0654C39.4389 52.6248 41.1617 51.6198 43.3152 52.8401C45.4686 54.0604 47.1914 57.0753 47.1914 59.5159Z" fill="#EAEAEA"/>
<path d="M44.7508 55.9985C46.33 56.9317 47.6221 59.0852 47.6221 60.9515C47.6221 61.1669 47.6221 61.3105 47.5503 61.5258C47.0478 62.5308 46.0429 62.9614 44.8226 62.6743C44.8226 62.6743 44.7508 62.6743 44.7508 62.6025C43.1716 61.6694 41.8795 59.5159 41.8795 57.6495C41.9513 55.7832 43.1716 55.0654 44.7508 55.9985Z" fill="black" fill-opacity="0.1"/>
<path d="M47.7656 59.7313C47.7656 57.0035 45.8275 53.6298 43.3869 52.1941C41.7359 51.2609 40.4438 51.4763 39.726 52.553C40.4438 51.3327 41.9512 51.0456 43.6022 52.0505C46.0428 53.4144 47.981 56.7882 47.981 59.5877C47.981 60.4491 47.7656 61.1669 47.4067 61.7412C47.6938 61.2387 47.7656 60.5209 47.7656 59.7313Z" fill="#EAEAEB"/>
<path d="M38.6494 55.855C38.6494 55.855 39.7979 60.8798 41.3771 61.8129C42.0232 62.1718 42.2385 62.1718 42.2385 62.1718C42.2385 62.1718 45.038 61.0233 45.1816 60.8798C45.3252 60.808 45.3969 60.6644 45.4687 60.5208C45.5405 60.3773 45.6841 60.1619 45.6841 60.0184C45.7559 59.7312 45.8276 59.4441 45.8276 59.157C45.8276 57.2906 44.5356 55.0654 42.9563 54.1322C42.2385 53.7015 41.5207 53.6297 41.0182 53.8451C40.3722 54.1322 38.6494 55.855 38.6494 55.855Z" fill="#C4C4C4"/>
<path d="M38.0045 57.3624C38.0045 57.506 38.0045 57.6496 38.0045 57.7931C38.0045 58.0803 38.0763 58.3674 38.2199 58.6545C38.2916 59.0134 38.4352 59.3006 38.5788 59.5877C38.7941 60.0184 39.0812 60.4491 39.3684 60.808C39.6555 61.1669 39.9426 61.454 40.3015 61.6694C40.3733 61.7412 40.4451 61.7412 40.5169 61.8129C40.5887 61.8847 40.7322 61.8847 40.804 61.9565C41.1629 62.1001 41.4501 62.1719 41.7372 62.1719C42.1679 62.1719 42.455 62.0283 42.7422 61.7412C43.1011 61.454 43.2446 61.0233 43.2446 60.3773C43.2446 60.3055 43.2446 60.2337 43.2446 60.2337C43.2446 59.8748 43.1728 59.4441 43.0293 59.0852C42.8857 58.7263 42.7422 58.3674 42.5986 58.0803C42.2397 57.4342 41.809 56.86 41.2347 56.3575C41.0194 56.2139 40.8758 56.0703 40.6605 55.9268C40.5169 55.855 40.4451 55.7832 40.3015 55.7832C40.0862 55.7114 39.9426 55.6397 39.7991 55.6397C39.5837 55.5679 39.3684 55.5679 39.2248 55.6397C38.7941 55.7114 38.4352 55.9986 38.2916 56.4293C38.0763 56.6446 38.0045 57.0035 38.0045 57.3624Z" fill="#F5F5F5"/>
<path d="M43.0278 60.5926C43.0278 58.9416 41.8793 56.9317 40.4436 56.1421C39.4387 55.5678 38.7927 55.6396 38.362 56.2856C38.7927 55.5678 39.654 55.4242 40.659 55.9985C42.0946 56.8599 43.2432 58.8698 43.2432 60.449C43.2432 60.9515 43.0996 61.3822 42.8843 61.7411C43.0996 61.3822 43.0278 61.0233 43.0278 60.5926Z" fill="white"/>
<defs>
<linearGradient id="paint0_linear" x1="15.1867" y1="29.1009" x2="10.0857" y2="20.2657" gradientUnits="userSpaceOnUse">
<stop stop-color="#A7A7A7"/>
<stop offset="0.6647" stop-color="#CFCFCF"/>
</linearGradient>
<linearGradient id="paint1_linear" x1="64.4097" y1="77.5843" x2="44.8794" y2="45.5026" gradientUnits="userSpaceOnUse">
<stop stop-color="#A7A7A7"/>
<stop offset="1" stop-color="#F5F5F5"/>
</linearGradient>
<linearGradient id="paint2_linear" x1="35.1606" y1="38.0982" x2="21.9586" y2="15.2475" gradientUnits="userSpaceOnUse">
<stop stop-color="#A7A7A7"/>
<stop offset="1" stop-color="#F5F5F5"/>
</linearGradient>
<linearGradient id="paint3_linear" x1="55.8741" y1="51.5753" x2="42.8034" y2="28.9362" gradientUnits="userSpaceOnUse">
<stop stop-color="#A7A7A7"/>
<stop offset="1" stop-color="#F5F5F5"/>
</linearGradient>
<linearGradient id="paint4_linear" x1="32.9283" y1="18.2209" x2="32.9283" y2="77.5461" gradientUnits="userSpaceOnUse">
<stop stop-color="#DADADA"/>
<stop offset="1" stop-color="white"/>
</linearGradient>
<linearGradient id="paint5_linear" x1="23.3112" y1="37.7638" x2="27.6688" y2="45.3113" gradientUnits="userSpaceOnUse">
<stop offset="0.00924982" stop-color="#ABAAA8"/>
<stop offset="0.0156372" stop-color="#ABABAA"/>
<stop offset="0.0355981" stop-color="#ABABAA"/>
<stop offset="0.1569" stop-color="#ABABAA"/>
<stop offset="0.3709" stop-color="#ABAAA8"/>
<stop offset="0.3782" stop-color="#9C9B99"/>
<stop offset="0.7834" stop-color="#969592"/>
<stop offset="0.7861" stop-color="#8F8E8A"/>
<stop offset="0.8043" stop-color="#8C8B87"/>
<stop offset="0.9092" stop-color="#7F7D7A"/>
<stop offset="1" stop-color="#7A7876"/>
</linearGradient>
<linearGradient id="paint6_linear" x1="13.472" y1="45.1096" x2="14.507" y2="47.4804" gradientUnits="userSpaceOnUse">
<stop offset="0.00924982" stop-color="#D8D7D5"/>
<stop offset="0.0156372" stop-color="#D8D8D7"/>
<stop offset="0.0355981" stop-color="#D8D8D7"/>
<stop offset="0.1569" stop-color="white"/>
<stop offset="0.3709" stop-color="#D8D7D5"/>
<stop offset="0.3782" stop-color="#C9C8C6"/>
<stop offset="0.7834" stop-color="#C3C2BF"/>
<stop offset="0.7861" stop-color="#BCBBB6"/>
<stop offset="0.8583" stop-color="#A8A7A3"/>
<stop offset="0.9342" stop-color="#9B9996"/>
<stop offset="1" stop-color="#969491"/>
</linearGradient>
<linearGradient id="paint7_linear" x1="17.5477" y1="31.0238" x2="14.84" y2="33.052" gradientUnits="userSpaceOnUse">
<stop offset="0.00924982" stop-color="#D8D7D5"/>
<stop offset="0.0156372" stop-color="#D8D8D7"/>
<stop offset="0.0355981" stop-color="#D8D8D7"/>
<stop offset="0.1569" stop-color="white"/>
<stop offset="0.3709" stop-color="#D8D7D5"/>
<stop offset="0.3782" stop-color="#C9C8C6"/>
<stop offset="0.7834" stop-color="#C3C2BF"/>
<stop offset="0.7861" stop-color="#BCBBB6"/>
<stop offset="0.8583" stop-color="#A8A7A3"/>
<stop offset="0.9342" stop-color="#9B9996"/>
<stop offset="1" stop-color="#969491"/>
</linearGradient>
<linearGradient id="paint8_linear" x1="21.6469" y1="54.1892" x2="24.2335" y2="54.188" gradientUnits="userSpaceOnUse">
<stop offset="0.00924982" stop-color="#D8D7D5"/>
<stop offset="0.0156372" stop-color="#D8D8D7"/>
<stop offset="0.0355981" stop-color="#D8D8D7"/>
<stop offset="0.1569" stop-color="white"/>
<stop offset="0.3709" stop-color="#D8D7D5"/>
<stop offset="0.3782" stop-color="#C9C8C6"/>
<stop offset="0.7834" stop-color="#C3C2BF"/>
<stop offset="0.7861" stop-color="#BCBBB6"/>
<stop offset="0.8583" stop-color="#A8A7A3"/>
<stop offset="0.9342" stop-color="#9B9996"/>
<stop offset="1" stop-color="#969491"/>
</linearGradient>
<linearGradient id="paint9_linear" x1="22.805" y1="32.5407" x2="31.9556" y2="48.3899" gradientUnits="userSpaceOnUse">
<stop offset="0.00924982" stop-color="#C7C5C3"/>
<stop offset="0.0156372" stop-color="#C7C7C5"/>
<stop offset="0.0355981" stop-color="#C7C7C5"/>
<stop offset="0.1569" stop-color="#C7C7C5"/>
<stop offset="0.3709" stop-color="#C7C5C3"/>
<stop offset="0.3782" stop-color="#B8B6B4"/>
<stop offset="0.7834" stop-color="#B2B0AD"/>
<stop offset="0.7861" stop-color="#ABA9A5"/>
<stop offset="0.8583" stop-color="#979592"/>
<stop offset="0.9342" stop-color="#8A8785"/>
<stop offset="1" stop-color="#858280"/>
</linearGradient>
<linearGradient id="paint10_linear" x1="20.5508" y1="35.8375" x2="27.8387" y2="48.4607" gradientUnits="userSpaceOnUse">
<stop offset="0.00924982" stop-color="#D8D7D5"/>
<stop offset="0.0156372" stop-color="#D8D8D7"/>
<stop offset="0.0355981" stop-color="#D8D8D7"/>
<stop offset="0.1569" stop-color="#D8D8D7"/>
<stop offset="0.3709" stop-color="#D8D7D5"/>
<stop offset="0.3782" stop-color="#C9C8C6"/>
<stop offset="0.7834" stop-color="#C3C2BF"/>
<stop offset="0.7861" stop-color="#BCBBB6"/>
<stop offset="0.8583" stop-color="#A8A7A3"/>
<stop offset="0.9342" stop-color="#9B9996"/>
<stop offset="1" stop-color="#969491"/>
</linearGradient>
<linearGradient id="paint11_linear" x1="21.9712" y1="34.9021" x2="29.3022" y2="47.5996" gradientUnits="userSpaceOnUse">
<stop offset="0.00924982" stop-color="#D1CFCD"/>
<stop offset="0.0156372" stop-color="#D1D1CF"/>
<stop offset="0.0355981" stop-color="#D1D1CF"/>
<stop offset="0.1569" stop-color="#D1D1CF"/>
<stop offset="0.3709" stop-color="#D1CFCD"/>
<stop offset="0.3782" stop-color="#C2C0BE"/>
<stop offset="0.7834" stop-color="#BCBAB7"/>
<stop offset="0.7861" stop-color="#B5B3AF"/>
<stop offset="0.8583" stop-color="#A19F9C"/>
<stop offset="0.9342" stop-color="#94918F"/>
<stop offset="1" stop-color="#8F8C8A"/>
</linearGradient>
<linearGradient id="paint12_linear" x1="17.5036" y1="34.89" x2="17.5356" y2="34.9453" gradientUnits="userSpaceOnUse">
<stop offset="0.00924982" stop-color="#D1CFCD"/>
<stop offset="0.0156372" stop-color="#D1D1CF"/>
<stop offset="0.0355981" stop-color="#D1D1CF"/>
<stop offset="0.1569" stop-color="#D1D1CF"/>
<stop offset="0.3709" stop-color="#D1CFCD"/>
<stop offset="0.3782" stop-color="#C2C0BE"/>
<stop offset="0.7834" stop-color="#BCBAB7"/>
<stop offset="0.7861" stop-color="#B5B3AF"/>
<stop offset="0.8583" stop-color="#A19F9C"/>
<stop offset="0.9342" stop-color="#94918F"/>
<stop offset="1" stop-color="#8F8C8A"/>
</linearGradient>
<linearGradient id="paint13_linear" x1="17.0109" y1="35.2621" x2="17.0166" y2="35.2721" gradientUnits="userSpaceOnUse">
<stop offset="0.00924982" stop-color="#D1CFCD"/>
<stop offset="0.0156372" stop-color="#D1D1CF"/>
<stop offset="0.0355981" stop-color="#D1D1CF"/>
<stop offset="0.1569" stop-color="#D1D1CF"/>
<stop offset="0.3709" stop-color="#D1CFCD"/>
<stop offset="0.3782" stop-color="#C2C0BE"/>
<stop offset="0.7834" stop-color="#BCBAB7"/>
<stop offset="0.7861" stop-color="#B5B3AF"/>
<stop offset="0.8583" stop-color="#A19F9C"/>
<stop offset="0.9342" stop-color="#94918F"/>
<stop offset="1" stop-color="#8F8C8A"/>
</linearGradient>
<linearGradient id="paint14_linear" x1="21.6463" y1="31.1472" x2="24.2332" y2="31.1461" gradientUnits="userSpaceOnUse">
<stop offset="0.00924982" stop-color="#D8D7D5"/>
<stop offset="0.0156372" stop-color="#D8D8D7"/>
<stop offset="0.0355981" stop-color="#D8D8D7"/>
<stop offset="0.1569" stop-color="white"/>
<stop offset="0.3709" stop-color="#D8D7D5"/>
<stop offset="0.3782" stop-color="#C9C8C6"/>
<stop offset="0.7834" stop-color="#C3C2BF"/>
<stop offset="0.7861" stop-color="#BCBBB6"/>
<stop offset="0.8583" stop-color="#A8A7A3"/>
<stop offset="0.9342" stop-color="#9B9996"/>
<stop offset="1" stop-color="#969491"/>
</linearGradient>
<linearGradient id="paint15_linear" x1="30.9211" y1="38.8427" x2="31.9562" y2="41.2135" gradientUnits="userSpaceOnUse">
<stop offset="0.00924982" stop-color="#D8D7D5"/>
<stop offset="0.0156372" stop-color="#D8D8D7"/>
<stop offset="0.0355981" stop-color="#D8D8D7"/>
<stop offset="0.1569" stop-color="white"/>
<stop offset="0.3709" stop-color="#D8D7D5"/>
<stop offset="0.3782" stop-color="#C9C8C6"/>
<stop offset="0.7834" stop-color="#C3C2BF"/>
<stop offset="0.7861" stop-color="#BCBBB6"/>
<stop offset="0.8583" stop-color="#A8A7A3"/>
<stop offset="0.9342" stop-color="#9B9996"/>
<stop offset="1" stop-color="#969491"/>
</linearGradient>
<linearGradient id="paint16_linear" x1="32.0973" y1="52.2502" x2="30.0065" y2="53.8163" gradientUnits="userSpaceOnUse">
<stop offset="0.00924982" stop-color="#D8D7D5"/>
<stop offset="0.0156372" stop-color="#D8D8D7"/>
<stop offset="0.0355981" stop-color="#D8D8D7"/>
<stop offset="0.1569" stop-color="white"/>
<stop offset="0.3709" stop-color="#D8D7D5"/>
<stop offset="0.3782" stop-color="#C9C8C6"/>
<stop offset="0.7834" stop-color="#C3C2BF"/>
<stop offset="0.7861" stop-color="#BCBBB6"/>
<stop offset="0.8583" stop-color="#A8A7A3"/>
<stop offset="0.9342" stop-color="#9B9996"/>
<stop offset="1" stop-color="#969491"/>
</linearGradient>
<linearGradient id="paint17_linear" x1="42.689" y1="52.1665" x2="47.4044" y2="60.3337" gradientUnits="userSpaceOnUse">
<stop offset="0.00924982" stop-color="#C7C5C3"/>
<stop offset="0.0156372" stop-color="#C7C7C5"/>
<stop offset="0.0355981" stop-color="#C7C7C5"/>
<stop offset="0.1569" stop-color="#C7C7C5"/>
<stop offset="0.3709" stop-color="#C7C5C3"/>
<stop offset="0.3782" stop-color="#B8B6B4"/>
<stop offset="0.7834" stop-color="#B2B0AD"/>
<stop offset="0.7861" stop-color="#ABA9A5"/>
<stop offset="0.8583" stop-color="#979592"/>
<stop offset="0.9342" stop-color="#8A8785"/>
<stop offset="1" stop-color="#858280"/>
</linearGradient>
</defs>
</svg>
