<svg width="75" height="90" viewBox="0 0 75 90" fill="none" xmlns="http://www.w3.org/2000/svg">
<path d="M28.4707 12.9451L28.2358 12.8407L28.288 12.6841L28.5229 12.8146L28.4707 12.9451Z" fill="url(#paint0_linear)"/>
<path d="M30.4289 14.015L29.9331 13.754L30.0114 13.6235L30.5072 13.8845L30.4289 14.015ZM29.4372 13.493L28.9414 13.232L29.0197 13.1016L29.5155 13.3625L29.4372 13.493Z" fill="url(#paint1_linear)"/>
<path d="M31.1597 14.4065L30.9248 14.276L31.0031 14.1455C31.1336 14.2238 31.2119 14.2499 31.238 14.276L31.1597 14.4065Z" fill="url(#paint2_linear)"/>
<path d="M43.1906 12.9451L43.1123 12.8146L43.3472 12.6841L43.4255 12.8407L43.1906 12.9451Z" fill="url(#paint3_linear)"/>
<path d="M41.2072 14.015L41.1289 13.8845L41.6247 13.6235L41.703 13.754L41.2072 14.015ZM42.1989 13.493L42.1206 13.3625L42.6164 13.1016L42.6947 13.232L42.1989 13.493Z" fill="url(#paint4_linear)"/>
<path d="M40.4767 14.4065L40.3984 14.276C40.4245 14.276 40.5028 14.2238 40.6333 14.1455L40.7116 14.276L40.4767 14.4065Z" fill="url(#paint5_linear)"/>
<path opacity="0.502" d="M73.8015 30.7431V22.7836C73.6189 20.0695 72.5489 17.4859 70.7482 15.1111V23.0706C72.5489 25.4454 73.6189 28.029 73.8015 30.7431ZM69.8087 21.9485V13.9889C69.1824 13.2843 68.4778 12.5797 67.6949 11.9012V19.8607C68.4778 20.5392 69.1824 21.2439 69.8087 21.9485ZM66.4161 18.8168V10.8573C65.581 10.231 64.6937 9.60466 63.7281 9.03053V16.9901C64.6676 17.5642 65.5549 18.1905 66.4161 18.8168ZM61.9014 18.321V5.63794C69.2346 9.52637 73.8015 15.085 73.8015 21.2439V33.9269C73.8276 27.7681 69.2607 22.2094 61.9014 18.321Z" fill="#48CDB7"/>
<path opacity="0.502" d="M48.5143 12.2405V9.94393C47.9662 9.83954 47.3921 9.73515 46.818 9.65686V11.9534C47.366 12.0317 47.9401 12.1361 48.5143 12.2405ZM45.4609 9.44809V7.41254C44.8868 7.33424 44.2866 7.25595 43.7125 7.20376V9.23932C44.2866 9.29151 44.8607 9.3698 45.4609 9.44809ZM51.4371 10.5963V7.83008C50.8891 7.6996 50.3672 7.56912 49.8191 7.46473V10.231C50.3672 10.3354 50.9152 10.4659 51.4371 10.5963ZM42.3032 9.08273V5.01163C41.703 4.95943 41.1028 4.90724 40.5025 4.88114V8.95225C41.1028 9.00444 41.703 9.03054 42.3032 9.08273ZM35.7529 8.87396V4.80285C35.1266 4.80285 34.5264 4.82895 33.9261 4.85504V8.92615C34.5264 8.90006 35.1266 8.87396 35.7529 8.87396ZM32.4908 9.00444V3.86336C31.8906 3.91556 31.2904 3.94166 30.6901 3.99385V9.13493C31.2904 9.08273 31.8906 9.03054 32.4908 9.00444ZM39.0411 8.90005V3.02827C38.4931 3.00217 37.9451 3.00217 37.397 3.00217C37.3187 3.00217 37.2665 3.00217 37.1882 3.00217V8.87396C37.2665 8.87396 37.3187 8.87396 37.397 8.87396C37.9451 8.87396 38.4931 8.87396 39.0411 8.90005ZM29.307 9.29151V1.95829C28.7329 2.03659 28.1326 2.11488 27.5585 2.19317V9.52638C28.1326 9.42199 28.7329 9.3437 29.307 9.29151ZM23.8267 1.33197C28.0543 0.444678 32.6213 -0.0250653 37.3709 0.00103157C43.7386 0.0532253 49.6886 1.04491 54.8819 2.7151V15.3982C49.6886 13.728 43.7386 12.7363 37.3709 12.6841C32.5952 12.6319 28.0283 13.1016 23.8267 14.015V1.33197Z" fill="#48CDB7"/>
<path opacity="0.502" d="M2.29652 18.5036V15.9461C1.53971 17.0422 0.939486 18.1643 0.49584 19.3387V26.8807C0.939486 25.7063 1.53971 24.5842 2.29652 23.4881V20.9306C2.5053 20.6174 2.74017 20.3043 3.00114 19.9911V21.4003C3.47088 20.8262 3.96672 20.2521 4.51475 19.704V18.3209C6.88957 15.92 10.0734 13.8062 13.8574 12.1099V9.65676C13.1789 9.96993 12.5265 10.2831 11.9002 10.5962C11.587 10.7528 11.2738 10.9355 10.9607 11.0921C8.53367 12.423 6.44592 13.9627 4.72353 15.6329C4.64524 15.7112 4.56695 15.7634 4.51475 15.8417V14.4586C3.96672 15.0066 3.44478 15.5807 3.00114 16.1549V17.538C2.74017 17.8773 2.5053 18.1904 2.29652 18.5036ZM0 18.4253C1.43533 12.2403 7.48979 6.91659 16.0757 3.60229V16.2593C7.48979 19.5736 1.43533 24.8973 0 31.0823V18.4253Z" fill="#48CDB7"/>
<path opacity="0.7529" d="M4.51511 15.8678C4.5934 15.7895 4.64559 15.7373 4.72388 15.659V18.1121C6.00263 16.8595 7.49015 15.6851 9.18644 14.6151C9.76057 14.2498 10.3608 13.9105 10.961 13.5713V11.1182C11.2742 10.9355 11.5874 10.7789 11.9005 10.6223V13.0493C12.5268 12.7101 13.1793 12.3969 13.8578 12.1098V9.65674V12.1098C10.0737 13.8061 6.88992 15.92 4.51511 18.3209V15.8678ZM2.29688 18.5036C2.50565 18.1904 2.74052 17.8772 3.00149 17.5641V20.0172C2.76662 20.3303 2.53175 20.6435 2.29688 20.9567V18.5036Z" fill="#48CDB7"/>
<path opacity="0.8784" d="M11.9004 10.5962C12.5267 10.257 13.1791 9.9438 13.8577 9.65674V12.1098C13.1791 12.423 12.5267 12.7362 11.9004 13.0493V10.5962Z" fill="#48CDB7"/>
<path opacity="0.8784" d="M4.72412 15.633C6.00287 14.3803 7.49039 13.206 9.18668 12.136V14.5891C7.49039 15.6591 6.00287 16.8334 4.72412 18.0861V15.633Z" fill="#48CDB7"/>
<path opacity="0.9725" d="M9.18604 12.1362C9.76017 11.7708 10.3604 11.4315 10.9606 11.0923V13.5454C10.3604 13.8846 9.76017 14.25 9.18604 14.5893V12.1362Z" fill="#48CDB7"/>
<path opacity="0.7529" d="M0.496582 19.365C0.940228 18.1906 1.54046 17.0685 2.29726 15.9724V18.5299C1.54046 19.626 0.940228 20.7481 0.496582 21.9225V24.3756C0.940228 23.2012 1.54046 22.0791 2.29726 20.983V23.5405C1.54046 24.6366 0.940228 25.7587 0.496582 26.9331V19.365Z" fill="#48CDB7"/>
<path opacity="0.8784" d="M0.496582 21.8963C0.940228 20.7219 1.54046 19.5997 2.29726 18.5037V20.9568C1.54046 22.0528 0.940228 23.175 0.496582 24.3494V21.8963Z" fill="#48CDB7"/>
<path opacity="0.7529" d="M2.97461 20.0174C3.44435 19.4433 3.94019 18.8691 4.48823 18.3211V19.7042C3.94019 20.2523 3.41826 20.8264 2.97461 21.4005V20.0174ZM2.97461 16.1812C3.44435 15.607 3.94019 15.0329 4.48823 14.4849V15.868C3.94019 16.416 3.41826 16.9902 2.97461 17.5643V16.1812Z" fill="#48CDB7"/>
<path opacity="0.8784" d="M2.97461 17.5642C3.44435 16.9901 3.94019 16.416 4.48823 15.8679V18.321C3.94019 18.8691 3.41826 19.4432 2.97461 20.0173V17.5642Z" fill="#48CDB7"/>
<path opacity="0.7529" d="M70.748 15.1111C72.5487 17.4859 73.6187 20.0695 73.8014 22.7836V30.7431C73.6187 28.029 72.5487 25.4454 70.748 23.0706V15.1111Z" fill="#48CDB7"/>
<path d="M67.6963 11.9272C68.4531 12.6058 69.1577 13.2843 69.8101 14.015V21.9745C69.1838 21.2699 68.4792 20.5653 67.6963 19.8868V11.9272Z" fill="#48CDB7"/>
<path opacity="0.7529" d="M63.7285 9.03052C64.6941 9.60465 65.5814 10.231 66.4165 10.8573V18.8168C65.5814 18.1905 64.6941 17.5642 63.7285 16.9901V9.03052Z" fill="#48CDB7"/>
<path opacity="0.7529" d="M49.8203 7.46484C50.3683 7.59533 50.9164 7.69972 51.4383 7.8302V10.5965C50.8903 10.466 50.3683 10.3355 49.8203 10.2311V7.46484Z" fill="#48CDB7"/>
<path opacity="0.7529" d="M46.8174 9.65674C47.3915 9.76113 47.9656 9.83942 48.5137 9.9438V12.2403C47.9656 12.1359 47.3915 12.0316 46.8174 11.9533V9.65674Z" fill="#48CDB7"/>
<path opacity="0.7529" d="M43.686 7.20386C44.2863 7.25605 44.8604 7.33434 45.4345 7.41263V9.44819C44.8604 9.3699 44.2602 9.29161 43.686 9.23941V7.20386Z" fill="#48CDB7"/>
<path opacity="0.7529" d="M40.4756 4.8811C41.0758 4.9072 41.676 4.95939 42.2763 5.01159V9.0827C41.676 9.0305 41.0758 8.97831 40.4756 8.95221V4.8811Z" fill="#48CDB7"/>
<path opacity="0.7529" d="M37.1875 3.0022C37.2658 3.0022 37.318 3.0022 37.3963 3.0022C37.9443 3.0022 38.4923 3.02829 39.0404 3.02829V8.90008C38.4923 8.87399 37.9443 8.87399 37.3963 8.87399C37.318 8.87399 37.2658 8.87399 37.1875 8.87399V3.0022Z" fill="#48CDB7"/>
<path d="M33.8999 4.85493C34.5001 4.82883 35.1265 4.80273 35.7267 4.80273V8.87384C35.1004 8.87384 34.5001 8.89994 33.8999 8.92604V4.85493Z" fill="#48CDB7"/>
<path opacity="0.7529" d="M30.6895 4.01989C31.2897 3.96769 31.8899 3.9155 32.4901 3.8894V9.00439C31.8899 9.05658 31.2897 9.08268 30.6895 9.13487V4.01989Z" fill="#48CDB7"/>
<path d="M27.5581 2.19312C28.1322 2.11483 28.7064 2.03654 29.3066 1.95825V9.29146C28.7325 9.36976 28.1322 9.44805 27.5581 9.52634V2.19312Z" fill="#48CDB7"/>
<g opacity="0.11">
<path opacity="0.11" d="M37.0289 60.2326C36.246 59.789 35.3065 59.789 34.5497 60.2326L19.7006 68.7924C19.4657 68.9229 19.4657 69.2621 19.7006 69.3926L34.6802 78.0307C35.3587 78.4221 36.1938 78.4221 36.8723 78.0307L51.878 69.3926C52.1129 69.2621 52.1129 68.9229 51.878 68.7924L37.0289 60.2326Z" fill="url(#paint6_linear)"/>
</g>
<g opacity="0.11">
<path opacity="0.11" d="M37.0286 57.7273C36.2457 57.2836 35.3062 57.2836 34.5494 57.7273L19.6742 66.287C19.4393 66.4175 19.4393 66.7568 19.6742 66.8873L34.6538 75.5253C35.3323 75.9168 36.1674 75.9168 36.8459 75.5253L51.8516 66.8873C52.0865 66.7568 52.0865 66.4175 51.8516 66.287L37.0286 57.7273Z" fill="url(#paint7_linear)"/>
</g>
<path opacity="0.5" d="M51.8516 61.3024L37.0286 52.7426C36.2457 52.299 35.3062 52.299 34.5494 52.7426L19.7003 61.3024C19.5959 61.3807 19.5176 61.4851 19.5176 61.6156V69.1315C19.5176 69.2619 19.5698 69.3663 19.7003 69.4446L34.6798 78.0827C35.3584 78.4741 36.1935 78.4741 36.872 78.0827L51.8777 69.4446C51.9821 69.3663 52.0603 69.2619 52.0603 69.1315V61.5895C52.0342 61.4851 51.9821 61.3546 51.8516 61.3024Z" fill="url(#paint8_linear)"/>
<path d="M51.8515 61.5636L36.8458 70.2016C36.1673 70.5931 35.3322 70.5931 34.6536 70.2016L19.6741 61.5636C19.6219 61.5375 19.5697 61.4853 19.5436 61.4331C19.4653 61.5897 19.4914 61.7985 19.6741 61.9028L34.6536 70.5409C35.3322 70.9324 36.1673 70.9324 36.8458 70.5409L51.8515 61.9028C52.0341 61.7985 52.0602 61.5897 51.9819 61.4331C51.9559 61.4853 51.9037 61.5114 51.8515 61.5636Z" fill="#F5F5F5"/>
<g opacity="0.2">
<g opacity="0.2">
<g opacity="0.2">
<path opacity="0.2" d="M24.0847 65.0865L22.8843 64.3819L24.0847 63.7034L25.2852 64.3819L24.0847 65.0865Z" fill="#42E8E0"/>
</g>
</g>
<g opacity="0.2">
<g opacity="0.2">
<path opacity="0.2" d="M73.7996 60.9371L72.5991 60.2325L73.7996 59.554L75 60.2325L73.7996 60.9371Z" fill="#42E8E0"/>
</g>
<g opacity="0.2">
<path opacity="0.2" d="M42.6404 65.1126L41.4399 64.4341L42.6404 63.7295L43.8409 64.4341L42.6404 65.1126Z" fill="#42E8E0"/>
</g>
</g>
</g>
<path d="M35.7774 28.7858L19.519 19.391L35.7774 9.99609L52.0357 19.391L35.7774 28.7858Z" fill="#F5F5F5"/>
<path opacity="0.7" d="M35.7785 27.4289L21.8428 19.3911L35.7785 11.3271L49.7142 19.3911L35.7785 27.4289Z" fill="#AAAAAA"/>
<path d="M52.0376 19.3911V55.4309L35.7793 64.8257V28.786L52.0376 19.3911Z" fill="url(#paint9_linear)"/>
<path d="M19.519 19.3911V55.4309L35.7774 64.8257V28.786L19.519 19.3911Z" fill="url(#paint10_linear)"/>
<path d="M49.5828 28.1074V29.0469L38.2046 35.6233V34.6577L49.5828 28.1074Z" fill="black" fill-opacity="0.1"/>
<path d="M49.5828 32.1262V33.0657L38.2046 39.6421V38.7026L49.5828 32.1262Z" fill="black" fill-opacity="0.1"/>
<path d="M49.5828 36.1453V37.1108L38.2046 43.6873V42.7217L49.5828 36.1453Z" fill="black" fill-opacity="0.1"/>
<path d="M49.5828 40.1902V41.1297L38.2046 47.7061V46.7405L49.5828 40.1902Z" fill="black" fill-opacity="0.1"/>
<path d="M35.7774 28.4727L19.78 19.2344L19.519 19.391L35.7774 28.7858L52.0357 19.391L51.7747 19.2344L35.7774 28.4727Z" fill="white"/>
<path d="M52.0357 14.6675V16.5465L35.7774 25.9413L19.519 16.5465V14.6675H52.0357Z" fill="#CCCCCC"/>
<path d="M35.7774 24.0622L19.519 14.6674L35.7774 5.29858L52.0357 14.6674L35.7774 24.0622Z" fill="#F5F5F5"/>
<path d="M35.7774 23.8535L19.7017 14.563L19.519 14.6674L35.7774 24.0622L52.0357 14.6674L51.853 14.563L35.7774 23.8535Z" fill="white"/>
<path d="M35.776 21.8964L23.2495 14.6676L35.776 7.46484L48.2764 14.6676L35.776 21.8964Z" fill="#0F054C"/>
<path opacity="0.5" d="M35.776 21.8964L23.2495 14.6676L35.776 7.46484L48.2764 14.6676L35.776 21.8964Z" fill="url(#paint11_linear)"/>
<path opacity="0.5" d="M35.7783 5.63794L48.2787 12.8668V14.6674L35.7783 7.46472V5.63794Z" fill="url(#paint12_linear)"/>
<path opacity="0.5" d="M35.777 7.46472L23.2505 14.6674V12.8668L35.777 5.63794V7.46472Z" fill="url(#paint13_linear)"/>
<path d="M35.777 20.0695L23.2505 12.8668L35.777 5.63794L48.2774 12.8668L35.777 20.0695Z" fill="#F5F5F5"/>
<path d="M35.7782 15.7374L30.7676 12.8667L35.7782 9.96997L40.7627 12.8667L35.7782 15.7374Z" fill="#DDDDDD"/>
<path d="M35.7782 10.2309L40.5278 12.9972L40.7627 12.8667L35.7782 9.96997L30.7676 12.8667L31.0024 12.9972L35.7782 10.2309Z" fill="#AAAAAA"/>
<path d="M35.7783 20.0694V21.8962L48.2787 14.6674V12.8667L35.7783 20.0694Z" fill="#CCCCCC"/>
<path d="M23.2495 12.8667V14.6674L35.776 21.8962V20.0694L23.2495 12.8667Z" fill="#CCCCCC"/>
<path d="M35.776 19.8869L23.4322 12.7625L23.2495 12.8668L35.776 20.0696L48.2764 12.8668L48.0937 12.7625L35.776 19.8869Z" fill="#AAAAAA"/>
<path opacity="0.502" d="M40.2938 52.7429V49.8983C41.7553 49.82 43.1906 49.6895 44.5998 49.5068V52.3514C43.1906 52.5602 41.7553 52.6646 40.2938 52.7429ZM33.4565 52.769V47.5496C34.3177 47.6018 35.205 47.6279 36.0923 47.6279C36.6925 47.6279 37.3188 47.6279 37.919 47.6279V52.8472C37.3188 52.8472 36.7186 52.8472 36.0923 52.8472C35.205 52.8472 34.3177 52.8211 33.4565 52.769ZM26.854 52.0904V44.1309C28.2371 44.3397 29.6463 44.5224 31.0817 44.6528V52.6124C29.6463 52.4819 28.2371 52.2992 26.854 52.0904ZM46.8703 52.0382V43.6351C48.2534 43.4002 49.5843 43.1392 50.8892 42.8261V51.2292C49.5582 51.5685 48.2273 51.8295 46.8703 52.0382ZM54.2557 40.0337C48.8536 41.7039 42.6687 42.6173 36.1184 42.539C31.5514 42.4868 27.1932 41.9649 23.1743 41.0776V53.7345C27.1932 54.6479 31.5514 55.1699 36.1184 55.196C42.6687 55.2743 48.8797 54.3348 54.2557 52.6907V40.0337Z" fill="#48CDB7"/>
<path opacity="0.502" d="M63.3364 43.6349V41.1818C69.2343 37.6848 73.0966 33.0396 73.7229 27.8724V30.3255C73.0966 35.4927 69.2604 40.164 63.3364 43.6349ZM73.8273 34.3183V21.6353C73.6446 27.8202 68.8428 33.3527 61.353 37.1629V49.8459C68.8428 46.0358 73.6185 40.5033 73.8273 34.3183Z" fill="#48CDB7"/>
<path opacity="0.7529" d="M73.723 27.8726C73.0966 33.0397 69.2343 37.7111 63.3364 41.1819V43.6351C69.2343 40.1381 73.0966 35.4928 73.723 30.3257V27.8726Z" fill="#48CDB7"/>
<path d="M31.0802 44.6528C29.6449 44.5223 28.2357 44.3396 26.8525 44.1309V52.0904C28.2357 52.2992 29.6449 52.4818 31.0802 52.6123V44.6528Z" fill="#48CDB7"/>
<path d="M44.5989 49.5068C43.1897 49.6895 41.7544 49.82 40.293 49.8983V52.7428C41.7544 52.6646 43.1897 52.5341 44.5989 52.3514V49.5068Z" fill="#48CDB7"/>
<path d="M50.8632 42.8521C49.5583 43.1652 48.2274 43.4262 46.8442 43.6611V52.0642C48.2274 51.8294 49.5583 51.5684 50.8632 51.2552V42.8521Z" fill="#48CDB7"/>
<path opacity="0.7529" d="M37.9196 47.6279C37.3194 47.6279 36.7191 47.6279 36.0928 47.6279C35.2055 47.6279 34.3182 47.6018 33.457 47.5496V52.7689C34.3182 52.8211 35.2055 52.8472 36.0928 52.8472C36.693 52.8472 37.3194 52.8472 37.9196 52.8472V47.6279Z" fill="#48CDB7"/>
<path d="M0.991498 28.812C0.834917 28.4727 0.678336 28.1334 0.547852 27.7942V36.6932C0.678336 37.0325 0.834917 37.3717 0.991498 37.711V28.812Z" fill="#48CDB7"/>
<path d="M1.98233 33.405C1.77356 33.0919 1.59088 32.7526 1.4082 32.4395V38.4939C1.59088 38.8332 1.77356 39.1463 1.98233 39.4595V33.405Z" fill="#48CDB7"/>
<path opacity="0.7529" d="M3.23559 33.2744C2.97463 32.9613 2.73975 32.6481 2.50488 32.335V40.2162C2.73975 40.5294 2.97463 40.8425 3.23559 41.1557V33.2744Z" fill="#48CDB7"/>
<path d="M4.69713 37.6065C4.41007 37.3195 4.123 37.0063 3.83594 36.7192V41.8864C4.09691 42.1996 4.38397 42.4866 4.69713 42.7737V37.6065Z" fill="#48CDB7"/>
<path opacity="0.7529" d="M6.41844 38.7028C6.07918 38.4157 5.73992 38.1547 5.42676 37.8677V43.4524C5.73992 43.7395 6.07918 44.0265 6.41844 44.2875V38.7028Z" fill="#48CDB7"/>
<path opacity="0.7529" d="M8.32361 41.7822C7.95825 41.5212 7.5668 41.2602 7.22754 40.9993V44.9399C7.59289 45.2009 7.95825 45.4618 8.32361 45.7228V41.7822Z" fill="#48CDB7"/>
<path opacity="0.7529" d="M10.4397 42.4084C10.0222 42.1736 9.63071 41.9126 9.23926 41.6777V46.323C9.63071 46.5839 10.0483 46.8188 10.4397 47.0537V42.4084Z" fill="#48CDB7"/>
<path opacity="0.7529" d="M12.7619 46.1402C12.3182 45.9314 11.8746 45.6965 11.457 45.4617V47.6016C11.8746 47.8365 12.3182 48.0453 12.7619 48.2801V46.1402Z" fill="#48CDB7"/>
<defs>
<linearGradient id="paint0_linear" x1="38.7303" y1="18.7964" x2="24.5021" y2="10.5818" gradientUnits="userSpaceOnUse">
<stop stop-color="#161242"/>
<stop offset="0.0158784" stop-color="#171C4C"/>
<stop offset="0.1045" stop-color="#1B4D7C"/>
<stop offset="0.1922" stop-color="#1F76A4"/>
<stop offset="0.2775" stop-color="#2196C4"/>
<stop offset="0.3595" stop-color="#23ADDA"/>
<stop offset="0.4371" stop-color="#25BAE7"/>
<stop offset="0.5054" stop-color="#25BFEC"/>
<stop offset="0.5633" stop-color="#24B4E1"/>
<stop offset="0.6658" stop-color="#2196C4"/>
<stop offset="0.801" stop-color="#1D6594"/>
<stop offset="0.9618" stop-color="#172353"/>
<stop offset="1" stop-color="#161242"/>
</linearGradient>
<linearGradient id="paint1_linear" x1="37.3605" y1="17.9539" x2="25.1644" y2="10.9125" gradientUnits="userSpaceOnUse">
<stop stop-color="#161242"/>
<stop offset="0.0158784" stop-color="#171C4C"/>
<stop offset="0.1045" stop-color="#1B4D7C"/>
<stop offset="0.1922" stop-color="#1F76A4"/>
<stop offset="0.2775" stop-color="#2196C4"/>
<stop offset="0.3595" stop-color="#23ADDA"/>
<stop offset="0.4371" stop-color="#25BAE7"/>
<stop offset="0.5054" stop-color="#25BFEC"/>
<stop offset="0.5633" stop-color="#24B4E1"/>
<stop offset="0.6658" stop-color="#2196C4"/>
<stop offset="0.801" stop-color="#1D6594"/>
<stop offset="0.9618" stop-color="#172353"/>
<stop offset="1" stop-color="#161242"/>
</linearGradient>
<linearGradient id="paint2_linear" x1="38.7743" y1="18.7193" x2="24.5464" y2="10.5047" gradientUnits="userSpaceOnUse">
<stop stop-color="#161242"/>
<stop offset="0.0158784" stop-color="#171C4C"/>
<stop offset="0.1045" stop-color="#1B4D7C"/>
<stop offset="0.1922" stop-color="#1F76A4"/>
<stop offset="0.2775" stop-color="#2196C4"/>
<stop offset="0.3595" stop-color="#23ADDA"/>
<stop offset="0.4371" stop-color="#25BAE7"/>
<stop offset="0.5054" stop-color="#25BFEC"/>
<stop offset="0.5633" stop-color="#24B4E1"/>
<stop offset="0.6658" stop-color="#2196C4"/>
<stop offset="0.801" stop-color="#1D6594"/>
<stop offset="0.9618" stop-color="#172353"/>
<stop offset="1" stop-color="#161242"/>
</linearGradient>
<linearGradient id="paint3_linear" x1="32.9136" y1="18.7962" x2="47.1414" y2="10.5818" gradientUnits="userSpaceOnUse">
<stop stop-color="#161242"/>
<stop offset="0.0158784" stop-color="#171C4C"/>
<stop offset="0.1045" stop-color="#1B4D7C"/>
<stop offset="0.1922" stop-color="#1F76A4"/>
<stop offset="0.2775" stop-color="#2196C4"/>
<stop offset="0.3595" stop-color="#23ADDA"/>
<stop offset="0.4371" stop-color="#25BAE7"/>
<stop offset="0.5054" stop-color="#25BFEC"/>
<stop offset="0.5633" stop-color="#24B4E1"/>
<stop offset="0.6658" stop-color="#2196C4"/>
<stop offset="0.801" stop-color="#1D6594"/>
<stop offset="0.9618" stop-color="#172353"/>
<stop offset="1" stop-color="#161242"/>
</linearGradient>
<linearGradient id="paint4_linear" x1="34.2839" y1="17.954" x2="46.4801" y2="10.9125" gradientUnits="userSpaceOnUse">
<stop stop-color="#161242"/>
<stop offset="0.0158784" stop-color="#171C4C"/>
<stop offset="0.1045" stop-color="#1B4D7C"/>
<stop offset="0.1922" stop-color="#1F76A4"/>
<stop offset="0.2775" stop-color="#2196C4"/>
<stop offset="0.3595" stop-color="#23ADDA"/>
<stop offset="0.4371" stop-color="#25BAE7"/>
<stop offset="0.5054" stop-color="#25BFEC"/>
<stop offset="0.5633" stop-color="#24B4E1"/>
<stop offset="0.6658" stop-color="#2196C4"/>
<stop offset="0.801" stop-color="#1D6594"/>
<stop offset="0.9618" stop-color="#172353"/>
<stop offset="1" stop-color="#161242"/>
</linearGradient>
<linearGradient id="paint5_linear" x1="32.8703" y1="18.7194" x2="47.0986" y2="10.5047" gradientUnits="userSpaceOnUse">
<stop stop-color="#161242"/>
<stop offset="0.0158784" stop-color="#171C4C"/>
<stop offset="0.1045" stop-color="#1B4D7C"/>
<stop offset="0.1922" stop-color="#1F76A4"/>
<stop offset="0.2775" stop-color="#2196C4"/>
<stop offset="0.3595" stop-color="#23ADDA"/>
<stop offset="0.4371" stop-color="#25BAE7"/>
<stop offset="0.5054" stop-color="#25BFEC"/>
<stop offset="0.5633" stop-color="#24B4E1"/>
<stop offset="0.6658" stop-color="#2196C4"/>
<stop offset="0.801" stop-color="#1D6594"/>
<stop offset="0.9618" stop-color="#172353"/>
<stop offset="1" stop-color="#161242"/>
</linearGradient>
<linearGradient id="paint6_linear" x1="19.5058" y1="69.1233" x2="52.0305" y2="69.1233" gradientUnits="userSpaceOnUse">
<stop stop-color="#5761D7"/>
<stop offset="0.0725764" stop-color="#5472D8"/>
<stop offset="0.2791" stop-color="#4E9CDB"/>
<stop offset="0.4801" stop-color="#49BDDD"/>
<stop offset="0.6715" stop-color="#45D5DF"/>
<stop offset="0.8493" stop-color="#43E3E0"/>
<stop offset="1" stop-color="#42E8E0"/>
</linearGradient>
<linearGradient id="paint7_linear" x1="19.5056" y1="66.6212" x2="52.0302" y2="66.6212" gradientUnits="userSpaceOnUse">
<stop stop-color="#5761D7"/>
<stop offset="0.0725764" stop-color="#5472D8"/>
<stop offset="0.2791" stop-color="#4E9CDB"/>
<stop offset="0.4801" stop-color="#49BDDD"/>
<stop offset="0.6715" stop-color="#45D5DF"/>
<stop offset="0.8493" stop-color="#43E3E0"/>
<stop offset="1" stop-color="#42E8E0"/>
</linearGradient>
<linearGradient id="paint8_linear" x1="19.4656" y1="61.72" x2="24.8154" y2="75.0293" gradientUnits="userSpaceOnUse">
<stop stop-color="#888888"/>
<stop offset="1" stop-color="#5A5A5A"/>
</linearGradient>
<linearGradient id="paint9_linear" x1="43.9085" y1="24.6627" x2="43.9085" y2="64.8257" gradientUnits="userSpaceOnUse">
<stop stop-color="#C4C4C4"/>
<stop offset="1" stop-color="#939393"/>
</linearGradient>
<linearGradient id="paint10_linear" x1="27.6482" y1="19.3911" x2="27.6482" y2="64.8257" gradientUnits="userSpaceOnUse">
<stop stop-color="#CCCCCC"/>
<stop offset="1" stop-color="#BEBEBE"/>
</linearGradient>
<linearGradient id="paint11_linear" x1="23.2598" y1="14.6775" x2="48.2761" y2="14.6775" gradientUnits="userSpaceOnUse">
<stop stop-color="#42E8E0"/>
<stop offset="0.1507" stop-color="#43E3E0"/>
<stop offset="0.3285" stop-color="#45D5DF"/>
<stop offset="0.5199" stop-color="#49BDDD"/>
<stop offset="0.7209" stop-color="#4E9CDB"/>
<stop offset="0.9274" stop-color="#5472D8"/>
<stop offset="1" stop-color="#5761D7"/>
</linearGradient>
<linearGradient id="paint12_linear" x1="35.7701" y1="10.1561" x2="48.2784" y2="10.1561" gradientUnits="userSpaceOnUse">
<stop stop-color="#42E8E0"/>
<stop offset="0.1507" stop-color="#43E3E0"/>
<stop offset="0.3285" stop-color="#45D5DF"/>
<stop offset="0.5199" stop-color="#49BDDD"/>
<stop offset="0.7209" stop-color="#4E9CDB"/>
<stop offset="0.9274" stop-color="#5472D8"/>
<stop offset="1" stop-color="#5761D7"/>
</linearGradient>
<linearGradient id="paint13_linear" x1="23.2608" y1="10.156" x2="35.7691" y2="10.156" gradientUnits="userSpaceOnUse">
<stop stop-color="#42E8E0"/>
<stop offset="0.1507" stop-color="#43E3E0"/>
<stop offset="0.3285" stop-color="#45D5DF"/>
<stop offset="0.5199" stop-color="#49BDDD"/>
<stop offset="0.7209" stop-color="#4E9CDB"/>
<stop offset="0.9274" stop-color="#5472D8"/>
<stop offset="1" stop-color="#5761D7"/>
</linearGradient>
</defs>
</svg>
