<svg width="76" height="90" viewBox="0 0 76 90" fill="none" xmlns="http://www.w3.org/2000/svg">
<g clip-path="url(#clip0)">
<path d="M49.4273 66.6387V68.0591H49.3856H46.0455C45.628 67.0565 44.9182 66.0956 43.9997 65.2183L46.3795 63.8397C47.3398 63.2966 47.7573 62.5029 47.632 61.7927V57.8239H43.3317V59.2025C41.9957 59.0772 40.6179 59.3279 39.6159 59.9127L37.2361 61.2913C35.6913 60.7483 34.0212 60.3723 32.3095 60.1216V58.1999C32.3095 56.7795 30.3472 55.6516 27.8839 55.6516H27.2576C24.8361 55.6516 22.832 56.7795 22.832 58.1999V60.1216C21.1202 60.3723 19.4502 60.7483 17.9054 61.2913L15.5256 59.9127C13.8556 58.9519 11.2253 58.9101 9.47174 59.7874V57.7404H7.50945V61.7509C7.3842 62.5029 7.8017 63.2548 8.76197 63.7979L11.1418 65.1765C10.2233 66.0956 9.55524 67.0147 9.09598 68.0173H5.75591C5.12965 68.0173 4.54514 68.1009 4.00238 68.2262V66.5134H1.37207V70.8999V71.0252C1.37207 72.4456 3.33436 73.5736 5.79766 73.5736H9.13773C9.55524 74.5762 10.265 75.537 11.1835 76.4143L10.1815 76.9992V75.3699H7.50945V79.8818H7.5512C7.67645 80.4249 8.09396 80.968 8.80372 81.3857L9.30474 81.6782C11.0165 82.6808 13.8138 82.6808 15.5256 81.6782L17.9054 80.2995C19.4502 80.8426 21.1202 81.2186 22.832 81.4693V83.391C22.832 84.8114 24.7943 85.9393 27.2576 85.9393H27.9674C30.3889 85.9393 32.393 84.8114 32.393 83.391V81.4693C34.1048 81.2186 35.7748 80.8426 37.3196 80.2995L39.6994 81.6782C41.4112 82.6808 44.2085 82.6808 45.9202 81.6782L46.4213 81.3857C47.3815 80.8426 47.799 80.0489 47.6738 79.3387V75.7041H44.7095C45.294 75.0357 45.7532 74.3255 46.0872 73.5736H49.4273C51.8071 73.5736 53.7277 72.4874 53.8112 71.1505V71.0252V70.6074V66.6387H49.4273ZM34.2718 70.8581C34.2718 71.819 33.6037 72.7798 32.3512 73.5318L32.2677 73.5736C30.9734 74.2838 29.3452 74.6597 27.6751 74.6597H27.5499C25.8798 74.6597 24.2098 74.2838 22.9573 73.5736L22.8738 73.5318C21.6212 72.7798 20.995 71.819 20.9532 70.8581V70.7745C20.9532 69.8137 21.6212 68.8528 22.8738 68.1009L22.9573 68.0591C24.2515 67.3489 25.8798 66.9729 27.5499 66.9729C27.5916 66.9729 27.6334 66.9729 27.6751 66.9729C29.3452 66.9729 31.0152 67.3489 32.2677 68.0591L32.3512 68.1009C33.6037 68.8528 34.23 69.8137 34.2718 70.7745C34.2718 70.8163 34.2718 70.8581 34.2718 70.8581Z" fill="url(#paint0_linear)"/>
<path d="M46.3795 73.6154L43.9997 72.2368C44.9182 71.3177 45.5862 70.3986 46.0455 69.396H49.3856C51.8071 69.396 53.8112 68.268 53.8112 66.8476V66.4299C53.8112 65.0095 51.8489 63.8815 49.3856 63.8815H46.0455C45.628 62.8789 44.9182 61.918 43.9997 61.0407L46.3795 59.6621C48.0913 58.6595 48.0913 57.072 46.3795 56.0694L45.8785 55.7769C44.1667 54.7743 41.3694 54.7743 39.6576 55.7769L37.2778 57.1555C35.733 56.6125 34.063 56.2365 32.3512 55.9858V54.0641C32.3512 52.6437 30.3889 51.5157 27.9256 51.5157H27.2576C24.8361 51.5157 22.832 52.6437 22.832 54.0641V55.9858C21.1202 56.2365 19.4502 56.6125 17.9054 57.1555L15.5256 55.7769C13.8138 54.7743 11.0165 54.7743 9.30474 55.7769L8.80372 56.0694C7.09194 57.072 7.09194 58.6595 8.80372 59.6621L11.1835 61.0407C10.265 61.9598 9.59699 62.8789 9.13773 63.8815H5.79766C3.33436 63.8815 1.37207 65.0512 1.37207 66.4299V66.8476C1.37207 68.268 3.33436 69.396 5.79766 69.396H9.13773C9.55524 70.3986 10.265 71.3595 11.1835 72.2368L8.80372 73.6154C7.09194 74.618 7.09194 76.2055 8.80372 77.2081L9.30474 77.5006C11.0165 78.5032 13.8138 78.5032 15.5256 77.5006L17.9054 76.1219C19.4502 76.665 21.1202 77.041 22.832 77.2917V79.2134C22.832 80.6338 24.7943 81.7617 27.2576 81.7617H27.9674C30.3889 81.7617 32.393 80.6338 32.393 79.2134V77.2917C34.1048 77.041 35.7748 76.665 37.3196 76.1219L39.6994 77.5006C41.4112 78.5032 44.2085 78.5032 45.9202 77.5006L46.4213 77.2081C48.133 76.2055 48.133 74.618 46.3795 73.6154ZM27.5081 70.4822C25.8381 70.4822 24.168 70.1062 22.9155 69.396L22.832 69.3542C21.5795 68.6022 20.9532 67.6414 20.9115 66.6805V66.597C20.9115 65.6361 21.5795 64.6753 22.832 63.9233L22.9155 63.8815C24.2098 63.1713 25.8381 62.7953 27.5081 62.7953C27.5499 62.7953 27.5916 62.7953 27.6334 62.7953C29.3034 62.7953 30.9734 63.1713 32.226 63.8815L32.3095 63.9233C33.562 64.6753 34.1883 65.6361 34.23 66.597C34.23 66.6387 34.23 66.6387 34.23 66.6805C34.23 67.6414 33.562 68.6022 32.3095 69.3542L32.226 69.396C30.9317 70.1062 29.3034 70.4822 27.6334 70.4822H27.5081Z" fill="url(#paint1_linear)"/>
<path d="M49.7737 28.0489C49.7737 37.6235 43.0631 41.5197 34.7785 36.7117C26.4938 31.9451 19.7832 20.2981 19.7832 10.7235C19.7832 1.14886 26.4938 -2.7473 34.7785 2.06073C43.0631 6.86876 49.7737 18.4743 49.7737 28.0489Z" fill="url(#paint2_linear)"/>
<path d="M67.4616 61.2077L44.7202 35.5511L47.7441 32.5254L73.3851 55.2806C75.0421 56.9386 75.0421 59.5913 73.3851 61.2077C71.7696 62.8657 69.1185 62.8657 67.4616 61.2077Z" fill="#EAEAEA"/>
<path d="M65.7629 62.5755L43.0215 36.9189L46.0454 33.8931L71.6864 56.6484C73.3433 58.3063 73.3433 60.959 71.6864 62.5755C70.0709 64.2334 67.4198 64.2334 65.7629 62.5755Z" fill="url(#paint3_linear)"/>
<path d="M46.7913 29.8312C46.7913 39.4058 40.0807 43.302 31.796 38.494C23.5114 33.6859 16.8008 22.0804 16.8008 12.5058C16.8008 2.93115 23.5114 -0.965008 31.796 3.84302C40.0807 8.60959 46.7913 20.2566 46.7913 29.8312Z" fill="url(#paint4_linear)"/>
<path d="M31.7961 34.3906C25.4998 30.7431 20.3633 21.8317 20.3633 14.5782C20.3633 7.28328 25.4998 4.34043 31.7961 7.9879C38.0925 11.5939 43.229 20.5053 43.229 27.8003C43.229 35.0952 38.0925 38.0381 31.7961 34.3906Z" fill="white"/>
</g>
<defs>
<linearGradient id="paint0_linear" x1="27.5916" y1="55.6516" x2="27.5916" y2="85.9393" gradientUnits="userSpaceOnUse">
<stop stop-color="#A9A9A9"/>
<stop offset="1" stop-color="#D2D2D2"/>
</linearGradient>
<linearGradient id="paint1_linear" x1="27.5916" y1="51.5157" x2="27.5916" y2="81.7617" gradientUnits="userSpaceOnUse">
<stop stop-color="#D3D3D3"/>
<stop offset="1" stop-color="#F5F5F5"/>
</linearGradient>
<linearGradient id="paint2_linear" x1="24.8018" y1="-4.65147e-08" x2="47.6224" y2="33.5569" gradientUnits="userSpaceOnUse">
<stop stop-color="#D8D8D8"/>
<stop offset="1" stop-color="#F1F1F1"/>
</linearGradient>
<linearGradient id="paint3_linear" x1="57.9753" y1="33.8931" x2="57.9753" y2="63.8189" gradientUnits="userSpaceOnUse">
<stop stop-color="#A9A9A9"/>
<stop offset="1" stop-color="#C6C6C6"/>
</linearGradient>
<linearGradient id="paint4_linear" x1="31.796" y1="1.78229" x2="31.796" y2="40.5547" gradientUnits="userSpaceOnUse">
<stop stop-color="#A9A9A9"/>
<stop offset="1" stop-color="#C6C6C6"/>
</linearGradient>
<clipPath id="clip0">
<rect x="1.37207" width="73.2558" height="90" fill="white"/>
</clipPath>
</defs>
</svg>
