<svg width="76" height="90" viewBox="0 0 76 90" fill="none" xmlns="http://www.w3.org/2000/svg">
<path d="M63.0795 84.9454L37.2517 70.0447C39.4371 67.9586 41.6225 65.7732 43.9073 63.6871C46.7881 61.005 49.8675 58.5216 52.649 55.6408C54.5364 53.654 58.7086 50.2765 60.596 48.1904C63.1788 51.3692 65.0662 55.7401 65.0662 59.5149C65.0662 60.3096 64.9669 61.1043 64.7682 61.7997C65.0662 61.899 65.2649 62.0977 65.5629 62.1971C70.8278 65.1772 75 72.4288 75 78.3891C75 81.2699 74.0066 83.356 72.3179 84.3494H72.2185L64.1722 88.7202L62.8808 85.1441H63.6755C63.4768 85.1441 63.2781 85.0447 63.0795 84.9454Z" fill="url(#paint0_linear)"/>
<path d="M36.2579 69.3493L35.8606 69.1506C37.0526 68.2566 38.1453 67.2632 39.3374 66.3691C38.344 67.3625 37.2513 68.3559 36.2579 69.3493Z" fill="#52A5EA"/>
<path d="M18.477 49.1838C20.3644 48.5877 22.5498 47.8924 24.0399 46.4023C25.7286 44.7136 26.722 41.9321 26.126 39.548C26.3247 39.6473 26.424 39.7467 26.6227 39.846C26.722 39.0513 26.8214 38.2566 27.02 37.5613C25.6293 37.0646 24.8346 36.2699 24.8346 36.2699L32.7816 31.9983C32.7816 31.9983 32.881 31.9983 32.881 31.899C35.1657 30.6076 38.2452 30.9056 41.6227 32.793C45.4969 35.0778 48.9737 39.0513 51.2584 43.5215C52.7485 43.1242 54.5366 43.4222 56.424 44.5149C57.6161 45.2103 58.7088 46.1043 59.7021 47.0977C57.7154 49.3824 53.3445 52.9586 51.2584 55.144C50.8611 55.5414 50.4637 55.9387 49.967 56.3361C49.8677 56.3361 49.7684 56.3361 49.669 56.4354C44.7021 60.4089 39.8346 64.3824 34.8677 68.356L26.6227 63.5877C26.3247 63.4884 26.0267 63.2897 25.7286 63.0911C21.1591 60.5083 17.2849 54.9454 15.8942 49.4818C16.7882 49.5811 17.5829 49.3824 18.477 49.1838Z" fill="url(#paint1_linear)"/>
<path d="M56.424 44.7135C61.1922 47.4949 65.0664 54.1506 65.0664 59.6142C65.0664 60.4089 64.9671 61.2036 64.7684 61.8989L56.8214 66.1704C36.4571 69.1506 43.3114 47.9916 43.3114 47.9916L51.2585 43.7201C52.7485 43.2234 54.5366 43.5214 56.424 44.7135Z" fill="url(#paint2_linear)"/>
<path d="M9.93353 48.389C9.93353 55.0447 14.6024 63.091 20.364 66.4685C20.5627 66.5678 20.7613 66.6672 20.96 66.7665C21.0594 66.7665 21.1587 66.8659 21.258 66.8659L34.768 74.6142L40.5296 77.8923L57.8143 87.8261C58.311 88.1241 58.907 88.4221 59.4037 88.6208C63.7746 90.4089 67.0527 88.0248 67.0527 82.6606C67.0527 76.7003 62.8805 69.548 57.715 66.5678C57.417 66.3692 57.2183 66.2698 56.9203 66.1705C57.119 65.4751 57.2183 64.7798 57.2183 63.8857C57.2183 58.8195 53.9402 52.8592 49.768 49.7798C49.3706 49.4817 48.9733 49.2831 48.5759 48.9851C46.5892 47.8923 44.8011 47.5943 43.4103 47.9917C41.1256 43.5215 37.6488 39.4486 33.7746 37.2632C32.4832 36.5678 31.1918 36.0711 30.0991 35.7731C28.311 35.3758 26.6223 35.5745 25.3309 36.1705C23.1454 37.2632 21.7547 39.6473 21.4567 43.0248C21.1587 42.8261 20.8607 42.6274 20.4633 42.4288C18.3772 41.2367 16.3905 40.8394 14.7017 41.038C11.8209 41.5347 9.93353 44.1175 9.93353 48.389Z" fill="#DCFFFF"/>
<path d="M11.1257 48.3889C11.1257 51.369 12.1191 54.8458 14.0065 58.0246C15.7946 61.1041 18.0794 63.5875 20.5628 65.0776C20.6622 65.177 20.8608 65.2763 20.9602 65.3756C21.1589 65.475 21.3575 65.5743 21.5562 65.6736C21.6555 65.6736 21.6555 65.773 21.7549 65.773L22.5496 66.1703V66.2697L34.3708 73.0246L40.1324 76.3028L58.4105 86.9319C58.6092 87.0313 58.8079 87.1306 59.0065 87.2299C59.3045 87.3293 59.6026 87.528 59.8012 87.6273C60.5959 87.9253 61.2913 88.0246 61.9867 88.0246C64.4701 88.0246 65.8608 86.0379 65.8608 82.6604C65.8608 81.7664 65.7615 80.773 65.5628 79.8789C65.2648 78.2895 64.6688 76.6008 63.7747 75.0114C63.6754 74.7134 63.4767 74.4154 63.2781 74.1174C61.5893 71.2366 59.4039 68.9518 57.1191 67.6604C56.9204 67.5611 56.6224 67.3624 56.4238 67.2631L55.5297 66.8657L55.7284 65.8723C55.8277 65.2763 55.9271 64.6803 55.9271 63.8856C55.9271 61.3028 54.9337 58.422 53.4436 55.8392C52.5496 54.3491 51.4569 52.9584 50.2648 51.7664C49.8675 51.369 49.4701 51.071 48.9734 50.773C48.6754 50.475 48.2781 50.2763 47.8807 50.0776C46.6887 49.3823 45.5959 49.0842 44.6026 49.0842C44.3045 49.0842 43.9072 49.0842 43.6092 49.1836L42.6158 49.4816L42.2185 48.5876C39.9337 44.1174 36.6555 40.3425 33.0794 38.3558C32.1853 37.8591 31.192 37.4617 30.2979 37.1637C30.0993 37.0644 29.9006 37.0644 29.7019 36.965C29.1059 36.8657 28.6092 36.7664 28.1125 36.7664C27.2185 36.7664 26.4238 36.965 25.7284 37.263C25.6291 37.263 25.5297 37.3624 25.4304 37.3624C24.3377 37.9584 23.543 39.0511 23.0463 40.3425C22.7483 41.1372 22.5496 42.0313 22.4502 43.0246L22.2516 45.2101L21.4569 44.7134L20.4635 44.018C20.1655 43.8193 19.8675 43.6207 19.5695 43.422C19.2714 43.2233 18.8741 43.0246 18.5761 42.9253C17.4834 42.4286 16.49 42.1306 15.4966 42.1306C15.2979 42.1306 14.9999 42.1306 14.8012 42.2299H14.7019C12.5165 42.6273 11.1257 44.9121 11.1257 48.3889Z" fill="#48CDB7"/>
<path d="M26.3242 37.263C26.2248 37.263 26.1255 37.3624 26.0262 37.3624C24.3374 38.3558 23.344 40.3425 23.046 43.0246L22.8474 44.8127L22.2513 45.2101L22.45 43.0246C22.6487 40.3425 23.7414 38.2564 25.4301 37.3624C25.5295 37.3624 25.6288 37.263 25.7281 37.263C26.4235 36.965 27.1189 36.7664 27.9136 36.7664C27.4169 36.8657 26.8209 36.965 26.3242 37.263Z" fill="#AACDEC"/>
<path d="M14.9001 42.23C15.1981 42.23 15.3968 42.1306 15.5955 42.1306H15.4962H15.3968C13.0127 42.528 11.7213 44.7134 11.7213 48.1902C11.7213 51.1703 12.7147 54.6472 14.6021 57.826C16.3902 60.9055 18.675 63.3889 21.1584 64.879C21.2577 64.9783 21.4564 65.0776 21.5558 65.177C21.7544 65.2763 21.9531 65.3756 22.1518 65.475C22.2511 65.475 22.2511 65.5743 22.3505 65.5743L23.1452 65.9717V66.071L34.9664 72.826L40.7279 76.1041L58.9068 86.8326C59.1054 86.9319 59.3041 87.0313 59.5028 87.1306C59.8008 87.23 60.0988 87.4286 60.2975 87.528C61.0922 87.826 61.7875 87.9253 62.4829 87.9253C62.2842 87.9253 62.0856 87.9253 61.8869 87.9253C61.1915 87.9253 60.4962 87.7266 59.7015 87.528C59.4034 87.4286 59.1054 87.3293 58.9068 87.1306C58.7081 87.0313 58.5094 86.9319 58.3107 86.8326L40.0326 76.2035L34.271 72.9253L22.4498 66.1703V66.071L21.6551 65.6737C21.5558 65.6737 21.5558 65.5743 21.4564 65.5743C21.2577 65.475 21.0591 65.3757 20.8604 65.2763C20.7611 65.177 20.5624 65.0776 20.463 64.9783C17.9796 63.4882 15.6948 60.9055 13.9067 57.9253C12.0193 54.7465 11.026 51.2697 11.026 48.2896C11.1253 44.9121 12.516 42.6273 14.9001 42.23Z" fill="#AACDEC"/>
<path d="M44.3043 49.1836L43.3109 49.4817L43.2116 49.3823L43.7083 49.283C44.0063 49.1836 44.3043 49.1836 44.7017 49.1836C44.6023 49.0843 44.4036 49.0843 44.3043 49.1836Z" fill="#428BD0"/>
<path d="M57.7155 67.9585C57.4175 67.7598 57.2188 67.6605 56.9208 67.5612C57.0201 67.1638 57.1194 66.7665 57.1194 66.2698C57.3181 66.3691 57.5168 66.4684 57.7155 66.5678C62.881 69.5479 67.0532 76.7002 67.0532 82.6605C67.0532 82.8592 67.0532 83.1572 67.0532 83.3559C66.7552 77.5943 62.6824 70.8393 57.7155 67.9585Z" fill="#DCFFFF"/>
<path d="M49.6688 51.1705C49.2715 50.8725 48.8741 50.6738 48.4768 50.3758C46.49 49.2831 44.7019 48.9851 43.3112 49.3825C41.0264 44.9123 37.5496 40.8394 33.6754 38.654C32.384 37.9586 31.0927 37.4619 29.9999 37.1639C28.2119 36.7666 26.5231 36.9652 25.2317 37.5613C23.0463 38.654 21.6556 41.0381 21.3576 44.4156C21.0595 44.2169 20.7615 44.0182 20.3642 43.8195C18.2781 42.6275 16.2913 42.2301 14.6026 42.4288C11.9205 42.9255 10.033 45.2103 9.83437 49.0844C9.83437 48.8858 9.83437 48.5877 9.83437 48.3891C9.83437 44.2169 11.7218 41.5348 14.6026 41.0381C16.2913 40.7401 18.1787 41.1374 20.3642 42.4288C20.6622 42.6275 21.0595 42.8262 21.3576 43.0248C21.6556 39.6474 23.1456 37.2632 25.2317 36.1705C26.6225 35.4752 28.2119 35.3758 29.9999 35.7732C31.192 36.0712 32.384 36.5679 33.6754 37.2632C37.5496 39.548 41.0264 43.5215 43.3112 47.9917C44.8013 47.5944 46.5893 47.8924 48.4768 48.9851C48.8741 49.1838 49.2715 49.4818 49.6688 49.7798C53.841 52.8593 57.1191 58.9189 57.1191 63.8858C57.1191 64.0844 57.1191 64.3825 57.1191 64.5811C56.9205 59.7136 53.7417 54.0513 49.6688 51.1705Z" fill="#DCFFFF"/>
<path d="M14.6024 41.0378C16.2911 40.7398 18.1786 41.1372 20.364 42.4286C20.662 42.6272 21.0594 42.8259 21.3574 43.0246C21.6554 39.6471 23.1454 37.263 25.2315 36.1703C26.6223 35.4749 28.2117 35.3756 29.9998 35.7729C31.1918 36.0709 32.3839 36.5676 33.6753 37.263C37.5494 39.5478 41.0262 43.5213 43.311 47.9915C44.8011 47.5941 46.5892 47.8921 48.4766 48.9849C48.8739 49.1835 49.2713 49.4815 49.6686 49.7796C53.8408 52.859 57.119 58.9186 57.119 63.8855C57.119 64.6802 57.0196 65.4749 56.8209 66.1703C57.119 66.2696 57.3176 66.4683 57.6156 66.5676C62.8805 69.5478 67.0527 76.7001 67.0527 82.6604C67.0527 87.9253 63.6753 90.4087 59.3044 88.72C58.8077 88.5213 58.311 88.3226 57.715 87.9253L55.3309 86.5345L54.1388 85.8392L51.6554 84.4484L45.8938 81.1703L42.2183 79.0842L40.4302 78.0908L36.4567 75.8061L35.2647 75.1107L34.6686 74.8127L33.9733 74.4153L32.7812 73.72L21.258 67.0643V66.965C21.1587 66.965 21.0594 66.8657 20.96 66.8657C20.7613 66.7663 20.5627 66.667 20.364 66.5676C14.6024 63.1902 9.93353 55.1438 9.93353 48.4882C9.93353 44.1173 11.8209 41.5345 14.6024 41.0378ZM20.5627 65.0776C20.662 65.1769 20.8607 65.2763 20.96 65.3756C21.1587 65.4749 21.3574 65.5743 21.4567 65.6736C21.556 65.6736 21.556 65.7729 21.6554 65.7729L22.4501 66.1703V66.2696L32.7812 72.2299L33.9733 72.9253L34.2713 73.0246L35.2647 73.6206L36.4567 74.316L40.0329 76.4021L42.2183 77.5941L44.7017 78.9849L45.8938 79.6802L51.6554 82.9584L55.3309 85.0445L58.4103 86.8325C58.609 86.9319 58.8077 87.0312 59.0064 87.1306C59.3044 87.2299 59.6024 87.4286 59.8011 87.5279C60.5958 87.8259 61.2911 88.0246 61.9865 88.0246C64.47 88.0246 65.8607 86.0378 65.8607 82.6604C65.8607 81.7663 65.7613 80.7729 65.5627 79.8789C65.2647 78.2895 64.6686 76.6007 63.7746 75.0113C63.6753 74.7133 63.4766 74.4153 63.2779 74.1173C61.5892 71.2365 59.4037 68.9517 57.119 67.6604C56.9203 67.561 56.6223 67.3623 56.4236 67.263L55.5296 66.8657L55.7282 65.8723C55.8276 65.2763 55.9269 64.6802 55.9269 63.8855C55.9269 61.3027 54.9335 58.4219 53.4435 55.8392C52.5494 54.3491 51.4567 52.9584 50.2647 51.7663C49.8673 51.369 49.47 51.071 48.9733 50.7729C48.6752 50.5743 48.2779 50.2762 47.9799 50.0776C46.7878 49.3822 45.6951 49.0842 44.7017 49.0842C44.4037 49.0842 44.0064 49.0842 43.7084 49.1835L42.715 49.4815L42.2183 48.5875C39.9335 44.1173 36.6554 40.3425 33.0792 38.3557C32.1852 37.859 31.1918 37.3623 30.3971 37.1637C30.1984 37.0643 29.9998 37.0643 29.8011 36.965C29.205 36.8656 28.7084 36.7663 28.2117 36.7663C27.3176 36.7663 26.5229 36.965 25.8276 37.263C25.7282 37.263 25.6289 37.3623 25.5296 37.3623C24.4368 37.9584 23.6421 38.9517 23.1454 40.3425C22.8474 41.1372 22.6488 42.0312 22.5494 43.0246L22.3507 45.21L21.556 44.7133L20.5627 44.018C20.2647 43.8193 19.9666 43.6206 19.6686 43.4219C19.3706 43.2233 18.9733 43.0246 18.6752 42.9253C17.5825 42.4286 16.5892 42.1306 15.5958 42.1306C15.3971 42.1306 15.0991 42.1305 14.9004 42.2299H14.8011C12.417 42.6272 11.1256 44.8127 11.1256 48.2895C11.1256 51.2696 12.119 54.7464 14.0064 57.9253C15.7944 61.0047 18.0792 63.4882 20.5627 65.0776Z" fill="white"/>
<path d="M42.2186 42.0312C54.4372 54.6471 55.0332 79.0842 55.0332 79.0842L22.1524 60.5081C22.1524 60.5081 21.5564 35.9716 9.33784 23.4551L42.2186 42.0312Z" fill="#A9A9A9"/>
<path d="M41.424 42.5281C53.6425 55.0446 54.3379 79.581 54.3379 79.581L21.4571 61.0049C21.4571 61.0049 20.8611 36.4685 8.64252 23.9519L41.424 42.5281Z" fill="url(#paint3_linear)"/>
<path d="M53.543 72.3294C54.139 83.4552 20.3642 42.3294 20.3642 42.3294L19.5695 38.9519L46.9867 54.4486C46.9867 54.4486 52.8476 61.2036 53.543 72.3294Z" fill="#A9A9A9"/>
<path d="M51.5565 63.6869L53.8413 73.6207L25.6294 57.6273L35.7618 54.7465C40.232 50.475 48.6757 57.3293 51.5565 63.6869Z" fill="#A9A9A9"/>
<path d="M51.1591 63.985L53.4438 73.9188L25.2319 57.9254L35.3644 55.0446C39.8346 50.7731 48.3776 57.6274 51.1591 63.985Z" fill="#D4D4D4"/>
<path d="M51.7551 68.5547L51.8545 69.5487L51.7551 68.7535C51.8545 68.7535 51.8545 68.6541 51.7551 68.5547Z" fill="#DCFFFF"/>
<path d="M50.563 70.74L43.7087 76.7996L59.3047 85.6406C59.5034 85.74 59.702 85.8393 59.9007 85.9386C60.1987 86.038 60.3974 86.2366 60.6954 86.336C61.3908 86.634 61.5895 87.9254 62.0862 87.9254C62.9802 88.0247 64.0729 86.7333 64.4703 86.2366C64.9669 85.6406 64.9669 84.5479 64.4703 83.0578C64.2716 82.3625 63.8742 81.5678 63.4769 80.8724C62.7815 79.581 61.8875 78.2896 60.7948 76.8989C60.5961 76.7002 60.3974 76.4022 60.1987 76.2035C58.1126 73.8194 55.7285 71.7333 53.4438 70.5413C53.2451 70.4419 52.9471 70.3426 52.7484 70.1439L51.8544 69.7466L50.563 70.74Z" fill="white"/>
<path d="M26.7213 67.0644L43.8074 76.7002L50.6617 70.6406L51.9531 69.5479L51.8538 68.5545V68.4552C51.8538 68.0578 51.7544 67.7598 51.5558 67.2631C50.8604 65.2764 49.3703 62.8922 47.4829 60.7068C46.3902 59.4154 45.0988 58.2234 43.8074 57.23C43.6088 57.0313 43.3107 56.8326 43.1121 56.7333C42.9134 56.634 42.7147 56.4353 42.516 56.336C42.1187 56.1373 41.8207 55.9386 41.5227 55.7399C40.4299 55.1439 39.4366 54.7466 38.6419 54.6472C38.3439 54.6472 38.1452 54.6472 37.8472 54.6472L37.0525 54.7466L35.7611 55.8393L26.7213 67.0644Z" fill="white"/>
<path d="M9.23834 51.7665C10.033 54.1506 11.7218 56.9321 14.1059 59.6142C16.3907 62.197 18.8741 64.3824 21.2582 65.7731C21.3575 65.8725 21.5562 65.9718 21.6556 66.0711C21.8542 66.1705 22.0529 66.2698 22.1522 66.3692C22.2516 66.3692 22.2516 66.4685 22.3509 66.4685L23.0463 66.8659V66.9652L34.6688 73.4221L40.2317 76.6009L58.1125 86.7334C58.3112 86.8327 58.5099 86.9321 58.6092 87.0314C58.9072 87.1307 59.1059 87.3294 59.4039 87.4288C60.0993 87.7268 60.7946 87.9254 61.2913 88.0248C63.2781 88.2235 63.9734 86.8327 63.1787 84.25C62.9801 83.5546 62.5827 82.7599 62.1854 82.0645C61.49 80.7731 60.596 79.4817 59.5032 78.091C59.3046 77.8923 59.1059 77.5943 58.9072 77.3956C56.8211 75.0115 54.437 72.9255 52.1522 71.7334C51.9536 71.6341 51.6556 71.4354 51.4569 71.3361L50.5628 70.9387L50.4635 70.144C50.4635 69.7466 50.3642 69.1506 50.1655 68.6539C49.4701 66.6672 47.9801 64.2831 46.0926 62.0976C44.9999 60.8062 43.7085 59.6142 42.4171 58.6208C42.0198 58.3228 41.5231 57.9254 41.1258 57.7268C40.8277 57.5281 40.4304 57.2301 40.1324 57.1307C39.0397 56.5347 38.0463 56.1374 37.1522 56.038C36.8542 56.038 36.6556 56.038 36.3575 56.038L35.5628 56.1374L34.9668 55.3427C31.9867 51.5678 28.2118 48.389 24.8344 46.4023C23.9403 45.9056 23.0463 45.5082 22.2516 45.2102C22.0529 45.1109 21.8542 45.1109 21.7549 45.0115C21.2582 44.8129 20.7615 44.7135 20.3642 44.7135C19.6688 44.6142 19.0728 44.7135 18.5761 44.9122C18.4767 44.9122 18.4767 44.9122 18.3774 45.0115C17.682 45.4089 17.2847 46.1043 17.1854 47.0976C17.1854 47.6937 17.1854 48.389 17.384 49.0844L17.7814 50.7731L16.9867 50.2764L15.9933 49.6804C15.6953 49.4817 15.3973 49.2831 15.0993 49.1837C14.8013 48.9851 14.5032 48.7864 14.1059 48.687C13.1125 48.1904 12.1191 47.8923 11.3244 47.793C11.1258 47.793 10.9271 47.793 10.7284 47.793C10.7284 47.793 10.7284 47.793 10.6291 47.793C8.94032 47.495 8.3443 49.0844 9.23834 51.7665Z" fill="url(#paint4_linear)"/>
<path d="M38.9398 62.1968C38.5425 60.4087 39.9332 57.1306 40.1319 56.8325C40.3306 56.5345 43.0127 56.8325 43.0127 56.8325C42.814 56.7332 42.6153 56.5345 42.4167 56.4352C42.0193 56.2365 41.7213 56.0378 41.4233 55.8392C40.3306 55.2431 39.3372 54.8458 38.5425 54.7465C38.2445 54.7465 38.0458 54.7465 37.7478 54.7465L36.9531 54.8458L36.3571 54.0511C35.761 53.3557 35.165 52.6604 34.569 51.965L14.0061 49.8789L39.3372 63.9849C39.3372 63.9849 39.3372 63.9849 38.9398 62.1968Z" fill="#7F7F7F"/>
<path d="M4.17212 37.263C4.66881 37.1637 5.1655 37.0644 5.66219 37.0644C8.64231 36.8657 11.6225 37.4617 14.3046 38.8524L42.1191 54.0511C37.8476 52.9584 36.1589 54.8458 36.1589 54.8458C34.7681 56.1372 33.7748 58.422 33.3774 61.9981L0.496624 43.6206C0.893974 39.6471 2.2847 37.8591 4.17212 37.263Z" fill="#A9A9A9"/>
<path d="M3.67505 36.9652C4.17174 36.8658 4.66843 36.7665 5.16512 36.7665C8.14524 36.5678 11.1254 37.1639 13.8075 38.5546L41.6221 53.7533C37.3505 52.6605 35.6618 54.548 35.6618 54.548C34.2711 55.8393 33.2777 58.1241 32.8803 61.7003L-0.00044632 43.1241C0.396904 39.3493 1.78763 37.5612 3.67505 36.9652Z" fill="#F8F8F8"/>
<path d="M58.7 18.4593C58.7 24.7605 54.2837 27.3246 48.8314 24.1604C43.3792 21.0235 38.9629 13.3584 38.9629 7.05724C38.9629 0.756081 43.3792 -1.80803 48.8314 1.35619C54.2837 4.52041 58.7 12.1582 58.7 18.4593Z" fill="url(#paint5_linear)"/>
<path d="M70.3404 40.2815L55.374 23.3966L57.3641 21.4053L74.2388 36.3808C75.3292 37.4719 75.3292 39.2176 74.2388 40.2815C73.1756 41.3726 71.4309 41.3726 70.3404 40.2815Z" fill="#EAEAEA"/>
<path d="M69.2227 41.1816L54.2563 24.2967L56.2464 22.3054L73.1211 37.2809C74.2115 38.372 74.2115 40.1178 73.1211 41.1816C72.0579 42.2727 70.3132 42.2727 69.2227 41.1816Z" fill="url(#paint6_linear)"/>
<path d="M56.7376 19.6324C56.7376 25.9336 52.3213 28.4977 46.869 25.3335C41.4168 22.1693 37.0005 14.5315 37.0005 8.23034C37.0005 1.92918 41.4168 -0.634933 46.869 2.52929C52.3213 5.66623 56.7376 13.3313 56.7376 19.6324Z" fill="url(#paint7_linear)"/>
<path d="M46.8693 22.6328C42.7256 20.2324 39.3452 14.3676 39.3452 9.59403C39.3452 4.79314 42.7256 2.85642 46.8693 5.25687C51.013 7.63003 54.3934 13.4947 54.3934 18.2956C54.3934 23.0965 51.013 25.0332 46.8693 22.6328Z" fill="white"/>
<defs>
<linearGradient id="paint0_linear" x1="65.8187" y1="88.1865" x2="48.8595" y2="60.3591" gradientUnits="userSpaceOnUse">
<stop stop-color="#A7A7A7"/>
<stop offset="1" stop-color="#F5F5F5"/>
</linearGradient>
<linearGradient id="paint1_linear" x1="49.047" y1="67.8655" x2="35.3204" y2="39.4205" gradientUnits="userSpaceOnUse">
<stop stop-color="#A7A7A7"/>
<stop offset="1" stop-color="#F5F5F5"/>
</linearGradient>
<linearGradient id="paint2_linear" x1="59.5052" y1="66.1556" x2="50.1995" y2="49.835" gradientUnits="userSpaceOnUse">
<stop stop-color="#A7A7A7"/>
<stop offset="1" stop-color="#F5F5F5"/>
</linearGradient>
<linearGradient id="paint3_linear" x1="31.4902" y1="36.4765" x2="28.1889" y2="47.0569" gradientUnits="userSpaceOnUse">
<stop stop-color="#D2D2D2"/>
<stop offset="1" stop-color="#F1F1F1"/>
</linearGradient>
<linearGradient id="paint4_linear" x1="40.3579" y1="57.9721" x2="30.2313" y2="75.8055" gradientUnits="userSpaceOnUse">
<stop stop-color="#A7A7A7"/>
<stop offset="1" stop-color="#F5F5F5"/>
</linearGradient>
<linearGradient id="paint5_linear" x1="42.2657" y1="-3.06119e-08" x2="57.2842" y2="22.0842" gradientUnits="userSpaceOnUse">
<stop stop-color="#D8D8D8"/>
<stop offset="1" stop-color="#F1F1F1"/>
</linearGradient>
<linearGradient id="paint6_linear" x1="64.0976" y1="22.3054" x2="64.0976" y2="42" gradientUnits="userSpaceOnUse">
<stop stop-color="#A9A9A9"/>
<stop offset="1" stop-color="#C6C6C6"/>
</linearGradient>
<linearGradient id="paint7_linear" x1="46.869" y1="1.1731" x2="46.869" y2="26.6897" gradientUnits="userSpaceOnUse">
<stop stop-color="#A9A9A9"/>
<stop offset="1" stop-color="#C6C6C6"/>
</linearGradient>
</defs>
</svg>
