<svg width="560" height="383" viewBox="0 0 560 383" fill="none" xmlns="http://www.w3.org/2000/svg">
<mask id="mask0" mask-type="alpha" maskUnits="userSpaceOnUse" x="0" y="0" width="560" height="383">
<rect width="560" height="383" fill="#C4C4C4"/>
</mask>
<g mask="url(#mask0)">
<path opacity="0.5" d="M646.49 -59.3552C645.016 -60.2149 642.437 -60.2149 640.964 -59.3552C639.858 -58.7412 639.49 -57.7587 640.104 -56.899L554.749 -7.65102V54.6151L533.994 66.6508V134.321L462.762 175.463L451.709 169.077L506.606 137.391V100.301L506.361 100.179L443.849 64.0717V51.422L479.219 31.035C480.693 31.6491 482.903 31.6491 484.254 30.7894C485.728 29.9297 485.728 28.456 484.254 27.5963C482.781 26.7366 480.202 26.7366 478.728 27.5963C477.377 28.3332 477.254 29.5613 478.359 30.5438L442.989 50.9307V64.5629L443.235 64.6858L505.747 100.793V136.9L464.236 160.848V145.374L483.272 134.443C484.746 135.058 486.956 135.058 488.307 134.198C489.781 133.338 489.781 131.864 488.307 131.005C486.833 130.145 484.254 130.145 482.781 131.005C481.43 131.742 481.307 132.97 482.412 133.952L463.376 144.883V161.339L450.849 168.585L435.989 159.989V133.092L463.99 116.881V98.2137L463.745 98.0908L404.794 64.0717C405.9 63.212 405.777 61.9839 404.426 61.1242C402.952 60.2645 400.373 60.2645 398.899 61.1242C397.426 61.9839 397.426 63.4576 398.899 64.3173C400.25 65.0542 402.461 65.177 403.935 64.5629L463.131 98.7049V116.267L435.989 131.987V113.442L435.743 113.32L399.636 92.4415C400.742 91.5818 400.619 90.3536 399.268 89.4939C397.794 88.6342 395.215 88.6342 393.741 89.4939C392.268 90.3536 392.268 91.8274 393.741 92.6871C395.092 93.424 397.303 93.5468 398.777 92.9327L435.006 113.934V159.374L424.567 153.357L407.374 163.304L391.776 154.339V132.478L391.531 132.356L350.388 108.653V88.0202C351.248 88.0202 352.108 87.7746 352.722 87.4061C354.196 86.5464 354.196 85.0727 352.722 84.213C351.248 83.3533 348.669 83.3533 347.195 84.213C345.722 85.0727 345.722 86.5464 347.195 87.4061C347.809 87.7746 348.669 88.0202 349.529 88.0202V109.144L349.774 109.267L390.917 132.97V153.848L323.984 115.162V74.1423L360.336 53.1413H393.619H393.741L450.972 20.1047C452.446 20.7188 454.656 20.7188 456.007 19.8591C457.481 18.9994 457.481 17.5256 456.007 16.6659C454.534 15.8062 451.955 15.8062 450.481 16.6659C449.13 17.4028 449.007 18.7538 450.112 19.6134L393.496 52.2817H361.933L466.938 -8.3879C468.412 -7.77383 470.622 -7.77383 471.973 -8.63352C473.447 -9.49321 473.447 -10.967 471.973 -11.8267C470.499 -12.6863 467.92 -12.6863 466.447 -11.8267C465.096 -11.0898 464.973 -9.73884 466.078 -8.87915L323.001 73.7739V115.776L323.247 115.899L406.391 163.919L389.689 173.621L247.717 91.5818V42.7022L247.471 42.5794L199.206 14.7009C200.311 13.8412 200.188 12.6131 198.837 11.7534C197.364 10.8937 194.785 10.8937 193.311 11.7534C191.837 12.6131 191.837 14.0869 193.311 14.9465C194.662 15.6834 196.872 15.8062 198.346 15.1922L246.857 43.1935V92.073L247.103 92.1958L388.952 174.112L372.986 183.323L232.488 102.266H148.73L96.4114 72.0545V25.6313C96.9027 25.5085 97.5167 25.3856 97.8852 25.14C99.3589 24.2803 99.3589 22.8066 97.8852 21.9469C96.4114 21.0872 93.8324 21.0872 92.3586 21.9469C90.8848 22.8066 90.8848 24.2803 92.3586 25.14C93.2183 25.6313 94.3236 25.8769 95.4289 25.7541V72.5458L95.6745 72.6686L148.484 103.126H232.242L350.757 171.533H326.931L286.526 148.198H255.331H255.208L211.978 173.13C210.505 172.515 208.294 172.515 206.943 173.375C205.469 174.235 205.469 175.709 206.943 176.568C208.417 177.428 210.996 177.428 212.47 176.568C213.821 175.831 213.943 174.48 212.838 173.621L255.577 148.935H286.28L326.686 172.27H352.231L372.003 183.691L329.51 208.254L317.352 201.254V182.955L286.649 165.269C287.754 164.41 287.631 163.182 286.28 162.322C284.806 161.462 282.227 161.462 280.754 162.322C279.28 163.182 279.28 164.655 280.754 165.515C282.104 166.252 284.315 166.375 285.789 165.761L316.492 183.446V200.762L283.701 181.972H268.227H268.104L249.559 192.657C248.085 192.043 245.875 192.043 244.524 192.902C243.05 193.762 243.05 195.236 244.524 196.095C245.997 196.955 248.577 196.955 250.05 196.095C251.401 195.359 251.524 194.008 250.419 193.148L268.349 182.832H283.455L328.528 208.868L320.299 213.658L346.458 228.764L334.177 235.887H315.632L302.369 228.272C303.474 227.413 303.228 226.185 301.877 225.448C300.404 224.588 297.824 224.588 296.351 225.448C294.877 226.307 294.877 227.781 296.351 228.641C297.702 229.501 299.912 229.501 301.386 228.887L315.264 236.869H332.458L301.263 254.923L227.821 212.552H175.012H174.889L145.168 229.746C143.694 229.132 141.484 229.132 140.133 229.992C138.659 230.852 138.659 232.325 140.133 233.185C141.607 234.045 144.186 234.045 145.659 233.185C147.01 232.448 147.133 231.097 146.028 230.237L175.257 213.412H227.698L284.315 246.08H260.121L236.418 232.448C237.523 231.588 237.401 230.36 236.05 229.501C234.576 228.641 231.997 228.641 230.523 229.501C229.049 230.36 229.049 231.834 230.523 232.694C231.874 233.431 234.085 233.553 235.558 232.939L259.875 246.94H285.912L300.526 255.414L263.191 276.906H143.94L51.5847 223.237C52.69 222.377 52.5672 221.149 51.2163 220.29C49.7425 219.43 47.1635 219.43 45.6897 220.29C44.216 221.149 44.216 222.623 45.6897 223.483C47.0406 224.22 49.2513 224.342 50.725 223.728L143.94 277.52H261.84L247.103 286.117H158.8H158.678L115.202 311.294C113.728 310.68 111.517 310.68 110.166 311.54C108.693 312.399 108.693 313.873 110.166 314.733C111.64 315.592 114.219 315.592 115.693 314.733C117.044 313.996 117.167 312.645 116.061 311.785L159.046 286.977H247.348H247.471L347.441 229.255L358.494 235.641L253.366 296.311H176.485H176.363L83.5161 349.98H-45.1918L-70 335.611V336.593L-45.3146 350.84H83.7617H83.8845L142.221 317.189V337.085L103.78 359.314C102.306 358.7 100.096 358.7 98.7449 359.559C97.2711 360.419 97.2711 361.893 98.7449 362.753C100.219 363.612 102.798 363.612 104.271 362.753C105.622 362.016 105.745 360.665 104.64 359.805L143.08 337.576V316.821H142.835L176.731 297.293H253.612H253.735L359.354 236.255L372.003 243.501L166.906 361.893V383.262H167.766V362.384L372.863 243.993L388.46 252.958L282.719 313.996V324.926L263.928 335.734V360.788L227.576 381.789C226.102 381.174 223.891 381.174 222.54 382.034C221.926 382.403 221.681 382.771 221.435 383.139H229.049C228.927 382.894 228.681 382.525 228.435 382.28L264.788 361.279V336.225L282.719 325.909V366.068L293.28 372.209L274.244 383.139H275.964L294.14 372.7L312.316 383.139H314.036L283.578 365.577V314.487L389.32 253.449L403.566 261.678L328.651 304.785C327.177 304.171 324.966 304.171 323.615 305.031C322.141 305.89 322.141 307.364 323.615 308.224C325.089 309.083 327.668 309.083 329.142 308.224C330.493 307.487 330.616 306.259 329.51 305.276L404.303 262.046L418.058 269.906L328.528 321.61H304.211C304.088 321.242 303.72 320.751 303.105 320.505C301.632 319.645 299.053 319.645 297.579 320.505C296.105 321.365 296.105 322.838 297.579 323.698C299.053 324.558 301.632 324.558 303.105 323.698C303.72 323.33 304.088 322.961 304.211 322.593H328.773H328.896L418.918 270.643L424.445 273.836L428.743 271.38L450.235 283.784V300.978L432.55 311.171H404.794H404.672L374.214 328.733C372.74 328.119 370.53 328.119 369.179 328.979C367.705 329.839 367.705 331.312 369.179 332.172C370.653 333.032 373.232 333.032 374.705 332.172C376.056 331.435 376.179 330.084 375.074 329.225L405.04 311.908H431.076L379.004 341.997C377.53 341.26 375.319 341.383 373.846 342.12C372.372 342.98 372.372 344.453 373.846 345.313C375.319 346.173 377.898 346.173 379.372 345.313C380.723 344.576 380.846 343.348 379.863 342.488L444.831 304.908V313.259L406.145 335.611V351.331L374.705 369.507C373.232 368.893 371.021 368.893 369.67 369.753C368.196 370.613 368.196 372.086 369.67 372.946C371.144 373.806 373.723 373.806 375.197 372.946C376.548 372.209 376.67 370.858 375.565 369.999L407.005 351.822V336.102L445.691 313.75V304.416L451.095 301.346V283.047L429.603 270.643L443.726 262.537L487.816 288.082V317.066L457.85 334.383C456.376 333.646 454.165 333.769 452.692 334.506C451.218 335.365 451.218 336.839 452.692 337.699C454.165 338.558 456.744 338.558 458.218 337.699C459.569 336.962 459.692 335.734 458.709 334.874L487.816 318.049V341.506L464.85 354.77V383.139H465.71V355.261L487.816 342.488V383.139H488.676V287.591L444.586 262.046L460.429 252.958L518.151 286.24V365.577L545.906 381.543V383.139H546.766V381.052L519.01 365.086V285.749L461.288 252.467L473.078 245.712L550.942 290.661V358.331L594.049 383.139H595.768L551.801 357.84V290.17L473.938 245.221L492.974 234.29L622.542 309.083V342.734L667 368.402V367.419L623.524 342.243V308.592L550.696 266.467H608.295L667 300.364V299.381L608.295 265.485H548.977L493.834 233.676L515.94 220.904L563.346 248.291H639.49L666.877 264.134V263.151L660.859 259.713H666.877V258.853H659.386L639.736 247.554H563.592L550.328 239.94H582.75H582.873L599.084 230.606H666.754L667 230.729V229.746H600.681L618.98 219.184C620.454 219.798 622.664 219.798 624.015 218.939C625.489 218.079 625.489 216.605 624.015 215.746C622.542 214.886 619.963 214.886 618.489 215.746C617.138 216.482 617.015 217.833 618.12 218.693L582.628 239.203H548.977L516.923 220.781L528.713 213.903L521.098 209.482H543.205L572.066 226.185C570.96 227.044 571.083 228.272 572.434 229.132C573.908 229.992 576.487 229.992 577.961 229.132C579.434 228.272 579.434 226.799 577.961 225.939C576.61 225.202 574.399 225.079 572.925 225.693L543.327 208.622H519.502L503.29 199.289L513.238 193.516H530.923L546.398 184.551H557.942L584.101 199.657C582.873 200.517 582.996 201.745 584.47 202.605C585.943 203.464 588.523 203.464 589.996 202.605C591.47 201.745 591.47 200.271 589.996 199.411C588.645 198.675 586.558 198.552 585.084 199.166L558.311 183.691H546.275L530.8 192.657H514.835L546.643 174.235H563.837L599.698 194.867H667V194.008H599.944L564.083 173.375H546.398H546.275L502.431 198.675L490.886 192.043L540.38 163.427H575.259L604.12 180.007H666.877V179.147H604.365L577.101 163.427H666.877V162.322H540.257H540.134L490.027 191.306L477.008 183.814L546.029 143.9H666.877V143.04H578.82L666.877 92.1958V91.2133L577.101 143.04H546.643L612.103 105.214V96.8627L643.42 78.8092C644.894 79.4233 647.104 79.4233 648.455 78.5636C649.929 77.7039 649.929 76.2302 648.455 75.3705C646.981 74.5108 644.402 74.5108 642.929 75.3705C641.578 76.1073 641.455 77.3355 642.56 78.318L625.489 88.143V65.2998L666.877 41.4741V40.4916L624.629 64.8086V88.6343L611.243 96.3715V104.723L545.292 142.795L545.538 143.163L476.149 183.2L463.499 175.954L534.73 134.812V67.142L666.877 -9.12477V-10.1073L555.609 54.1238V-7.03696L640.841 -56.1621L640.964 -56.0393C642.437 -55.1796 645.016 -55.1796 646.49 -56.0393C647.964 -57.0218 647.964 -58.3727 646.49 -59.3552ZM526.87 213.535L424.567 272.608L322.264 213.535L424.567 154.462L526.87 213.535Z" fill="url(#paint0_radial)"/>
<path d="M276.312 250.725C276.312 250.725 276.312 265.179 282.124 274.169C285.47 279.281 291.106 282.277 297.798 283.159C302.905 283.864 308.364 283.335 313.824 281.572C326.327 277.694 334.429 258.305 338.831 239.267C343.234 220.23 332.667 214.413 331.082 214.942C328.265 216 321.396 224.99 313.471 233.098C309.421 237.152 305.194 241.206 300.968 243.674C288.64 250.901 276.312 250.725 276.312 250.725Z" fill="url(#paint1_linear)"/>
<path opacity="0.3" d="M297.622 282.982C302.729 283.687 308.189 283.158 313.648 281.395C326.152 277.518 334.253 258.128 338.655 239.091C343.058 220.054 332.492 214.237 330.907 214.765C328.089 215.823 321.221 224.813 313.296 232.921C313.296 232.921 319.636 246.67 316.994 265.179C314.352 283.687 297.622 282.982 297.622 282.982Z" fill="url(#paint2_linear)"/>
<path d="M365.953 333.572C365.953 345.911 370.18 375.348 378.985 373.938C380.922 373.585 383.036 371.646 385.501 368.65C392.898 359.66 401.879 340.799 406.81 327.932C409.628 320.881 411.213 315.593 410.685 314.711C408.043 308.718 369.123 326.169 366.657 328.46C366.129 328.813 365.953 330.752 365.953 333.572Z" fill="url(#paint3_linear)"/>
<path d="M410.688 314.711C413.682 320.352 378.284 337.803 366.132 329.518C366.308 329.518 406.813 307.132 410.688 314.711Z" fill="url(#paint4_linear)"/>
<path d="M323.863 320.352C324.215 321.41 324.568 322.643 324.92 323.701C330.203 341.681 339.537 367.769 346.581 376.758C348.342 378.874 349.751 380.107 351.16 379.931C351.512 379.931 351.864 379.755 352.217 379.579C353.449 379.05 354.506 377.816 355.563 376.053C362.431 365.477 367.362 335.687 366.305 327.05C366.129 325.993 365.953 325.288 365.601 324.935C359.789 319.294 322.102 302.725 320.693 305.545C320.341 306.427 321.574 312.244 323.863 320.352Z" fill="url(#paint5_linear)"/>
<path d="M366.303 327.05C367.712 329.517 330.553 329.341 320.691 305.721C320.691 305.721 352.567 304.487 366.303 327.05Z" fill="url(#paint6_linear)"/>
<path d="M347.636 338.86C349.221 339.036 351.335 350.846 349.045 351.904C346.756 352.961 344.114 338.331 347.636 338.86Z" fill="white"/>
<path d="M403.641 220.584C403.641 231.16 405.226 246.495 409.981 259.011C417.906 279.634 429.881 305.369 430.233 306.251C437.63 310.658 446.259 310.481 451.895 309.6C455.241 309.071 457.53 308.366 457.53 308.366C457.53 308.366 455.065 284.746 442.209 258.129C435.693 244.733 427.416 232.218 420.371 223.051C420.371 223.051 420.371 223.051 420.195 222.875C420.195 222.699 420.019 222.699 420.019 222.523L419.843 222.346L419.667 222.17L419.491 221.994C412.27 212.828 406.282 207.187 405.05 207.892C404.345 208.421 403.641 213.357 403.641 220.584Z" fill="url(#paint7_linear)"/>
<path d="M457.53 307.659C457.53 307.659 448.02 292.147 438.334 294.086C428.648 296.025 430.409 306.425 430.409 306.425C430.409 306.425 442.737 315.239 457.53 307.659Z" fill="url(#paint8_linear)"/>
<path opacity="0.3" d="M403.64 220.583C403.64 231.159 405.225 246.495 409.98 259.01C417.905 279.634 429.88 305.369 430.232 306.25L452.07 309.776C455.416 309.247 457.706 308.542 457.706 308.542C457.706 308.542 455.24 284.922 442.384 258.305C435.868 244.909 427.591 232.393 420.546 223.227C424.597 228.692 441.68 252.136 446.258 272.054C451.542 294.793 430.409 285.979 421.779 272.054C413.15 258.129 404.168 220.76 404.168 220.76H403.64V220.583Z" fill="url(#paint9_linear)"/>
<path d="M427.241 256.894C429.002 256.189 420.021 236.094 417.379 235.918C414.561 235.742 425.832 257.423 427.241 256.894Z" fill="white"/>
<path d="M428.12 259.009C429.529 258.304 430.762 262.006 429.529 262.535C428.297 263.24 426.712 259.891 428.12 259.009Z" fill="white"/>
<path d="M322.808 71.6343C322.808 71.6343 311.713 62.1157 298.328 60.5293C298.328 60.5293 294.278 62.4683 289.347 77.4512C284.592 92.2579 293.397 121.695 293.397 121.695L322.808 71.6343Z" fill="url(#paint10_linear)"/>
<path d="M298.328 60.5295C298.328 60.5295 309.247 72.1633 309.247 91.0242L305.02 93.6682L292.692 68.2854C292.692 68.2854 296.743 60.1769 298.328 60.5295Z" fill="#7F7F7F"/>
<path d="M305.373 92.4344C305.373 92.4344 308.191 76.3938 297.624 64.4075C297.624 64.4075 285.649 70.0481 280.718 91.0242C275.787 112 288.643 124.516 288.643 124.516L305.373 92.4344Z" fill="url(#paint11_linear)"/>
<path d="M311.536 65.1125C313.649 66.1701 313.473 68.4616 309.247 67.9328C305.02 67.404 302.731 64.0549 303.259 63.3498C303.611 62.821 309.247 63.8786 311.536 65.1125Z" fill="white"/>
<path d="M415.263 73.926C415.263 73.926 426.358 64.4075 439.742 62.821C439.742 62.821 443.793 64.76 448.724 79.743C453.479 94.5496 444.673 123.987 444.673 123.987L415.263 73.926Z" fill="url(#paint12_linear)"/>
<path d="M439.743 62.8205C439.743 62.8205 428.825 74.4543 428.825 93.3152L433.051 95.9593L445.379 70.5764C445.379 70.5764 441.328 62.6443 439.743 62.8205Z" fill="#7F7F7F"/>
<path d="M432.698 94.7264C432.698 94.7264 429.881 78.6858 440.447 66.6995C440.447 66.6995 452.423 72.3401 457.354 93.3162C462.285 114.292 447.844 128.218 447.844 128.218L432.698 94.7264Z" fill="url(#paint13_linear)"/>
<path d="M426.536 67.5807C424.423 68.6383 424.599 70.9298 428.826 70.401C433.053 69.8722 435.342 66.523 434.814 65.818C434.461 65.1129 428.826 66.3468 426.536 67.5807Z" fill="white"/>
<path d="M321.221 294.087C324.567 313.829 342.354 327.049 367.714 327.049C389.904 327.049 408.571 318.765 413.502 300.609C418.434 282.453 416.496 248.785 409.98 227.986C408.924 224.813 407.867 221.816 406.458 218.996C405.225 216.352 403.816 213.884 402.231 211.593C394.13 199.43 382.331 191.498 368.947 191.498C355.034 191.498 344.468 197.138 337.071 205.776C333.725 209.654 331.083 214.237 329.146 218.996C327.033 224.46 325.096 230.453 323.687 236.447V236.623C319.108 255.66 318.227 276.46 321.221 294.087Z" fill="url(#paint14_linear)"/>
<path opacity="0.3" d="M321.221 294.087C324.567 313.829 342.354 327.05 367.714 327.05C389.904 327.05 408.571 318.765 413.502 300.609C418.434 282.453 416.496 248.786 409.98 227.986C408.924 224.813 407.867 221.816 406.458 218.996C406.458 218.996 419.842 263.416 409.1 291.796C398.357 320.175 348.518 319.47 331.612 300.609C315.586 282.806 322.982 240.677 323.687 236.623C319.108 255.66 318.227 276.46 321.221 294.087Z" fill="url(#paint15_linear)"/>
<path d="M397.888 265.717C395.388 247.78 380.863 235.663 364.91 237.208C347.648 238.871 338.362 255.263 338.6 269.399C338.838 283.535 349.196 294.463 367.649 294.463C386.102 294.463 400.269 282.585 397.888 265.717Z" fill="#7F7F7F"/>
<path d="M397.886 267.991C395.386 250.049 380.862 237.929 364.91 239.355C347.648 241.018 338.362 257.416 338.6 271.556C338.838 285.696 349.195 296.628 367.648 296.628C386.219 296.747 400.267 284.746 397.886 267.991Z" fill="url(#paint16_linear)"/>
<path d="M374.687 255.219C374.687 254.897 374.604 254.726 374.294 254.597C371.753 253.462 369.109 253.077 366.361 253.462C364.956 253.655 363.593 254.062 362.291 254.705C360.577 255.54 359.068 256.654 357.767 258.089C356.052 259.974 354.874 262.158 354.234 264.664C353.718 266.699 353.614 268.777 353.945 270.854C354.172 272.268 354.544 273.617 355.143 274.902C355.949 276.637 357.002 278.179 358.366 279.507C360.019 281.114 361.94 282.292 364.109 282.977C366.258 283.641 368.427 283.812 370.638 283.448C372.559 283.127 374.377 282.442 376.03 281.371C377.683 280.3 379.108 278.929 380.244 277.28C381.463 275.502 382.29 273.553 382.703 271.411C383.033 269.74 383.075 268.07 382.848 266.378C382.641 264.921 382.269 263.508 381.67 262.158C381.091 260.873 380.348 259.695 379.48 258.603C379.356 258.453 379.191 258.367 379.005 258.431C378.819 258.496 378.757 258.667 378.757 258.881C378.757 261.965 378.736 265.028 378.778 268.113C378.798 269.976 378.447 271.754 377.621 273.424C376.815 275.052 375.658 276.38 374.191 277.408C372.724 278.436 371.113 279.036 369.336 279.186C366.588 279.443 364.13 278.693 361.961 276.937C360.184 275.481 358.986 273.617 358.366 271.347C358.056 270.19 357.911 269.012 357.994 267.813C358.18 265.285 359.068 263.036 360.742 261.173C362.126 259.631 363.799 258.581 365.783 258.067C367.25 257.682 368.737 257.617 370.225 257.896C370.369 257.917 370.41 257.982 370.41 258.132C370.41 259.481 370.41 260.83 370.41 262.201C370.41 262.415 370.307 262.415 370.163 262.415C369.047 262.415 367.911 262.415 366.795 262.415C366.361 262.415 366.237 262.544 366.237 262.972C366.237 263.722 366.237 264.471 366.237 265.2C366.237 265.585 366.32 265.714 366.692 265.799C367.704 266.078 368.737 266.356 369.749 266.635C369.853 266.656 369.956 266.72 370.059 266.72C370.369 266.763 370.41 266.935 370.39 267.213C370.349 267.791 370.41 268.37 370.328 268.926C370.183 269.783 369.625 270.34 368.82 270.533C368.014 270.726 367.312 270.469 366.774 269.805C366.671 269.676 366.588 269.548 366.506 269.398C366.341 269.076 366.237 269.034 365.886 269.119C365.39 269.248 364.915 269.376 364.419 269.505C363.861 269.655 363.304 269.826 362.746 269.976C362.395 270.083 362.291 270.254 362.415 270.619C362.766 271.647 363.324 272.546 364.109 273.253C365.721 274.731 367.601 275.266 369.708 274.774C371.691 274.324 373.138 273.103 374.026 271.197C374.46 270.276 374.646 269.312 374.625 268.284C374.582 263.926 374.687 259.578 374.687 255.219Z" fill="#48CDB7"/>
<path opacity="0.5" d="M337.071 205.776C342.531 214.237 372.293 219.172 389.552 217.586C404.521 216.176 402.232 212.121 402.232 211.593C394.131 199.43 382.331 191.498 368.947 191.498C355.034 191.498 344.292 197.138 337.071 205.776Z" fill="url(#paint17_linear)"/>
<path d="M347.638 220.406C349.047 220.935 349.047 232.04 347.638 233.803C346.229 235.565 343.94 235.037 343.059 232.392C342.355 229.925 345.525 219.701 347.638 220.406Z" fill="white"/>
<path d="M345.172 236.799C346.405 237.152 346.405 239.796 345.877 240.854C345.348 241.911 343.411 241.559 343.059 240.501C342.707 239.267 343.939 236.623 345.172 236.799Z" fill="white"/>
<path opacity="0.2" d="M397.301 311.714C397.301 311.714 391.137 322.29 368.419 322.467C345.701 322.643 336.367 308.894 336.367 308.894C336.367 308.894 346.934 315.768 361.903 311.714C376.873 307.484 391.842 305.192 397.301 311.714Z" fill="white"/>
<path opacity="0.38" d="M391.598 255.315C388.517 260.201 376.074 257.579 362.09 259.009C348.107 260.439 345.618 264.968 342.655 264.015C339.693 263.061 344.314 241.849 365.408 240.419C386.265 238.989 392.309 254.123 391.598 255.315Z" fill="white"/>
<path d="M446.26 175.81C429.354 214.766 303.083 202.603 287.938 170.698C271.383 135.621 309.423 49.2485 369.829 53.1264C421.077 56.6518 467.922 125.75 446.26 175.81Z" fill="url(#paint18_linear)"/>
<path d="M439.214 170.346C423.012 202.25 312.767 196.962 296.741 167.701C283.005 142.671 315.409 66.8751 370.707 69.5191C426.182 72.1632 454.711 139.675 439.214 170.346Z" fill="url(#paint19_linear)"/>
<path d="M319.46 132.624C321.573 138.44 350.631 137.735 350.631 135.62C350.455 123.986 344.291 108.827 332.668 108.827C320.693 109.18 315.409 121.871 319.46 132.624Z" fill="url(#paint20_linear)"/>
<path d="M417.555 133.506C415.09 139.146 386.032 136.855 386.208 134.74C387.088 123.106 394.133 108.299 405.58 109.004C417.555 109.886 422.134 122.93 417.555 133.506Z" fill="url(#paint21_linear)"/>
<path d="M385.68 155.011C390.083 156.068 380.926 170.699 366.308 170.699C353.276 170.699 345.88 155.716 347.641 155.011C349.226 154.305 357.151 158.36 367.893 158.36C378.636 158.36 383.919 154.482 385.68 155.011Z" fill="white" fill-opacity="0.7"/>
<path d="M457.531 308.541C457.531 308.541 451.719 300.257 443.266 299.199C434.813 298.141 431.819 300.433 430.234 306.25C428.649 312.067 440.624 333.572 455.418 349.788C461.757 350.317 463.695 342.385 464.575 337.45C464.751 333.043 460.525 315.416 457.531 308.541Z" fill="url(#paint22_linear)"/>
<path d="M437.276 299.023C437.276 299.023 453.126 320.881 458.057 333.572C460.698 340.447 462.283 344.853 462.283 344.853C462.283 344.853 458.233 355.253 451.364 346.616C441.678 334.277 428.822 315.769 431.112 306.955C433.049 299.376 434.458 297.966 437.276 299.023Z" fill="url(#paint23_linear)"/>
<path d="M287.938 248.963C295.158 251.255 296.039 275.756 289.171 278.929C282.302 282.102 272.616 260.597 276.315 250.726C276.315 250.726 282.655 247.377 287.938 248.963Z" fill="url(#paint24_linear)"/>
<path d="M287.408 251.782C287.408 251.782 292.515 256.894 290.402 265.178C288.289 273.463 277.194 279.104 263.457 278.927C249.721 278.751 240.915 268.88 238.978 262.711C238.978 262.711 241.444 257.599 255.004 254.426C264.162 252.311 276.49 250.724 276.49 250.724C276.49 250.724 282.653 249.843 287.408 251.782Z" fill="url(#paint25_linear)"/>
<path d="M289.698 266.766C289.698 266.766 277.546 270.644 263.281 268.176C249.016 265.532 253.419 255.308 253.419 255.308C253.419 255.308 260.463 251.783 266.803 250.549C273.143 249.315 287.056 250.549 287.056 250.549C287.056 250.549 294.805 257.071 289.698 266.766Z" fill="url(#paint26_linear)"/>
<path d="M286.35 251.078C288.463 244.732 259.757 244.732 255.883 247.2C254.122 248.257 251.304 252.135 252.537 254.427C253.77 256.718 263.103 258.128 267.154 257.776C271.028 257.423 284.941 255.308 286.35 251.078Z" fill="url(#paint27_linear)"/>
<path d="M264.338 257.776C264.338 257.776 264.69 251.43 261.344 248.962C258.174 246.495 255.18 247.728 255.18 247.728C255.18 247.728 250.954 250.901 252.539 254.427C254.124 257.952 262.225 258.657 264.338 257.776Z" fill="url(#paint28_linear)"/>
<path d="M352.042 60.3524C353.275 61.7626 339.715 67.5795 337.954 66.6981C336.193 65.993 348.168 55.7694 352.042 60.3524Z" fill="white"/>
<path opacity="0.5" d="M419.843 101.424C421.076 109.004 406.635 108.122 383.741 107.417C356.092 106.536 328.266 130.332 312.064 113.234C309.423 110.414 335.839 73.3971 367.891 74.1022C399.767 74.9836 418.611 94.9021 419.843 101.424Z" fill="url(#paint29_linear)"/>
<path opacity="0.5" d="M405.578 180.922C406.987 186.387 395.54 192.027 367.186 190.617C332.845 188.855 325.625 181.804 327.386 179.688C328.442 178.455 338.657 184.977 366.834 178.807C385.326 174.753 403.993 175.105 405.578 180.922Z" fill="url(#paint30_linear)"/>
<path opacity="0.2" d="M436.222 163.823C436.222 163.823 437.455 155.891 436.046 145.139C434.637 134.386 431.82 127.512 430.059 128.393C428.298 129.451 428.65 139.851 427.593 150.251C426.889 158.359 425.304 165.939 425.304 165.939C425.304 165.939 432.524 172.813 436.222 163.823Z" fill="url(#paint31_linear)"/>
<path opacity="0.2" d="M433.756 189.031C433.756 189.031 431.995 187.268 422.837 181.804C416.673 178.279 410.333 173.872 409.277 172.286C407.868 168.584 435.517 170.699 435.517 170.699L446.084 175.811C446.26 175.811 442.033 184.096 433.756 189.031Z" fill="black"/>
<path d="M457.484 110.117C457.484 110.117 455.776 117.135 452.231 122.729C452.231 122.729 485.708 140.909 483.771 160.651C482.186 177.221 436.221 169.112 436.221 169.112L434.636 174.577C434.636 174.577 473.733 182.156 487.117 172.99C487.117 172.99 491.696 162.062 480.249 142.496C468.978 122.93 457.484 110.117 457.484 110.117Z" fill="url(#paint32_linear)"/>
<path d="M442.035 167.703C446.261 172.462 437.28 177.574 430.059 178.455C421.782 179.337 407.341 176.164 408.222 167.879C408.926 159.418 432.172 156.422 442.035 167.703Z" fill="url(#paint33_linear)"/>
<path opacity="0.2" d="M450.487 319.293C450.487 319.293 448.374 330.927 441.153 332.69L440.097 304.663C440.097 304.663 448.374 315.591 450.487 319.293Z" fill="black"/>
<path d="M443.618 311.361C444.675 314.005 442.562 331.808 440.624 333.747C438.687 335.686 434.284 332.337 433.052 328.812C431.819 325.286 426.36 305.72 433.404 299.551C433.404 299.375 439.216 300.08 443.618 311.361Z" fill="url(#paint34_linear)"/>
<path d="M440.448 313.654C441.152 313.83 442.033 319.823 441.504 320.881C440.8 321.939 439.567 321.762 438.863 320.529C438.158 319.118 439.215 313.478 440.448 313.654Z" fill="white"/>
<path d="M461.228 118.169C461.228 118.169 477.078 136.678 476.197 137.912C475.14 139.322 460.171 120.108 461.228 118.169Z" fill="white" fill-opacity="0.5"/>
</g>
<defs>
<radialGradient id="paint0_radial" cx="0" cy="0" r="1" gradientUnits="userSpaceOnUse" gradientTransform="translate(298.5 201.575) scale(365.372 212.027)">
<stop stop-color="#ABABAB"/>
<stop offset="1" stop-color="#DDDDDD" stop-opacity="0"/>
</radialGradient>
<linearGradient id="paint1_linear" x1="313.183" y1="282.207" x2="305.12" y2="218.068" gradientUnits="userSpaceOnUse">
<stop stop-color="#BBBBBB"/>
<stop offset="1" stop-color="#ECECEC"/>
</linearGradient>
<linearGradient id="paint2_linear" x1="318.743" y1="283.311" x2="318.743" y2="214.786" gradientUnits="userSpaceOnUse">
<stop stop-color="#585858"/>
<stop offset="1" stop-color="white"/>
</linearGradient>
<linearGradient id="paint3_linear" x1="399.881" y1="373.19" x2="372.368" y2="337.284" gradientUnits="userSpaceOnUse">
<stop stop-color="#A7A7A7"/>
<stop offset="1" stop-color="#F5F5F5"/>
</linearGradient>
<linearGradient id="paint4_linear" x1="381.805" y1="323.755" x2="399.198" y2="325.144" gradientUnits="userSpaceOnUse">
<stop stop-color="#B8B8B8"/>
<stop offset="1" stop-color="#CCCCCC"/>
</linearGradient>
<linearGradient id="paint5_linear" x1="355.305" y1="378.964" x2="320.23" y2="341.076" gradientUnits="userSpaceOnUse">
<stop stop-color="#A7A7A7"/>
<stop offset="1" stop-color="#F5F5F5"/>
</linearGradient>
<linearGradient id="paint6_linear" x1="345.77" y1="330.9" x2="341.286" y2="302.44" gradientUnits="userSpaceOnUse">
<stop stop-color="#B9B9B9"/>
<stop offset="1" stop-color="#C7C7C7"/>
</linearGradient>
<linearGradient id="paint7_linear" x1="436.09" y1="311.715" x2="422.769" y2="205.745" gradientUnits="userSpaceOnUse">
<stop stop-color="#DEDEDE"/>
<stop offset="1" stop-color="#A5A5A5"/>
</linearGradient>
<linearGradient id="paint8_linear" x1="443.88" y1="310.698" x2="443.88" y2="293.855" gradientUnits="userSpaceOnUse">
<stop stop-color="#B5B5B5"/>
<stop offset="1" stop-color="#A5A5A5"/>
</linearGradient>
<linearGradient id="paint9_linear" x1="430.657" y1="309.703" x2="430.657" y2="220.657" gradientUnits="userSpaceOnUse">
<stop stop-color="#7D7D7D"/>
<stop offset="1" stop-color="#C0C0C0"/>
</linearGradient>
<linearGradient id="paint10_linear" x1="305.422" y1="87.5181" x2="305.422" y2="60.4447" gradientUnits="userSpaceOnUse">
<stop stop-color="#C5C5C5"/>
<stop offset="1" stop-color="#DFDFDF"/>
</linearGradient>
<linearGradient id="paint11_linear" x1="292.653" y1="64.4075" x2="292.653" y2="124.516" gradientUnits="userSpaceOnUse">
<stop stop-color="#48CDB7"/>
<stop offset="1" stop-color="#9BFFEE"/>
</linearGradient>
<linearGradient id="paint12_linear" x1="432.64" y1="95.334" x2="432.64" y2="62.8286" gradientUnits="userSpaceOnUse">
<stop stop-color="#B1B1B1"/>
<stop offset="1" stop-color="#E3E3E3"/>
</linearGradient>
<linearGradient id="paint13_linear" x1="445.369" y1="66.6995" x2="445.369" y2="128.218" gradientUnits="userSpaceOnUse">
<stop stop-color="#48CDB7"/>
<stop offset="1" stop-color="#9BFFEE"/>
</linearGradient>
<linearGradient id="paint14_linear" x1="416.087" y1="236.012" x2="319.699" y2="244.5" gradientUnits="userSpaceOnUse">
<stop stop-color="#E6E6E6"/>
<stop offset="1" stop-color="#AAAAAA"/>
</linearGradient>
<linearGradient id="paint15_linear" x1="367.843" y1="327.143" x2="367.843" y2="219.003" gradientUnits="userSpaceOnUse">
<stop stop-color="#3D3D3D"/>
<stop offset="1" stop-color="white"/>
</linearGradient>
<linearGradient id="paint16_linear" x1="368.373" y1="239.241" x2="368.373" y2="296.629" gradientUnits="userSpaceOnUse">
<stop stop-color="#48CDB7"/>
<stop offset="1" stop-color="#9BFFEE"/>
</linearGradient>
<linearGradient id="paint17_linear" x1="369.708" y1="217.858" x2="369.708" y2="191.496" gradientUnits="userSpaceOnUse">
<stop stop-color="#F8F8F8"/>
<stop offset="1" stop-color="#4D4D4D"/>
</linearGradient>
<linearGradient id="paint18_linear" x1="374.503" y1="202.278" x2="355.843" y2="53.8431" gradientUnits="userSpaceOnUse">
<stop stop-color="#BDBDBD"/>
<stop offset="1" stop-color="#E6E6E6"/>
</linearGradient>
<linearGradient id="paint19_linear" x1="368.498" y1="69.4517" x2="368.498" y2="192.057" gradientUnits="userSpaceOnUse">
<stop stop-color="#48CDB7"/>
<stop offset="1" stop-color="#9BFFEE"/>
</linearGradient>
<linearGradient id="paint20_linear" x1="334.372" y1="108.827" x2="334.372" y2="137.161" gradientUnits="userSpaceOnUse">
<stop stop-color="#94DED2"/>
<stop offset="1" stop-color="white"/>
</linearGradient>
<linearGradient id="paint21_linear" x1="402.754" y1="108.98" x2="402.754" y2="137.044" gradientUnits="userSpaceOnUse">
<stop stop-color="#94DED2"/>
<stop offset="1" stop-color="white"/>
</linearGradient>
<linearGradient id="paint22_linear" x1="451.008" y1="350.597" x2="444.418" y2="298.173" gradientUnits="userSpaceOnUse">
<stop stop-color="#C8C8C8"/>
<stop offset="1" stop-color="#E6E6E6"/>
</linearGradient>
<linearGradient id="paint23_linear" x1="444.292" y1="348.816" x2="449.26" y2="300.094" gradientUnits="userSpaceOnUse">
<stop stop-color="#CACACA"/>
<stop offset="0.984375" stop-color="#888888"/>
</linearGradient>
<linearGradient id="paint24_linear" x1="282.904" y1="278.697" x2="285.978" y2="248.549" gradientUnits="userSpaceOnUse">
<stop stop-color="#BBBBBB"/>
<stop offset="1" stop-color="#A4A4A4"/>
</linearGradient>
<linearGradient id="paint25_linear" x1="267.048" y1="278.858" x2="263.712" y2="252.322" gradientUnits="userSpaceOnUse">
<stop stop-color="#C0C0C0"/>
<stop offset="1" stop-color="#EEEEEE"/>
</linearGradient>
<linearGradient id="paint26_linear" x1="271.16" y1="269.091" x2="273.198" y2="249.098" gradientUnits="userSpaceOnUse">
<stop stop-color="#E6E6E6"/>
<stop offset="1" stop-color="#9B9B9B"/>
</linearGradient>
<linearGradient id="paint27_linear" x1="272.813" y1="259.048" x2="264.838" y2="242.883" gradientUnits="userSpaceOnUse">
<stop stop-color="#DCDCDC"/>
<stop offset="1" stop-color="#EAEAEA"/>
</linearGradient>
<linearGradient id="paint28_linear" x1="258.021" y1="257.847" x2="259.058" y2="247.676" gradientUnits="userSpaceOnUse">
<stop stop-color="#E6E6E6"/>
<stop offset="1" stop-color="#C1C1C1"/>
</linearGradient>
<linearGradient id="paint29_linear" x1="419.855" y1="96.8479" x2="311.706" y2="96.8479" gradientUnits="userSpaceOnUse">
<stop stop-color="white" stop-opacity="0.17"/>
<stop offset="1" stop-color="white"/>
</linearGradient>
<linearGradient id="paint30_linear" x1="405.633" y1="183.416" x2="327.001" y2="183.416" gradientUnits="userSpaceOnUse">
<stop stop-color="#248499"/>
<stop offset="1" stop-color="#6AE4FF"/>
</linearGradient>
<linearGradient id="paint31_linear" x1="431.492" y1="168.386" x2="428.744" y2="128.333" gradientUnits="userSpaceOnUse">
<stop/>
<stop offset="1" stop-color="#00E3FF"/>
</linearGradient>
<linearGradient id="paint32_linear" x1="462.373" y1="178.612" x2="453.458" y2="107.698" gradientUnits="userSpaceOnUse">
<stop stop-color="#CDCDCD"/>
<stop offset="1" stop-color="#888888"/>
</linearGradient>
<linearGradient id="paint33_linear" x1="425.652" y1="160.34" x2="425.652" y2="178.598" gradientUnits="userSpaceOnUse">
<stop stop-color="#DDDDDD"/>
<stop offset="1" stop-color="#8C8C8C"/>
</linearGradient>
<linearGradient id="paint34_linear" x1="439.534" y1="334.257" x2="435.125" y2="299.181" gradientUnits="userSpaceOnUse">
<stop stop-color="#DBDBDB"/>
<stop offset="1" stop-color="#F0F0F0"/>
</linearGradient>
</defs>
</svg>
