<svg width="360" height="250" viewBox="0 0 360 250" fill="none" xmlns="http://www.w3.org/2000/svg">
<mask id="mask0" mask-type="alpha" maskUnits="userSpaceOnUse" x="0" y="0" width="360" height="250">
<rect width="360" height="250" fill="#C4C4C4"/>
</mask>
<g mask="url(#mask0)">
<path opacity="0.5" d="M384.994 -5.46445C384.127 -5.9666 382.61 -5.9666 381.743 -5.46445C381.093 -5.10577 380.876 -4.53187 381.238 -4.02972L331.029 24.7366V61.107L318.82 68.1372V107.664L276.919 131.696L270.417 127.965L302.71 109.457V87.793L302.565 87.7212L265.793 66.6307V59.2419L286.599 47.3336C287.466 47.6923 288.767 47.6923 289.561 47.1901C290.428 46.688 290.428 45.8271 289.561 45.325C288.694 44.8228 287.177 44.8228 286.31 45.325C285.516 45.7554 285.443 46.4728 286.094 47.0467L265.288 58.9549V66.9177L265.432 66.9894L302.204 88.0799V109.17L277.786 123.159V114.12L288.983 107.736C289.85 108.094 291.151 108.094 291.945 107.592C292.812 107.09 292.812 106.229 291.945 105.727C291.078 105.225 289.561 105.225 288.694 105.727C287.9 106.158 287.827 106.875 288.478 107.449L277.28 113.833V123.446L269.911 127.678L261.17 122.657V106.947L277.641 97.4774V86.5735L277.497 86.5017L242.82 66.6307C243.47 66.1286 243.398 65.4112 242.603 64.909C241.737 64.4069 240.219 64.4069 239.353 64.909C238.486 65.4112 238.486 66.272 239.353 66.7742C240.147 67.2046 241.448 67.2764 242.314 66.9177L277.136 86.8604V97.1187L261.17 106.301V95.4688L261.025 95.3971L239.786 83.2019C240.436 82.6997 240.364 81.9823 239.569 81.4802C238.702 80.978 237.185 80.978 236.318 81.4802C235.451 81.9823 235.451 82.8432 236.318 83.3453C237.113 83.7757 238.413 83.8475 239.28 83.4888L260.592 95.7557V122.298L254.451 118.783L244.337 124.594L235.162 119.357V106.588L235.018 106.516L210.817 92.6711V80.6193C211.322 80.6193 211.828 80.4759 212.189 80.2607C213.056 79.7585 213.056 78.8977 212.189 78.3955C211.322 77.8934 209.805 77.8934 208.938 78.3955C208.071 78.8977 208.071 79.7585 208.938 80.2607C209.3 80.4759 209.805 80.6193 210.311 80.6193V92.958L210.455 93.0298L234.657 106.875V119.07L195.284 96.4731V72.5131L216.668 60.2462H236.246H236.318L269.984 40.9491C270.85 41.3077 272.151 41.3077 272.945 40.8056C273.812 40.3034 273.812 39.4426 272.945 38.9404C272.079 38.4383 270.561 38.4383 269.695 38.9404C268.9 39.3709 268.828 40.16 269.478 40.6621L236.174 59.744H217.607L279.375 24.3062C280.242 24.6649 281.542 24.6649 282.337 24.1627C283.204 23.6606 283.204 22.7997 282.337 22.2976C281.47 21.7954 279.953 21.7954 279.086 22.2976C278.291 22.728 278.219 23.5171 278.869 24.0192L194.706 72.2979V96.8318L194.851 96.9035L243.759 124.952L233.934 130.62L150.422 82.6997V54.1486L150.277 54.0768L121.886 37.7927C122.536 37.2905 122.464 36.5731 121.669 36.071C120.802 35.5688 119.285 35.5688 118.418 36.071C117.551 36.5731 117.551 37.434 118.418 37.9361C119.213 38.3666 120.513 38.4383 121.38 38.0796L149.916 54.4355V82.9866L150.06 83.0584L233.501 130.907L224.109 136.287L141.463 88.9408H92.1938L61.4184 71.2936V44.1772C61.7073 44.1055 62.0686 44.0337 62.2853 43.8903C63.1522 43.3881 63.1522 42.5273 62.2853 42.0251C61.4184 41.523 59.9013 41.523 59.0344 42.0251C58.1674 42.5273 58.1674 43.3881 59.0344 43.8903C59.5401 44.1772 60.1902 44.3207 60.8404 44.2489V71.5805L60.9849 71.6523L92.0493 89.4429H141.319L211.033 129.4H197.018L173.25 115.77H154.901H154.828L129.399 130.333C128.532 129.974 127.232 129.974 126.437 130.476C125.57 130.978 125.57 131.839 126.437 132.341C127.304 132.844 128.821 132.844 129.688 132.341C130.483 131.911 130.555 131.122 129.905 130.62L155.045 116.201H173.106L196.874 129.831H211.9L223.531 136.502L198.535 150.849L191.383 146.76V136.072L173.323 125.742C173.973 125.239 173.901 124.522 173.106 124.02C172.239 123.518 170.722 123.518 169.855 124.02C168.988 124.522 168.988 125.383 169.855 125.885C170.65 126.315 171.95 126.387 172.817 126.029L190.878 136.359V146.473L171.589 135.498H162.486H162.414L151.505 141.739C150.638 141.38 149.338 141.38 148.543 141.882C147.676 142.384 147.676 143.245 148.543 143.747C149.41 144.25 150.927 144.25 151.794 143.747C152.589 143.317 152.661 142.528 152.011 142.026L162.558 136H171.444L197.957 151.208L193.117 154.006L208.505 162.829L201.281 166.99H190.372L182.57 162.542C183.22 162.04 183.075 161.323 182.281 160.892C181.414 160.39 179.897 160.39 179.03 160.892C178.163 161.395 178.163 162.255 179.03 162.758C179.824 163.26 181.125 163.26 181.992 162.901L190.155 167.564H200.269L181.919 178.109L138.718 153.36H107.654H107.582L90.0988 163.403C89.2319 163.045 87.9315 163.045 87.1368 163.547C86.2699 164.049 86.2699 164.91 87.1368 165.412C88.0038 165.914 89.5209 165.914 90.3878 165.412C91.1824 164.981 91.2547 164.192 90.6045 163.69L107.798 153.862H138.646L171.95 172.944H157.718L143.775 164.981C144.425 164.479 144.353 163.762 143.559 163.26C142.692 162.758 141.174 162.758 140.308 163.26C139.441 163.762 139.441 164.623 140.308 165.125C141.102 165.555 142.403 165.627 143.27 165.268L157.574 173.446H172.889L181.486 178.396L159.524 190.95H89.3764L35.0497 159.601C35.6999 159.099 35.6277 158.382 34.833 157.88C33.9661 157.377 32.449 157.377 31.5821 157.88C30.7152 158.382 30.7152 159.243 31.5821 159.745C32.3767 160.175 33.6771 160.247 34.544 159.888L89.3764 191.309H158.73L150.06 196.33H98.1178H98.0455L72.4715 211.036C71.6046 210.678 70.3042 210.678 69.5096 211.18C68.6427 211.682 68.6427 212.543 69.5096 213.045C70.3765 213.547 71.8936 213.547 72.7605 213.045C73.5552 212.614 73.6274 211.825 72.9772 211.323L98.2622 196.832H150.205H150.277L209.083 163.116L215.585 166.847L153.745 202.284H108.521H108.448L53.8329 233.633H-21.8776L-36.4707 225.24V225.814L-21.9499 234.135H53.9774H54.0496L88.365 214.48V226.101L65.7529 239.085C64.886 238.727 63.5857 238.727 62.791 239.229C61.9241 239.731 61.9241 240.592 62.791 241.094C63.6579 241.596 65.175 241.596 66.0419 241.094C66.8366 240.663 66.9088 239.874 66.2586 239.372L88.8707 226.388V214.264H88.7262L108.665 202.858H153.889H153.961L216.09 167.205L223.531 171.438L102.886 240.592V253.074H103.391V240.879L224.037 171.725L233.212 176.961L171.011 212.614V218.999L159.958 225.312V239.946L138.574 252.213C137.707 251.854 136.406 251.854 135.612 252.356C135.251 252.572 135.106 252.787 134.962 253.002H139.441C139.368 252.859 139.224 252.643 139.079 252.5L160.463 240.233V225.599L171.011 219.573V243.031L177.224 246.618L166.026 253.002H167.037L177.729 246.905L188.421 253.002H189.433L171.516 242.744V212.901L233.718 177.248L242.098 182.055L198.03 207.234C197.163 206.876 195.862 206.876 195.068 207.378C194.201 207.88 194.201 208.741 195.068 209.243C195.935 209.745 197.452 209.745 198.319 209.243C199.113 208.812 199.186 208.095 198.535 207.521L242.531 182.27L250.622 186.861L197.957 217.062H183.653C183.581 216.847 183.364 216.56 183.003 216.417C182.136 215.914 180.619 215.914 179.752 216.417C178.885 216.919 178.885 217.779 179.752 218.282C180.619 218.784 182.136 218.784 183.003 218.282C183.364 218.066 183.581 217.851 183.653 217.636H198.102H198.174L251.128 187.292L254.379 189.157L256.908 187.722L269.55 194.967V205.01L259.147 210.965H242.82H242.748L224.832 221.223C223.965 220.864 222.664 220.864 221.87 221.366C221.003 221.868 221.003 222.729 221.87 223.231C222.737 223.734 224.254 223.734 225.121 223.231C225.915 222.801 225.988 222.012 225.337 221.51L242.965 211.395H258.28L227.649 228.97C226.782 228.54 225.482 228.612 224.615 229.042C223.748 229.544 223.748 230.405 224.615 230.907C225.482 231.409 226.999 231.409 227.866 230.907C228.661 230.477 228.733 229.76 228.155 229.257L266.371 207.306V212.184L243.615 225.24V234.422L225.121 245.039C224.254 244.681 222.953 244.681 222.159 245.183C221.292 245.685 221.292 246.546 222.159 247.048C223.026 247.55 224.543 247.55 225.41 247.048C226.204 246.618 226.277 245.828 225.626 245.326L244.121 234.709V225.527L266.877 212.471V207.019L270.056 205.226V194.537L257.413 187.292L265.721 182.557L291.656 197.478V214.408L274.029 224.523C273.162 224.092 271.862 224.164 270.995 224.594C270.128 225.097 270.128 225.957 270.995 226.46C271.862 226.962 273.379 226.962 274.246 226.46C275.041 226.029 275.113 225.312 274.535 224.81L291.656 214.982V228.683L278.147 236.431V253.002H278.653V236.718L291.656 229.257V253.002H292.162V197.191L266.227 182.27L275.546 176.961L309.5 196.402V242.744L325.827 252.07V253.002H326.333V251.783L310.006 242.457V196.115L276.052 176.674L282.987 172.729L328.789 198.985V238.511L354.146 253.002H355.158L329.295 238.224V198.698L283.493 172.442L294.691 166.057L370.907 209.745V229.401L397.059 244.394V243.82L371.485 229.114V209.458L328.645 184.852H362.527L397.059 204.652V204.078L362.527 184.279H327.633L295.196 165.699L308.2 158.238L336.086 174.235H380.876L396.986 183.489V182.916L393.447 180.907H396.986V180.405H392.58L381.021 173.805H336.23L328.428 169.357H347.5H347.572L357.108 163.905H396.914L397.059 163.977V163.403H358.048L368.812 157.234C369.679 157.593 370.979 157.593 371.774 157.09C372.641 156.588 372.641 155.727 371.774 155.225C370.907 154.723 369.39 154.723 368.523 155.225C367.728 155.656 367.656 156.445 368.306 156.947L347.428 168.927H327.633L308.778 158.166L315.713 154.149L311.234 151.567H324.238L341.215 161.323C340.565 161.825 340.637 162.542 341.432 163.045C342.299 163.547 343.816 163.547 344.683 163.045C345.55 162.542 345.55 161.682 344.683 161.179C343.888 160.749 342.588 160.677 341.721 161.036L324.31 151.065H310.295L300.759 145.613L306.611 142.241H317.014L326.116 137.004H332.907L348.295 145.828C347.572 146.33 347.645 147.047 348.512 147.549C349.378 148.052 350.896 148.052 351.762 147.549C352.629 147.047 352.629 146.186 351.762 145.684C350.968 145.254 349.74 145.182 348.873 145.541L333.124 136.502H326.044L316.941 141.739H307.55L326.261 130.978H336.375L357.47 143.03H397.059V142.528H357.614L336.519 130.476H326.116H326.044L300.253 145.254L293.462 141.38L322.576 124.666H343.093L360.07 134.35H396.986V133.848H360.215L344.177 124.666H396.986V124.02H322.504H322.432L292.957 140.95L285.299 136.574L325.9 113.259H396.986V112.757H345.188L396.986 83.0584V82.4845L344.177 112.757H326.261L364.766 90.6624V85.7844L383.188 75.2391C384.055 75.5978 385.355 75.5978 386.15 75.0956C387.017 74.5935 387.017 73.7326 386.15 73.2305C385.283 72.7283 383.766 72.7283 382.899 73.2305C382.104 73.6609 382.032 74.3783 382.682 74.9522L372.641 80.6911V67.3481L396.986 53.4312V52.8573L372.135 67.0611V80.978L364.26 85.4974V90.3755L325.466 112.614L325.611 112.829L284.793 136.215L277.352 131.983L319.253 107.951V68.4241L396.986 23.8758V23.3019L331.534 60.8201V25.0953L381.671 -3.5993L381.743 -3.52756C382.61 -3.02541 384.127 -3.02541 384.994 -3.52756C385.861 -4.10145 385.861 -4.89056 384.994 -5.46445ZM314.63 153.934L254.451 188.439L194.273 153.934L254.451 119.429L314.63 153.934Z" fill="url(#paint0_radial)"/>
<ellipse cx="93.5296" cy="210.573" rx="32.9412" ry="11.3902" fill="black" fill-opacity="0.05"/>
<path d="M189.705 134.439C190.128 134.439 190.655 134.334 190.972 134.124L250.393 100.063C250.815 99.8537 251.026 99.5393 251.026 99.2249C251.026 98.8057 250.709 98.3865 250.287 98.1769L237.939 91.0503C237.094 90.5263 235.828 90.5263 235.089 90.9455L175.668 125.007C175.246 125.216 175.035 125.531 175.035 125.845C175.035 126.264 175.352 126.683 175.774 126.893L188.122 134.02C188.65 134.334 189.178 134.439 189.705 134.439Z" fill="black" fill-opacity="0.05"/>
<path d="M248.073 76.163L235.608 68.9972C233.749 67.9115 231.125 68.0201 228.282 69.6487C227.298 70.1915 226.424 70.843 225.549 71.603L220.519 68.6715C217.786 66.7172 213.74 66.8258 209.257 69.4315C203.572 72.6887 198.651 78.9859 196.137 85.7174C195.262 85.7174 194.278 86.0431 193.294 86.586C189.576 88.6489 186.624 93.8604 186.624 98.0947C186.624 98.2033 186.624 98.3119 186.624 98.3119C185.531 98.4204 184.437 98.7462 183.235 99.5062C178.533 102.22 174.706 108.735 174.706 114.163C174.706 116.878 175.69 118.724 177.112 119.592L189.467 126.758L192.2 113.838L228.282 93.2089C232.875 90.6032 236.811 84.8488 238.123 79.3116L248.073 76.163Z" fill="url(#paint1_linear)"/>
<path d="M240.639 76.8148C238.999 77.7919 237.468 79.0948 236.156 80.6148C234.297 74.5347 228.502 72.689 221.723 76.5976C216.037 79.8548 211.117 86.152 208.602 92.8835C207.728 92.8835 206.744 93.2093 205.759 93.7521C202.042 95.815 199.09 101.026 199.09 105.261C199.09 105.369 199.09 105.478 199.09 105.478C197.996 105.587 196.903 105.912 195.7 106.672C190.999 109.387 187.172 115.901 187.172 121.33C187.172 126.758 190.999 128.93 195.7 126.215L240.748 100.375C246.434 97.1179 251.026 89.1921 251.026 82.6777C250.917 76.1633 246.324 73.5576 240.639 76.8148Z" fill="url(#paint2_linear)"/>
<path d="M282.966 182.419C282.501 182.419 282.036 182.287 281.703 182.155L230.665 152.855C230.266 152.658 230.066 152.262 230.066 151.932C230.066 151.536 230.332 151.074 230.864 150.81L235.25 148.302C236.114 147.84 237.31 147.774 238.108 148.17L289.146 177.47C289.545 177.668 289.745 178.064 289.745 178.394C289.745 178.79 289.479 179.252 288.947 179.516L284.561 182.024C284.096 182.287 283.498 182.419 282.966 182.419Z" fill="black" fill-opacity="0.05"/>
<path opacity="0.1" d="M247.194 137.437L298.27 166.705C299.064 167.135 299.642 166.705 299.642 165.629V50.3484C299.642 49.3441 298.992 48.1246 298.27 47.6942L247.194 18.4257C246.399 17.9953 245.821 18.4257 245.821 19.5017V134.782C245.821 135.787 246.471 137.006 247.194 137.437Z" fill="#D4D4D4"/>
<path opacity="0.3" d="M244.087 139.374L295.163 168.642C295.958 169.072 296.536 168.642 296.536 167.566V52.2854C296.536 51.2811 295.886 50.0616 295.163 49.6312L244.087 20.3627C243.293 19.9323 242.715 20.3627 242.715 21.4387V136.719C242.715 137.724 243.293 138.871 244.087 139.374Z" fill="#D4D4D4"/>
<path opacity="0.5" d="M240.982 141.239L292.057 170.507C292.852 170.937 293.43 170.507 293.43 169.431V54.1504C293.43 53.1461 292.78 51.9266 292.057 51.4962L240.982 22.2277C240.187 21.7973 239.609 22.2277 239.609 23.3037V138.584C239.537 139.66 240.187 140.808 240.982 141.239Z" fill="#D4D4D4"/>
<path d="M230.506 27.8232L236.43 24.4516C236.646 24.3081 237.008 24.3081 237.297 24.5233L288.372 53.7918C289.167 54.2222 289.745 55.4417 289.745 56.446V171.727C289.745 172.3 289.528 172.659 289.239 172.803L283.315 176.174L283.171 169.79L237.297 143.462C236.502 143.032 235.924 141.812 235.924 140.808V30.8361C235.78 31.1948 235.707 31.4817 235.707 31.4817C235.635 31.5535 230.506 27.8232 230.506 27.8232Z" fill="url(#paint3_linear)"/>
<path d="M289.674 56.0157L274.286 64.8392L271.974 63.4763L288.59 53.9353C289.168 54.3657 289.601 55.2266 289.674 56.0157Z" fill="white" fill-opacity="0.5"/>
<path d="M231.445 146.834L282.52 176.103C283.315 176.533 283.893 176.103 283.893 175.026V59.8177C283.893 58.8133 283.243 57.5938 282.52 57.1634L231.445 27.8949C230.65 27.4645 230.072 27.8949 230.072 28.971V144.252C230 145.256 230.65 146.404 231.445 146.834Z" fill="url(#paint4_linear)"/>
<path d="M230 137.939L283.821 168.785V66.0588L230 35.2122V137.939Z" fill="url(#paint5_linear)"/>
<g opacity="0.3">
<g opacity="0.3">
<path opacity="0.3" d="M201.714 196.541L185.02 186.992C183.083 185.865 183.083 184.075 185.02 182.947L201.714 173.399C203.651 172.271 206.856 172.271 208.793 173.399L225.487 182.947C227.424 184.075 227.424 185.865 225.487 186.992L208.793 196.541C206.856 197.668 203.718 197.668 201.714 196.541Z" fill="url(#paint6_linear)"/>
</g>
<g opacity="0.3">
<path d="M201.714 196.541L185.02 186.992C183.083 185.865 183.083 184.075 185.02 182.947L201.714 173.399C203.651 172.271 206.856 172.271 208.793 173.399L225.487 182.947C227.424 184.075 227.424 185.865 225.487 186.992L208.793 196.541C206.856 197.668 203.718 197.668 201.714 196.541Z" fill="black" fill-opacity="0.08"/>
</g>
</g>
<path opacity="0.5" d="M205.253 190.241C204.117 190.241 202.982 189.976 202.114 189.512L185.42 179.963C184.551 179.499 184.084 178.77 184.084 178.107C184.084 177.377 184.551 176.714 185.42 176.25L202.114 166.701C203.85 165.707 206.655 165.707 208.391 166.701L225.086 176.25C225.954 176.714 226.421 177.443 226.421 178.107C226.421 178.836 225.954 179.499 225.086 179.963L208.391 189.512C207.523 189.976 206.388 190.241 205.253 190.241ZM205.253 166.171C204.184 166.171 203.049 166.436 202.248 166.9L185.553 176.449C184.752 176.913 184.351 177.443 184.351 178.107C184.351 178.703 184.752 179.3 185.553 179.764L202.248 189.313C203.917 190.241 206.588 190.241 208.258 189.313L224.952 179.764C225.753 179.3 226.154 178.77 226.154 178.107C226.154 177.51 225.753 176.913 224.952 176.449L208.258 166.9C207.456 166.37 206.388 166.171 205.253 166.171Z" fill="#A9A9A9"/>
<path d="M226.956 174.393V168.757L225.888 168.16C225.621 169.951 223.484 171.078 221.748 171.343L209.795 178.239L204.586 180.096L187.958 171.542L188.359 171.343C186.957 170.68 186.155 169.155 185.421 167.829L184.285 168.492L183.618 168.691V174.46C183.618 175.189 184.085 175.918 185.087 176.515L201.781 186.064C203.718 187.191 206.923 187.191 208.86 186.064L225.554 176.515C226.489 175.985 227.023 175.255 227.023 174.526C226.956 174.46 226.956 174.393 226.956 174.393Z" fill="black" fill-opacity="0.05"/>
<path d="M226.956 169.354V165.574L225.888 164.977C225.621 166.768 223.484 167.895 221.748 168.16L209.795 175.123L204.586 176.979L187.958 168.425L188.359 168.226C186.957 167.563 186.155 166.038 185.421 164.712L184.285 165.375L183.618 165.574V169.42C183.618 170.149 184.085 170.879 185.087 171.475L201.781 181.024C203.718 182.151 206.923 182.151 208.86 181.024L225.554 171.475C226.489 170.945 227.023 170.216 227.023 169.486C226.956 169.42 226.956 169.354 226.956 169.354Z" fill="url(#paint7_linear)"/>
<path d="M201.714 177.178L185.02 167.629C183.083 166.502 183.083 164.712 185.02 163.584L201.714 154.036C203.651 152.909 206.856 152.909 208.793 154.036L225.487 163.584C227.424 164.712 227.424 166.502 225.487 167.629L208.793 177.178C206.856 178.305 203.718 178.305 201.714 177.178Z" fill="url(#paint8_linear)"/>
<path d="M225.487 167.63L208.793 177.178C206.856 178.306 203.651 178.306 201.714 177.178L185.02 167.63C184.152 167.099 183.685 166.502 183.551 165.839C183.417 166.635 183.885 167.497 185.02 168.094L201.714 177.642C203.651 178.77 206.856 178.77 208.793 177.642L225.487 168.094C226.556 167.497 227.023 166.635 226.956 165.839C226.823 166.502 226.355 167.099 225.487 167.63Z" fill="white"/>
<g opacity="0.3">
<g opacity="0.3">
<path opacity="0.3" d="M248.026 219.267L264.72 209.719C266.657 208.591 266.657 206.801 264.72 205.674L248.026 196.125C246.089 194.998 242.884 194.998 240.948 196.125L224.253 205.674C222.317 206.801 222.317 208.591 224.253 209.719L240.948 219.267C242.884 220.395 246.023 220.395 248.026 219.267Z" fill="url(#paint9_linear)"/>
</g>
</g>
<path opacity="0.5" d="M244.487 212.967C245.622 212.967 246.757 212.702 247.625 212.238L264.32 202.689C265.188 202.225 265.655 201.496 265.655 200.833C265.655 200.103 265.188 199.44 264.32 198.976L247.625 189.427C245.889 188.433 243.084 188.433 241.348 189.427L224.654 198.976C223.786 199.44 223.318 200.17 223.318 200.833C223.318 201.562 223.786 202.225 224.654 202.689L241.348 212.238C242.216 212.702 243.352 212.967 244.487 212.967ZM244.487 188.897C245.555 188.897 246.69 189.162 247.492 189.626L264.186 199.175C264.987 199.639 265.388 200.17 265.388 200.833C265.388 201.429 264.987 202.026 264.186 202.49L247.492 212.039C245.822 212.967 243.151 212.967 241.482 212.039L224.787 202.49C223.986 202.026 223.585 201.496 223.585 200.833C223.585 200.236 223.986 199.639 224.787 199.175L241.482 189.626C242.283 189.096 243.352 188.897 244.487 188.897Z" fill="#A9A9A9"/>
<path d="M222.784 197.119V191.483L223.852 190.886C224.119 192.677 226.256 193.804 227.992 194.069L239.946 200.965L245.154 202.822L261.782 194.268L261.381 194.069C262.784 193.406 263.585 191.881 264.32 190.555L265.455 191.218L266.123 191.417V197.186C266.123 197.915 265.655 198.644 264.653 199.241L247.959 208.79C246.022 209.917 242.817 209.917 240.881 208.79L224.186 199.241C223.251 198.711 222.717 197.981 222.717 197.252C222.784 197.186 222.784 197.119 222.784 197.119Z" fill="black" fill-opacity="0.05"/>
<path d="M222.784 192.08V188.3L223.852 187.703C224.119 189.494 226.256 190.621 227.992 190.886L239.946 197.849L245.154 199.706L261.782 191.152L261.381 190.953C262.784 190.29 263.585 188.764 264.32 187.438L265.455 188.101L266.123 188.3V192.146C266.123 192.876 265.655 193.605 264.653 194.202L247.959 203.75C246.022 204.878 242.817 204.878 240.881 203.75L224.186 194.202C223.251 193.671 222.717 192.942 222.717 192.213C222.784 192.146 222.784 192.08 222.784 192.08Z" fill="url(#paint10_linear)"/>
<path d="M248.027 199.904L264.721 190.356C266.657 189.228 266.657 187.438 264.721 186.311L248.027 176.762C246.09 175.635 242.885 175.635 240.948 176.762L224.254 186.311C222.317 187.438 222.317 189.228 224.254 190.356L240.948 199.904C242.885 201.032 246.023 201.032 248.027 199.904Z" fill="url(#paint11_linear)"/>
<path d="M224.253 190.356L240.948 199.904C242.884 201.032 246.09 201.032 248.026 199.904L264.721 190.356C265.589 189.825 266.056 189.229 266.19 188.565C266.323 189.361 265.856 190.223 264.721 190.82L248.026 200.369C246.09 201.496 242.884 201.496 240.948 200.369L224.253 190.82C223.185 190.223 222.717 189.361 222.784 188.565C222.918 189.229 223.385 189.825 224.253 190.356Z" fill="white"/>
<g opacity="0.3">
<g opacity="0.3">
<path opacity="0.3" d="M286.98 242.248L303.674 232.699C305.611 231.572 305.611 229.782 303.674 228.655L286.98 219.106C285.043 217.979 281.838 217.979 279.901 219.106L263.207 228.655C261.27 229.782 261.27 231.572 263.207 232.699L279.901 242.248C281.838 243.375 284.976 243.375 286.98 242.248Z" fill="url(#paint12_linear)"/>
</g>
<g opacity="0.3">
<path d="M286.98 242.248L303.674 232.699C305.611 231.572 305.611 229.782 303.674 228.655L286.98 219.106C285.043 217.979 281.838 217.979 279.901 219.106L263.207 228.655C261.27 229.782 261.27 231.572 263.207 232.699L279.901 242.248C281.838 243.375 284.976 243.375 286.98 242.248Z" fill="black" fill-opacity="0.08"/>
</g>
</g>
<path opacity="0.5" d="M283.44 235.949C284.576 235.949 285.711 235.683 286.579 235.219L303.273 225.671C304.141 225.206 304.609 224.477 304.609 223.814C304.609 223.084 304.141 222.421 303.273 221.957L286.579 212.409C284.843 211.414 282.038 211.414 280.302 212.409L263.607 221.957C262.739 222.421 262.272 223.151 262.272 223.814C262.272 224.543 262.739 225.206 263.607 225.671L280.302 235.219C281.17 235.683 282.305 235.949 283.44 235.949ZM283.44 211.878C284.509 211.878 285.644 212.143 286.445 212.608L303.14 222.156C303.941 222.62 304.342 223.151 304.342 223.814C304.342 224.411 303.941 225.007 303.14 225.472L286.445 235.02C284.776 235.948 282.105 235.948 280.435 235.02L263.741 225.472C262.94 225.007 262.539 224.477 262.539 223.814C262.539 223.217 262.94 222.62 263.741 222.156L280.435 212.608C281.237 212.077 282.305 211.878 283.44 211.878Z" fill="#A9A9A9"/>
<path d="M261.737 220.101V214.464L262.806 213.868C263.073 215.658 265.21 216.785 266.946 217.051L278.899 223.947L284.108 225.803L300.736 217.249L300.335 217.051C301.737 216.387 302.539 214.862 303.273 213.536L304.408 214.199L305.076 214.398V220.167C305.076 220.897 304.609 221.626 303.607 222.223L286.913 231.771C284.976 232.899 281.771 232.899 279.834 231.771L263.14 222.223C262.205 221.692 261.671 220.963 261.671 220.233C261.737 220.167 261.737 220.101 261.737 220.101Z" fill="black" fill-opacity="0.05"/>
<path d="M261.737 215.061V211.281L262.806 210.684C263.073 212.475 265.21 213.602 266.946 213.867L278.899 220.83L284.108 222.686L300.736 214.133L300.335 213.934C301.737 213.27 302.539 211.745 303.273 210.419L304.408 211.082L305.076 211.281V215.127C305.076 215.857 304.609 216.586 303.607 217.183L286.913 226.731C284.976 227.859 281.771 227.859 279.834 226.731L263.14 217.183C262.205 216.652 261.671 215.923 261.671 215.193C261.737 215.127 261.737 215.061 261.737 215.061Z" fill="url(#paint13_linear)"/>
<path d="M286.98 222.885L303.675 213.337C305.611 212.21 305.611 210.419 303.675 209.292L286.98 199.743C285.044 198.616 281.838 198.616 279.902 199.743L263.207 209.292C261.271 210.419 261.271 212.21 263.207 213.337L279.902 222.885C281.838 224.013 284.977 224.013 286.98 222.885Z" fill="url(#paint14_linear)"/>
<path d="M263.206 213.337L279.901 222.886C281.837 224.013 285.043 224.013 286.979 222.886L303.674 213.337C304.542 212.807 305.009 212.21 305.143 211.547C305.276 212.343 304.809 213.205 303.674 213.802L286.979 223.35C285.043 224.478 281.837 224.478 279.901 223.35L263.206 213.802C262.138 213.205 261.671 212.343 261.737 211.547C261.871 212.21 262.338 212.807 263.206 213.337Z" fill="white"/>
<path opacity="0.5" d="M243.438 70.2909L238.236 67.3497V66.2019L243.438 69.1431V70.2909Z" fill="#7F7F7F"/>
<path opacity="0.5" d="M246.111 71.8691L244.232 70.7931V69.6453L246.111 70.7213V71.8691Z" fill="#7F7F7F"/>
<path opacity="0.5" d="M248.206 73.0168L246.905 72.2994V71.1516L248.206 71.9407V73.0168Z" fill="#7F7F7F"/>
<path opacity="0.5" d="M241.053 71.5819L238.236 69.932V68.7842L241.053 70.4341V71.5819Z" fill="#7F7F7F"/>
<path opacity="0.5" d="M245.388 74.0212L241.848 72.0125V70.8647L245.388 72.8734V74.0212Z" fill="#7F7F7F"/>
<path opacity="0.5" d="M247.411 75.2406L246.183 74.4515V73.3037L247.411 74.0928V75.2406Z" fill="#7F7F7F"/>
<path opacity="0.5" d="M249.434 76.3163L248.134 75.599V74.4512L249.434 75.1685V76.3163Z" fill="#7F7F7F"/>
<path d="M240.259 73.7342L238.236 72.5147V71.3669L240.259 72.5865V73.7342Z" fill="#7F7F7F"/>
<path d="M241.776 74.595L241.053 74.1646V73.0168L241.776 73.4473V74.595Z" fill="#7F7F7F"/>
<path opacity="0.5" d="M243.871 75.7428L242.57 75.0255V73.8777L243.871 74.5951V75.7428Z" fill="#7F7F7F"/>
<path opacity="0.5" d="M245.821 79.4732L238.236 75.169V74.0212L245.821 78.3254V79.4732Z" fill="#7F7F7F"/>
<path opacity="0.5" d="M248.495 81.051L246.616 79.9749V78.8271L248.495 79.9032V81.051Z" fill="#7F7F7F"/>
<path opacity="0.5" d="M240.259 78.8991L238.236 77.7513V76.6035L240.259 77.7513V78.8991Z" fill="#7F7F7F"/>
<path opacity="0.5" d="M245.099 81.6968L241.053 79.4012V78.2534L245.099 80.549V81.6968Z" fill="#7F7F7F"/>
<path opacity="0.5" d="M247.194 82.9166L245.894 82.1275V80.9797L247.194 81.7688V82.9166Z" fill="#7F7F7F"/>
<path opacity="0.5" d="M242.426 82.7731L238.236 80.3341V79.1863L242.426 81.6253V82.7731Z" fill="#7F7F7F"/>
<path d="M246.327 84.9969L243.221 83.2034V82.0557L246.327 83.8491V84.9969Z" fill="#7F7F7F"/>
<path opacity="0.5" d="M249.144 86.6466L247.122 85.4271V84.2793L249.144 85.4988V86.6466Z" fill="#7F7F7F"/>
<path opacity="0.5" d="M239.681 83.7772L238.236 82.9164V81.8403L239.681 82.6294V83.7772Z" fill="#7F7F7F"/>
<path opacity="0.5" d="M242.354 85.2836L240.476 84.2076V83.0598L242.354 84.1359V85.2836Z" fill="#7F7F7F"/>
<path opacity="0.5" d="M246.183 87.5074L243.149 85.7857V84.6379L246.183 86.3596V87.5074Z" fill="#7F7F7F"/>
<path opacity="0.5" d="M242.57 88.0814L238.236 85.5706V84.4229L242.57 86.9336V88.0814Z" fill="#7F7F7F"/>
<path opacity="0.5" d="M247.484 90.8791L243.366 88.5118V87.364L247.484 89.7313V90.8791Z" fill="#7F7F7F"/>
<path d="M249.578 92.027L248.278 91.3096V90.1619L249.578 90.8792V92.027Z" fill="#7F7F7F"/>
<path opacity="0.5" d="M251.529 93.1747L250.301 92.4574V91.3096L251.529 92.0269V93.1747Z" fill="#7F7F7F"/>
<path opacity="0.5" d="M240.837 89.6596L238.236 88.1532V87.0054L240.837 88.5118V89.6596Z" fill="#7F7F7F"/>
<path d="M251.745 75.097L255.43 77.1774V76.0296L251.745 73.9492V75.097Z" fill="#7F7F7F"/>
<path opacity="0.5" d="M252.54 78.1099L255.43 79.7599V78.6121L252.54 76.9622V78.1099Z" fill="#7F7F7F"/>
<path opacity="0.5" d="M253.335 81.1947L255.43 82.4142V81.2664L253.335 80.0469V81.1947Z" fill="#7F7F7F"/>
<path opacity="0.5" d="M252.396 83.275L255.43 84.9967V83.8489L252.396 82.1272V83.275Z" fill="#7F7F7F"/>
<path opacity="0.5" d="M253.335 86.4317L255.43 87.5795V86.4317L253.335 85.2839V86.4317Z" fill="#7F7F7F"/>
<path opacity="0.5" d="M252.757 88.7271L255.43 90.1619V89.0858L252.757 87.5793V88.7271Z" fill="#7F7F7F"/>
<path opacity="0.5" d="M253.985 91.955L255.43 92.8158V91.668L253.985 90.8789V91.955Z" fill="#7F7F7F"/>
<path opacity="0.5" d="M252.613 93.8201L255.43 95.3983V94.2506L252.613 92.6724V93.8201Z" fill="#7F7F7F"/>
<path opacity="0.5" d="M252.757 96.5465L255.43 97.9812V96.9051L252.757 95.3987V96.5465Z" fill="#7F7F7F"/>
<path opacity="0.5" d="M242.715 90.7356L241.631 90.09V89.0139L242.715 89.5878V90.7356Z" fill="#7F7F7F"/>
<path opacity="0.5" d="M246.038 92.6728L243.582 91.2381V90.0903L246.038 91.5251V92.6728Z" fill="#7F7F7F"/>
<path opacity="0.5" d="M263.738 81.9122L258.536 78.8992V77.7515L263.738 80.7644V81.9122Z" fill="#7F7F7F"/>
<path opacity="0.5" d="M266.411 83.4184L264.532 82.3424V81.1946L266.411 82.2706V83.4184Z" fill="#7F7F7F"/>
<path d="M268.506 84.6381L267.206 83.9207V82.7729L268.506 83.4903V84.6381Z" fill="#7F7F7F"/>
<path opacity="0.5" d="M261.354 83.1317L258.536 81.4818V80.334L261.354 81.9839V83.1317Z" fill="#7F7F7F"/>
<path opacity="0.5" d="M265.617 85.5708L262.149 83.6339V82.4861L265.617 84.4947V85.5708Z" fill="#7F7F7F"/>
<path d="M267.712 86.79L266.483 86.0726V84.9248L267.712 85.6422V86.79Z" fill="#7F7F7F"/>
<path opacity="0.5" d="M269.733 87.9379L268.433 87.2205V86.0728L269.733 86.7901V87.9379Z" fill="#7F7F7F"/>
<path opacity="0.5" d="M260.559 85.2836L258.536 84.1358V82.988L260.559 84.1358V85.2836Z" fill="#7F7F7F"/>
<path opacity="0.5" d="M262.076 86.1444L261.354 85.7857V84.6379L262.076 84.9966V86.1444Z" fill="#7F7F7F"/>
<path opacity="0.5" d="M264.171 87.3639L262.871 86.6466V85.4988L264.171 86.2161V87.3639Z" fill="#7F7F7F"/>
<path opacity="0.5" d="M266.122 91.0943L258.536 86.7183V85.5706L266.122 89.9465V91.0943Z" fill="#7F7F7F"/>
<path opacity="0.5" d="M268.795 92.6005L266.917 91.5245V90.3767L268.795 91.4528V92.6005Z" fill="#7F7F7F"/>
<path opacity="0.5" d="M260.559 90.5204L258.536 89.3009V88.1531L260.559 89.3726V90.5204Z" fill="#7F7F7F"/>
<path opacity="0.5" d="M265.4 93.2463L261.354 90.9508V89.803L265.4 92.1703V93.2463Z" fill="#7F7F7F"/>
<path opacity="0.5" d="M267.495 94.4662L266.195 93.7489V92.6011L267.495 93.3184V94.4662Z" fill="#7F7F7F"/>
<path d="M262.726 94.3225L258.536 91.9552V90.8074L262.726 93.1747V94.3225Z" fill="#7F7F7F"/>
<path opacity="0.5" d="M266.556 96.5465L263.521 94.8248V93.677L266.556 95.3987V96.5465Z" fill="#7F7F7F"/>
<path opacity="0.5" d="M269.445 98.1962L267.35 97.0484V95.9006L269.445 97.0484V98.1962Z" fill="#7F7F7F"/>
<path opacity="0.5" d="M259.909 95.3268L258.536 94.5377V93.3899L259.909 94.179V95.3268Z" fill="#7F7F7F"/>
<path opacity="0.5" d="M262.582 96.905L260.704 95.8289V94.6812L262.582 95.7572V96.905Z" fill="#7F7F7F"/>
<path d="M266.483 99.057L263.449 97.3353V96.1875L266.483 97.9809V99.057Z" fill="#7F7F7F"/>
<path opacity="0.5" d="M262.871 99.631L258.536 97.1202V95.9724L262.871 98.4832V99.631Z" fill="#7F7F7F"/>
<path opacity="0.5" d="M267.784 102.429L263.666 100.133V98.9854L267.784 101.281V102.429Z" fill="#7F7F7F"/>
<path opacity="0.5" d="M269.807 103.648L268.579 102.931V101.783L269.807 102.501V103.648Z" fill="#7F7F7F"/>
<path opacity="0.5" d="M271.829 104.796L270.529 104.079V102.931L271.829 103.648V104.796Z" fill="#7F7F7F"/>
<path opacity="0.5" d="M261.137 101.281L258.536 99.7742V98.6265L261.137 100.133V101.281Z" fill="#7F7F7F"/>
<path d="M272.046 86.6466L275.658 88.7269V87.5791L272.046 85.4988V86.6466Z" fill="#7F7F7F"/>
<path opacity="0.5" d="M272.841 89.7313L275.658 91.3812V90.2334L272.841 88.5835V89.7313Z" fill="#7F7F7F"/>
<path opacity="0.5" d="M273.635 92.8162L275.658 93.964V92.8162L273.635 91.6685V92.8162Z" fill="#7F7F7F"/>
<path opacity="0.5" d="M272.696 94.8248L275.658 96.5465V95.3987L272.696 93.677V94.8248Z" fill="#7F7F7F"/>
<path opacity="0.5" d="M273.635 97.981L275.658 99.2006V98.0528L273.635 96.8333V97.981Z" fill="#7F7F7F"/>
<path opacity="0.5" d="M273.058 100.277L275.658 101.783V100.635L273.058 99.1289V100.277Z" fill="#7F7F7F"/>
<path opacity="0.5" d="M274.285 103.576L275.657 104.366V103.218L274.285 102.429V103.576Z" fill="#7F7F7F"/>
<path opacity="0.5" d="M272.913 105.442L275.658 107.02V105.872L272.913 104.294V105.442Z" fill="#7F7F7F"/>
<path opacity="0.5" d="M273.058 108.096L275.658 109.602V108.454L273.058 106.948V108.096Z" fill="#7F7F7F"/>
<path d="M263.016 102.357L261.932 101.711V100.563L263.016 101.209V102.357Z" fill="#7F7F7F"/>
<path opacity="0.5" d="M266.339 104.222L263.81 102.787V101.639L266.339 103.074V104.222Z" fill="#7F7F7F"/>
<path opacity="0.5" d="M243.437 93.7484L238.236 90.8072V89.6594L243.437 92.6724V93.7484Z" fill="#7F7F7F"/>
<path opacity="0.5" d="M246.111 95.3266L244.232 94.2506V93.1028L246.111 94.1788V95.3266Z" fill="#7F7F7F"/>
<path opacity="0.5" d="M248.206 96.5465L246.905 95.7574V94.6096L248.206 95.3987V96.5465Z" fill="#7F7F7F"/>
<path opacity="0.5" d="M241.053 95.0399L238.236 93.39V92.2422L241.053 93.8921V95.0399Z" fill="#7F7F7F"/>
<path opacity="0.5" d="M245.388 97.4792L241.848 95.4705V94.3228L245.388 96.3314V97.4792Z" fill="#7F7F7F"/>
<path opacity="0.5" d="M247.411 98.6984L246.183 97.9093V96.8333L247.411 97.5506V98.6984Z" fill="#7F7F7F"/>
<path opacity="0.5" d="M249.434 99.8466L248.134 99.0575V97.9097L249.434 98.6988V99.8466Z" fill="#7F7F7F"/>
<path opacity="0.5" d="M240.259 97.1918L238.236 95.9722V94.8245L240.259 96.044V97.1918Z" fill="#7F7F7F"/>
<path opacity="0.5" d="M241.776 98.0528L241.053 97.6224V96.4746L241.776 96.905V98.0528Z" fill="#7F7F7F"/>
<path opacity="0.5" d="M243.871 99.2004L242.57 98.483V97.3352L243.871 98.1243V99.2004Z" fill="#7F7F7F"/>
<path opacity="0.5" d="M245.821 102.931L238.236 98.6265V97.4788L245.821 101.855V102.931Z" fill="#7F7F7F"/>
<path opacity="0.5" d="M248.495 104.509L246.616 103.433V102.285L248.495 103.361V104.509Z" fill="#7F7F7F"/>
<path opacity="0.5" d="M240.259 102.357L238.236 101.209V100.061L240.259 101.281V102.357Z" fill="#7F7F7F"/>
<path opacity="0.5" d="M245.099 105.155L241.053 102.859V101.711L245.099 104.007V105.155Z" fill="#7F7F7F"/>
<path opacity="0.5" d="M247.194 106.374L245.894 105.657V104.509L247.194 105.226V106.374Z" fill="#7F7F7F"/>
<path opacity="0.5" d="M242.426 106.231L238.236 103.792V102.644L242.426 105.083V106.231Z" fill="#7F7F7F"/>
<path opacity="0.5" d="M246.327 108.455L243.221 106.661V105.513L246.327 107.307V108.455Z" fill="#7F7F7F"/>
<path opacity="0.5" d="M249.144 110.105L247.122 108.885V107.737L249.144 108.957V110.105Z" fill="#7F7F7F"/>
<path opacity="0.5" d="M239.681 107.235L238.236 106.446V105.298L239.681 106.087V107.235Z" fill="#7F7F7F"/>
<path opacity="0.5" d="M242.354 108.741L240.476 107.665V106.518L242.354 107.665V108.741Z" fill="#7F7F7F"/>
<path opacity="0.5" d="M246.183 110.965L243.149 109.244V108.096L246.183 109.818V110.965Z" fill="#7F7F7F"/>
<path opacity="0.5" d="M242.57 111.539L238.236 109.028V107.881L242.57 110.391V111.539Z" fill="#7F7F7F"/>
<path opacity="0.5" d="M247.484 114.337L243.366 111.97V110.822L247.484 113.189V114.337Z" fill="#7F7F7F"/>
<path opacity="0.5" d="M249.578 115.557L248.278 114.768V113.62L249.578 114.409V115.557Z" fill="#7F7F7F"/>
<path opacity="0.5" d="M251.529 116.632L250.301 115.915V114.767L251.529 115.556V116.632Z" fill="#7F7F7F"/>
<path opacity="0.5" d="M240.837 113.117L238.236 111.611V110.463L240.837 111.97V113.117Z" fill="#7F7F7F"/>
<path opacity="0.5" d="M251.745 98.5548L255.43 100.635V99.4873L251.745 97.407V98.5548Z" fill="#7F7F7F"/>
<path opacity="0.5" d="M252.54 101.64L255.43 103.218V102.07L252.54 100.492V101.64Z" fill="#7F7F7F"/>
<path opacity="0.5" d="M253.335 104.653L255.43 105.872V104.724L253.335 103.505V104.653Z" fill="#7F7F7F"/>
<path opacity="0.5" d="M252.396 106.733L255.43 108.454V107.307L252.396 105.585V106.733Z" fill="#7F7F7F"/>
<path opacity="0.5" d="M253.335 109.889L255.43 111.037V109.889L253.335 108.742V109.889Z" fill="#7F7F7F"/>
<path opacity="0.5" d="M252.757 112.185L255.43 113.691V112.544L252.757 111.037V112.185Z" fill="#7F7F7F"/>
<path opacity="0.5" d="M253.985 115.485L255.43 116.274V115.126L253.985 114.337V115.485Z" fill="#7F7F7F"/>
<path opacity="0.5" d="M252.613 117.278L255.43 118.856V117.709L252.613 116.13V117.278Z" fill="#7F7F7F"/>
<path opacity="0.5" d="M252.757 120.004L255.43 121.511V120.363L252.757 118.856V120.004Z" fill="#7F7F7F"/>
<path opacity="0.5" d="M242.715 114.193L241.631 113.619V112.472L242.715 113.117V114.193Z" fill="#7F7F7F"/>
<path opacity="0.5" d="M246.038 116.13L243.582 114.696V113.548L246.038 114.983V116.13Z" fill="#7F7F7F"/>
<path opacity="0.5" d="M248.133 124.882L243.871 122.443V121.295L248.133 123.734V124.882Z" fill="#7F7F7F"/>
<path opacity="0.5" d="M251.023 126.532L249.362 125.6V124.452L251.023 125.384V126.532Z" fill="#7F7F7F"/>
<path opacity="0.5" d="M263.738 105.37L258.536 102.357V101.209L263.738 104.222V105.37Z" fill="#7F7F7F"/>
<path opacity="0.5" d="M266.411 106.876L264.532 105.8V104.653L266.411 105.729V106.876Z" fill="#7F7F7F"/>
<path opacity="0.5" d="M268.506 108.096L267.206 107.379V106.231L268.506 106.948V108.096Z" fill="#7F7F7F"/>
<path opacity="0.5" d="M261.354 106.59L258.536 104.94V103.864L261.354 105.442V106.59Z" fill="#7F7F7F"/>
<path opacity="0.5" d="M265.617 109.1L262.149 107.091V105.944L265.617 107.952V109.1Z" fill="#7F7F7F"/>
<path opacity="0.5" d="M267.712 110.248L266.483 109.53V108.383L267.712 109.1V110.248Z" fill="#7F7F7F"/>
<path opacity="0.5" d="M269.733 111.396L268.433 110.678V109.531L269.733 110.248V111.396Z" fill="#7F7F7F"/>
<path opacity="0.5" d="M260.559 108.742L258.536 107.594V106.446L260.559 107.594V108.742Z" fill="#7F7F7F"/>
<path opacity="0.5" d="M262.076 109.602L261.354 109.244V108.096L262.076 108.455V109.602Z" fill="#7F7F7F"/>
<path opacity="0.5" d="M264.171 110.822L262.871 110.104V108.957L264.171 109.674V110.822Z" fill="#7F7F7F"/>
<path opacity="0.5" d="M266.122 114.552L258.536 110.176V109.029L266.122 113.404V114.552Z" fill="#7F7F7F"/>
<path opacity="0.5" d="M268.795 116.059L266.917 114.983V113.835L268.795 114.911V116.059Z" fill="#7F7F7F"/>
<path opacity="0.5" d="M260.559 113.978L258.536 112.759V111.683L260.559 112.83V113.978Z" fill="#7F7F7F"/>
<path opacity="0.5" d="M265.4 116.776L261.354 114.409V113.261L265.4 115.628V116.776Z" fill="#7F7F7F"/>
<path opacity="0.5" d="M267.495 117.924L266.195 117.206V116.058L267.495 116.776V117.924Z" fill="#7F7F7F"/>
<path opacity="0.5" d="M262.726 117.78L258.536 115.413V114.265L262.726 116.704V117.78Z" fill="#7F7F7F"/>
<path opacity="0.5" d="M266.556 120.004L263.521 118.283V117.135L266.556 118.856V120.004Z" fill="#7F7F7F"/>
<path opacity="0.5" d="M269.445 121.654L267.35 120.506V119.358L269.445 120.506V121.654Z" fill="#7F7F7F"/>
<path opacity="0.5" d="M259.909 118.785L258.536 117.995V116.848L259.909 117.708V118.785Z" fill="#7F7F7F"/>
<path opacity="0.5" d="M262.582 120.362L260.704 119.286V118.139L262.582 119.215V120.362Z" fill="#7F7F7F"/>
<path opacity="0.5" d="M266.483 122.587L263.449 120.793V119.646L266.483 121.439V122.587Z" fill="#7F7F7F"/>
<path opacity="0.5" d="M262.871 123.089L258.536 120.578V119.502L262.871 121.941V123.089Z" fill="#7F7F7F"/>
<path opacity="0.5" d="M267.784 125.887L263.666 123.591V122.443L267.784 124.739V125.887Z" fill="#7F7F7F"/>
<path opacity="0.5" d="M269.807 127.106L268.579 126.389V125.241L269.807 125.958V127.106Z" fill="#7F7F7F"/>
<path opacity="0.5" d="M271.829 128.254L270.529 127.536V126.389L271.829 127.106V128.254Z" fill="#7F7F7F"/>
<path opacity="0.5" d="M261.137 124.739L258.536 123.232V122.084L261.137 123.591V124.739Z" fill="#7F7F7F"/>
<path opacity="0.5" d="M272.046 110.105L275.658 112.185V111.109L272.046 109.029V110.105Z" fill="#7F7F7F"/>
<path opacity="0.5" d="M272.841 113.189L275.658 114.839V113.691L272.841 112.041V113.189Z" fill="#7F7F7F"/>
<path opacity="0.5" d="M273.635 116.274L275.658 117.422V116.274L273.635 115.126V116.274Z" fill="#7F7F7F"/>
<path opacity="0.5" d="M272.696 118.283L275.658 120.004V118.928L272.696 117.207V118.283Z" fill="#7F7F7F"/>
<path opacity="0.5" d="M273.635 121.439L275.658 122.658V121.511L273.635 120.291V121.439Z" fill="#7F7F7F"/>
<path opacity="0.5" d="M273.058 123.734L275.658 125.241V124.093L273.058 122.587V123.734Z" fill="#7F7F7F"/>
<path opacity="0.5" d="M274.285 127.034L275.657 127.823V126.747L274.285 125.886V127.034Z" fill="#7F7F7F"/>
<path opacity="0.5" d="M272.913 128.899L275.658 130.478V129.33L272.913 127.752V128.899Z" fill="#7F7F7F"/>
<path opacity="0.5" d="M273.058 131.554L275.658 133.06V131.912L273.058 130.406V131.554Z" fill="#7F7F7F"/>
<path opacity="0.5" d="M263.016 125.815L261.932 125.169V124.021L263.016 124.667V125.815Z" fill="#7F7F7F"/>
<path opacity="0.5" d="M266.339 127.68L263.81 126.245V125.097L266.339 126.532V127.68Z" fill="#7F7F7F"/>
<path opacity="0.5" d="M268.433 136.504L264.17 134.065V132.917L268.433 135.356V136.504Z" fill="#7F7F7F"/>
<path opacity="0.5" d="M271.324 138.153L269.662 137.149V136.001L271.324 137.006V138.153Z" fill="#7F7F7F"/>
<path d="M267.35 72.5865L268.867 71.5104C269.372 71.1517 270.023 71.1517 270.745 71.5821L323.916 102.07C325.361 102.931 326.517 105.155 326.517 107.092V136.719C326.517 137.723 326.228 138.441 325.65 138.799L324.06 139.947L323.988 138.799C323.916 138.799 323.916 138.727 323.844 138.727L270.673 108.239C269.228 107.379 268.072 105.155 268.072 103.218V73.519C268.072 73.2321 268.072 72.9451 268.144 72.7299L267.35 72.5865Z" fill="url(#paint15_linear)"/>
<path d="M326.444 105.872L312.357 113.907L308.817 111.898L324.783 102.788C325.577 103.505 326.155 104.653 326.444 105.872Z" fill="white" fill-opacity="0.5"/>
<path d="M269.156 109.244L322.326 139.732C323.771 140.593 324.927 139.66 324.927 137.723V108.096C324.927 106.159 323.771 103.935 322.326 103.074L269.156 72.5864C267.711 71.7256 266.555 72.6582 266.555 74.595V104.222C266.483 106.159 267.711 108.383 269.156 109.244Z" fill="url(#paint16_linear)"/>
<path d="M274.069 90.5922L317.487 115.485C317.848 115.7 318.137 115.772 318.281 115.485C318.281 115.413 318.281 115.341 318.281 115.341V108.813C318.281 108.311 317.992 107.737 317.559 107.522L273.78 82.4143L273.707 82.3425C273.346 82.4143 273.346 82.7012 273.346 83.1316L273.274 89.3727C273.274 89.8749 273.707 90.377 274.069 90.5922Z" fill="#48CDB7"/>
<path d="M273.996 104.796L317.486 129.689C317.847 129.904 318.281 130.047 318.353 129.689C318.353 129.617 318.353 129.545 318.353 129.474V122.946C318.353 122.443 318.064 121.869 317.63 121.654L273.851 96.5465C273.851 96.5465 273.779 96.5465 273.779 96.4747C273.418 96.3313 273.346 96.7617 273.346 97.2639V103.433C273.273 104.007 273.562 104.581 273.996 104.796Z" fill="#48CDB7"/>
<path d="M273.78 82.2707C273.78 82.3425 273.78 82.4142 273.78 82.4142V88.9422C273.78 89.4444 274.069 90.0183 274.502 90.2335L318.281 115.341C318.281 115.341 318.353 115.341 318.353 115.413C318.281 115.772 317.992 115.915 317.703 115.772L273.924 90.6639C273.563 90.4487 273.202 89.8748 273.202 89.3726V82.8446C273.129 82.4142 273.418 82.1272 273.78 82.2707Z" fill="white"/>
<path d="M273.78 96.5466C273.78 96.6183 273.78 96.69 273.78 96.69V103.218C273.78 103.72 274.069 104.294 274.502 104.509L318.281 129.617C318.281 129.617 318.353 129.617 318.353 129.689C318.281 130.047 317.992 130.191 317.703 130.047L273.924 104.94C273.563 104.725 273.202 104.151 273.202 103.648V97.1205C273.129 96.6183 273.418 96.4031 273.78 96.5466Z" fill="white"/>
<path d="M305.782 105.729L305.276 106.733L304.265 105.442L305.06 104.652L303.904 103.505L304.265 102.5L305.276 103.792L305.132 102.285L306.432 103.003L306.288 104.366L307.299 104.294L307.66 105.657L306.505 105.513L307.299 107.163L306.288 107.235L305.782 105.729Z" fill="white"/>
<path d="M300.798 102.859L300.292 103.863L299.281 102.572L300.075 101.783L298.919 100.635L299.281 99.631L300.292 100.922L300.148 99.4158L301.448 100.133L301.303 101.496L302.315 101.424L302.676 102.787L301.52 102.644L302.315 104.294L301.303 104.366L300.798 102.859Z" fill="white"/>
<path d="M295.741 99.918L295.235 100.922L294.224 99.631L295.018 98.8419L293.862 97.6941L294.224 96.6898L295.235 97.9811L295.09 96.4746L296.391 97.192L296.246 98.555L297.258 98.4832L297.619 99.8462L296.463 99.7028L297.258 101.353L296.246 101.424L295.741 99.918Z" fill="white"/>
<path d="M290.684 97.0486L290.178 98.0529L289.167 96.7616L289.962 95.9725L288.806 94.8247L289.167 93.8204L290.178 95.1117L290.034 93.6052L291.334 94.3226L291.19 95.6856L292.201 95.6138L292.562 96.9768L291.406 96.8334L292.201 98.4833L291.19 98.555L290.684 97.0486Z" fill="white"/>
<path d="M285.699 94.1789L285.193 95.1833L284.182 93.892L284.977 93.1029L283.821 91.9551L284.182 90.9508L285.193 92.2421L285.049 90.7356L286.349 91.453L286.205 92.816L287.216 92.7442L287.577 94.1072L286.422 93.9637L287.216 95.6137L286.205 95.6854L285.699 94.1789Z" fill="white"/>
<path d="M305.782 119.932L305.276 120.937L304.265 119.645L305.06 118.856L303.904 117.709L304.265 116.704L305.276 117.995L305.132 116.489L306.432 117.206L306.288 118.569L307.299 118.498L307.66 119.861L306.505 119.717L307.299 121.367L306.288 121.439L305.782 119.932Z" fill="white"/>
<path d="M300.798 117.063L300.292 118.067L299.281 116.776L300.075 115.987L298.919 114.839L299.281 113.835L300.292 115.126L300.148 113.62L301.448 114.337L301.303 115.7L302.315 115.628L302.676 116.991L301.52 116.848L302.315 118.498L301.303 118.569L300.798 117.063Z" fill="white"/>
<path d="M295.741 114.193L295.235 115.198L294.224 113.906L295.018 113.117L293.862 111.97L294.224 110.965L295.235 112.256L295.09 110.75L296.391 111.467L296.246 112.83L297.258 112.759L297.619 114.122L296.463 113.978L297.258 115.628L296.246 115.7L295.741 114.193Z" fill="white"/>
<path d="M290.684 111.324L290.178 112.328L289.167 111.037L289.962 110.248L288.806 109.1L289.167 108.096L290.178 109.387L290.034 107.88L291.334 108.598L291.19 109.961L292.201 109.889L292.562 111.252L291.406 111.109L292.201 112.758L291.19 112.83L290.684 111.324Z" fill="white"/>
<path d="M285.699 108.455L285.193 109.459L284.182 108.168L284.977 107.379L283.821 106.231L284.182 105.226L285.193 106.518L285.049 105.011L286.349 105.729L286.205 107.092L287.216 107.02L287.577 108.383L286.422 108.239L287.216 109.889L286.205 109.961L285.699 108.455Z" fill="white"/>
<path d="M140.895 143.462C140.895 143.462 140.895 151.259 137.738 156.108C135.92 158.866 132.858 160.482 129.223 160.958C126.448 161.338 123.483 161.053 120.517 160.102C113.724 158.01 109.323 147.55 106.931 137.281C104.539 127.011 110.28 123.873 111.141 124.159C112.672 124.729 116.403 129.579 120.708 133.953C122.909 136.14 125.205 138.327 127.501 139.658C134.198 143.557 140.895 143.462 140.895 143.462Z" fill="url(#paint17_linear)"/>
<path opacity="0.3" d="M129.318 160.863C126.544 161.243 123.578 160.958 120.612 160.007C113.819 157.915 109.418 147.455 107.026 137.186C104.635 126.916 110.375 123.778 111.236 124.063C112.767 124.634 116.498 129.484 120.803 133.858C120.803 133.858 117.359 141.274 118.794 151.259C120.229 161.243 129.318 160.863 129.318 160.863Z" fill="url(#paint18_linear)"/>
<path d="M92.1969 188.153C92.1969 194.809 89.9008 210.689 85.1171 209.929C84.0647 209.738 82.9167 208.692 81.5773 207.076C77.559 202.226 72.6797 192.052 70.0009 185.11C68.4701 181.307 67.6091 178.454 67.8961 177.979C69.3312 174.746 90.4748 184.16 91.8142 185.396C92.1012 185.586 92.1969 186.632 92.1969 188.153Z" fill="url(#paint19_linear)"/>
<path d="M67.8951 177.979C66.2686 181.022 85.4988 190.436 92.1002 185.966C92.0045 185.966 69.9999 173.89 67.8951 177.979Z" fill="url(#paint20_linear)"/>
<path d="M115.062 181.022C114.871 181.592 114.68 182.258 114.488 182.828C111.618 192.527 106.548 206.6 102.721 211.45C101.764 212.591 100.999 213.257 100.233 213.162C100.042 213.162 99.8504 213.066 99.6591 212.971C98.9894 212.686 98.4154 212.02 97.8413 211.07C94.1101 205.364 91.4313 189.294 92.0053 184.635C92.101 184.064 92.1966 183.684 92.388 183.494C95.5452 180.451 116.019 171.513 116.784 173.034C116.976 173.51 116.306 176.648 115.062 181.022Z" fill="url(#paint21_linear)"/>
<path d="M92.0065 184.634C91.2412 185.966 111.428 185.871 116.786 173.129C116.786 173.129 99.469 172.463 92.0065 184.634Z" fill="url(#paint22_linear)"/>
<path d="M102.148 191.006C101.287 191.101 100.139 197.472 101.383 198.042C102.626 198.613 104.061 190.72 102.148 191.006Z" fill="white"/>
<path d="M71.7226 127.202C71.7226 132.907 70.8615 141.18 68.2784 147.931C63.9731 159.056 57.4674 172.939 57.276 173.415C53.2578 175.792 48.5698 175.697 45.5083 175.221C43.6905 174.936 42.4468 174.556 42.4468 174.556C42.4468 174.556 43.7862 161.814 50.7703 147.456C54.3102 140.229 58.8068 133.478 62.6337 128.533C62.6337 128.533 62.6337 128.533 62.7294 128.438C62.7294 128.343 62.825 128.343 62.825 128.248L62.9207 128.153L63.0164 128.058L63.112 127.963C67.0346 123.018 70.2875 119.975 70.9572 120.355C71.3399 120.641 71.7226 123.303 71.7226 127.202Z" fill="url(#paint23_linear)"/>
<path d="M42.4468 174.174C42.4468 174.174 47.6131 165.806 52.8751 166.852C58.1371 167.898 57.1804 173.509 57.1804 173.509C57.1804 173.509 50.4833 178.263 42.4468 174.174Z" fill="url(#paint24_linear)"/>
<path opacity="0.3" d="M71.7235 127.202C71.7235 132.907 70.8625 141.18 68.2793 147.931C63.974 159.056 57.4683 172.939 57.277 173.415L45.4136 175.316C43.5958 175.031 42.3521 174.651 42.3521 174.651C42.3521 174.651 43.6915 161.909 50.6756 147.551C54.2154 140.324 58.7121 133.573 62.539 128.628C60.3385 131.576 51.0583 144.222 48.5708 154.967C45.7006 167.234 57.1813 162.479 61.8693 154.967C66.5572 147.456 71.4365 127.297 71.4365 127.297H71.7235V127.202Z" fill="url(#paint25_linear)"/>
<path d="M58.9016 146.789C57.9449 146.409 62.8242 135.569 64.2593 135.474C65.7901 135.379 59.667 147.075 58.9016 146.789Z" fill="white"/>
<path d="M58.4242 147.931C57.6588 147.55 56.9891 149.547 57.6588 149.832C58.3285 150.213 59.1896 148.406 58.4242 147.931Z" fill="white"/>
<path d="M115.636 46.8512C115.636 46.8512 121.663 41.7164 128.934 40.8606C128.934 40.8606 131.135 41.9066 133.814 49.9891C136.397 57.9765 131.613 73.8563 131.613 73.8563L115.636 46.8512Z" fill="url(#paint26_linear)"/>
<path d="M128.935 40.8608C128.935 40.8608 123.003 47.1366 123.003 57.3111L125.299 58.7374L131.996 45.0447C131.996 45.0447 129.796 40.6706 128.935 40.8608Z" fill="#7F7F7F"/>
<path d="M125.108 58.072C125.108 58.072 123.577 49.4189 129.317 42.9529C129.317 42.9529 135.823 45.9957 138.502 57.3112C141.181 68.6268 134.196 75.3781 134.196 75.3781L125.108 58.072Z" fill="url(#paint27_linear)"/>
<path d="M121.76 43.3331C120.611 43.9036 120.707 45.1398 123.003 44.8545C125.299 44.5692 126.543 42.7625 126.256 42.3822C126.065 42.0969 123.003 42.6675 121.76 43.3331Z" fill="white"/>
<path d="M65.409 48.0877C65.409 48.0877 59.3816 42.953 52.1105 42.0972C52.1105 42.0972 49.91 43.1431 47.2312 51.2257C44.648 59.2131 49.4317 75.0929 49.4317 75.0929L65.409 48.0877Z" fill="url(#paint28_linear)"/>
<path d="M52.1099 42.0968C52.1099 42.0968 58.0416 48.3726 58.0416 58.5471L55.7454 59.9734L49.0483 46.2807C49.0483 46.2807 51.2488 42.0017 52.1099 42.0968Z" fill="#7F7F7F"/>
<path d="M55.937 59.308C55.937 59.308 57.4678 50.655 51.7274 44.189C51.7274 44.189 45.2217 47.2318 42.5429 58.5473C39.864 69.8629 47.7092 77.3748 47.7092 77.3748L55.937 59.308Z" fill="url(#paint29_linear)"/>
<path d="M59.2849 44.6647C60.433 45.2353 60.3373 46.4714 58.0412 46.1862C55.7451 45.9009 54.5013 44.0942 54.7883 43.7139C54.9797 43.3335 58.0412 43.9991 59.2849 44.6647Z" fill="white"/>
<path d="M116.498 166.853C114.68 177.503 105.017 184.635 91.2406 184.635C79.1858 184.635 69.0446 180.165 66.3657 170.371C63.6869 160.577 64.7393 142.415 68.2792 131.195C68.8532 129.483 69.4272 127.867 70.1926 126.345C70.8623 124.919 71.6277 123.588 72.4888 122.352C76.8897 115.79 83.2998 111.511 90.5709 111.511C98.129 111.511 103.869 114.554 107.888 119.214C109.705 121.306 111.14 123.778 112.193 126.345C113.341 129.293 114.393 132.526 115.159 135.759V135.854C117.646 146.124 118.125 157.344 116.498 166.853Z" fill="url(#paint30_linear)"/>
<path opacity="0.3" d="M116.498 166.853C114.68 177.503 105.017 184.635 91.2406 184.635C79.1858 184.635 69.0446 180.166 66.3657 170.371C63.6869 160.577 64.7393 142.415 68.2792 131.195C68.8532 129.483 69.4272 127.867 70.1926 126.345C70.1926 126.345 62.9215 150.308 68.7575 165.617C74.5936 180.926 101.669 180.546 110.853 170.371C119.56 160.767 115.541 138.041 115.159 135.854C117.646 146.124 118.125 157.344 116.498 166.853Z" fill="url(#paint31_linear)"/>
<path d="M74.8482 151.549C76.2064 141.873 84.0968 135.337 92.7633 136.17C102.141 137.067 107.186 145.91 107.057 153.535C106.927 161.161 101.3 167.056 91.2758 167.056C81.2511 167.056 73.5547 160.648 74.8482 151.549Z" fill="#7F7F7F"/>
<path d="M74.8492 152.776C76.2074 143.097 84.0975 136.559 92.7637 137.328C102.141 138.225 107.186 147.071 107.057 154.699C106.927 162.327 101.301 168.224 91.2763 168.224C81.1872 168.288 73.5557 161.814 74.8492 152.776Z" fill="url(#paint32_linear)"/>
<path d="M87.4522 145.885C87.4522 145.712 87.4971 145.62 87.6654 145.55C89.0459 144.938 90.4825 144.73 91.9752 144.938C92.7384 145.042 93.4792 145.262 94.1862 145.608C95.1178 146.059 95.9371 146.66 96.6442 147.434C97.5757 148.451 98.2155 149.629 98.5634 150.981C98.844 152.079 98.9001 153.199 98.7205 154.32C98.5971 155.083 98.395 155.811 98.0696 156.504C97.6318 157.44 97.0594 158.272 96.3187 158.988C95.4208 159.854 94.377 160.49 93.1986 160.86C92.0313 161.218 90.8529 161.31 89.652 161.114C88.6082 160.941 87.6205 160.571 86.7227 159.993C85.8248 159.415 85.0504 158.676 84.4331 157.786C83.7709 156.827 83.322 155.776 83.0975 154.62C82.9179 153.719 82.8955 152.818 83.0189 151.905C83.1312 151.12 83.3332 150.357 83.6587 149.629C83.9729 148.936 84.377 148.3 84.8483 147.711C84.9157 147.63 85.0055 147.584 85.1065 147.619C85.2075 147.653 85.2412 147.746 85.2412 147.861C85.2412 149.525 85.2524 151.177 85.2299 152.841C85.2187 153.846 85.4095 154.805 85.8585 155.707C86.2962 156.585 86.9247 157.301 87.7215 157.856C88.5184 158.41 89.3938 158.734 90.3591 158.815C91.8518 158.953 93.1874 158.549 94.3658 157.601C95.331 156.816 95.982 155.811 96.3187 154.586C96.4871 153.962 96.5656 153.326 96.5207 152.679C96.4197 151.316 95.9371 150.103 95.028 149.098C94.276 148.266 93.3669 147.699 92.2895 147.422C91.4926 147.214 90.6845 147.18 89.8764 147.33C89.7979 147.341 89.7754 147.376 89.7754 147.457C89.7754 148.185 89.7754 148.913 89.7754 149.652C89.7754 149.768 89.8316 149.768 89.9101 149.768C90.5162 149.768 91.1335 149.768 91.7395 149.768C91.9752 149.768 92.0426 149.837 92.0426 150.068C92.0426 150.472 92.0426 150.877 92.0426 151.27C92.0426 151.478 91.9977 151.547 91.7957 151.593C91.2457 151.743 90.6845 151.894 90.1346 152.044C90.0785 152.055 90.0224 152.09 89.9662 152.09C89.7979 152.113 89.7754 152.206 89.7867 152.356C89.8091 152.668 89.7754 152.98 89.8203 153.28C89.8989 153.742 90.2019 154.043 90.6396 154.147C91.0774 154.251 91.459 154.112 91.7508 153.754C91.8069 153.685 91.8518 153.615 91.8967 153.534C91.9865 153.361 92.0426 153.338 92.2334 153.384C92.5027 153.453 92.7609 153.523 93.0302 153.592C93.3333 153.673 93.6363 153.765 93.9393 153.846C94.1301 153.904 94.1862 153.997 94.1189 154.193C93.9281 154.748 93.6251 155.233 93.1986 155.614C92.3232 156.411 91.3018 156.7 90.157 156.434C89.0796 156.192 88.2939 155.533 87.8113 154.505C87.5756 154.008 87.4746 153.488 87.4859 152.934C87.5092 150.582 87.4522 148.237 87.4522 145.885Z" fill="#48CDB7"/>
<path opacity="0.5" d="M107.887 119.214C104.921 123.778 88.7525 126.44 79.3766 125.585C71.2444 124.824 72.4882 122.637 72.4882 122.352C76.8891 115.79 83.2992 111.511 90.5703 111.511C98.1284 111.511 103.964 114.554 107.887 119.214Z" fill="url(#paint33_linear)"/>
<path d="M102.146 127.106C101.381 127.391 101.381 133.382 102.146 134.333C102.912 135.284 104.155 134.998 104.634 133.572C105.016 132.241 103.294 126.726 102.146 127.106Z" fill="white"/>
<path d="M103.487 135.949C102.817 136.14 102.817 137.566 103.104 138.136C103.391 138.707 104.443 138.517 104.635 137.946C104.826 137.281 104.156 135.854 103.487 135.949Z" fill="white"/>
<path opacity="0.2" d="M75.167 176.362C75.167 176.362 78.5155 182.067 90.8573 182.163C103.199 182.258 108.27 174.841 108.27 174.841C108.27 174.841 102.529 178.549 94.3972 176.362C86.265 174.08 78.1328 172.844 75.167 176.362Z" fill="white"/>
<path opacity="0.38" d="M78.2652 145.937C79.9391 148.573 86.6988 147.159 94.2955 147.93C101.892 148.702 103.244 151.145 104.854 150.63C106.463 150.116 103.952 138.673 92.4929 137.902C81.1623 137.13 77.879 145.295 78.2652 145.937Z" fill="white"/>
<path d="M48.5693 103.049C57.7539 124.063 126.351 117.502 134.579 100.291C143.572 81.3687 122.907 34.7753 90.0912 36.8673C62.2505 38.769 36.8016 76.0437 48.5693 103.049Z" fill="url(#paint34_linear)"/>
<path d="M52.3976 100.101C61.1995 117.312 121.091 114.459 129.797 98.6745C137.259 85.172 119.655 44.2839 89.6143 45.7102C59.4774 47.1366 43.9784 83.5555 52.3976 100.101Z" fill="url(#paint35_linear)"/>
<path d="M117.455 79.7517C116.306 82.8897 100.521 82.5093 100.521 81.3682C100.616 75.0924 103.965 66.9148 110.279 66.9148C116.785 67.105 119.655 73.9513 117.455 79.7517Z" fill="url(#paint36_linear)"/>
<path d="M64.1637 80.2277C65.5031 83.2705 81.289 82.0344 81.1934 80.8933C80.715 74.6175 76.8881 66.63 70.6694 67.0104C64.1637 67.4858 61.6762 74.5224 64.1637 80.2277Z" fill="url(#paint37_linear)"/>
<path d="M81.4797 91.8284C79.0879 92.3989 84.0629 100.291 92.0037 100.291C99.0835 100.291 103.102 92.2087 102.145 91.8284C101.284 91.448 96.9787 93.635 91.1426 93.635C85.3066 93.635 82.4364 91.5431 81.4797 91.8284Z" fill="white" fill-opacity="0.7"/>
<path d="M42.447 174.65C42.447 174.65 45.6042 170.181 50.1965 169.611C54.7887 169.04 56.4152 170.276 57.2762 173.414C58.1373 176.552 51.6316 188.153 43.5951 196.901C40.1508 197.186 39.0984 192.907 38.6201 190.245C38.5244 187.868 40.8206 178.359 42.447 174.65Z" fill="url(#paint38_linear)"/>
<path d="M53.4502 169.516C53.4502 169.516 44.8397 181.306 42.1609 188.153C40.7258 191.861 39.8647 194.239 39.8647 194.239C39.8647 194.239 42.0652 199.849 45.7964 195.189C51.0584 188.533 58.0425 178.549 56.7988 173.794C55.7464 169.706 54.981 168.945 53.4502 169.516Z" fill="url(#paint39_linear)"/>
<path d="M134.579 142.511C130.656 143.747 130.178 156.964 133.909 158.676C137.641 160.388 142.903 148.787 140.893 143.462C140.893 143.462 137.449 141.655 134.579 142.511Z" fill="url(#paint40_linear)"/>
<path d="M134.867 144.032C134.867 144.032 132.092 146.789 133.24 151.258C134.388 155.727 140.416 158.77 147.878 158.675C155.341 158.58 160.124 153.255 161.177 149.927C161.177 149.927 159.837 147.17 152.47 145.458C147.495 144.317 140.798 143.461 140.798 143.461C140.798 143.461 137.45 142.986 134.867 144.032Z" fill="url(#paint41_linear)"/>
<path d="M133.624 152.115C133.624 152.115 140.225 154.207 147.974 152.875C155.724 151.449 153.332 145.934 153.332 145.934C153.332 145.934 149.505 144.032 146.061 143.367C142.617 142.701 135.059 143.367 135.059 143.367C135.059 143.367 130.849 146.885 133.624 152.115Z" fill="url(#paint42_linear)"/>
<path d="M135.442 143.652C134.294 140.228 149.888 140.228 151.993 141.56C152.95 142.13 154.481 144.222 153.811 145.458C153.141 146.694 148.07 147.455 145.87 147.265C143.765 147.075 136.207 145.934 135.442 143.652Z" fill="url(#paint43_linear)"/>
<path d="M147.4 147.265C147.4 147.265 147.208 143.842 149.026 142.51C150.748 141.179 152.375 141.845 152.375 141.845C152.375 141.845 154.671 143.556 153.81 145.458C152.949 147.36 148.548 147.74 147.4 147.265Z" fill="url(#paint44_linear)"/>
<path d="M99.7534 40.7654C99.0837 41.5261 106.451 44.664 107.407 44.1886C108.364 43.8082 101.858 38.2931 99.7534 40.7654Z" fill="white"/>
<path opacity="0.5" d="M62.9206 62.9213C62.2509 67.0101 70.0961 66.5347 82.5335 66.1543C97.5541 65.6789 112.67 78.5158 121.472 69.2923C122.907 67.7708 108.556 47.8023 91.144 48.1826C73.8273 48.6581 63.5903 59.403 62.9206 62.9213Z" fill="url(#paint45_linear)"/>
<path opacity="0.5" d="M70.6709 105.806C69.9056 108.754 76.1243 111.797 91.5276 111.036C110.184 110.085 114.106 106.282 113.15 105.141C112.576 104.475 107.027 107.994 91.7189 104.665C81.6733 102.478 71.532 102.669 70.6709 105.806Z" fill="url(#paint46_linear)"/>
<path opacity="0.2" d="M54.0227 96.5827C54.0227 96.5827 53.353 92.3037 54.1183 86.5033C54.8837 80.7029 56.4145 76.9944 57.3712 77.4699C58.3279 78.0404 58.1366 83.6506 58.7106 89.2608C59.0933 93.6349 59.9544 97.7237 59.9544 97.7237C59.9544 97.7237 56.0318 101.432 54.0227 96.5827Z" fill="url(#paint47_linear)"/>
<path opacity="0.2" d="M55.363 110.181C55.363 110.181 56.3198 109.23 61.2947 106.282C64.6433 104.38 68.0875 102.003 68.6615 101.147C69.4269 99.1505 54.4063 100.292 54.4063 100.292L48.666 103.049C48.5703 103.049 50.8664 107.518 55.363 110.181Z" fill="black"/>
<path d="M42.4726 67.6106C42.4726 67.6106 43.4003 71.3961 45.3262 74.4139C45.3262 74.4139 27.1395 84.2213 28.1919 94.8712C29.053 103.81 54.0235 99.4354 54.0235 99.4354L54.8846 102.383C54.8846 102.383 33.6453 106.472 26.3742 101.527C26.3742 101.527 23.8867 95.6319 30.1054 85.0771C36.2284 74.5223 42.4726 67.6106 42.4726 67.6106Z" fill="url(#paint48_linear)"/>
<path d="M50.8654 98.6753C48.5692 101.243 53.4485 104 57.3711 104.476C61.8677 104.951 69.7128 103.24 69.2345 98.7704C68.8518 94.2061 56.223 92.5896 50.8654 98.6753Z" fill="url(#paint49_linear)"/>
<path opacity="0.2" d="M46.2734 180.45C46.2734 180.45 47.4215 186.726 51.3441 187.677L51.9181 172.558C51.9181 172.558 47.4215 178.453 46.2734 180.45Z" fill="black"/>
<path d="M50.0048 176.171C49.4308 177.598 50.5789 187.202 51.6313 188.248C52.6837 189.294 55.0755 187.487 55.7452 185.585C56.4149 183.683 59.3807 173.129 55.5539 169.8C55.5539 169.705 52.3967 170.086 50.0048 176.171Z" fill="url(#paint50_linear)"/>
<path d="M51.7275 177.408C51.3448 177.504 50.8665 180.737 51.1535 181.307C51.5362 181.878 52.2059 181.783 52.5886 181.117C52.9712 180.356 52.3972 177.313 51.7275 177.408Z" fill="white"/>
<path d="M40.4385 71.9546C40.4385 71.9546 31.828 81.9389 32.3063 82.6045C32.8804 83.3652 41.0125 73.0006 40.4385 71.9546Z" fill="white" fill-opacity="0.5"/>
</g>
<defs>
<radialGradient id="paint0_radial" cx="0" cy="0" r="1" gradientUnits="userSpaceOnUse" gradientTransform="translate(180.294 146.948) scale(214.925 123.848)">
<stop stop-color="#ABABAB"/>
<stop offset="1" stop-color="#DDDDDD" stop-opacity="0"/>
</radialGradient>
<linearGradient id="paint1_linear" x1="211.389" y1="67.3259" x2="211.389" y2="126.758" gradientUnits="userSpaceOnUse">
<stop stop-color="#73DDCB"/>
<stop offset="1" stop-color="#9BFFEE"/>
</linearGradient>
<linearGradient id="paint2_linear" x1="235.495" y1="126.688" x2="216.348" y2="85.9261" gradientUnits="userSpaceOnUse">
<stop stop-color="#A7A7A7"/>
<stop offset="1" stop-color="#F5F5F5"/>
</linearGradient>
<linearGradient id="paint3_linear" x1="260.116" y1="176.219" x2="260.116" y2="24.3532" gradientUnits="userSpaceOnUse">
<stop stop-color="#C2C2C2"/>
<stop offset="0.1779" stop-color="#B9B9B9"/>
<stop offset="0.3876" stop-color="#9D9D9D"/>
<stop offset="0.6134" stop-color="#B5B5B5"/>
<stop offset="0.849" stop-color="#B4B4B4"/>
<stop offset="1" stop-color="#DBDBDB"/>
</linearGradient>
<linearGradient id="paint4_linear" x1="256.935" y1="161.494" x2="308.274" y2="71.9471" gradientUnits="userSpaceOnUse">
<stop stop-color="#B0B0B0"/>
<stop offset="1" stop-color="#EBEBEB"/>
</linearGradient>
<linearGradient id="paint5_linear" x1="256.91" y1="35.2122" x2="256.91" y2="168.785" gradientUnits="userSpaceOnUse">
<stop stop-color="white"/>
<stop offset="1" stop-color="#D3D3D3"/>
</linearGradient>
<linearGradient id="paint6_linear" x1="183.601" y1="184.964" x2="226.954" y2="184.964" gradientUnits="userSpaceOnUse">
<stop stop-color="#E9E9FD"/>
<stop offset="0.3601" stop-color="#D3D2F9"/>
<stop offset="0.7062" stop-color="#C5C4F7"/>
<stop offset="1" stop-color="#C0BFF6"/>
</linearGradient>
<linearGradient id="paint7_linear" x1="187.914" y1="158.138" x2="222.19" y2="178.067" gradientUnits="userSpaceOnUse">
<stop stop-color="#DEDEDE"/>
<stop offset="1" stop-color="#979797"/>
</linearGradient>
<linearGradient id="paint8_linear" x1="183.601" y1="165.592" x2="226.954" y2="165.592" gradientUnits="userSpaceOnUse">
<stop stop-color="#F5F5F5"/>
<stop offset="1" stop-color="#DBDBDB"/>
</linearGradient>
<linearGradient id="paint9_linear" x1="266.139" y1="207.691" x2="222.786" y2="207.691" gradientUnits="userSpaceOnUse">
<stop stop-color="#E9E9FD"/>
<stop offset="0.3601" stop-color="#D3D2F9"/>
<stop offset="0.7062" stop-color="#C5C4F7"/>
<stop offset="1" stop-color="#C0BFF6"/>
</linearGradient>
<linearGradient id="paint10_linear" x1="261.826" y1="180.864" x2="227.55" y2="200.793" gradientUnits="userSpaceOnUse">
<stop stop-color="#DEDEDE"/>
<stop offset="1" stop-color="#979797"/>
</linearGradient>
<linearGradient id="paint11_linear" x1="266.14" y1="188.318" x2="222.787" y2="188.318" gradientUnits="userSpaceOnUse">
<stop stop-color="#F5F5F5"/>
<stop offset="1" stop-color="#DBDBDB"/>
</linearGradient>
<linearGradient id="paint12_linear" x1="305.093" y1="230.672" x2="261.74" y2="230.672" gradientUnits="userSpaceOnUse">
<stop stop-color="#E9E9FD"/>
<stop offset="0.3601" stop-color="#D3D2F9"/>
<stop offset="0.7062" stop-color="#C5C4F7"/>
<stop offset="1" stop-color="#C0BFF6"/>
</linearGradient>
<linearGradient id="paint13_linear" x1="300.78" y1="203.845" x2="266.504" y2="223.774" gradientUnits="userSpaceOnUse">
<stop stop-color="#DEDEDE"/>
<stop offset="1" stop-color="#979797"/>
</linearGradient>
<linearGradient id="paint14_linear" x1="305.093" y1="211.3" x2="261.74" y2="211.3" gradientUnits="userSpaceOnUse">
<stop stop-color="#F5F5F5"/>
<stop offset="1" stop-color="#DBDBDB"/>
</linearGradient>
<linearGradient id="paint15_linear" x1="326.517" y1="139.947" x2="273.352" y2="68.2685" gradientUnits="userSpaceOnUse">
<stop stop-color="#A7A7A7"/>
<stop offset="1" stop-color="#E2E2E2"/>
</linearGradient>
<linearGradient id="paint16_linear" x1="295.732" y1="124.482" x2="311.515" y2="96.9523" gradientUnits="userSpaceOnUse">
<stop stop-color="#DBDBDB"/>
<stop offset="1" stop-color="#F3F3F3"/>
</linearGradient>
<linearGradient id="paint17_linear" x1="120.865" y1="160.444" x2="125.185" y2="125.837" gradientUnits="userSpaceOnUse">
<stop stop-color="#BBBBBB"/>
<stop offset="1" stop-color="#ECECEC"/>
</linearGradient>
<linearGradient id="paint18_linear" x1="117.844" y1="161.04" x2="117.844" y2="124.074" gradientUnits="userSpaceOnUse">
<stop stop-color="#585858"/>
<stop offset="1" stop-color="white"/>
</linearGradient>
<linearGradient id="paint19_linear" x1="73.7652" y1="209.525" x2="88.5794" y2="190.055" gradientUnits="userSpaceOnUse">
<stop stop-color="#A7A7A7"/>
<stop offset="1" stop-color="#F5F5F5"/>
</linearGradient>
<linearGradient id="paint20_linear" x1="83.5859" y1="182.857" x2="74.1379" y2="183.617" gradientUnits="userSpaceOnUse">
<stop stop-color="#B8B8B8"/>
<stop offset="1" stop-color="#CCCCCC"/>
</linearGradient>
<linearGradient id="paint21_linear" x1="97.9814" y1="212.64" x2="116.892" y2="192.069" gradientUnits="userSpaceOnUse">
<stop stop-color="#A7A7A7"/>
<stop offset="1" stop-color="#F5F5F5"/>
</linearGradient>
<linearGradient id="paint22_linear" x1="103.161" y1="186.712" x2="105.564" y2="171.354" gradientUnits="userSpaceOnUse">
<stop stop-color="#B9B9B9"/>
<stop offset="1" stop-color="#C7C7C7"/>
</linearGradient>
<linearGradient id="paint23_linear" x1="54.0941" y1="176.363" x2="61.2316" y2="119.185" gradientUnits="userSpaceOnUse">
<stop stop-color="#DEDEDE"/>
<stop offset="1" stop-color="#A5A5A5"/>
</linearGradient>
<linearGradient id="paint24_linear" x1="49.8624" y1="175.814" x2="49.8624" y2="166.728" gradientUnits="userSpaceOnUse">
<stop stop-color="#B5B5B5"/>
<stop offset="1" stop-color="#A5A5A5"/>
</linearGradient>
<linearGradient id="paint25_linear" x1="57.0464" y1="175.277" x2="57.0464" y2="127.242" gradientUnits="userSpaceOnUse">
<stop stop-color="#7D7D7D"/>
<stop offset="1" stop-color="#C0C0C0"/>
</linearGradient>
<linearGradient id="paint26_linear" x1="125.081" y1="55.4196" x2="125.081" y2="40.815" gradientUnits="userSpaceOnUse">
<stop stop-color="#C5C5C5"/>
<stop offset="1" stop-color="#DFDFDF"/>
</linearGradient>
<linearGradient id="paint27_linear" x1="132.018" y1="42.9529" x2="132.018" y2="75.3781" gradientUnits="userSpaceOnUse">
<stop stop-color="#48CDB7"/>
<stop offset="1" stop-color="#9BFFEE"/>
</linearGradient>
<linearGradient id="paint28_linear" x1="55.9689" y1="59.6362" x2="55.9689" y2="42.1013" gradientUnits="userSpaceOnUse">
<stop stop-color="#B1B1B1"/>
<stop offset="1" stop-color="#E3E3E3"/>
</linearGradient>
<linearGradient id="paint29_linear" x1="49.0538" y1="44.189" x2="49.0538" y2="77.3748" gradientUnits="userSpaceOnUse">
<stop stop-color="#48CDB7"/>
<stop offset="1" stop-color="#9BFFEE"/>
</linearGradient>
<linearGradient id="paint30_linear" x1="64.9614" y1="135.525" x2="117.32" y2="140.168" gradientUnits="userSpaceOnUse">
<stop stop-color="#E6E6E6"/>
<stop offset="1" stop-color="#AAAAAA"/>
</linearGradient>
<linearGradient id="paint31_linear" x1="91.1705" y1="184.685" x2="91.1705" y2="126.349" gradientUnits="userSpaceOnUse">
<stop stop-color="#3D3D3D"/>
<stop offset="1" stop-color="white"/>
</linearGradient>
<linearGradient id="paint32_linear" x1="90.8825" y1="137.266" x2="90.8825" y2="168.224" gradientUnits="userSpaceOnUse">
<stop stop-color="#48CDB7"/>
<stop offset="1" stop-color="#9BFFEE"/>
</linearGradient>
<linearGradient id="paint33_linear" x1="90.157" y1="125.731" x2="90.157" y2="111.51" gradientUnits="userSpaceOnUse">
<stop stop-color="#F8F8F8"/>
<stop offset="1" stop-color="#4D4D4D"/>
</linearGradient>
<linearGradient id="paint34_linear" x1="87.5521" y1="117.327" x2="97.5497" y2="37.2365" gradientUnits="userSpaceOnUse">
<stop stop-color="#BDBDBD"/>
<stop offset="1" stop-color="#E6E6E6"/>
</linearGradient>
<linearGradient id="paint35_linear" x1="90.8144" y1="45.6738" x2="90.8144" y2="111.813" gradientUnits="userSpaceOnUse">
<stop stop-color="#48CDB7"/>
<stop offset="1" stop-color="#9BFFEE"/>
</linearGradient>
<linearGradient id="paint36_linear" x1="109.353" y1="66.9148" x2="109.353" y2="82.1992" gradientUnits="userSpaceOnUse">
<stop stop-color="#94DED2"/>
<stop offset="1" stop-color="white"/>
</linearGradient>
<linearGradient id="paint37_linear" x1="72.2046" y1="66.9973" x2="72.2046" y2="82.1366" gradientUnits="userSpaceOnUse">
<stop stop-color="#94DED2"/>
<stop offset="1" stop-color="white"/>
</linearGradient>
<linearGradient id="paint38_linear" x1="45.9904" y1="197.337" x2="49.5212" y2="169.051" gradientUnits="userSpaceOnUse">
<stop stop-color="#C8C8C8"/>
<stop offset="1" stop-color="#E6E6E6"/>
</linearGradient>
<linearGradient id="paint39_linear" x1="49.6387" y1="196.376" x2="46.9772" y2="170.089" gradientUnits="userSpaceOnUse">
<stop stop-color="#CACACA"/>
<stop offset="0.984375" stop-color="#888888"/>
</linearGradient>
<linearGradient id="paint40_linear" x1="137.314" y1="158.551" x2="135.667" y2="142.285" gradientUnits="userSpaceOnUse">
<stop stop-color="#BBBBBB"/>
<stop offset="1" stop-color="#A4A4A4"/>
</linearGradient>
<linearGradient id="paint41_linear" x1="145.928" y1="158.638" x2="147.715" y2="144.32" gradientUnits="userSpaceOnUse">
<stop stop-color="#C0C0C0"/>
<stop offset="1" stop-color="#EEEEEE"/>
</linearGradient>
<linearGradient id="paint42_linear" x1="143.694" y1="153.369" x2="142.602" y2="142.582" gradientUnits="userSpaceOnUse">
<stop stop-color="#E6E6E6"/>
<stop offset="1" stop-color="#9B9B9B"/>
</linearGradient>
<linearGradient id="paint43_linear" x1="142.796" y1="147.951" x2="147.079" y2="139.207" gradientUnits="userSpaceOnUse">
<stop stop-color="#DCDCDC"/>
<stop offset="1" stop-color="#EAEAEA"/>
</linearGradient>
<linearGradient id="paint44_linear" x1="150.831" y1="147.303" x2="150.276" y2="141.816" gradientUnits="userSpaceOnUse">
<stop stop-color="#E6E6E6"/>
<stop offset="1" stop-color="#C1C1C1"/>
</linearGradient>
<linearGradient id="paint45_linear" x1="62.9141" y1="60.4527" x2="121.667" y2="60.4527" gradientUnits="userSpaceOnUse">
<stop stop-color="white" stop-opacity="0.17"/>
<stop offset="1" stop-color="white"/>
</linearGradient>
<linearGradient id="paint46_linear" x1="70.6412" y1="107.151" x2="113.358" y2="107.151" gradientUnits="userSpaceOnUse">
<stop stop-color="#248499"/>
<stop offset="1" stop-color="#6AE4FF"/>
</linearGradient>
<linearGradient id="paint47_linear" x1="56.5923" y1="99.0441" x2="58.0647" y2="77.436" gradientUnits="userSpaceOnUse">
<stop/>
<stop offset="1" stop-color="#00E3FF"/>
</linearGradient>
<linearGradient id="paint48_linear" x1="39.8166" y1="104.56" x2="44.5929" y2="66.297" gradientUnits="userSpaceOnUse">
<stop stop-color="#CDCDCD"/>
<stop offset="1" stop-color="#888888"/>
</linearGradient>
<linearGradient id="paint49_linear" x1="59.7654" y1="94.7036" x2="59.7654" y2="104.552" gradientUnits="userSpaceOnUse">
<stop stop-color="#DDDDDD"/>
<stop offset="1" stop-color="#8C8C8C"/>
</linearGradient>
<linearGradient id="paint50_linear" x1="52.2236" y1="188.522" x2="54.5861" y2="169.597" gradientUnits="userSpaceOnUse">
<stop stop-color="#DBDBDB"/>
<stop offset="1" stop-color="#F0F0F0"/>
</linearGradient>
</defs>
</svg>
