<svg width="612" height="428" viewBox="0 0 612 428" fill="none" xmlns="http://www.w3.org/2000/svg">
<mask id="mask0" mask-type="alpha" maskUnits="userSpaceOnUse" x="0" y="0" width="612" height="428">
<rect width="612" height="428" fill="#C4C4C4"/>
</mask>
<g mask="url(#mask0)">
<path opacity="0.5" d="M654.49 -9.35523C653.016 -10.2149 650.437 -10.2149 648.964 -9.35523C647.858 -8.74117 647.49 -7.75867 648.104 -6.89898L562.749 42.349V104.615L541.994 116.651V184.321L470.762 225.463L459.709 219.077L514.606 187.391V150.301L514.361 150.179L451.849 114.072V101.422L487.219 81.035C488.693 81.6491 490.903 81.6491 492.254 80.7894C493.728 79.9297 493.728 78.456 492.254 77.5963C490.781 76.7366 488.202 76.7366 486.728 77.5963C485.377 78.3332 485.254 79.5613 486.359 80.5438L450.989 100.931V114.563L451.235 114.686L513.747 150.793V186.9L472.236 210.848V195.374L491.272 184.443C492.746 185.058 494.956 185.058 496.307 184.198C497.781 183.338 497.781 181.864 496.307 181.005C494.833 180.145 492.254 180.145 490.781 181.005C489.43 181.742 489.307 182.97 490.412 183.952L471.376 194.883V211.339L458.849 218.585L443.989 209.989V183.092L471.99 166.881V148.214L471.745 148.091L412.794 114.072C413.9 113.212 413.777 111.984 412.426 111.124C410.952 110.264 408.373 110.264 406.899 111.124C405.426 111.984 405.426 113.458 406.899 114.317C408.25 115.054 410.461 115.177 411.935 114.563L471.131 148.705V166.267L443.989 181.987V163.442L443.743 163.32L407.636 142.441C408.742 141.582 408.619 140.354 407.268 139.494C405.794 138.634 403.215 138.634 401.741 139.494C400.268 140.354 400.268 141.827 401.741 142.687C403.092 143.424 405.303 143.547 406.777 142.933L443.006 163.934V209.374L432.567 203.357L415.374 213.304L399.776 204.339V182.478L399.531 182.356L358.388 158.653V138.02C359.248 138.02 360.108 137.775 360.722 137.406C362.196 136.546 362.196 135.073 360.722 134.213C359.248 133.353 356.669 133.353 355.195 134.213C353.722 135.073 353.722 136.546 355.195 137.406C355.809 137.775 356.669 138.02 357.529 138.02V159.144L357.774 159.267L398.917 182.97V203.848L331.984 165.162V124.142L368.336 103.141H401.619H401.741L458.972 70.1047C460.446 70.7188 462.656 70.7188 464.007 69.8591C465.481 68.9994 465.481 67.5256 464.007 66.6659C462.534 65.8062 459.955 65.8062 458.481 66.6659C457.13 67.4028 457.007 68.7537 458.112 69.6134L401.496 102.282H369.933L474.938 41.6121C476.412 42.2262 478.622 42.2262 479.973 41.3665C481.447 40.5068 481.447 39.033 479.973 38.1733C478.499 37.3137 475.92 37.3137 474.447 38.1733C473.096 38.9102 472.973 40.2612 474.078 41.1208L331.001 123.774V165.776L331.247 165.899L414.391 213.919L397.689 223.621L255.717 141.582V92.7022L255.471 92.5794L207.206 64.7009C208.311 63.8412 208.188 62.6131 206.837 61.7534C205.364 60.8937 202.785 60.8937 201.311 61.7534C199.837 62.6131 199.837 64.0869 201.311 64.9465C202.662 65.6834 204.872 65.8062 206.346 65.1922L254.857 93.1935V142.073L255.103 142.196L396.952 224.112L380.986 233.323L240.488 152.266H156.73L104.411 122.055V75.6313C104.903 75.5084 105.517 75.3856 105.885 75.14C107.359 74.2803 107.359 72.8066 105.885 71.9469C104.411 71.0872 101.832 71.0872 100.359 71.9469C98.8848 72.8066 98.8848 74.2803 100.359 75.14C101.218 75.6313 102.324 75.8769 103.429 75.7541V122.546L103.675 122.669L156.484 153.126H240.242L358.757 221.533H334.931L294.526 198.198H263.331H263.208L219.978 223.13C218.505 222.515 216.294 222.515 214.943 223.375C213.469 224.235 213.469 225.709 214.943 226.568C216.417 227.428 218.996 227.428 220.47 226.568C221.82 225.831 221.943 224.48 220.838 223.621L263.577 198.935H294.28L334.686 222.27H360.231L380.003 233.691L337.51 258.254L325.352 251.254V232.955L294.649 215.269C295.754 214.41 295.631 213.182 294.28 212.322C292.806 211.462 290.227 211.462 288.754 212.322C287.28 213.182 287.28 214.655 288.754 215.515C290.104 216.252 292.315 216.375 293.789 215.761L324.492 233.446V250.762L291.701 231.972H276.227H276.104L257.559 242.657C256.085 242.043 253.875 242.043 252.524 242.902C251.05 243.762 251.05 245.236 252.524 246.095C253.997 246.955 256.577 246.955 258.05 246.095C259.401 245.359 259.524 244.008 258.419 243.148L276.349 232.832H291.455L336.528 258.868L328.299 263.658L354.458 278.764L342.177 285.887H323.632L310.369 278.272C311.474 277.413 311.228 276.185 309.877 275.448C308.404 274.588 305.824 274.588 304.351 275.448C302.877 276.307 302.877 277.781 304.351 278.641C305.702 279.501 307.912 279.501 309.386 278.887L323.264 286.869H340.458L309.263 304.923L235.821 262.552H183.012H182.889L153.168 279.746C151.694 279.132 149.484 279.132 148.133 279.992C146.659 280.852 146.659 282.325 148.133 283.185C149.607 284.045 152.186 284.045 153.659 283.185C155.01 282.448 155.133 281.097 154.028 280.237L183.257 263.412H235.698L292.315 296.08H268.121L244.418 282.448C245.523 281.588 245.401 280.36 244.05 279.501C242.576 278.641 239.997 278.641 238.523 279.501C237.049 280.36 237.049 281.834 238.523 282.694C239.874 283.431 242.085 283.553 243.558 282.939L267.875 296.94H293.912L308.526 305.414L271.191 326.906H151.94L59.5847 273.237C60.69 272.377 60.5672 271.149 59.2163 270.29C57.7425 269.43 55.1635 269.43 53.6897 270.29C52.216 271.149 52.216 272.623 53.6897 273.483C55.0406 274.22 57.2513 274.342 58.725 273.728L151.94 327.52H269.84L255.103 336.117H166.8H166.678L123.202 361.294C121.728 360.68 119.517 360.68 118.166 361.54C116.693 362.399 116.693 363.873 118.166 364.733C119.64 365.592 122.219 365.592 123.693 364.733C125.044 363.996 125.167 362.645 124.061 361.785L167.046 336.977H255.348H255.471L355.441 279.255L366.494 285.641L261.366 346.311H184.485H184.363L91.5161 399.98H-37.1918L-62 385.611V386.593L-37.3146 400.84H91.7617H91.8845L150.221 367.189V387.085L111.78 409.314C110.306 408.7 108.096 408.7 106.745 409.559C105.271 410.419 105.271 411.893 106.745 412.753C108.219 413.612 110.798 413.612 112.271 412.753C113.622 412.016 113.745 410.665 112.64 409.805L151.08 387.576V366.821H150.835L184.731 347.293H261.612H261.735L367.354 286.255L380.003 293.501L174.906 411.893V433.262H175.766V412.384L380.863 293.993L396.46 302.958L290.719 363.996V374.926L271.928 385.734V410.788L235.576 431.789C234.102 431.174 231.891 431.174 230.54 432.034C229.926 432.403 229.681 432.771 229.435 433.139H237.049C236.926 432.894 236.681 432.525 236.435 432.28L272.788 411.279V386.225L290.719 375.909V416.068L301.28 422.209L282.244 433.139H283.964L302.14 422.7L320.316 433.139H322.036L291.578 415.577V364.487L397.32 303.449L411.566 311.678L336.651 354.785C335.177 354.171 332.966 354.171 331.615 355.031C330.141 355.89 330.141 357.364 331.615 358.224C333.089 359.083 335.668 359.083 337.142 358.224C338.493 357.487 338.616 356.259 337.51 355.276L412.303 312.046L426.058 319.906L336.528 371.61H312.211C312.088 371.242 311.72 370.751 311.105 370.505C309.632 369.645 307.053 369.645 305.579 370.505C304.105 371.365 304.105 372.838 305.579 373.698C307.053 374.558 309.632 374.558 311.105 373.698C311.72 373.33 312.088 372.961 312.211 372.593H336.773H336.896L426.918 320.643L432.445 323.836L436.743 321.38L458.235 333.784V350.978L440.55 361.171H412.794H412.672L382.214 378.733C380.74 378.119 378.53 378.119 377.179 378.979C375.705 379.839 375.705 381.312 377.179 382.172C378.653 383.032 381.232 383.032 382.705 382.172C384.056 381.435 384.179 380.084 383.074 379.225L413.04 361.908H439.076L387.004 391.997C385.53 391.26 383.319 391.383 381.846 392.12C380.372 392.98 380.372 394.453 381.846 395.313C383.319 396.173 385.898 396.173 387.372 395.313C388.723 394.576 388.846 393.348 387.863 392.488L452.831 354.908V363.259L414.145 385.611V401.331L382.705 419.507C381.232 418.893 379.021 418.893 377.67 419.753C376.196 420.613 376.196 422.086 377.67 422.946C379.144 423.806 381.723 423.806 383.197 422.946C384.548 422.209 384.67 420.858 383.565 419.999L415.005 401.822V386.102L453.691 363.75V354.416L459.095 351.346V333.047L437.603 320.643L451.726 312.537L495.816 338.082V367.066L465.85 384.383C464.376 383.646 462.165 383.769 460.692 384.506C459.218 385.365 459.218 386.839 460.692 387.699C462.165 388.558 464.744 388.558 466.218 387.699C467.569 386.962 467.692 385.734 466.709 384.874L495.816 368.049V391.506L472.85 404.77V433.139H473.71V405.261L495.816 392.488V433.139H496.676V337.591L452.586 312.046L468.429 302.958L526.151 336.24V415.577L553.906 431.543V433.139H554.766V431.052L527.01 415.086V335.749L469.288 302.467L481.078 295.712L558.942 340.661V408.331L602.049 433.139H603.768L559.801 407.84V340.17L481.938 295.221L500.974 284.29L630.542 359.083V392.734L675 418.402V417.419L631.524 392.243V358.592L558.696 316.467H616.295L675 350.364V349.381L616.295 315.485H556.977L501.834 283.676L523.94 270.904L571.346 298.291H647.49L674.877 314.134V313.151L668.859 309.713H674.877V308.853H667.386L647.736 297.554H571.592L558.328 289.94H590.75H590.873L607.084 280.606H674.754L675 280.729V279.746H608.681L626.98 269.184C628.454 269.798 630.664 269.798 632.015 268.939C633.489 268.079 633.489 266.605 632.015 265.746C630.542 264.886 627.963 264.886 626.489 265.746C625.138 266.482 625.015 267.833 626.12 268.693L590.628 289.203H556.977L524.923 270.781L536.713 263.903L529.098 259.482H551.205L580.066 276.185C578.96 277.044 579.083 278.272 580.434 279.132C581.908 279.992 584.487 279.992 585.961 279.132C587.434 278.272 587.434 276.799 585.961 275.939C584.61 275.202 582.399 275.079 580.925 275.693L551.327 258.622H527.502L511.29 249.289L521.238 243.516H538.923L554.398 234.551H565.942L592.101 249.657C590.873 250.517 590.996 251.745 592.47 252.605C593.943 253.464 596.523 253.464 597.996 252.605C599.47 251.745 599.47 250.271 597.996 249.411C596.645 248.675 594.558 248.552 593.084 249.166L566.311 233.691H554.275L538.8 242.657H522.835L554.643 224.235H571.837L607.698 244.867H675V244.008H607.944L572.083 223.375H554.398H554.275L510.431 248.675L498.886 242.043L548.38 213.427H583.259L612.12 230.007H674.877V229.147H612.365L585.101 213.427H674.877V212.322H548.257H548.134L498.027 241.306L485.008 233.814L554.029 193.9H674.877V193.04H586.82L674.877 142.196V141.213L585.101 193.04H554.643L620.103 155.214V146.863L651.42 128.809C652.894 129.423 655.104 129.423 656.455 128.564C657.929 127.704 657.929 126.23 656.455 125.37C654.981 124.511 652.402 124.511 650.929 125.37C649.578 126.107 649.455 127.335 650.56 128.318L633.489 138.143V115.3L674.877 91.4741V90.4916L632.629 114.809V138.634L619.243 146.371V154.723L553.292 192.795L553.538 193.163L484.149 233.2L471.499 225.954L542.73 184.812V117.142L674.877 40.8752V39.8927L563.609 104.124V42.963L648.841 -6.1621L648.964 -6.03929C650.437 -5.1796 653.016 -5.1796 654.49 -6.03929C655.964 -7.02179 655.964 -8.37273 654.49 -9.35523ZM534.87 263.535L432.567 322.608L330.264 263.535L432.567 204.462L534.87 263.535Z" fill="url(#paint0_radial)"/>
<ellipse cx="159" cy="360.5" rx="56" ry="19.5" fill="black" fill-opacity="0.05"/>
<path d="M322.498 230.16C323.215 230.16 324.113 229.98 324.651 229.621L425.666 171.309C426.384 170.95 426.743 170.412 426.743 169.873C426.743 169.156 426.204 168.438 425.487 168.079L404.494 155.878C403.059 154.981 400.906 154.981 399.65 155.699L298.635 214.011C297.917 214.37 297.558 214.909 297.558 215.447C297.558 216.164 298.096 216.882 298.814 217.241L319.806 229.442C320.704 229.98 321.601 230.16 322.498 230.16Z" fill="black" fill-opacity="0.05"/>
<path d="M421.723 130.391L400.533 118.123C397.373 116.265 392.912 116.451 388.08 119.239C386.407 120.168 384.92 121.283 383.433 122.584L374.882 117.566C370.235 114.22 363.358 114.406 355.737 118.867C346.071 124.443 337.707 135.224 333.432 146.748C331.945 146.748 330.272 147.306 328.599 148.235C322.279 151.767 317.261 160.689 317.261 167.938C317.261 168.124 317.261 168.31 317.261 168.31C315.402 168.496 313.543 169.054 311.498 170.355C303.506 175.002 297 186.154 297 195.448C297 200.095 298.673 203.255 301.089 204.742L322.093 217.01L326.74 194.89L388.08 159.574C395.886 155.113 402.578 145.261 404.808 135.782L421.723 130.391Z" fill="url(#paint1_linear)"/>
<path d="M409.084 131.507C406.296 133.18 403.694 135.41 401.463 138.013C398.304 127.603 388.452 124.444 376.928 131.135C367.262 136.711 358.898 147.492 354.623 159.017C353.136 159.017 351.463 159.574 349.79 160.504C343.47 164.035 338.451 172.957 338.451 180.206C338.451 180.392 338.451 180.578 338.451 180.578C336.593 180.764 334.734 181.322 332.689 182.623C324.696 187.27 318.191 198.422 318.191 207.716C318.191 217.01 324.696 220.728 332.689 216.081L409.27 171.842C418.936 166.266 426.743 152.697 426.743 141.544C426.557 130.392 418.75 125.931 409.084 131.507Z" fill="url(#paint2_linear)"/>
<path d="M481.043 312.302C480.252 312.302 479.461 312.076 478.896 311.85L392.13 261.688C391.452 261.349 391.113 260.672 391.113 260.107C391.113 259.429 391.565 258.638 392.469 258.186L399.925 253.893C401.394 253.102 403.428 252.989 404.783 253.667L491.549 303.829C492.227 304.168 492.566 304.845 492.566 305.41C492.566 306.088 492.114 306.879 491.21 307.331L483.754 311.624C482.963 312.076 481.946 312.302 481.043 312.302Z" fill="black" fill-opacity="0.05"/>
<path opacity="0.1" d="M420.229 235.291L507.058 285.399C508.409 286.136 509.392 285.399 509.392 283.557V86.1963C509.392 84.4769 508.286 82.3891 507.058 81.6522L420.229 31.5446C418.878 30.8077 417.896 31.5446 417.896 33.3868V230.747C417.896 232.466 419.001 234.554 420.229 235.291Z" fill="#D4D4D4"/>
<path opacity="0.3" d="M414.949 238.607L501.777 288.715C503.128 289.452 504.111 288.715 504.111 286.872V89.5122C504.111 87.7928 503.006 85.705 501.777 84.9681L414.949 34.8605C413.598 34.1236 412.615 34.8605 412.615 36.7027V234.063C412.615 235.782 413.598 237.747 414.949 238.607Z" fill="#D4D4D4"/>
<path opacity="0.5" d="M409.668 241.8L496.497 291.908C497.848 292.645 498.83 291.908 498.83 290.066V92.7056C498.83 90.9862 497.725 88.8984 496.497 88.1615L409.668 38.0539C408.317 37.317 407.335 38.0539 407.335 39.8961V237.256C407.212 239.099 408.317 241.064 409.668 241.8Z" fill="#D4D4D4"/>
<path d="M391.859 47.6331L401.93 41.8609C402.298 41.6153 402.913 41.6153 403.404 41.9837L490.232 92.0913C491.583 92.8282 492.566 94.916 492.566 96.6354V293.996C492.566 294.978 492.197 295.592 491.706 295.838L481.636 301.61L481.39 290.68L403.404 245.607C402.053 244.871 401.07 242.783 401.07 241.063V52.7912C400.825 53.4053 400.702 53.8965 400.702 53.8965C400.579 54.0194 391.859 47.6331 391.859 47.6331Z" fill="url(#paint3_linear)"/>
<path d="M492.444 95.8985L466.285 111.004L462.355 108.671L490.602 92.3369C491.584 93.0738 492.321 94.5475 492.444 95.8985Z" fill="white" fill-opacity="0.5"/>
<path d="M393.456 251.38L480.285 301.487C481.636 302.224 482.618 301.487 482.618 299.645V102.408C482.618 100.688 481.513 98.6005 480.285 97.8637L393.456 47.756C392.105 47.0191 391.123 47.756 391.123 49.5982V246.958C391 248.678 392.105 250.643 393.456 251.38Z" fill="url(#paint4_linear)"/>
<path d="M391 236.151L482.496 288.96V113.092L391 60.283V236.151Z" fill="url(#paint5_linear)"/>
<g opacity="0.3">
<g opacity="0.3">
<path opacity="0.3" d="M342.916 336.478L314.536 320.13C311.243 318.2 311.243 315.135 314.536 313.206L342.916 296.858C346.208 294.928 351.657 294.928 354.949 296.858L383.33 313.206C386.622 315.135 386.622 318.2 383.33 320.13L354.949 336.478C351.657 338.407 346.322 338.407 342.916 336.478Z" fill="url(#paint6_linear)"/>
</g>
<g opacity="0.3">
<path d="M342.916 336.478L314.536 320.13C311.243 318.2 311.243 315.135 314.536 313.206L342.916 296.858C346.208 294.928 351.657 294.928 354.949 296.858L383.33 313.206C386.622 315.135 386.622 318.2 383.33 320.13L354.949 336.478C351.657 338.407 346.322 338.407 342.916 336.478Z" fill="black" fill-opacity="0.08"/>
</g>
</g>
<path opacity="0.5" d="M348.933 325.693C347.003 325.693 345.073 325.239 343.597 324.444L315.217 308.097C313.741 307.302 312.946 306.053 312.946 304.918C312.946 303.669 313.741 302.534 315.217 301.74L343.597 285.392C346.549 283.69 351.317 283.69 354.268 285.392L382.649 301.74C384.125 302.534 384.919 303.783 384.919 304.918C384.919 306.167 384.125 307.302 382.649 308.097L354.268 324.444C352.793 325.239 350.863 325.693 348.933 325.693ZM348.933 284.484C347.116 284.484 345.187 284.938 343.824 285.733L315.444 302.08C314.082 302.875 313.4 303.783 313.4 304.918C313.4 305.94 314.082 306.962 315.444 307.756L343.824 324.103C346.662 325.693 351.203 325.693 354.041 324.103L382.422 307.756C383.784 306.962 384.465 306.053 384.465 304.918C384.465 303.896 383.784 302.875 382.422 302.08L354.041 285.733C352.679 284.825 350.863 284.484 348.933 284.484Z" fill="#A9A9A9"/>
<path d="M385.828 298.561V288.911L384.011 287.89C383.557 290.955 379.925 292.885 376.973 293.339L356.653 305.145L347.798 308.324L319.531 293.679L320.212 293.339C317.828 292.203 316.466 289.592 315.217 287.322L313.287 288.457L312.152 288.798V298.674C312.152 299.923 312.947 301.172 314.649 302.193L343.03 318.541C346.322 320.47 351.771 320.47 355.063 318.541L383.444 302.193C385.033 301.285 385.941 300.037 385.941 298.788C385.828 298.674 385.828 298.561 385.828 298.561Z" fill="black" fill-opacity="0.05"/>
<path d="M385.828 289.933V283.462L384.011 282.441C383.557 285.506 379.925 287.436 376.973 287.89L356.653 299.81L347.798 302.988L319.531 288.344L320.212 288.003C317.828 286.868 316.466 284.257 315.217 281.987L313.287 283.122L312.152 283.462V290.047C312.152 291.295 312.947 292.544 314.649 293.566L343.03 309.913C346.322 311.843 351.771 311.843 355.063 309.913L383.444 293.566C385.033 292.658 385.941 291.409 385.941 290.16C385.828 290.047 385.828 289.933 385.828 289.933Z" fill="url(#paint7_linear)"/>
<path d="M342.915 303.329L314.534 286.982C311.242 285.052 311.242 281.987 314.534 280.057L342.915 263.71C346.207 261.78 351.656 261.78 354.948 263.71L383.328 280.057C386.621 281.987 386.621 285.052 383.328 286.982L354.948 303.329C351.656 305.259 346.32 305.259 342.915 303.329Z" fill="url(#paint8_linear)"/>
<path d="M383.33 286.982L354.949 303.329C351.657 305.259 346.208 305.259 342.916 303.329L314.535 286.982C313.059 286.074 312.265 285.052 312.038 283.917C311.811 285.279 312.605 286.755 314.535 287.776L342.916 304.124C346.208 306.054 351.657 306.054 354.949 304.124L383.33 287.776C385.146 286.755 385.941 285.279 385.827 283.917C385.6 285.052 384.805 286.074 383.33 286.982Z" fill="white"/>
<g opacity="0.3">
<g opacity="0.3">
<path opacity="0.3" d="M421.645 375.385L450.026 359.038C453.318 357.108 453.318 354.043 450.026 352.113L421.645 335.766C418.353 333.836 412.904 333.836 409.612 335.766L381.232 352.113C377.939 354.043 377.939 357.108 381.232 359.038L409.612 375.385C412.904 377.315 418.24 377.315 421.645 375.385Z" fill="url(#paint9_linear)"/>
</g>
</g>
<path opacity="0.5" d="M415.629 364.6C417.559 364.6 419.488 364.146 420.964 363.351L449.345 347.004C450.821 346.21 451.615 344.961 451.615 343.826C451.615 342.577 450.821 341.442 449.345 340.647L420.964 324.3C418.013 322.597 413.245 322.597 410.293 324.3L381.913 340.647C380.437 341.442 379.642 342.69 379.642 343.826C379.642 345.074 380.437 346.21 381.913 347.004L410.293 363.351C411.769 364.146 413.699 364.6 415.629 364.6ZM415.629 323.392C417.445 323.392 419.375 323.846 420.737 324.64L449.118 340.988C450.48 341.782 451.161 342.69 451.161 343.826C451.161 344.847 450.48 345.869 449.118 346.664L420.737 363.011C417.899 364.6 413.358 364.6 410.52 363.011L382.14 346.664C380.777 345.869 380.096 344.961 380.096 343.826C380.096 342.804 380.777 341.782 382.14 340.988L410.52 324.64C411.882 323.732 413.699 323.392 415.629 323.392Z" fill="#A9A9A9"/>
<path d="M378.733 337.468V327.819L380.55 326.797C381.004 329.862 384.636 331.792 387.588 332.246L407.909 344.052L416.763 347.231L445.03 332.587L444.349 332.246C446.733 331.111 448.095 328.5 449.344 326.229L451.274 327.365L452.409 327.705V337.582C452.409 338.83 451.615 340.079 449.912 341.101L421.531 357.448C418.239 359.378 412.79 359.378 409.498 357.448L381.117 341.101C379.528 340.193 378.62 338.944 378.62 337.695C378.733 337.582 378.733 337.468 378.733 337.468Z" fill="black" fill-opacity="0.05"/>
<path d="M378.733 328.841V322.37L380.55 321.348C381.004 324.413 384.636 326.343 387.588 326.797L407.909 338.717L416.763 341.896L445.03 327.251L444.349 326.911C446.733 325.775 448.095 323.164 449.344 320.894L451.274 322.029L452.409 322.37V328.954C452.409 330.203 451.615 331.452 449.912 332.473L421.531 348.82C418.239 350.75 412.79 350.75 409.498 348.82L381.117 332.473C379.528 331.565 378.62 330.316 378.62 329.068C378.733 328.954 378.733 328.841 378.733 328.841Z" fill="url(#paint10_linear)"/>
<path d="M421.647 342.236L450.027 325.889C453.32 323.959 453.32 320.894 450.027 318.964L421.647 302.617C418.355 300.687 412.906 300.687 409.614 302.617L381.233 318.964C377.941 320.894 377.941 323.959 381.233 325.889L409.614 342.236C412.906 344.166 418.241 344.166 421.647 342.236Z" fill="url(#paint11_linear)"/>
<path d="M381.231 325.889L409.612 342.236C412.904 344.166 418.353 344.166 421.645 342.236L450.026 325.889C451.502 324.981 452.296 323.959 452.523 322.824C452.75 324.186 451.956 325.662 450.026 326.683L421.645 343.031C418.353 344.961 412.904 344.961 409.612 343.031L381.231 326.683C379.415 325.662 378.62 324.186 378.734 322.824C378.961 323.959 379.756 324.981 381.231 325.889Z" fill="white"/>
<g opacity="0.3">
<g opacity="0.3">
<path opacity="0.3" d="M487.866 414.728L516.247 398.381C519.539 396.451 519.539 393.386 516.247 391.456L487.866 375.109C484.574 373.179 479.125 373.179 475.833 375.109L447.452 391.456C444.16 393.386 444.16 396.451 447.452 398.381L475.833 414.728C479.125 416.658 484.461 416.658 487.866 414.728Z" fill="url(#paint12_linear)"/>
</g>
<g opacity="0.3">
<path d="M487.866 414.728L516.247 398.381C519.539 396.451 519.539 393.386 516.247 391.456L487.866 375.109C484.574 373.179 479.125 373.179 475.833 375.109L447.452 391.456C444.16 393.386 444.16 396.451 447.452 398.381L475.833 414.728C479.125 416.658 484.461 416.658 487.866 414.728Z" fill="black" fill-opacity="0.08"/>
</g>
</g>
<path opacity="0.5" d="M481.849 403.944C483.779 403.944 485.709 403.49 487.185 402.695L515.565 386.348C517.041 385.553 517.836 384.305 517.836 383.169C517.836 381.921 517.041 380.785 515.565 379.991L487.185 363.644C484.233 361.941 479.465 361.941 476.514 363.644L448.133 379.991C446.658 380.785 445.863 382.034 445.863 383.169C445.863 384.418 446.658 385.553 448.133 386.348L476.514 402.695C477.99 403.49 479.92 403.944 481.849 403.944ZM481.849 362.735C483.666 362.735 485.596 363.189 486.958 363.984L515.338 380.331C516.701 381.126 517.382 382.034 517.382 383.169C517.382 384.191 516.701 385.213 515.338 386.007L486.958 402.355C484.12 403.944 479.579 403.944 476.741 402.355L448.36 386.007C446.998 385.213 446.317 384.305 446.317 383.169C446.317 382.148 446.998 381.126 448.36 380.331L476.741 363.984C478.103 363.076 479.92 362.735 481.849 362.735Z" fill="#A9A9A9"/>
<path d="M444.954 376.812V367.163L446.77 366.141C447.225 369.206 450.857 371.136 453.809 371.59L474.129 383.396L482.984 386.575L511.251 371.93L510.57 371.59C512.954 370.455 514.316 367.844 515.565 365.573L517.495 366.708L518.63 367.049V376.925C518.63 378.174 517.835 379.423 516.132 380.445L487.752 396.792C484.46 398.722 479.011 398.722 475.719 396.792L447.338 380.445C445.749 379.536 444.841 378.288 444.841 377.039C444.954 376.925 444.954 376.812 444.954 376.812Z" fill="black" fill-opacity="0.05"/>
<path d="M444.954 368.184V361.713L446.77 360.692C447.225 363.757 450.857 365.687 453.809 366.141L474.129 378.06L482.984 381.239L511.251 366.595L510.57 366.254C512.954 365.119 514.316 362.508 515.565 360.238L517.495 361.373L518.63 361.713V368.298C518.63 369.546 517.835 370.795 516.132 371.817L487.752 388.164C484.46 390.094 479.011 390.094 475.719 388.164L447.338 371.817C445.749 370.909 444.841 369.66 444.841 368.411C444.954 368.298 444.954 368.184 444.954 368.184Z" fill="url(#paint13_linear)"/>
<path d="M487.868 381.58L516.248 365.233C519.54 363.303 519.54 360.238 516.248 358.308L487.868 341.961C484.576 340.031 479.126 340.031 475.834 341.961L447.454 358.308C444.162 360.238 444.162 363.303 447.454 365.233L475.834 381.58C479.126 383.51 484.462 383.51 487.868 381.58Z" fill="url(#paint14_linear)"/>
<path d="M447.452 365.233L475.833 381.58C479.125 383.51 484.574 383.51 487.866 381.58L516.247 365.233C517.722 364.325 518.517 363.303 518.744 362.168C518.971 363.53 518.176 365.006 516.247 366.028L487.866 382.375C484.574 384.305 479.125 384.305 475.833 382.375L447.452 366.028C445.636 365.006 444.841 363.53 444.955 362.168C445.182 363.303 445.976 364.325 447.452 365.233Z" fill="white"/>
<path opacity="0.5" d="M413.844 120.338L405.002 115.303V113.338L413.844 118.373V120.338Z" fill="#7F7F7F"/>
<path opacity="0.5" d="M418.387 123.04L415.194 121.197V119.232L418.387 121.075V123.04Z" fill="#7F7F7F"/>
<path opacity="0.5" d="M421.949 125.004L419.738 123.776V121.811L421.949 123.162V125.004Z" fill="#7F7F7F"/>
<path opacity="0.5" d="M409.79 122.548L405 119.724V117.759L409.79 120.583V122.548Z" fill="#7F7F7F"/>
<path opacity="0.5" d="M417.159 126.724L411.141 123.285V121.32L417.159 124.759V126.724Z" fill="#7F7F7F"/>
<path opacity="0.5" d="M420.598 128.812L418.51 127.461V125.496L420.598 126.847V128.812Z" fill="#7F7F7F"/>
<path opacity="0.5" d="M424.037 130.654L421.826 129.426V127.461L424.037 128.689V130.654Z" fill="#7F7F7F"/>
<path d="M408.439 126.233L405 124.145V122.18L408.439 124.268V126.233Z" fill="#7F7F7F"/>
<path d="M411.018 127.707L409.79 126.97V125.005L411.018 125.742V127.707Z" fill="#7F7F7F"/>
<path opacity="0.5" d="M414.58 129.671L412.369 128.443V126.478L414.58 127.706V129.671Z" fill="#7F7F7F"/>
<path opacity="0.5" d="M417.896 136.058L405 128.689V126.724L417.896 134.093V136.058Z" fill="#7F7F7F"/>
<path opacity="0.5" d="M422.44 138.759L419.247 136.917V134.952L422.44 136.794V138.759Z" fill="#7F7F7F"/>
<path opacity="0.5" d="M408.439 135.075L405 133.11V131.145L408.439 133.11V135.075Z" fill="#7F7F7F"/>
<path opacity="0.5" d="M416.668 139.865L409.79 135.935V133.97L416.668 137.9V139.865Z" fill="#7F7F7F"/>
<path opacity="0.5" d="M420.229 141.953L418.019 140.602V138.637L420.229 139.988V141.953Z" fill="#7F7F7F"/>
<path opacity="0.5" d="M412.124 141.707L405 137.532V135.567L412.124 139.742V141.707Z" fill="#7F7F7F"/>
<path d="M418.756 145.515L413.475 142.444V140.479L418.756 143.55V145.515Z" fill="#7F7F7F"/>
<path opacity="0.5" d="M423.545 148.339L420.106 146.251V144.286L423.545 146.374V148.339Z" fill="#7F7F7F"/>
<path opacity="0.5" d="M407.457 143.426L405 141.953V140.11L407.457 141.461V143.426Z" fill="#7F7F7F"/>
<path opacity="0.5" d="M412.002 146.005L408.809 144.163V142.198L412.002 144.04V146.005Z" fill="#7F7F7F"/>
<path opacity="0.5" d="M418.511 149.812L413.353 146.865V144.9L418.511 147.847V149.812Z" fill="#7F7F7F"/>
<path opacity="0.5" d="M412.369 150.795L405 146.497V144.532L412.369 148.83V150.795Z" fill="#7F7F7F"/>
<path opacity="0.5" d="M420.721 155.585L413.721 151.532V149.567L420.721 153.62V155.585Z" fill="#7F7F7F"/>
<path d="M424.282 157.55L422.072 156.322V154.357L424.282 155.585V157.55Z" fill="#7F7F7F"/>
<path opacity="0.5" d="M427.598 159.515L425.51 158.287V156.322L427.598 157.55V159.515Z" fill="#7F7F7F"/>
<path opacity="0.5" d="M409.422 153.497L405 150.918V148.953L409.422 151.532V153.497Z" fill="#7F7F7F"/>
<path d="M427.967 128.566L434.23 132.127V130.162L427.967 126.601V128.566Z" fill="#7F7F7F"/>
<path opacity="0.5" d="M429.317 133.724L434.23 136.549V134.584L429.317 131.759V133.724Z" fill="#7F7F7F"/>
<path opacity="0.5" d="M430.669 139.005L434.231 141.093V139.128L430.669 137.04V139.005Z" fill="#7F7F7F"/>
<path opacity="0.5" d="M429.072 142.567L434.23 145.514V143.549L429.072 140.602V142.567Z" fill="#7F7F7F"/>
<path opacity="0.5" d="M430.669 147.971L434.231 149.936V147.971L430.669 146.006V147.971Z" fill="#7F7F7F"/>
<path opacity="0.5" d="M429.686 151.901L434.23 154.357V152.515L429.686 149.936V151.901Z" fill="#7F7F7F"/>
<path opacity="0.5" d="M431.773 157.427L434.23 158.901V156.936L431.773 155.585V157.427Z" fill="#7F7F7F"/>
<path opacity="0.5" d="M429.44 160.62L434.23 163.322V161.357L429.44 158.655V160.62Z" fill="#7F7F7F"/>
<path opacity="0.5" d="M429.686 165.287L434.23 167.744V165.901L429.686 163.322V165.287Z" fill="#7F7F7F"/>
<path opacity="0.5" d="M412.615 155.339L410.773 154.234V152.392L412.615 153.374V155.339Z" fill="#7F7F7F"/>
<path opacity="0.5" d="M418.265 158.656L414.089 156.199V154.234L418.265 156.691V158.656Z" fill="#7F7F7F"/>
<path opacity="0.5" d="M448.354 140.234L439.511 135.076V133.111L448.354 138.269V140.234Z" fill="#7F7F7F"/>
<path opacity="0.5" d="M452.897 142.812L449.704 140.97V139.005L452.897 140.847V142.812Z" fill="#7F7F7F"/>
<path d="M456.46 144.9L454.249 143.672V141.707L456.46 142.935V144.9Z" fill="#7F7F7F"/>
<path opacity="0.5" d="M444.301 142.321L439.511 139.496V137.531L444.301 140.356V142.321Z" fill="#7F7F7F"/>
<path opacity="0.5" d="M451.547 146.497L445.652 143.181V141.216L451.547 144.655V146.497Z" fill="#7F7F7F"/>
<path d="M455.109 148.585L453.021 147.357V145.392L455.109 146.62V148.585Z" fill="#7F7F7F"/>
<path opacity="0.5" d="M458.547 150.55L456.336 149.321V147.356L458.547 148.585V150.55Z" fill="#7F7F7F"/>
<path opacity="0.5" d="M442.95 146.005L439.511 144.04V142.075L442.95 144.04V146.005Z" fill="#7F7F7F"/>
<path opacity="0.5" d="M445.529 147.479L444.301 146.865V144.9L445.529 145.514V147.479Z" fill="#7F7F7F"/>
<path opacity="0.5" d="M449.091 149.567L446.881 148.339V146.374L449.091 147.602V149.567Z" fill="#7F7F7F"/>
<path opacity="0.5" d="M452.407 155.953L439.511 148.462V146.497L452.407 153.988V155.953Z" fill="#7F7F7F"/>
<path opacity="0.5" d="M456.951 158.532L453.758 156.69V154.725L456.951 156.567V158.532Z" fill="#7F7F7F"/>
<path opacity="0.5" d="M442.95 154.971L439.511 152.883V150.918L442.95 153.006V154.971Z" fill="#7F7F7F"/>
<path opacity="0.5" d="M451.178 159.638L444.301 155.708V153.743L451.178 157.795V159.638Z" fill="#7F7F7F"/>
<path opacity="0.5" d="M454.741 161.726L452.53 160.498V158.533L454.741 159.761V161.726Z" fill="#7F7F7F"/>
<path d="M446.634 161.48L439.511 157.427V155.462L446.634 159.515V161.48Z" fill="#7F7F7F"/>
<path opacity="0.5" d="M453.144 165.287L447.985 162.34V160.375L453.144 163.322V165.287Z" fill="#7F7F7F"/>
<path opacity="0.5" d="M458.056 168.112L454.494 166.147V164.182L458.056 166.147V168.112Z" fill="#7F7F7F"/>
<path opacity="0.5" d="M441.845 163.199L439.511 161.849V159.884L441.845 161.234V163.199Z" fill="#7F7F7F"/>
<path opacity="0.5" d="M446.389 165.901L443.196 164.059V162.094L446.389 163.936V165.901Z" fill="#7F7F7F"/>
<path d="M453.02 169.586L447.862 166.638V164.673L453.02 167.743V169.586Z" fill="#7F7F7F"/>
<path opacity="0.5" d="M446.88 170.568L439.511 166.27V164.305L446.88 168.603V170.568Z" fill="#7F7F7F"/>
<path opacity="0.5" d="M455.232 175.358L448.231 171.428V169.463L455.232 173.393V175.358Z" fill="#7F7F7F"/>
<path opacity="0.5" d="M458.67 177.446L456.583 176.218V174.253L458.67 175.481V177.446Z" fill="#7F7F7F"/>
<path opacity="0.5" d="M462.109 179.411L459.898 178.183V176.218L462.109 177.446V179.411Z" fill="#7F7F7F"/>
<path opacity="0.5" d="M443.933 173.393L439.511 170.814V168.849L443.933 171.428V173.393Z" fill="#7F7F7F"/>
<path d="M462.477 148.339L468.618 151.9V149.935L462.477 146.374V148.339Z" fill="#7F7F7F"/>
<path opacity="0.5" d="M463.829 153.62L468.618 156.445V154.48L463.829 151.655V153.62Z" fill="#7F7F7F"/>
<path opacity="0.5" d="M465.179 158.901L468.617 160.866V158.901L465.179 156.936V158.901Z" fill="#7F7F7F"/>
<path opacity="0.5" d="M463.583 162.34L468.618 165.287V163.322L463.583 160.375V162.34Z" fill="#7F7F7F"/>
<path opacity="0.5" d="M465.179 167.744L468.617 169.831V167.866L465.179 165.779V167.744Z" fill="#7F7F7F"/>
<path opacity="0.5" d="M464.197 171.674L468.618 174.253V172.288L464.197 169.708V171.674Z" fill="#7F7F7F"/>
<path opacity="0.5" d="M466.284 177.323L468.617 178.674V176.709L466.284 175.358V177.323Z" fill="#7F7F7F"/>
<path opacity="0.5" d="M463.951 180.516L468.618 183.218V181.253L463.951 178.551V180.516Z" fill="#7F7F7F"/>
<path opacity="0.5" d="M464.197 185.06L468.618 187.639V185.674L464.197 183.095V185.06Z" fill="#7F7F7F"/>
<path d="M447.125 175.235L445.283 174.13V172.165L447.125 173.27V175.235Z" fill="#7F7F7F"/>
<path opacity="0.5" d="M452.774 178.428L448.476 175.972V174.007L452.774 176.463V178.428Z" fill="#7F7F7F"/>
<path opacity="0.5" d="M413.843 160.497L405 155.462V153.497L413.843 158.655V160.497Z" fill="#7F7F7F"/>
<path opacity="0.5" d="M418.387 163.199L415.194 161.357V159.392L418.387 161.234V163.199Z" fill="#7F7F7F"/>
<path opacity="0.5" d="M421.949 165.287L419.738 163.936V161.971L421.949 163.322V165.287Z" fill="#7F7F7F"/>
<path opacity="0.5" d="M409.79 162.708L405 159.884V157.919L409.79 160.743V162.708Z" fill="#7F7F7F"/>
<path opacity="0.5" d="M417.159 166.884L411.141 163.445V161.48L417.159 164.919V166.884Z" fill="#7F7F7F"/>
<path opacity="0.5" d="M420.598 168.972L418.51 167.621V165.779L420.598 167.007V168.972Z" fill="#7F7F7F"/>
<path opacity="0.5" d="M424.037 170.937L421.826 169.586V167.621L424.037 168.972V170.937Z" fill="#7F7F7F"/>
<path opacity="0.5" d="M408.439 166.392L405 164.304V162.339L408.439 164.427V166.392Z" fill="#7F7F7F"/>
<path opacity="0.5" d="M411.018 167.866L409.79 167.129V165.164L411.018 165.901V167.866Z" fill="#7F7F7F"/>
<path opacity="0.5" d="M414.58 169.831L412.369 168.603V166.638L414.58 167.989V169.831Z" fill="#7F7F7F"/>
<path opacity="0.5" d="M417.896 176.218L405 168.849V166.884L417.896 174.375V176.218Z" fill="#7F7F7F"/>
<path opacity="0.5" d="M422.44 178.919L419.247 177.077V175.112L422.44 176.954V178.919Z" fill="#7F7F7F"/>
<path opacity="0.5" d="M408.439 175.235L405 173.27V171.305L408.439 173.393V175.235Z" fill="#7F7F7F"/>
<path opacity="0.5" d="M416.668 180.025L409.79 176.095V174.13L416.668 178.06V180.025Z" fill="#7F7F7F"/>
<path opacity="0.5" d="M420.229 182.112L418.019 180.884V178.919L420.229 180.147V182.112Z" fill="#7F7F7F"/>
<path opacity="0.5" d="M412.124 181.867L405 177.691V175.726L412.124 179.902V181.867Z" fill="#7F7F7F"/>
<path opacity="0.5" d="M418.756 185.674L413.475 182.604V180.639L418.756 183.709V185.674Z" fill="#7F7F7F"/>
<path opacity="0.5" d="M423.545 188.499L420.106 186.411V184.446L423.545 186.534V188.499Z" fill="#7F7F7F"/>
<path opacity="0.5" d="M407.457 183.586L405 182.236V180.271L407.457 181.621V183.586Z" fill="#7F7F7F"/>
<path opacity="0.5" d="M412.002 186.165L408.809 184.323V182.358L412.002 184.323V186.165Z" fill="#7F7F7F"/>
<path opacity="0.5" d="M418.511 189.973L413.353 187.025V185.06L418.511 188.008V189.973Z" fill="#7F7F7F"/>
<path opacity="0.5" d="M412.369 190.955L405 186.657V184.692L412.369 188.99V190.955Z" fill="#7F7F7F"/>
<path opacity="0.5" d="M420.721 195.745L413.721 191.692V189.727L420.721 193.78V195.745Z" fill="#7F7F7F"/>
<path opacity="0.5" d="M424.282 197.833L422.072 196.482V194.517L424.282 195.868V197.833Z" fill="#7F7F7F"/>
<path opacity="0.5" d="M427.598 199.675L425.51 198.446V196.481L427.598 197.832V199.675Z" fill="#7F7F7F"/>
<path opacity="0.5" d="M409.422 193.657L405 191.078V189.113L409.422 191.692V193.657Z" fill="#7F7F7F"/>
<path opacity="0.5" d="M427.967 168.726L434.23 172.287V170.322L427.967 166.761V168.726Z" fill="#7F7F7F"/>
<path opacity="0.5" d="M429.317 174.007L434.23 176.709V174.744L429.317 172.042V174.007Z" fill="#7F7F7F"/>
<path opacity="0.5" d="M430.669 179.165L434.231 181.253V179.288L430.669 177.2V179.165Z" fill="#7F7F7F"/>
<path opacity="0.5" d="M429.072 182.726L434.23 185.674V183.709L429.072 180.761V182.726Z" fill="#7F7F7F"/>
<path opacity="0.5" d="M430.669 188.131L434.231 190.096V188.131L430.669 186.166V188.131Z" fill="#7F7F7F"/>
<path opacity="0.5" d="M429.686 192.06L434.23 194.64V192.675L429.686 190.095V192.06Z" fill="#7F7F7F"/>
<path opacity="0.5" d="M431.773 197.71L434.23 199.061V197.096L431.773 195.745V197.71Z" fill="#7F7F7F"/>
<path opacity="0.5" d="M429.44 200.78L434.23 203.482V201.517L429.44 198.815V200.78Z" fill="#7F7F7F"/>
<path opacity="0.5" d="M429.686 205.447L434.23 208.026V206.061L429.686 203.482V205.447Z" fill="#7F7F7F"/>
<path opacity="0.5" d="M412.615 195.499L410.773 194.517V192.552L412.615 193.657V195.499Z" fill="#7F7F7F"/>
<path opacity="0.5" d="M418.265 198.815L414.089 196.359V194.394L418.265 196.85V198.815Z" fill="#7F7F7F"/>
<path opacity="0.5" d="M421.826 213.798L414.58 209.623V207.658L421.826 211.833V213.798Z" fill="#7F7F7F"/>
<path opacity="0.5" d="M426.739 216.623L423.915 215.027V213.062L426.739 214.658V216.623Z" fill="#7F7F7F"/>
<path opacity="0.5" d="M448.354 180.393L439.511 175.235V173.27L448.354 178.428V180.393Z" fill="#7F7F7F"/>
<path opacity="0.5" d="M452.897 182.972L449.704 181.13V179.165L452.897 181.007V182.972Z" fill="#7F7F7F"/>
<path opacity="0.5" d="M456.46 185.06L454.249 183.832V181.867L456.46 183.095V185.06Z" fill="#7F7F7F"/>
<path opacity="0.5" d="M444.301 182.481L439.511 179.656V177.814L444.301 180.516V182.481Z" fill="#7F7F7F"/>
<path opacity="0.5" d="M451.547 186.779L445.652 183.34V181.375L451.547 184.814V186.779Z" fill="#7F7F7F"/>
<path opacity="0.5" d="M455.109 188.744L453.021 187.516V185.551L455.109 186.779V188.744Z" fill="#7F7F7F"/>
<path opacity="0.5" d="M458.547 190.709L456.336 189.481V187.516L458.547 188.744V190.709Z" fill="#7F7F7F"/>
<path opacity="0.5" d="M442.95 186.166L439.511 184.201V182.236L442.95 184.201V186.166Z" fill="#7F7F7F"/>
<path opacity="0.5" d="M445.529 187.639L444.301 187.025V185.06L445.529 185.674V187.639Z" fill="#7F7F7F"/>
<path opacity="0.5" d="M449.091 189.727L446.881 188.499V186.534L449.091 187.762V189.727Z" fill="#7F7F7F"/>
<path opacity="0.5" d="M452.407 196.113L439.511 188.621V186.656L452.407 194.148V196.113Z" fill="#7F7F7F"/>
<path opacity="0.5" d="M456.951 198.692L453.758 196.85V194.885L456.951 196.727V198.692Z" fill="#7F7F7F"/>
<path opacity="0.5" d="M442.95 195.13L439.511 193.043V191.2L442.95 193.165V195.13Z" fill="#7F7F7F"/>
<path opacity="0.5" d="M451.178 199.92L444.301 195.868V193.903L451.178 197.955V199.92Z" fill="#7F7F7F"/>
<path opacity="0.5" d="M454.741 201.885L452.53 200.657V198.692L454.741 199.92V201.885Z" fill="#7F7F7F"/>
<path opacity="0.5" d="M446.634 201.64L439.511 197.587V195.622L446.634 199.798V201.64Z" fill="#7F7F7F"/>
<path opacity="0.5" d="M453.144 205.447L447.985 202.5V200.535L453.144 203.482V205.447Z" fill="#7F7F7F"/>
<path opacity="0.5" d="M458.056 208.272L454.494 206.307V204.342L458.056 206.307V208.272Z" fill="#7F7F7F"/>
<path opacity="0.5" d="M441.845 203.359L439.511 202.008V200.043L441.845 201.517V203.359Z" fill="#7F7F7F"/>
<path opacity="0.5" d="M446.389 206.061L443.196 204.219V202.254L446.389 204.096V206.061Z" fill="#7F7F7F"/>
<path opacity="0.5" d="M453.02 209.868L447.862 206.798V204.833L453.02 207.903V209.868Z" fill="#7F7F7F"/>
<path opacity="0.5" d="M446.88 210.728L439.511 206.43V204.587L446.88 208.763V210.728Z" fill="#7F7F7F"/>
<path opacity="0.5" d="M455.232 215.518L448.231 211.588V209.623L455.232 213.553V215.518Z" fill="#7F7F7F"/>
<path opacity="0.5" d="M458.67 217.605L456.583 216.377V214.412L458.67 215.64V217.605Z" fill="#7F7F7F"/>
<path opacity="0.5" d="M462.109 219.57L459.898 218.342V216.377L462.109 217.605V219.57Z" fill="#7F7F7F"/>
<path opacity="0.5" d="M443.933 213.553L439.511 210.974V209.009L443.933 211.588V213.553Z" fill="#7F7F7F"/>
<path opacity="0.5" d="M462.477 188.499L468.618 192.06V190.218L462.477 186.656V188.499Z" fill="#7F7F7F"/>
<path opacity="0.5" d="M463.829 193.78L468.618 196.604V194.639L463.829 191.815V193.78Z" fill="#7F7F7F"/>
<path opacity="0.5" d="M465.179 199.061L468.617 201.026V199.061L465.179 197.096V199.061Z" fill="#7F7F7F"/>
<path opacity="0.5" d="M463.583 202.5L468.618 205.447V203.605L463.583 200.657V202.5Z" fill="#7F7F7F"/>
<path opacity="0.5" d="M465.179 207.903L468.617 209.991V208.026L465.179 205.938V207.903Z" fill="#7F7F7F"/>
<path opacity="0.5" d="M464.197 211.833L468.618 214.412V212.447L464.197 209.868V211.833Z" fill="#7F7F7F"/>
<path opacity="0.5" d="M466.284 217.483L468.617 218.834V216.991L466.284 215.518V217.483Z" fill="#7F7F7F"/>
<path opacity="0.5" d="M463.951 220.676L468.618 223.378V221.413L463.951 218.711V220.676Z" fill="#7F7F7F"/>
<path opacity="0.5" d="M464.197 225.22L468.618 227.799V225.834L464.197 223.255V225.22Z" fill="#7F7F7F"/>
<path opacity="0.5" d="M447.125 215.395L445.283 214.29V212.325L447.125 213.43V215.395Z" fill="#7F7F7F"/>
<path opacity="0.5" d="M452.774 218.588L448.476 216.132V214.167L452.774 216.623V218.588Z" fill="#7F7F7F"/>
<path opacity="0.5" d="M456.336 233.694L449.09 229.518V227.553L456.336 231.729V233.694Z" fill="#7F7F7F"/>
<path opacity="0.5" d="M461.249 236.519L458.424 234.799V232.834L461.249 234.554V236.519Z" fill="#7F7F7F"/>
<path d="M454.495 124.268L457.074 122.425C457.934 121.811 459.039 121.811 460.267 122.548L550.658 174.744C553.114 176.218 555.079 180.025 555.079 183.341V234.062C555.079 235.782 554.588 237.01 553.605 237.624L550.903 239.589L550.78 237.624C550.658 237.624 550.658 237.501 550.535 237.501L460.144 185.306C457.688 183.832 455.723 180.025 455.723 176.709V125.864C455.723 125.373 455.723 124.882 455.846 124.513L454.495 124.268Z" fill="url(#paint15_linear)"/>
<path d="M554.956 181.253L531.007 195.008L524.989 191.57L552.131 175.972C553.482 177.201 554.464 179.166 554.956 181.253Z" fill="white" fill-opacity="0.5"/>
<path d="M457.565 187.025L547.955 239.221C550.412 240.695 552.377 239.098 552.377 235.782V185.06C552.377 181.744 550.412 177.937 547.955 176.463L457.565 124.268C455.109 122.794 453.144 124.391 453.144 127.707V178.428C453.021 181.744 455.109 185.552 457.565 187.025Z" fill="url(#paint16_linear)"/>
<path d="M465.916 155.094L539.727 197.71C540.341 198.078 540.832 198.201 541.078 197.71C541.078 197.587 541.078 197.464 541.078 197.464V186.288C541.078 185.429 540.587 184.446 539.85 184.078L465.425 141.093L465.302 140.97C464.688 141.093 464.688 141.585 464.688 142.321L464.565 153.006C464.565 153.866 465.302 154.725 465.916 155.094Z" fill="#48CDB7"/>
<path d="M465.793 179.411L539.726 222.027C540.34 222.395 541.077 222.641 541.2 222.027C541.2 221.904 541.2 221.781 541.2 221.658V210.482C541.2 209.623 540.709 208.64 539.972 208.272L465.547 165.287C465.547 165.287 465.425 165.287 465.425 165.164C464.811 164.919 464.688 165.656 464.688 166.515V177.077C464.565 178.06 465.056 179.042 465.793 179.411Z" fill="#48CDB7"/>
<path d="M465.426 140.847C465.426 140.97 465.426 141.093 465.426 141.093V152.269C465.426 153.129 465.917 154.111 466.654 154.48L541.079 197.464C541.079 197.464 541.201 197.464 541.201 197.587C541.078 198.201 540.587 198.447 540.096 198.201L465.671 155.216C465.057 154.848 464.443 153.865 464.443 153.006V141.83C464.32 141.093 464.812 140.602 465.426 140.847Z" fill="white"/>
<path d="M465.426 165.287C465.426 165.41 465.426 165.533 465.426 165.533V176.709C465.426 177.569 465.917 178.551 466.654 178.92L541.079 221.904C541.079 221.904 541.201 221.904 541.201 222.027C541.078 222.641 540.587 222.887 540.096 222.641L465.671 179.656C465.057 179.288 464.443 178.306 464.443 177.446V166.27C464.32 165.41 464.812 165.042 465.426 165.287Z" fill="white"/>
<path d="M519.831 181.007L518.971 182.727L517.252 180.516L518.603 179.165L516.638 177.2L517.252 175.481L518.971 177.691L518.726 175.112L520.936 176.34L520.691 178.674L522.41 178.551L523.024 180.885L521.059 180.639L522.41 183.464L520.691 183.586L519.831 181.007Z" fill="white"/>
<path d="M511.358 176.095L510.498 177.814L508.779 175.603L510.13 174.253L508.165 172.288L508.779 170.568L510.498 172.779L510.252 170.2L512.463 171.428L512.217 173.761L513.937 173.638L514.551 175.972L512.586 175.726L513.937 178.551L512.217 178.674L511.358 176.095Z" fill="white"/>
<path d="M502.761 171.06L501.901 172.779L500.181 170.568L501.532 169.217L499.567 167.252L500.181 165.533L501.901 167.744L501.655 165.165L503.866 166.393L503.62 168.726L505.34 168.603L505.954 170.937L503.989 170.691L505.34 173.516L503.62 173.639L502.761 171.06Z" fill="white"/>
<path d="M494.163 166.147L493.304 167.867L491.584 165.656L492.935 164.305L490.97 162.34L491.584 160.621L493.304 162.831L493.058 160.252L495.269 161.48L495.023 163.814L496.742 163.691L497.356 166.024L495.391 165.779L496.742 168.603L495.023 168.726L494.163 166.147Z" fill="white"/>
<path d="M485.689 161.234L484.83 162.954L483.11 160.743L484.461 159.392L482.496 157.427L483.11 155.708L484.83 157.918L484.584 155.339L486.795 156.567L486.549 158.901L488.268 158.778L488.882 161.112L486.917 160.866L488.268 163.691L486.549 163.813L485.689 161.234Z" fill="white"/>
<path d="M519.831 205.324L518.971 207.044L517.252 204.833L518.603 203.482L516.638 201.517L517.252 199.798L518.971 202.008L518.726 199.429L520.936 200.657L520.691 202.991L522.41 202.868L523.024 205.201L521.059 204.956L522.41 207.78L520.691 207.903L519.831 205.324Z" fill="white"/>
<path d="M511.358 200.412L510.498 202.131L508.779 199.92L510.13 198.569L508.165 196.604L508.779 194.885L510.498 197.096L510.252 194.517L512.463 195.745L512.217 198.078L513.937 197.955L514.551 200.289L512.586 200.043L513.937 202.868L512.217 202.991L511.358 200.412Z" fill="white"/>
<path d="M502.761 195.499L501.901 197.218L500.181 195.008L501.532 193.657L499.567 191.692L500.181 189.972L501.901 192.183L501.655 189.604L503.866 190.832L503.62 193.166L505.34 193.043L505.954 195.376L503.989 195.131L505.34 197.955L503.62 198.078L502.761 195.499Z" fill="white"/>
<path d="M494.163 190.586L493.304 192.306L491.584 190.095L492.935 188.744L490.97 186.779L491.584 185.06L493.304 187.27L493.058 184.691L495.269 185.92L495.023 188.253L496.742 188.13L497.356 190.464L495.391 190.218L496.742 193.043L495.023 193.165L494.163 190.586Z" fill="white"/>
<path d="M485.689 185.674L484.83 187.394L483.11 185.183L484.461 183.832L482.496 181.867L483.11 180.148L484.83 182.358L484.584 179.779L486.795 181.007L486.549 183.341L488.268 183.218L488.882 185.551L486.917 185.306L488.268 188.131L486.549 188.253L485.689 185.674Z" fill="white"/>
<path d="M239.521 245.606C239.521 245.606 239.521 258.955 234.154 267.257C231.064 271.978 225.859 274.746 219.678 275.56C214.962 276.211 209.92 275.722 204.878 274.095C193.33 270.513 185.849 252.606 181.783 235.025C177.717 217.443 187.475 212.071 188.939 212.559C191.541 213.536 197.884 221.838 205.203 229.327C208.944 233.071 212.847 236.815 216.751 239.094C228.136 245.769 239.521 245.606 239.521 245.606Z" fill="url(#paint17_linear)"/>
<path opacity="0.3" d="M219.841 275.397C215.124 276.048 210.082 275.559 205.04 273.931C193.492 270.35 186.011 252.443 181.945 234.862C177.879 217.28 187.637 211.908 189.101 212.396C191.703 213.373 198.046 221.675 205.365 229.164C205.365 229.164 199.51 241.862 201.95 258.955C204.389 276.048 219.841 275.397 219.841 275.397Z" fill="url(#paint18_linear)"/>
<path d="M156.735 322.118C156.735 333.514 152.831 360.7 144.699 359.397C142.91 359.072 140.958 357.281 138.681 354.514C131.85 346.211 123.555 328.793 119.001 316.909C116.399 310.397 114.935 305.514 115.423 304.7C117.863 299.165 153.807 315.281 156.084 317.397C156.572 317.723 156.735 319.514 156.735 322.118Z" fill="url(#paint19_linear)"/>
<path d="M115.421 304.7C112.656 309.909 145.347 326.025 156.569 318.374C156.407 318.374 118.999 297.7 115.421 304.7Z" fill="url(#paint20_linear)"/>
<path d="M195.606 309.909C195.28 310.886 194.955 312.025 194.63 313.002C189.751 329.607 181.13 353.7 174.625 362.002C172.998 363.956 171.697 365.095 170.396 364.932C170.071 364.932 169.745 364.77 169.42 364.607C168.282 364.118 167.306 362.979 166.33 361.351C159.987 351.584 155.433 324.072 156.409 316.095C156.571 315.118 156.734 314.467 157.059 314.141C162.427 308.932 197.232 293.63 198.533 296.234C198.859 297.048 197.72 302.42 195.606 309.909Z" fill="url(#paint21_linear)"/>
<path d="M156.411 316.094C155.11 318.373 189.428 318.211 198.536 296.397C198.536 296.397 169.097 295.257 156.411 316.094Z" fill="url(#paint22_linear)"/>
<path d="M173.651 327.001C172.187 327.164 170.235 338.071 172.349 339.048C174.464 340.025 176.903 326.513 173.651 327.001Z" fill="white"/>
<path d="M121.929 217.769C121.929 227.537 120.465 241.7 116.073 253.258C108.754 272.304 97.6947 296.072 97.3694 296.886C90.5384 300.956 82.5688 300.793 77.3643 299.979C74.274 299.491 72.1597 298.839 72.1597 298.839C72.1597 298.839 74.4367 277.025 86.3096 252.444C92.3274 240.072 99.9717 228.514 106.477 220.048C106.477 220.048 106.477 220.048 106.64 219.886C106.64 219.723 106.803 219.723 106.803 219.56L106.965 219.397L107.128 219.234L107.291 219.072C113.959 210.607 119.489 205.397 120.627 206.048C121.278 206.537 121.929 211.095 121.929 217.769Z" fill="url(#paint23_linear)"/>
<path d="M72.1597 298.187C72.1597 298.187 80.9424 283.861 89.8878 285.652C98.8332 287.442 97.2067 297.047 97.2067 297.047C97.2067 297.047 85.8217 305.187 72.1597 298.187Z" fill="url(#paint24_linear)"/>
<path opacity="0.3" d="M121.93 217.769C121.93 227.537 120.466 241.699 116.074 253.258C108.755 272.304 97.6957 296.072 97.3704 296.886L77.2026 300.142C74.1124 299.653 71.998 299.002 71.998 299.002C71.998 299.002 74.2751 277.188 86.148 252.606C92.1658 240.234 99.8101 228.676 106.316 220.211C102.575 225.257 86.7986 246.909 82.5699 265.304C77.6906 286.304 97.2078 278.165 105.177 265.304C113.147 252.444 121.442 217.932 121.442 217.932H121.93V217.769Z" fill="url(#paint25_linear)"/>
<path d="M100.132 251.303C98.5061 250.652 106.801 232.094 109.241 231.931C111.843 231.768 101.434 251.792 100.132 251.303Z" fill="white"/>
<path d="M99.3205 253.257C98.0193 252.606 96.8808 256.024 98.0193 256.513C99.1578 257.164 100.622 254.071 99.3205 253.257Z" fill="white"/>
<path d="M196.581 80.2092C196.581 80.2092 206.828 71.4185 219.189 69.9534C219.189 69.9534 222.929 71.7441 227.483 85.5814C231.875 99.2558 223.743 126.442 223.743 126.442L196.581 80.2092Z" fill="url(#paint26_linear)"/>
<path d="M219.189 69.9537C219.189 69.9537 209.105 80.6979 209.105 98.1166L213.008 100.558L224.393 77.1165C224.393 77.1165 220.653 69.6281 219.189 69.9537Z" fill="#7F7F7F"/>
<path d="M212.683 99.419C212.683 99.419 210.08 84.605 219.839 73.5352C219.839 73.5352 230.899 78.7445 235.453 98.1167C240.007 117.489 228.134 129.047 228.134 129.047L212.683 99.419Z" fill="url(#paint27_linear)"/>
<path d="M206.991 74.1863C205.039 75.163 205.202 77.2793 209.105 76.7909C213.008 76.3026 215.123 73.2095 214.635 72.5584C214.31 72.07 209.105 73.0467 206.991 74.1863Z" fill="white"/>
<path d="M111.195 82.3259C111.195 82.3259 100.949 73.5352 88.5877 72.0701C88.5877 72.0701 84.8469 73.8608 80.2929 87.6981C75.9015 101.373 84.0337 128.559 84.0337 128.559L111.195 82.3259Z" fill="url(#paint28_linear)"/>
<path d="M88.5864 72.0696C88.5864 72.0696 98.6703 82.8138 98.6703 100.232L94.7669 102.674L83.3818 79.2324C83.3818 79.2324 87.1226 71.9068 88.5864 72.0696Z" fill="#7F7F7F"/>
<path d="M95.0928 101.536C95.0928 101.536 97.6951 86.7217 87.9365 75.6519C87.9365 75.6519 76.8768 80.8612 72.3228 100.233C67.7687 119.606 81.1055 132.466 81.1055 132.466L95.0928 101.536Z" fill="url(#paint29_linear)"/>
<path d="M100.783 76.4658C102.735 77.4425 102.572 79.5588 98.669 79.0704C94.7656 78.5821 92.6512 75.489 93.1391 74.8379C93.4644 74.1867 98.669 75.3262 100.783 76.4658Z" fill="white"/>
<path d="M198.046 285.652C194.956 303.885 178.529 316.094 155.108 316.094C134.615 316.094 117.375 308.443 112.821 291.676C108.267 274.908 110.056 243.815 116.074 224.606C117.05 221.675 118.026 218.908 119.327 216.303C120.465 213.861 121.767 211.582 123.23 209.466C130.712 198.233 141.609 190.908 153.97 190.908C166.819 190.908 176.577 196.117 183.408 204.094C186.499 207.675 188.938 211.908 190.727 216.303C192.679 221.35 194.468 226.885 195.769 232.42V232.582C199.998 250.164 200.811 269.373 198.046 285.652Z" fill="url(#paint30_linear)"/>
<path opacity="0.3" d="M198.046 285.652C194.956 303.885 178.529 316.094 155.108 316.094C134.615 316.094 117.375 308.443 112.821 291.676C108.267 274.908 110.056 243.815 116.074 224.606C117.05 221.675 118.026 218.908 119.327 216.303C119.327 216.303 106.966 257.327 116.887 283.536C126.809 309.746 172.837 309.094 188.45 291.676C203.251 275.234 196.42 236.327 195.769 232.582C199.998 250.164 200.811 269.373 198.046 285.652Z" fill="url(#paint31_linear)"/>
<path d="M127.242 259.451C129.551 242.886 142.964 231.696 157.697 233.122C173.64 234.658 182.216 249.797 181.996 262.852C181.776 275.907 172.21 286 155.169 286C138.127 286 125.043 275.029 127.242 259.451Z" fill="#7F7F7F"/>
<path d="M127.243 261.552C129.552 244.982 142.965 233.788 157.698 235.105C173.64 236.641 182.216 251.785 181.996 264.844C181.776 277.903 172.211 287.999 155.169 287.999C138.018 288.109 125.044 277.025 127.243 261.552Z" fill="url(#paint32_linear)"/>
<path d="M148.668 249.756C148.668 249.459 148.745 249.301 149.031 249.182C151.378 248.134 153.82 247.778 156.357 248.134C157.655 248.312 158.914 248.688 160.116 249.281C161.7 250.053 163.093 251.081 164.295 252.406C165.878 254.147 166.966 256.165 167.557 258.479C168.034 260.358 168.13 262.277 167.824 264.196C167.615 265.501 167.271 266.748 166.718 267.934C165.974 269.537 165.001 270.961 163.741 272.187C162.215 273.671 160.441 274.759 158.437 275.392C156.453 276.005 154.45 276.163 152.408 275.827C150.634 275.53 148.955 274.897 147.428 273.908C145.902 272.919 144.585 271.653 143.536 270.13C142.41 268.488 141.647 266.688 141.265 264.71C140.96 263.167 140.922 261.624 141.132 260.062C141.323 258.717 141.666 257.411 142.219 256.165C142.754 254.978 143.44 253.89 144.242 252.881C144.356 252.743 144.509 252.664 144.681 252.723C144.852 252.782 144.91 252.941 144.91 253.138C144.91 255.987 144.929 258.815 144.891 261.664C144.871 263.385 145.196 265.027 145.959 266.57C146.703 268.073 147.772 269.299 149.126 270.249C150.481 271.198 151.969 271.752 153.61 271.891C156.148 272.128 158.418 271.436 160.422 269.814C162.062 268.468 163.169 266.748 163.741 264.651C164.028 263.583 164.161 262.495 164.085 261.387C163.913 259.053 163.093 256.976 161.547 255.255C160.269 253.831 158.723 252.861 156.892 252.387C155.537 252.031 154.163 251.971 152.79 252.228C152.656 252.248 152.618 252.308 152.618 252.446C152.618 253.692 152.618 254.938 152.618 256.204C152.618 256.402 152.713 256.402 152.847 256.402C153.877 256.402 154.927 256.402 155.957 256.402C156.357 256.402 156.472 256.521 156.472 256.916C156.472 257.609 156.472 258.301 156.472 258.974C156.472 259.33 156.396 259.448 156.052 259.528C155.117 259.785 154.163 260.042 153.228 260.299C153.133 260.319 153.038 260.378 152.942 260.378C152.656 260.418 152.618 260.576 152.637 260.833C152.675 261.367 152.618 261.901 152.694 262.416C152.828 263.207 153.343 263.721 154.087 263.899C154.831 264.077 155.48 263.84 155.976 263.227C156.071 263.108 156.148 262.989 156.224 262.851C156.377 262.554 156.472 262.514 156.796 262.594C157.254 262.712 157.693 262.831 158.151 262.95C158.666 263.088 159.181 263.246 159.696 263.385C160.021 263.484 160.116 263.642 160.002 263.978C159.677 264.928 159.162 265.759 158.437 266.411C156.949 267.776 155.213 268.271 153.267 267.816C151.435 267.4 150.099 266.273 149.279 264.512C148.878 263.662 148.706 262.772 148.726 261.822C148.765 257.797 148.668 253.782 148.668 249.756Z" fill="#48CDB7"/>
<path opacity="0.5" d="M183.408 204.094C178.366 211.908 150.879 216.466 134.94 215.001C121.115 213.699 123.23 209.954 123.23 209.466C130.711 198.233 141.608 190.908 153.969 190.908C166.818 190.908 176.739 196.117 183.408 204.094Z" fill="url(#paint33_linear)"/>
<path d="M173.649 217.605C172.348 218.094 172.348 228.35 173.649 229.978C174.95 231.605 177.064 231.117 177.877 228.675C178.528 226.396 175.6 216.954 173.649 217.605Z" fill="white"/>
<path d="M175.927 232.745C174.788 233.071 174.788 235.513 175.276 236.49C175.764 237.466 177.553 237.141 177.878 236.164C178.204 235.024 177.065 232.583 175.927 232.745Z" fill="white"/>
<path opacity="0.2" d="M127.783 301.932C127.783 301.932 133.476 311.699 154.457 311.862C175.438 312.025 184.058 299.327 184.058 299.327C184.058 299.327 174.299 305.676 160.475 301.932C146.65 298.025 132.825 295.908 127.783 301.932Z" fill="white"/>
<path opacity="0.38" d="M133.051 249.845C135.896 254.357 147.388 251.936 160.302 253.257C173.217 254.578 175.515 258.76 178.251 257.879C180.987 256.999 176.719 237.409 157.238 236.088C137.976 234.767 132.394 248.745 133.051 249.845Z" fill="white"/>
<path d="M82.5683 176.42C98.182 212.397 214.797 201.164 228.785 171.699C244.073 139.303 208.942 59.5353 153.155 63.1167C105.826 66.3726 62.5631 130.187 82.5683 176.42Z" fill="url(#paint34_linear)"/>
<path d="M89.0758 171.373C104.039 200.838 205.854 195.954 220.654 168.931C233.34 145.814 203.414 75.814 152.344 78.2559C101.111 80.6978 74.7632 143.047 89.0758 171.373Z" fill="url(#paint35_linear)"/>
<path d="M199.673 136.535C197.721 141.907 170.885 141.256 170.885 139.303C171.047 128.558 176.74 114.558 187.474 114.558C198.534 114.884 203.413 126.605 199.673 136.535Z" fill="url(#paint36_linear)"/>
<path d="M109.078 137.35C111.355 142.559 138.191 140.443 138.028 138.489C137.215 127.745 130.71 114.071 120.138 114.722C109.078 115.536 104.849 127.582 109.078 137.35Z" fill="url(#paint37_linear)"/>
<path d="M138.515 157.21C134.449 158.187 142.907 171.699 156.406 171.699C168.442 171.699 175.273 157.861 173.646 157.21C172.183 156.559 164.864 160.303 154.942 160.303C145.021 160.303 140.142 156.722 138.515 157.21Z" fill="white" fill-opacity="0.7"/>
<path d="M72.1591 299.001C72.1591 299.001 77.5263 291.35 85.3332 290.374C93.1401 289.397 95.905 291.513 97.3688 296.885C98.8326 302.257 87.7729 322.118 74.1108 337.095C68.2557 337.583 66.4666 330.257 65.6534 325.699C65.4907 321.629 69.3942 305.35 72.1591 299.001Z" fill="url(#paint38_linear)"/>
<path d="M90.8654 290.211C90.8654 290.211 76.2275 310.397 71.6735 322.118C69.2338 328.467 67.77 332.537 67.77 332.537C67.77 332.537 71.5108 342.141 77.8539 334.165C86.7993 322.769 98.6722 305.676 96.5579 297.536C94.7688 290.536 93.4677 289.234 90.8654 290.211Z" fill="url(#paint39_linear)"/>
<path d="M228.784 243.979C222.116 246.095 221.302 268.723 227.646 271.653C233.989 274.584 242.934 254.723 239.518 245.607C239.518 245.607 233.663 242.514 228.784 243.979Z" fill="url(#paint40_linear)"/>
<path d="M229.273 246.582C229.273 246.582 224.557 251.303 226.508 258.954C228.46 266.606 238.707 271.815 251.393 271.652C264.079 271.489 272.211 262.373 274 256.675C274 256.675 271.723 251.954 259.2 249.024C250.742 247.071 239.357 245.605 239.357 245.605C239.357 245.605 233.665 244.792 229.273 246.582Z" fill="url(#paint41_linear)"/>
<path d="M227.16 260.42C227.16 260.42 238.382 264.002 251.556 261.723C264.73 259.281 260.664 249.839 260.664 249.839C260.664 249.839 254.158 246.583 248.303 245.443C242.448 244.304 229.599 245.443 229.599 245.443C229.599 245.443 222.443 251.467 227.16 260.42Z" fill="url(#paint42_linear)"/>
<path d="M230.251 245.931C228.299 240.071 254.81 240.071 258.388 242.35C260.015 243.327 262.617 246.908 261.479 249.025C260.34 251.141 251.72 252.443 247.979 252.118C244.401 251.792 231.552 249.838 230.251 245.931Z" fill="url(#paint43_linear)"/>
<path d="M250.58 252.117C250.58 252.117 250.254 246.257 253.345 243.978C256.272 241.699 259.037 242.838 259.037 242.838C259.037 242.838 262.941 245.769 261.477 249.024C260.013 252.28 252.531 252.931 250.58 252.117Z" fill="url(#paint44_linear)"/>
<path d="M169.581 69.7902C168.443 71.0925 180.966 76.4646 182.593 75.6507C184.219 74.9995 173.16 65.5576 169.581 69.7902Z" fill="white"/>
<path opacity="0.5" d="M106.965 107.721C105.827 114.721 119.163 113.907 140.307 113.256C165.842 112.442 191.54 134.419 206.503 118.628C208.942 116.024 184.546 81.8375 154.945 82.4887C125.506 83.3026 108.104 101.698 106.965 107.721Z" fill="url(#paint45_linear)"/>
<path opacity="0.5" d="M120.14 181.141C118.838 186.187 129.41 191.397 155.596 190.094C187.311 188.466 193.98 181.955 192.353 180.001C191.377 178.862 181.944 184.885 155.921 179.187C138.844 175.443 121.603 175.769 120.14 181.141Z" fill="url(#paint46_linear)"/>
<path opacity="0.2" d="M91.8385 165.349C91.8385 165.349 90.7 158.024 92.0011 148.093C93.3023 138.163 95.9046 131.814 97.531 132.628C99.1574 133.605 98.8321 143.21 99.808 152.814C100.459 160.303 101.922 167.303 101.922 167.303C101.922 167.303 95.254 173.652 91.8385 165.349Z" fill="url(#paint47_linear)"/>
<path opacity="0.2" d="M94.1165 188.63C94.1165 188.63 95.7429 187.002 104.2 181.955C109.893 178.699 115.748 174.629 116.724 173.164C118.025 169.746 92.49 171.699 92.49 171.699L82.7314 176.42C82.5688 176.42 86.4722 184.071 94.1165 188.63Z" fill="black"/>
<path d="M72.2026 115.75C72.2026 115.75 73.7797 122.23 77.0538 127.397C77.0538 127.397 46.1364 144.187 47.9255 162.42C49.3893 177.722 91.8392 170.234 91.8392 170.234L93.303 175.28C93.303 175.28 57.1962 182.28 44.8353 173.815C44.8353 173.815 40.6066 163.722 51.1784 145.652C61.5876 127.582 72.2026 115.75 72.2026 115.75Z" fill="url(#paint48_linear)"/>
<path d="M86.4707 168.932C82.5673 173.327 90.8621 178.048 97.5305 178.862C105.175 179.676 118.511 176.746 117.698 169.095C117.048 161.281 95.5787 158.513 86.4707 168.932Z" fill="url(#paint49_linear)"/>
<path opacity="0.2" d="M78.6641 308.931C78.6641 308.931 80.6158 319.675 87.2842 321.303L88.26 295.419C88.26 295.419 80.6158 305.512 78.6641 308.931Z" fill="black"/>
<path d="M85.0081 301.605C84.0323 304.047 85.984 320.489 87.7731 322.28C89.5621 324.071 93.6282 320.978 94.7667 317.722C95.9052 314.466 100.947 296.396 94.4414 290.698C94.4414 290.536 89.0742 291.187 85.0081 301.605Z" fill="url(#paint50_linear)"/>
<path d="M87.9362 303.723C87.2857 303.886 86.4724 309.421 86.9604 310.397C87.6109 311.374 88.7494 311.211 89.4 310.072C90.0506 308.77 89.0747 303.56 87.9362 303.723Z" fill="white"/>
<path d="M68.745 123.186C68.745 123.186 54.1071 140.279 54.9204 141.419C55.8962 142.721 69.7209 124.977 68.745 123.186Z" fill="white" fill-opacity="0.5"/>
</g>
<defs>
<radialGradient id="paint0_radial" cx="0" cy="0" r="1" gradientUnits="userSpaceOnUse" gradientTransform="translate(306.5 251.575) scale(365.372 212.027)">
<stop stop-color="#ABABAB"/>
<stop offset="1" stop-color="#DDDDDD" stop-opacity="0"/>
</radialGradient>
<linearGradient id="paint1_linear" x1="359.362" y1="115.262" x2="359.362" y2="217.01" gradientUnits="userSpaceOnUse">
<stop stop-color="#73DDCB"/>
<stop offset="1" stop-color="#9BFFEE"/>
</linearGradient>
<linearGradient id="paint2_linear" x1="400.34" y1="216.89" x2="367.414" y2="147.284" gradientUnits="userSpaceOnUse">
<stop stop-color="#A7A7A7"/>
<stop offset="1" stop-color="#F5F5F5"/>
</linearGradient>
<linearGradient id="paint3_linear" x1="442.196" y1="301.687" x2="442.196" y2="41.6925" gradientUnits="userSpaceOnUse">
<stop stop-color="#C2C2C2"/>
<stop offset="0.1779" stop-color="#B9B9B9"/>
<stop offset="0.3876" stop-color="#9D9D9D"/>
<stop offset="0.6134" stop-color="#B5B5B5"/>
<stop offset="0.849" stop-color="#B4B4B4"/>
<stop offset="1" stop-color="#DBDBDB"/>
</linearGradient>
<linearGradient id="paint4_linear" x1="436.789" y1="276.478" x2="524.993" y2="123.709" gradientUnits="userSpaceOnUse">
<stop stop-color="#B0B0B0"/>
<stop offset="1" stop-color="#EBEBEB"/>
</linearGradient>
<linearGradient id="paint5_linear" x1="436.748" y1="60.283" x2="436.748" y2="288.96" gradientUnits="userSpaceOnUse">
<stop stop-color="white"/>
<stop offset="1" stop-color="#D3D3D3"/>
</linearGradient>
<linearGradient id="paint6_linear" x1="312.123" y1="316.659" x2="385.824" y2="316.659" gradientUnits="userSpaceOnUse">
<stop stop-color="#E9E9FD"/>
<stop offset="0.3601" stop-color="#D3D2F9"/>
<stop offset="0.7062" stop-color="#C5C4F7"/>
<stop offset="1" stop-color="#C0BFF6"/>
</linearGradient>
<linearGradient id="paint7_linear" x1="319.456" y1="270.732" x2="377.931" y2="304.493" gradientUnits="userSpaceOnUse">
<stop stop-color="#DEDEDE"/>
<stop offset="1" stop-color="#979797"/>
</linearGradient>
<linearGradient id="paint8_linear" x1="312.122" y1="283.494" x2="385.823" y2="283.494" gradientUnits="userSpaceOnUse">
<stop stop-color="#F5F5F5"/>
<stop offset="1" stop-color="#DBDBDB"/>
</linearGradient>
<linearGradient id="paint9_linear" x1="452.438" y1="355.566" x2="378.738" y2="355.566" gradientUnits="userSpaceOnUse">
<stop stop-color="#E9E9FD"/>
<stop offset="0.3601" stop-color="#D3D2F9"/>
<stop offset="0.7062" stop-color="#C5C4F7"/>
<stop offset="1" stop-color="#C0BFF6"/>
</linearGradient>
<linearGradient id="paint10_linear" x1="445.105" y1="309.64" x2="386.63" y2="343.4" gradientUnits="userSpaceOnUse">
<stop stop-color="#DEDEDE"/>
<stop offset="1" stop-color="#979797"/>
</linearGradient>
<linearGradient id="paint11_linear" x1="452.44" y1="322.401" x2="378.739" y2="322.401" gradientUnits="userSpaceOnUse">
<stop stop-color="#F5F5F5"/>
<stop offset="1" stop-color="#DBDBDB"/>
</linearGradient>
<linearGradient id="paint12_linear" x1="518.659" y1="394.909" x2="444.958" y2="394.909" gradientUnits="userSpaceOnUse">
<stop stop-color="#E9E9FD"/>
<stop offset="0.3601" stop-color="#D3D2F9"/>
<stop offset="0.7062" stop-color="#C5C4F7"/>
<stop offset="1" stop-color="#C0BFF6"/>
</linearGradient>
<linearGradient id="paint13_linear" x1="511.326" y1="348.983" x2="452.851" y2="382.744" gradientUnits="userSpaceOnUse">
<stop stop-color="#DEDEDE"/>
<stop offset="1" stop-color="#979797"/>
</linearGradient>
<linearGradient id="paint14_linear" x1="518.66" y1="361.745" x2="444.96" y2="361.745" gradientUnits="userSpaceOnUse">
<stop stop-color="#F5F5F5"/>
<stop offset="1" stop-color="#DBDBDB"/>
</linearGradient>
<linearGradient id="paint15_linear" x1="555.079" y1="239.589" x2="463.877" y2="117.489" gradientUnits="userSpaceOnUse">
<stop stop-color="#A7A7A7"/>
<stop offset="1" stop-color="#E2E2E2"/>
</linearGradient>
<linearGradient id="paint16_linear" x1="502.745" y1="213.113" x2="529.861" y2="166.147" gradientUnits="userSpaceOnUse">
<stop stop-color="#DBDBDB"/>
<stop offset="1" stop-color="#F3F3F3"/>
</linearGradient>
<linearGradient id="paint17_linear" x1="205.47" y1="274.68" x2="212.916" y2="215.446" gradientUnits="userSpaceOnUse">
<stop stop-color="#BBBBBB"/>
<stop offset="1" stop-color="#ECECEC"/>
</linearGradient>
<linearGradient id="paint18_linear" x1="200.334" y1="275.7" x2="200.334" y2="212.415" gradientUnits="userSpaceOnUse">
<stop stop-color="#585858"/>
<stop offset="1" stop-color="white"/>
</linearGradient>
<linearGradient id="paint19_linear" x1="125.401" y1="358.707" x2="150.81" y2="325.546" gradientUnits="userSpaceOnUse">
<stop stop-color="#A7A7A7"/>
<stop offset="1" stop-color="#F5F5F5"/>
</linearGradient>
<linearGradient id="paint20_linear" x1="142.095" y1="313.051" x2="126.032" y2="314.334" gradientUnits="userSpaceOnUse">
<stop stop-color="#B8B8B8"/>
<stop offset="1" stop-color="#CCCCCC"/>
</linearGradient>
<linearGradient id="paint21_linear" x1="166.568" y1="364.039" x2="198.961" y2="329.049" gradientUnits="userSpaceOnUse">
<stop stop-color="#A7A7A7"/>
<stop offset="1" stop-color="#F5F5F5"/>
</linearGradient>
<linearGradient id="paint22_linear" x1="175.374" y1="319.651" x2="179.515" y2="293.366" gradientUnits="userSpaceOnUse">
<stop stop-color="#B9B9B9"/>
<stop offset="1" stop-color="#C7C7C7"/>
</linearGradient>
<linearGradient id="paint23_linear" x1="91.9602" y1="301.933" x2="104.263" y2="204.066" gradientUnits="userSpaceOnUse">
<stop stop-color="#DEDEDE"/>
<stop offset="1" stop-color="#A5A5A5"/>
</linearGradient>
<linearGradient id="paint24_linear" x1="84.7662" y1="300.993" x2="84.7662" y2="285.438" gradientUnits="userSpaceOnUse">
<stop stop-color="#B5B5B5"/>
<stop offset="1" stop-color="#A5A5A5"/>
</linearGradient>
<linearGradient id="paint25_linear" x1="96.9784" y1="300.074" x2="96.9784" y2="217.837" gradientUnits="userSpaceOnUse">
<stop stop-color="#7D7D7D"/>
<stop offset="1" stop-color="#C0C0C0"/>
</linearGradient>
<linearGradient id="paint26_linear" x1="212.637" y1="94.8784" x2="212.637" y2="69.8752" gradientUnits="userSpaceOnUse">
<stop stop-color="#C5C5C5"/>
<stop offset="1" stop-color="#DFDFDF"/>
</linearGradient>
<linearGradient id="paint27_linear" x1="224.43" y1="73.5352" x2="224.43" y2="129.047" gradientUnits="userSpaceOnUse">
<stop stop-color="#48CDB7"/>
<stop offset="1" stop-color="#9BFFEE"/>
</linearGradient>
<linearGradient id="paint28_linear" x1="95.1469" y1="102.097" x2="95.1469" y2="72.0771" gradientUnits="userSpaceOnUse">
<stop stop-color="#B1B1B1"/>
<stop offset="1" stop-color="#E3E3E3"/>
</linearGradient>
<linearGradient id="paint29_linear" x1="83.3913" y1="75.6519" x2="83.3913" y2="132.466" gradientUnits="userSpaceOnUse">
<stop stop-color="#48CDB7"/>
<stop offset="1" stop-color="#9BFFEE"/>
</linearGradient>
<linearGradient id="paint30_linear" x1="110.434" y1="232.018" x2="199.452" y2="239.857" gradientUnits="userSpaceOnUse">
<stop stop-color="#E6E6E6"/>
<stop offset="1" stop-color="#AAAAAA"/>
</linearGradient>
<linearGradient id="paint31_linear" x1="154.989" y1="316.181" x2="154.989" y2="216.31" gradientUnits="userSpaceOnUse">
<stop stop-color="#3D3D3D"/>
<stop offset="1" stop-color="white"/>
</linearGradient>
<linearGradient id="paint32_linear" x1="154.5" y1="235" x2="154.5" y2="288" gradientUnits="userSpaceOnUse">
<stop stop-color="#48CDB7"/>
<stop offset="1" stop-color="#9BFFEE"/>
</linearGradient>
<linearGradient id="paint33_linear" x1="153.267" y1="215.252" x2="153.267" y2="190.906" gradientUnits="userSpaceOnUse">
<stop stop-color="#F8F8F8"/>
<stop offset="1" stop-color="#4D4D4D"/>
</linearGradient>
<linearGradient id="paint34_linear" x1="148.839" y1="200.864" x2="166.072" y2="63.7786" gradientUnits="userSpaceOnUse">
<stop stop-color="#BDBDBD"/>
<stop offset="1" stop-color="#E6E6E6"/>
</linearGradient>
<linearGradient id="paint35_linear" x1="154.384" y1="78.1936" x2="154.384" y2="191.424" gradientUnits="userSpaceOnUse">
<stop stop-color="#48CDB7"/>
<stop offset="1" stop-color="#9BFFEE"/>
</linearGradient>
<linearGradient id="paint36_linear" x1="185.901" y1="114.558" x2="185.901" y2="140.725" gradientUnits="userSpaceOnUse">
<stop stop-color="#94DED2"/>
<stop offset="1" stop-color="white"/>
</linearGradient>
<linearGradient id="paint37_linear" x1="122.748" y1="114.699" x2="122.748" y2="140.618" gradientUnits="userSpaceOnUse">
<stop stop-color="#94DED2"/>
<stop offset="1" stop-color="white"/>
</linearGradient>
<linearGradient id="paint38_linear" x1="78.1829" y1="337.841" x2="84.269" y2="289.426" gradientUnits="userSpaceOnUse">
<stop stop-color="#C8C8C8"/>
<stop offset="1" stop-color="#E6E6E6"/>
</linearGradient>
<linearGradient id="paint39_linear" x1="84.3857" y1="336.196" x2="79.7977" y2="291.2" gradientUnits="userSpaceOnUse">
<stop stop-color="#CACACA"/>
<stop offset="0.984375" stop-color="#888888"/>
</linearGradient>
<linearGradient id="paint40_linear" x1="233.433" y1="271.439" x2="230.594" y2="243.596" gradientUnits="userSpaceOnUse">
<stop stop-color="#BBBBBB"/>
<stop offset="1" stop-color="#A4A4A4"/>
</linearGradient>
<linearGradient id="paint41_linear" x1="248.077" y1="271.588" x2="251.158" y2="247.081" gradientUnits="userSpaceOnUse">
<stop stop-color="#C0C0C0"/>
<stop offset="1" stop-color="#EEEEEE"/>
</linearGradient>
<linearGradient id="paint42_linear" x1="244.28" y1="262.567" x2="242.397" y2="244.103" gradientUnits="userSpaceOnUse">
<stop stop-color="#E6E6E6"/>
<stop offset="1" stop-color="#9B9B9B"/>
</linearGradient>
<linearGradient id="paint43_linear" x1="242.753" y1="253.292" x2="250.118" y2="238.364" gradientUnits="userSpaceOnUse">
<stop stop-color="#DCDCDC"/>
<stop offset="1" stop-color="#EAEAEA"/>
</linearGradient>
<linearGradient id="paint44_linear" x1="256.413" y1="252.183" x2="255.455" y2="242.79" gradientUnits="userSpaceOnUse">
<stop stop-color="#E6E6E6"/>
<stop offset="1" stop-color="#C1C1C1"/>
</linearGradient>
<linearGradient id="paint45_linear" x1="106.954" y1="103.495" x2="206.833" y2="103.495" gradientUnits="userSpaceOnUse">
<stop stop-color="white" stop-opacity="0.17"/>
<stop offset="1" stop-color="white"/>
</linearGradient>
<linearGradient id="paint46_linear" x1="120.089" y1="183.443" x2="192.708" y2="183.443" gradientUnits="userSpaceOnUse">
<stop stop-color="#248499"/>
<stop offset="1" stop-color="#6AE4FF"/>
</linearGradient>
<linearGradient id="paint47_linear" x1="96.2069" y1="169.563" x2="98.7452" y2="132.573" gradientUnits="userSpaceOnUse">
<stop/>
<stop offset="1" stop-color="#00E3FF"/>
</linearGradient>
<linearGradient id="paint48_linear" x1="67.6875" y1="179.007" x2="75.9205" y2="113.515" gradientUnits="userSpaceOnUse">
<stop stop-color="#CDCDCD"/>
<stop offset="1" stop-color="#888888"/>
</linearGradient>
<linearGradient id="paint49_linear" x1="101.601" y1="162.133" x2="101.601" y2="178.994" gradientUnits="userSpaceOnUse">
<stop stop-color="#DDDDDD"/>
<stop offset="1" stop-color="#8C8C8C"/>
</linearGradient>
<linearGradient id="paint50_linear" x1="88.78" y1="322.75" x2="92.8522" y2="290.357" gradientUnits="userSpaceOnUse">
<stop stop-color="#DBDBDB"/>
<stop offset="1" stop-color="#F0F0F0"/>
</linearGradient>
</defs>
</svg>
