<svg width="141" height="23" viewBox="0 0 141 23" fill="none" xmlns="http://www.w3.org/2000/svg">
<path fill-rule="evenodd" clip-rule="evenodd" d="M24.041 22.3708V0.628906H35.5053C39.6278 0.628906 42.9697 3.97081 42.9697 8.09326C42.9697 12.2157 39.6278 15.5576 35.5053 15.5576L35.4696 15.5575L28.041 15.5576L28.041 22.3708H24.041ZM35.4695 11.5574L35.5053 11.5576C37.4186 11.5576 38.9697 10.0066 38.9697 8.09326C38.9697 6.17995 37.4186 4.62891 35.5053 4.62891L35.4695 4.62909L28.041 4.62891L28.041 11.5576L35.4695 11.5574Z" fill="black"/>
<path fill-rule="evenodd" clip-rule="evenodd" d="M74.2881 0.628906V22.3708H78.2881L78.2881 15.5576H84.6413L89.2706 22.3708H93.7215L88.881 14.8723C91.4407 13.6889 93.2167 11.0985 93.2167 8.09326C93.2167 3.97081 89.8748 0.628906 85.7524 0.628906L85.7166 0.62899L74.2881 0.628906ZM78.2881 4.62891L78.2881 11.5576H85.7524C87.6657 11.5576 89.2167 10.0066 89.2167 8.09326C89.2167 6.17995 87.6657 4.62891 85.7524 4.62891H78.2881Z" fill="black"/>
<path d="M100.462 11.5C100.462 15.4915 103.698 18.7271 107.689 18.7271C109.868 18.7271 111.822 17.7628 113.147 16.2377L116.11 18.9261C114.052 21.257 111.042 22.7271 107.689 22.7271C101.488 22.7271 96.4619 17.7006 96.4619 11.5C96.4619 5.29949 101.488 0.272949 107.689 0.272949C110.68 0.272949 113.397 1.44224 115.409 3.34858L112.614 6.21061C111.323 5.00842 109.592 4.27295 107.689 4.27295C103.698 4.27295 100.462 7.50863 100.462 11.5Z" fill="black"/>
<path fill-rule="evenodd" clip-rule="evenodd" d="M129.762 18.7271C125.77 18.7271 122.535 15.4915 122.535 11.5C122.535 7.50863 125.77 4.27295 129.762 4.27295C133.753 4.27295 136.989 7.50863 136.989 11.5C136.989 15.4915 133.753 18.7271 129.762 18.7271ZM129.762 22.7271C123.561 22.7271 118.535 17.7006 118.535 11.5C118.535 5.29949 123.561 0.272949 129.762 0.272949C135.962 0.272949 140.989 5.29949 140.989 11.5C140.989 17.7006 135.962 22.7271 129.762 22.7271Z" fill="black"/>
<path d="M6.96338 9.49976L6.99866 9.4995L12.3203 9.49976C15.8745 9.49976 18.7557 12.381 18.7557 15.9352C18.7557 19.4894 15.8745 22.3706 12.3203 22.3706L12.2844 22.3705L0.791504 22.3708V18.3708H12.2844L12.3203 18.3706C13.6654 18.3706 14.7557 17.2802 14.7557 15.9352C14.7557 14.5901 13.6654 13.4998 12.3203 13.4998L12.2844 13.5L6.96338 13.4998C3.40919 13.4998 0.527344 10.6185 0.527344 7.06433C0.527344 3.51255 3.40469 0.632799 6.95557 0.62891L18.335 0.628906V4.62891H6.96277C5.61772 4.62891 4.52734 5.71928 4.52734 7.06433C4.52734 8.40938 5.61833 9.49976 6.96338 9.49976Z" fill="black"/>
<rect x="47.689" y="0.628906" width="20.6051" height="5.79464" rx="2.89732" fill="#DA2031"/>
<rect x="47.689" y="8.60254" width="20.6051" height="5.79464" rx="2.89732" fill="#E5A51A"/>
<rect x="47.689" y="16.5762" width="20.6051" height="5.79464" rx="2.89732" fill="#DA2031"/>
</svg>
