<svg width="36" height="36" viewBox="0 0 36 36" fill="none" xmlns="http://www.w3.org/2000/svg">
<path fill-rule="evenodd" clip-rule="evenodd" d="M35.9996 17.9998C35.9996 27.9408 27.9408 35.9996 17.9998 35.9996C8.05879 35.9996 0 27.9408 0 17.9998C0 8.05879 8.05879 0 17.9998 0C27.9408 0 35.9996 8.05879 35.9996 17.9998ZM16.1797 15.4472V13.4483C16.1797 13.4409 16.1797 13.4326 16.1796 13.4235C16.178 12.9846 16.1694 10.6362 19.2364 10.6362H21.4468V13.181H19.8208C19.4994 13.181 19.1745 13.5167 19.1745 13.7662V15.4382H21.4433C21.3519 16.7198 21.1653 17.8915 21.1653 17.8915H19.1628V25.1559H16.1797V17.8915H14.7269V15.4472H16.1797Z" fill="#A9A9A9"/>
</svg>
