<svg width="169" height="65" viewBox="0 0 169 65" fill="none" xmlns="http://www.w3.org/2000/svg">
<path d="M49.5001 39.2605L17.3415 0.889404L0.287598 31.9517L5.76919 64.1104L49.5001 39.2605Z" fill="url(#paint0_linear)"/>
<path d="M49.5001 39.2604L10.8854 33.5353L0.287598 31.9517L5.76919 64.1103L49.5001 39.2604Z" fill="url(#paint1_linear)"/>
<path d="M0.287598 31.9517L11.1504 33.5671L17.3415 0.889404L0.287598 31.9517Z" fill="url(#paint2_linear)"/>
<path d="M5.76919 64.1103L11.1543 33.563L0.287598 31.9517L5.76919 64.1103Z" fill="url(#paint3_linear)"/>
<path d="M52.4609 39.031L56.5347 19.7566H61.7686L57.6948 39.031H52.4609Z" fill="#100F0F"/>
<path d="M68.2074 24.094L66.9717 29.9838H69.8853L71.1474 24.094H76.2626L73.0985 39.031H67.9965L69.0131 34.0251H66.0731L65.0302 39.031H59.9281L63.1054 24.094H68.2074Z" fill="#100F0F"/>
<path d="M83.0311 39.031L84.7581 30.7122C84.8899 29.9211 84.9559 29.3894 84.9559 29.1169C84.9559 28.2908 84.6395 27.8777 84.0066 27.8777C83.409 27.8777 82.908 28.2073 82.5037 28.8665C82.1082 29.5168 81.7698 30.4836 81.4886 31.7668L79.9329 39.031H74.8309L77.9817 24.094H82.0555L81.8445 26.5593H81.95C82.4861 25.5574 83.0882 24.8542 83.7562 24.45C84.4241 24.0369 85.2635 23.8303 86.2742 23.8303C87.3025 23.8303 88.0936 24.0676 88.6473 24.5422C89.2098 25.0081 89.6053 25.6804 89.8338 26.5593H89.9393C90.5105 25.6277 91.1653 24.9421 91.9036 24.5027C92.6419 24.0544 93.4988 23.8303 94.4744 23.8303C95.7137 23.8303 96.6541 24.2039 97.2957 24.9509C97.9373 25.6892 98.2581 26.7834 98.2581 28.2336C98.2581 29.0862 98.1614 29.9871 97.9681 30.9363L96.3201 39.031H91.2181L92.9188 30.7122C93.0418 30.22 93.1033 29.6355 93.1033 28.9587C93.1033 28.6072 93.0198 28.3391 92.8528 28.1545C92.6858 27.97 92.4617 27.8777 92.1805 27.8777C91.5301 27.8777 91.0027 28.2117 90.5984 28.8796C90.2029 29.5476 89.8689 30.5452 89.5965 31.8723L88.1331 39.031H83.0311Z" fill="#100F0F"/>
<path d="M104.512 39.2947C102.649 39.2947 101.199 38.7761 100.162 37.739C99.1247 36.6931 98.6062 35.2429 98.6062 33.3884C98.6062 31.5339 98.9709 29.864 99.7004 28.3787C100.439 26.8845 101.445 25.7551 102.719 24.9905C104.003 24.217 105.484 23.8303 107.162 23.8303C108.832 23.8303 110.146 24.2083 111.104 24.9641C112.062 25.72 112.541 26.7263 112.541 27.9832C112.541 29.7498 111.851 31.1077 110.471 32.0569C109.1 32.9973 107.114 33.4675 104.512 33.4675H103.735V33.6785C103.735 34.9792 104.455 35.6296 105.897 35.6296C106.591 35.6296 107.272 35.5286 107.94 35.3264C108.608 35.1155 109.368 34.7859 110.221 34.3376V37.95C109.237 38.4509 108.318 38.8025 107.466 39.0046C106.613 39.198 105.629 39.2947 104.512 39.2947ZM106.595 27.2844C106.059 27.2844 105.558 27.592 105.092 28.2073C104.627 28.8137 104.345 29.5037 104.249 30.2771H104.631C105.589 30.2771 106.341 30.0969 106.885 29.7366C107.43 29.3674 107.703 28.884 107.703 28.2864C107.703 28.0051 107.615 27.7678 107.439 27.5745C107.263 27.3811 106.982 27.2844 106.595 27.2844Z" fill="#100F0F"/>
<path d="M116.286 39.2947L115.13 45.5173H110.028L114.564 24.094H118.637L118.479 25.7683H118.585C119.428 24.4763 120.562 23.8303 121.986 23.8303C123.357 23.8303 124.434 24.3225 125.216 25.3069C125.998 26.2825 126.389 27.6272 126.389 29.3411C126.389 31.1252 126.082 32.8083 125.466 34.3904C123.837 38.1088 120.116 39.2947 116.286 39.2947ZM120.048 27.9304C119.608 27.9304 119.191 28.1809 118.796 28.6819C118.4 29.1829 118.084 29.8596 117.846 30.7122L117.009 35.5517C119.411 35.7189 120.224 34.5198 120.813 32.426C121.059 31.5823 121.182 30.7166 121.182 29.8289C121.182 28.5632 120.804 27.9304 120.048 27.9304Z" fill="#100F0F"/>
<path d="M141.767 39.031H136.071L134.146 32.4656L129.69 39.031H123.837L131.259 28.8005L128.319 19.7566H133.804L135.425 25.9397L139.499 19.7566H145.405L138.312 29.3147L141.767 39.031Z" fill="#100F0F"/>
<path d="M146.768 39.031H141.666L144.817 24.094H149.946L146.768 39.031Z" fill="#100F0F"/>
<path d="M155.818 39.031L155.54 31.8857L153.326 39.031H148.554L153.676 24.094H159.074V33.8499L163.992 24.094H168.75L167.933 39.031H163.135L163.992 31.8857L160.59 39.031H155.818Z" fill="#100F0F"/>
<defs>
<linearGradient id="paint0_linear" x1="10.3771" y1="32.4999" x2="39.9982" y2="24.5405" gradientUnits="userSpaceOnUse">
<stop stop-color="#62D51C"/>
<stop offset="1" stop-color="#E4F3D1"/>
</linearGradient>
<linearGradient id="paint1_linear" x1="49.5001" y1="39.3514" x2="16.0285" y2="41.6896" gradientUnits="userSpaceOnUse">
<stop stop-color="#DDF0C5"/>
<stop offset="1" stop-color="#14BC1F"/>
</linearGradient>
<linearGradient id="paint2_linear" x1="2.19234" y1="29.2176" x2="11.9361" y2="30.1919" gradientUnits="userSpaceOnUse">
<stop stop-color="#A7DD67"/>
<stop offset="1" stop-color="#C4E79A"/>
</linearGradient>
<linearGradient id="paint3_linear" x1="11.1543" y1="41.2998" x2="1.96063" y2="42.5104" gradientUnits="userSpaceOnUse">
<stop stop-color="#92D85F"/>
<stop offset="0.973958" stop-color="#5ACA41"/>
</linearGradient>
</defs>
</svg>
