<svg width="120" height="65" viewBox="0 0 120 65" fill="none" xmlns="http://www.w3.org/2000/svg">
<path d="M71.0064 22.2992C73.1201 21.5152 74.3198 19.8352 74.3198 16.4752V10.6512C74.3198 5.77916 71.8633 3.37116 66.8932 3.37116H55.125V42.5712H67.0075C71.9776 42.5712 74.434 40.1632 74.434 35.2912V27.3392C74.434 24.4832 73.4057 22.9712 71.0064 22.2992ZM66.3791 11.4912V17.9872C66.3791 18.9392 65.9221 19.3872 64.9509 19.3872H63.0657V10.0912H64.9509C65.9221 10.0912 66.3791 10.5392 66.3791 11.4912ZM63.0657 25.9392H65.0651C66.0363 25.9392 66.4933 26.3872 66.4933 27.3392V34.4512C66.4933 35.4032 66.0363 35.8512 65.0651 35.8512H63.0657V25.9392Z" fill="#082E18"/>
<path d="M93.5691 23.7044L86.7138 16.7204C86.7138 16.7204 85.3428 14.9712 85.3428 13.7392V11.0432C85.3428 10.0912 85.7998 9.64316 86.771 9.64316H87.3994C88.3705 9.64316 88.8275 10.0912 88.8275 11.0432V15.4832H96.654V10.3152C96.654 5.44316 94.1975 3.03516 89.2274 3.03516H84.8858C79.9157 3.03516 77.4592 5.44316 77.4592 10.3152V14.5312C77.4592 17.3312 80.6583 20.6912 80.6583 20.6912L87.5136 27.6752C88.4848 28.3472 88.8847 29.9632 88.8847 31.1952V34.8992C88.8847 35.8512 88.4277 36.2992 87.4565 36.2992H86.7138C85.7427 36.2992 85.2857 35.8512 85.2857 34.8992V30.2832H77.4592V35.6272C77.4592 40.4992 79.9157 42.9072 84.8858 42.9072H89.3417C94.3118 42.9072 96.7682 40.4992 96.7682 35.6272V29.4032C96.7682 26.4912 93.5691 23.7044 93.5691 23.7044Z" fill="#082E18"/>
<path d="M111.628 29.2672V34.7872C111.628 35.7392 111.171 36.1872 110.2 36.1872H109.172C108.201 36.1872 107.743 35.7392 107.743 34.7872V11.1552C107.743 10.2032 108.201 9.75516 109.172 9.75516H110.086C111.057 9.75516 111.514 10.2032 111.514 11.1552V15.4992H119.397V10.3152C119.397 5.44316 116.941 3.03516 111.971 3.03516H107.172C102.202 3.03516 99.7457 5.44316 99.7457 10.3152V35.6272C99.7457 40.4992 102.202 42.9072 107.172 42.9072H112.085C117.055 42.9072 119.512 40.4992 119.512 35.6272V29.2672H111.628Z" fill="#082E18"/>
<path d="M5.88574 54.8008H9.8916C10.6846 54.8008 11.2747 54.835 11.6621 54.9033C12.054 54.9671 12.4027 55.1038 12.708 55.3135C13.0179 55.5231 13.2754 55.8034 13.4805 56.1543C13.6855 56.5007 13.7881 56.8903 13.7881 57.3232C13.7881 57.7926 13.6605 58.2233 13.4053 58.6152C13.1546 59.0072 12.8128 59.3011 12.3799 59.4971C12.9906 59.6748 13.46 59.9779 13.7881 60.4062C14.1162 60.8346 14.2803 61.3382 14.2803 61.917C14.2803 62.3727 14.1732 62.8171 13.959 63.25C13.7493 63.6784 13.46 64.0225 13.0908 64.2822C12.7262 64.5374 12.2751 64.6947 11.7373 64.7539C11.4001 64.7904 10.5866 64.8132 9.29688 64.8223H5.88574V54.8008ZM7.90918 56.4688V58.7861H9.23535C10.0238 58.7861 10.5137 58.7747 10.7051 58.752C11.0514 58.7109 11.3226 58.5924 11.5186 58.3965C11.7191 58.196 11.8193 57.9339 11.8193 57.6104C11.8193 57.3005 11.7327 57.0498 11.5596 56.8584C11.391 56.6624 11.138 56.5439 10.8008 56.5029C10.6003 56.4801 10.0238 56.4688 9.07129 56.4688H7.90918ZM7.90918 60.4541V63.1338H9.78223C10.5114 63.1338 10.974 63.1133 11.1699 63.0723C11.4707 63.0176 11.7145 62.8854 11.9014 62.6758C12.0928 62.4616 12.1885 62.1768 12.1885 61.8213C12.1885 61.5205 12.1156 61.2653 11.9697 61.0557C11.8239 60.846 11.612 60.6934 11.334 60.5977C11.0605 60.502 10.4635 60.4541 9.54297 60.4541H7.90918Z" fill="#082E18"/>
<path d="M19.0146 64.8223V54.8008H21.038V64.8223H19.0146Z" fill="#082E18"/>
<path d="M25.6424 59.873C25.6424 58.8522 25.7951 57.9954 26.1004 57.3027C26.3283 56.7923 26.6382 56.3343 27.0301 55.9287C27.4266 55.5231 27.8595 55.2223 28.3289 55.0264C28.9533 54.762 29.6733 54.6299 30.4891 54.6299C31.9657 54.6299 33.146 55.0879 34.0301 56.0039C34.9188 56.9199 35.3631 58.1937 35.3631 59.8252C35.3631 61.443 34.9233 62.71 34.0438 63.626C33.1642 64.5374 31.9885 64.9932 30.5164 64.9932C29.0262 64.9932 27.8413 64.5397 26.9618 63.6328C26.0822 62.7214 25.6424 61.4681 25.6424 59.873ZM27.7274 59.8047C27.7274 60.9395 27.9894 61.8008 28.5135 62.3887C29.0376 62.972 29.703 63.2637 30.5096 63.2637C31.3162 63.2637 31.9771 62.9743 32.492 62.3955C33.0116 61.8122 33.2713 60.9395 33.2713 59.7773C33.2713 58.6289 33.0184 57.7721 32.5125 57.207C32.0112 56.6419 31.3436 56.3594 30.5096 56.3594C29.6756 56.3594 29.0034 56.6465 28.493 57.2207C27.9826 57.7904 27.7274 58.6517 27.7274 59.8047Z" fill="#082E18"/>
<path d="M39.5164 61.5615L41.4851 61.3701C41.6036 62.0309 41.8429 62.5163 42.2029 62.8262C42.5675 63.1361 43.0574 63.291 43.6726 63.291C44.3243 63.291 44.8142 63.1543 45.1423 62.8809C45.475 62.6029 45.6414 62.2793 45.6414 61.9102C45.6414 61.6732 45.5707 61.4727 45.4295 61.3086C45.2927 61.14 45.0512 60.9941 44.7048 60.8711C44.4679 60.7891 43.9278 60.6432 43.0847 60.4336C42.0001 60.1647 41.239 59.8343 40.8015 59.4424C40.1863 58.891 39.8787 58.2188 39.8787 57.4258C39.8787 56.9154 40.0222 56.4391 40.3093 55.9971C40.601 55.5505 41.018 55.2109 41.5603 54.9785C42.1072 54.7461 42.7657 54.6299 43.5359 54.6299C44.7937 54.6299 45.7393 54.9056 46.3728 55.457C47.0108 56.0085 47.3458 56.7445 47.3777 57.665L45.3543 57.7539C45.2677 57.2389 45.0808 56.8698 44.7937 56.6465C44.5112 56.4186 44.085 56.3047 43.5154 56.3047C42.9275 56.3047 42.4672 56.4255 42.1345 56.667C41.9203 56.8219 41.8132 57.0293 41.8132 57.2891C41.8132 57.526 41.9135 57.7288 42.114 57.8975C42.3692 58.1117 42.989 58.335 43.9734 58.5674C44.9578 58.7998 45.6847 59.0413 46.1541 59.292C46.628 59.5381 46.9972 59.8776 47.2615 60.3105C47.5304 60.7389 47.6648 61.2699 47.6648 61.9033C47.6648 62.4775 47.5053 63.0153 47.1863 63.5166C46.8673 64.0179 46.4161 64.3916 45.8328 64.6377C45.2494 64.8792 44.5225 65 43.6521 65C42.3852 65 41.4122 64.7083 40.7332 64.125C40.0541 63.5371 39.6485 62.6826 39.5164 61.5615Z" fill="#082E18"/>
<path d="M58.8591 61.1377L60.821 61.7598C60.5202 62.8535 60.0189 63.667 59.3171 64.2002C58.6198 64.7288 57.7334 64.9932 56.6579 64.9932C55.3272 64.9932 54.2334 64.5397 53.3766 63.6328C52.5199 62.7214 52.0915 61.4772 52.0915 59.9004C52.0915 58.2324 52.5221 56.9382 53.3835 56.0176C54.2448 55.0924 55.3773 54.6299 56.7809 54.6299C58.0068 54.6299 59.0026 54.9922 59.7682 55.7168C60.224 56.1452 60.5658 56.7604 60.7936 57.5625L58.7907 58.041C58.6722 57.5215 58.4238 57.1113 58.0456 56.8105C57.6719 56.5098 57.2162 56.3594 56.6784 56.3594C55.9356 56.3594 55.3317 56.626 54.8669 57.1592C54.4066 57.6924 54.1764 58.556 54.1764 59.75C54.1764 61.0169 54.4043 61.9193 54.86 62.457C55.3158 62.9948 55.9082 63.2637 56.6374 63.2637C57.1751 63.2637 57.6377 63.0928 58.0251 62.751C58.4124 62.4092 58.6904 61.8714 58.8591 61.1377Z" fill="#082E18"/>
<path d="M65.5826 64.8223V54.8008H67.6061V64.8223H65.5826Z" fill="#082E18"/>
<path d="M72.6206 64.8223V54.8008H80.0513V56.4961H74.6441V58.7178H79.6753V60.4062H74.6441V63.1338H80.2427V64.8223H72.6206Z" fill="#082E18"/>
<path d="M85.059 64.8223V54.8008H87.0278L91.1293 61.4932V54.8008H93.0092V64.8223H90.9789L86.9389 58.2871V64.8223H85.059Z" fill="#082E18"/>
<path d="M104.648 61.1377L106.61 61.7598C106.309 62.8535 105.808 63.667 105.106 64.2002C104.409 64.7288 103.522 64.9932 102.447 64.9932C101.116 64.9932 100.022 64.5397 99.1654 63.6328C98.3086 62.7214 97.8802 61.4772 97.8802 59.9004C97.8802 58.2324 98.3109 56.9382 99.1722 56.0176C100.034 55.0924 101.166 54.6299 102.57 54.6299C103.796 54.6299 104.791 54.9922 105.557 55.7168C106.013 56.1452 106.355 56.7604 106.582 57.5625L104.579 58.041C104.461 57.5215 104.213 57.1113 103.834 56.8105C103.461 56.5098 103.005 56.3594 102.467 56.3594C101.724 56.3594 101.12 56.626 100.656 57.1592C100.195 57.6924 99.9652 58.556 99.9652 59.75C99.9652 61.0169 100.193 61.9193 100.649 62.457C101.105 62.9948 101.697 63.2637 102.426 63.2637C102.964 63.2637 103.426 63.0928 103.814 62.751C104.201 62.4092 104.479 61.8714 104.648 61.1377Z" fill="#082E18"/>
<path d="M111.433 64.8223V54.8008H118.864V56.4961H113.456V58.7178H118.488V60.4062H113.456V63.1338H119.055V64.8223H111.433Z" fill="#082E18"/>
<path d="M19.7175 48.8843C28.21 40.575 38.7012 33.3774 50.1003 28.4502C50.2771 27.2559 50.3687 26.0339 50.3687 24.7905C50.3687 16.5078 46.3066 9.17383 40.0662 4.67188C34.3582 7.84351 27.855 10.8364 21.4238 12.8813C15.1816 14.8662 8.39697 16.1123 2.09253 16.8323C1.24634 19.3303 0.787598 22.0068 0.787598 24.7905C0.787598 36.4629 8.85474 46.2512 19.7175 48.8843Z" fill="#6DBF54"/>
<path d="M26.0586 49.5764C36.2681 49.3826 44.9668 43.0168 48.5798 34.0547C39.6829 37.2754 31.9094 42.8708 26.0586 49.5764Z" fill="#368C53"/>
<path d="M4.08838 12.4226C9.2605 12.3247 15.0818 11.4607 20.2041 9.83154C25.6521 8.09937 31.4089 5.38843 35.894 2.2417C32.7529 0.802246 29.2593 0 25.5781 0C16.3909 0 8.37085 4.9978 4.08838 12.4226Z" fill="#368C53"/>
<path d="M8.12819 41.6152C7.85003 43.1742 10.1124 44.1361 10.1124 44.1361C2.51833 45.8996 -0.232163 39.4074 2.35472 33.8628C6.20983 25.6 34.8019 23.3587 44.5049 8.91803C44.7708 8.52239 45.1099 6.93808 42.635 6.68249C46.6315 5.19707 46.0766 9.86028 45.9532 10.623C43.9211 23.1911 9.04633 36.4695 8.12819 41.6152Z" fill="white"/>
<path d="M8.12819 41.6152C7.85003 43.1742 10.1124 44.1361 10.1124 44.1361C2.51833 45.8996 -0.232163 39.4074 2.35472 33.8628C6.20983 25.6 34.8019 23.3587 44.5049 8.91803C44.7708 8.52239 45.1099 6.93808 42.635 6.68249C46.6315 5.19707 46.0766 9.86028 45.9532 10.623C43.9211 23.1911 9.04633 36.4695 8.12819 41.6152Z" fill="#368C53"/>
</svg>
