<svg width="207" height="35" viewBox="0 0 207 35" fill="none" xmlns="http://www.w3.org/2000/svg">
<path fill-rule="evenodd" clip-rule="evenodd" d="M137.011 9.51903V1.5L134.011 1.5V17.5H134.143C134.852 21.479 138.329 24.5 142.511 24.5C147.206 24.5 151.011 20.6944 151.011 16C151.011 11.3056 147.206 7.5 142.511 7.5C140.414 7.5 138.494 8.25974 137.011 9.51903ZM137.011 16C137.011 19.0376 139.474 21.5 142.511 21.5C145.549 21.5 148.011 19.0376 148.011 16C148.011 12.9624 145.549 10.5 142.511 10.5C139.474 10.5 137.011 12.9624 137.011 16Z" fill="#001A27"/>
<path d="M0.0112305 5.5H13.0112V8.5H3.01123L3.01123 18.5H3.03869C3.02055 18.6642 3.01123 18.831 3.01123 19C3.01123 21.4853 5.02595 23.5 7.51123 23.5C9.99651 23.5 12.0112 21.4853 12.0112 19C12.0112 16.5147 9.99651 14.5 7.51123 14.5C6.0976 14.5 4.83621 15.1518 4.01123 16.1713L4.01123 12.365C5.05609 11.8127 6.24714 11.5 7.51123 11.5C11.6534 11.5 15.0112 14.8579 15.0112 19C15.0112 23.1421 11.6534 26.5 7.51123 26.5C3.36909 26.5 0.0112305 23.1421 0.0112305 19C0.0112305 18.832 0.0167551 18.6653 0.0276327 18.5H0.0112305V5.5Z" fill="#001A27"/>
<path fill-rule="evenodd" clip-rule="evenodd" d="M173.011 30.5V22.481C174.494 23.7403 176.414 24.5 178.511 24.5C183.206 24.5 187.011 20.6944 187.011 16C187.011 11.3056 183.206 7.5 178.511 7.5C174.329 7.5 170.852 10.521 170.143 14.5H170.011V30.5H173.011ZM178.511 10.5C175.474 10.5 173.011 12.9624 173.011 16C173.011 19.0376 175.474 21.5 178.511 21.5C181.549 21.5 184.011 19.0376 184.011 16C184.011 12.9624 181.549 10.5 178.511 10.5Z" fill="#001A27"/>
<path fill-rule="evenodd" clip-rule="evenodd" d="M192.011 22.481V30.5H189.011V14.5H189.143C189.852 10.521 193.329 7.5 197.511 7.5C202.206 7.5 206.011 11.3056 206.011 16C206.011 20.6944 202.206 24.5 197.511 24.5C195.414 24.5 193.494 23.7403 192.011 22.481ZM192.011 16C192.011 12.9624 194.474 10.5 197.511 10.5C200.549 10.5 203.011 12.9624 203.011 16C203.011 19.0376 200.549 21.5 197.511 21.5C194.474 21.5 192.011 19.0376 192.011 16Z" fill="#001A27"/>
<path fill-rule="evenodd" clip-rule="evenodd" d="M44.0112 24.4871V27.5H47.0112V24.4871C47.1768 24.4957 47.3435 24.5 47.5112 24.5C52.7579 24.5 57.0112 20.2467 57.0112 15C57.0112 9.75329 52.7579 5.5 47.5112 5.5C47.3435 5.5 47.1768 5.50435 47.0112 5.51293V3.5H44.0112V5.51293C43.8456 5.50435 43.6789 5.5 43.5112 5.5C38.2645 5.5 34.0112 9.75329 34.0112 15C34.0112 20.2467 38.2645 24.5 43.5112 24.5C43.6789 24.5 43.8456 24.4957 44.0112 24.4871ZM47.5112 21.5C47.343 21.5 47.1763 21.4936 47.0112 21.4811V8.51894C47.1763 8.50639 47.343 8.5 47.5112 8.5C51.1011 8.5 54.0112 11.4101 54.0112 15C54.0112 18.5899 51.1011 21.5 47.5112 21.5ZM44.0112 8.51894C43.8462 8.50639 43.6795 8.5 43.5112 8.5C39.9214 8.5 37.0112 11.4101 37.0112 15C37.0112 18.5899 39.9214 21.5 43.5112 21.5C43.6795 21.5 43.8462 21.4936 44.0112 21.4811V8.51894Z" fill="#001A27"/>
<path d="M24.5112 10.5886C22.7545 7.67321 19.6212 5.68096 16.0112 5.51172V8.51643C19.9202 8.77372 23.0112 12.0259 23.0112 16C23.0112 19.9741 19.9202 23.2263 16.0112 23.4836V26.4883C19.6212 26.3191 22.7545 24.3268 24.5112 21.4114C26.2679 24.3268 29.4012 26.3191 33.0112 26.4883V23.4836C29.1022 23.2263 26.0112 19.9741 26.0112 16C26.0112 12.0259 29.1022 8.77372 33.0112 8.51643V5.51172C29.4012 5.68096 26.2679 7.67321 24.5112 10.5886Z" fill="#001A27"/>
<path d="M66.5306 5.5H59.2061V8.5H66.5306V5.5Z" fill="#001A27"/>
<path d="M66.5308 23.5H59.2061V26.5H66.5308C70.1206 26.4999 73.0307 23.5898 73.0307 20C73.0307 17.8884 72.0237 16.0119 70.4638 14.8246C71.4218 13.8348 72.0114 12.4862 72.0114 11C72.0114 7.96887 69.5593 5.51046 66.5306 5.5V8.5C67.9024 8.51043 69.0114 9.62573 69.0114 11C69.0114 12.3742 67.9025 13.4895 66.5308 13.4999L60.7656 13.5V16.5H66.5308C68.4637 16.5001 70.0307 18.067 70.0307 20C70.0307 21.933 68.4637 23.4999 66.5308 23.5Z" fill="#001A27"/>
<path d="M167.109 9.60301C165.613 8.29359 163.655 7.5 161.511 7.5C156.817 7.5 153.011 11.3056 153.011 16C153.011 20.6944 156.817 24.5 161.511 24.5C163.643 24.5 165.592 23.715 167.084 22.4184L165.132 20.1405C164.164 20.987 162.898 21.5 161.511 21.5C158.474 21.5 156.011 19.0376 156.011 16C156.011 12.9624 158.474 10.5 161.511 10.5C162.898 10.5 164.166 11.0135 165.133 11.8608L167.109 9.60301Z" fill="#001A27"/>
<path fill-rule="evenodd" clip-rule="evenodd" d="M120.011 17.5C120.011 26.8888 112.4 34.5 103.011 34.5C93.6224 34.5 86.0112 26.8888 86.0112 17.5C86.0112 8.11116 93.6224 0.5 103.011 0.5C112.4 0.5 120.011 8.11116 120.011 17.5ZM105.011 33.3762C112.904 32.392 119.011 25.6592 119.011 17.5C119.011 9.34076 112.904 2.60798 105.011 1.62379V2.61276C111.192 3.43534 116.185 8.01683 117.616 13.9836H112.873C112.249 11.1423 110.401 7.22217 105.083 6.22217V15.948H117.951C118.003 16.4582 118.03 16.9759 118.03 17.5C118.03 25.1166 112.36 31.4091 105.011 32.3872V33.3762ZM102.011 1.53074V2.51345C95.3361 2.95208 89.8518 7.75163 88.3804 14.0901H94.8484C95.6613 6.29223 101.438 6.0376 101.438 6.0376C101.438 6.0376 102.007 7.96273 102.011 10.1348V10.1848C102.008 11.5684 101.774 13.0467 101.016 14.188C99.8493 15.9453 97.8229 16.0213 95.9044 16.0031C95.3517 15.9978 94.9034 16.4417 94.9034 16.9944V18.0056C94.9034 18.5583 95.3518 19.0026 95.9044 18.9942C97.8551 18.9648 99.8145 19.0023 101.016 20.812C101.774 21.9533 102.008 23.4316 102.011 24.8152V24.8652C102.007 27.0373 101.438 28.9624 101.438 28.9624C101.438 28.9624 95.7051 28.7097 94.8579 20.9985H88.4012C89.903 27.293 95.3673 32.0499 102.011 32.4865V33.4693C93.6405 32.9531 87.0112 26.0007 87.0112 17.5C87.0112 8.99929 93.6405 2.04694 102.011 1.53074ZM105.083 28.7778V19.052H113.178C113.178 19.052 112.559 27.7778 105.083 28.7778Z" fill="#CB0205"/>
</svg>
