<svg width="183" height="48" viewBox="0 0 183 48" fill="none" xmlns="http://www.w3.org/2000/svg">
<path d="M64.6459 31.0109C62.7978 31.0109 61.1277 30.6125 59.6357 29.8156C58.1606 29.0187 56.9992 27.9251 56.1515 26.5348C55.3207 25.1276 54.9053 23.5508 54.9053 21.8044C54.9053 20.058 55.3207 18.4897 56.1515 17.0994C56.9992 15.6921 58.1606 14.5901 59.6357 13.7932C61.1277 12.9963 62.7978 12.5979 64.6459 12.5979C66.494 12.5979 68.1556 12.9963 69.6306 13.7932C71.1057 14.5901 72.2671 15.6921 73.1149 17.0994C73.9626 18.4897 74.3865 20.058 74.3865 21.8044C74.3865 23.5508 73.9626 25.1276 73.1149 26.5348C72.2671 27.9251 71.1057 29.0187 69.6306 29.8156C68.1556 30.6125 66.494 31.0109 64.6459 31.0109ZM64.6459 27.5013C65.6971 27.5013 66.6466 27.2639 67.4943 26.7892C68.3421 26.2975 69.0033 25.6193 69.4781 24.7546C69.9697 23.8899 70.2156 22.9065 70.2156 21.8044C70.2156 20.7023 69.9697 19.7189 69.4781 18.8542C69.0033 17.9895 68.3421 17.3198 67.4943 16.8451C66.6466 16.3534 65.6971 16.1075 64.6459 16.1075C63.5947 16.1075 62.6452 16.3534 61.7975 16.8451C60.9497 17.3198 60.28 17.9895 59.7883 18.8542C59.3136 19.7189 59.0762 20.7023 59.0762 21.8044C59.0762 22.9065 59.3136 23.8899 59.7883 24.7546C60.28 25.6193 60.9497 26.2975 61.7975 26.7892C62.6452 27.2639 63.5947 27.5013 64.6459 27.5013Z" fill="#A9A9A9"/>
<path d="M86.2795 30.0445C85.8896 30.3327 85.4064 30.5532 84.8299 30.7057C84.2704 30.8414 83.677 30.9092 83.0496 30.9092C81.422 30.9092 80.1588 30.4938 79.2602 29.663C78.3785 28.8322 77.9377 27.6115 77.9377 26.0007V20.3802H75.8268V17.3283H77.9377V13.9966H81.9052V17.3283H85.3131V20.3802H81.9052V25.9499C81.9052 26.5264 82.0493 26.9757 82.3375 27.2978C82.6427 27.603 83.0666 27.7556 83.6091 27.7556C84.2365 27.7556 84.7706 27.586 85.2114 27.2469L86.2795 30.0445Z" fill="#A9A9A9"/>
<path d="M88.6338 17.0231H92.6013V30.7057H88.6338V17.0231ZM90.6176 15.1157C89.8885 15.1157 89.2951 14.9037 88.8373 14.4799C88.3795 14.056 88.1506 13.5304 88.1506 12.9031C88.1506 12.2757 88.3795 11.7501 88.8373 11.3262C89.2951 10.9024 89.8885 10.6904 90.6176 10.6904C91.3466 10.6904 91.94 10.8939 92.3978 11.3008C92.8556 11.7077 93.0845 12.2164 93.0845 12.8268C93.0845 13.488 92.8556 14.039 92.3978 14.4799C91.94 14.9037 91.3466 15.1157 90.6176 15.1157Z" fill="#A9A9A9"/>
<path d="M104.396 12.9031C105.973 12.9031 107.338 13.1659 108.491 13.6915C109.661 14.2171 110.559 14.9631 111.187 15.9295C111.814 16.8959 112.128 18.0404 112.128 19.3629C112.128 20.6684 111.814 21.8129 111.187 22.7963C110.559 23.7627 109.661 24.5087 108.491 25.0343C107.338 25.543 105.973 25.7973 104.396 25.7973H100.81V30.7057H96.6903V12.9031H104.396ZM104.167 22.4402C105.405 22.4402 106.346 22.1774 106.99 21.6518C107.635 21.1092 107.957 20.3463 107.957 19.3629C107.957 18.3625 107.635 17.5996 106.99 17.074C106.346 16.5314 105.405 16.2601 104.167 16.2601H100.81V22.4402H104.167Z" fill="#A9A9A9"/>
<path d="M123.481 16.8196C125.177 16.8196 126.542 17.3283 127.576 18.3456C128.627 19.3629 129.153 20.8719 129.153 22.8726V30.7057H125.185V23.4829C125.185 22.3978 124.948 21.5925 124.473 21.0669C123.999 20.5243 123.312 20.253 122.413 20.253C121.413 20.253 120.616 20.5667 120.023 21.194C119.429 21.8044 119.132 22.72 119.132 23.9407V30.7057H115.165V11.8349H119.132V18.4473C119.658 17.9217 120.294 17.5233 121.04 17.252C121.786 16.9638 122.6 16.8196 123.481 16.8196Z" fill="#A9A9A9"/>
<path d="M138.395 16.8196C140.515 16.8196 142.142 17.3283 143.278 18.3456C144.414 19.3459 144.982 20.8634 144.982 22.898V30.7057H141.269V29.0018C140.523 30.2734 139.133 30.9092 137.098 30.9092C136.047 30.9092 135.131 30.7312 134.351 30.3751C133.588 30.0191 133.003 29.5274 132.597 28.9C132.19 28.2727 131.986 27.5606 131.986 26.7637C131.986 25.4921 132.461 24.4918 133.41 23.7627C134.377 23.0336 135.86 22.6691 137.861 22.6691H141.015C141.015 21.8044 140.752 21.1432 140.226 20.6854C139.701 20.2106 138.912 19.9733 137.861 19.9733C137.132 19.9733 136.411 20.0919 135.699 20.3293C135.004 20.5497 134.411 20.8549 133.919 21.2449L132.495 18.4728C133.241 17.9471 134.131 17.5402 135.165 17.252C136.216 16.9638 137.293 16.8196 138.395 16.8196ZM138.09 28.2388C138.768 28.2388 139.37 28.0862 139.896 27.781C140.421 27.4589 140.794 26.9926 141.015 26.3822V24.9835H138.293C136.666 24.9835 135.852 25.5175 135.852 26.5857C135.852 27.0943 136.047 27.5013 136.437 27.8064C136.844 28.0947 137.395 28.2388 138.09 28.2388Z" fill="#A9A9A9"/>
<path d="M152.489 18.8288C152.964 18.1676 153.6 17.6674 154.397 17.3283C155.211 16.9892 156.143 16.8196 157.194 16.8196V20.4819C156.754 20.448 156.457 20.431 156.304 20.431C155.168 20.431 154.278 20.7532 153.634 21.3975C152.99 22.0248 152.667 22.9743 152.667 24.2459V30.7057H148.7V17.0231H152.489V18.8288Z" fill="#A9A9A9"/>
<path d="M177.204 16.8196C178.916 16.8196 180.272 17.3283 181.273 18.3456C182.29 19.3459 182.799 20.8549 182.799 22.8726V30.7057H178.831V23.4829C178.831 22.3978 178.602 21.5925 178.145 21.0669C177.704 20.5243 177.068 20.253 176.237 20.253C175.305 20.253 174.567 20.5582 174.025 21.1686C173.482 21.762 173.211 22.6521 173.211 23.839V30.7057H169.243V23.4829C169.243 21.3297 168.379 20.253 166.649 20.253C165.734 20.253 165.005 20.5582 164.462 21.1686C163.919 21.762 163.648 22.6521 163.648 23.839V30.7057H159.681V17.0231H163.47V18.5999C163.979 18.0234 164.598 17.5826 165.327 17.2774C166.073 16.9722 166.887 16.8196 167.768 16.8196C168.735 16.8196 169.608 17.0146 170.388 17.4046C171.168 17.7776 171.795 18.3286 172.27 19.0577C172.829 18.3456 173.533 17.7946 174.381 17.4046C175.245 17.0146 176.186 16.8196 177.204 16.8196Z" fill="#A9A9A9"/>
<path d="M55.5225 35.8939H57.787C58.3282 35.8939 58.8053 35.9984 59.2183 36.2073C59.6361 36.4114 59.9589 36.701 60.1868 37.076C60.4194 37.4511 60.5357 37.8878 60.5357 38.3863C60.5357 38.8848 60.4194 39.3215 60.1868 39.6966C59.9589 40.0716 59.6361 40.3636 59.2183 40.5725C58.8053 40.7766 58.3282 40.8787 57.787 40.8787H55.5225V35.8939ZM57.73 39.9316C58.2285 39.9316 58.6249 39.7939 58.9192 39.5186C59.2183 39.2385 59.3678 38.861 59.3678 38.3863C59.3678 37.9116 59.2183 37.5365 58.9192 37.2612C58.6249 36.9811 58.2285 36.841 57.73 36.841H56.6761V39.9316H57.73Z" fill="#A9A9A9"/>
<path d="M68.6068 39.8105H66.2924L65.8509 40.8787H64.6688L66.8906 35.8939H68.03L70.2589 40.8787H69.0483L68.6068 39.8105ZM68.2436 38.9346L67.4532 37.0262L66.6627 38.9346H68.2436Z" fill="#A9A9A9"/>
<path d="M75.546 36.8339H73.9509V35.8939H78.2948V36.8339H76.6997V40.8787H75.546V36.8339Z" fill="#A9A9A9"/>
<path d="M85.9358 39.8105H83.6214L83.1799 40.8787H81.9978L84.2196 35.8939H85.3589L87.5878 40.8787H86.3773L85.9358 39.8105ZM85.5726 38.9346L84.7821 37.0262L83.9917 38.9346H85.5726Z" fill="#A9A9A9"/>
<path d="M100.255 35.8939C100.697 35.8939 101.079 35.9675 101.402 36.1147C101.729 36.2618 101.981 36.4707 102.156 36.7413C102.332 37.0119 102.42 37.3324 102.42 37.7027C102.42 38.0682 102.332 38.3887 102.156 38.664C101.981 38.9346 101.729 39.1435 101.402 39.2907C101.079 39.4331 100.697 39.5043 100.255 39.5043H99.2509V40.8787H98.0973V35.8939H100.255ZM100.191 38.5643C100.537 38.5643 100.801 38.4907 100.981 38.3436C101.162 38.1917 101.252 37.978 101.252 37.7027C101.252 37.4226 101.162 37.209 100.981 37.0618C100.801 36.9099 100.537 36.8339 100.191 36.8339H99.2509V38.5643H100.191Z" fill="#A9A9A9"/>
<path d="M110.407 40.8787L109.446 39.4901H108.385V40.8787H107.231V35.8939H109.389C109.83 35.8939 110.213 35.9675 110.535 36.1147C110.863 36.2618 111.115 36.4707 111.29 36.7413C111.466 37.0119 111.554 37.3324 111.554 37.7027C111.554 38.073 111.464 38.3934 111.283 38.664C111.107 38.9299 110.856 39.134 110.528 39.2764L111.646 40.8787H110.407ZM110.386 37.7027C110.386 37.4226 110.296 37.209 110.115 37.0618C109.935 36.9099 109.671 36.8339 109.325 36.8339H108.385V38.5715H109.325C109.671 38.5715 109.935 38.4955 110.115 38.3436C110.296 38.1917 110.386 37.978 110.386 37.7027Z" fill="#A9A9A9"/>
<path d="M118.87 40.9641C118.352 40.9641 117.884 40.8526 117.467 40.6294C117.054 40.4063 116.729 40.1001 116.491 39.7108C116.259 39.3168 116.142 38.8753 116.142 38.3863C116.142 37.8973 116.259 37.4582 116.491 37.0689C116.729 36.6749 117.054 36.3663 117.467 36.1432C117.884 35.92 118.352 35.8085 118.87 35.8085C119.387 35.8085 119.852 35.92 120.265 36.1432C120.678 36.3663 121.004 36.6749 121.241 37.0689C121.478 37.4582 121.597 37.8973 121.597 38.3863C121.597 38.8753 121.478 39.3168 121.241 39.7108C121.004 40.1001 120.678 40.4063 120.265 40.6294C119.852 40.8526 119.387 40.9641 118.87 40.9641ZM118.87 39.9814C119.164 39.9814 119.43 39.915 119.667 39.782C119.905 39.6444 120.09 39.4545 120.223 39.2123C120.36 38.9702 120.429 38.6949 120.429 38.3863C120.429 38.0777 120.36 37.8024 120.223 37.5603C120.09 37.3181 119.905 37.1306 119.667 36.9977C119.43 36.86 119.164 36.7912 118.87 36.7912C118.575 36.7912 118.309 36.86 118.072 36.9977C117.835 37.1306 117.647 37.3181 117.509 37.5603C117.377 37.8024 117.31 38.0777 117.31 38.3863C117.31 38.6949 117.377 38.9702 117.509 39.2123C117.647 39.4545 117.835 39.6444 118.072 39.782C118.309 39.915 118.575 39.9814 118.87 39.9814Z" fill="#A9A9A9"/>
<path d="M13.6286 3.01004C13.6286 2.50139 13.7643 2.23011 14.2729 2.02665C18.4438 0.229424 22.7843 -0.380954 27.2943 0.229424C29.6002 0.534614 31.8382 1.1789 33.9746 2.1962C36.7891 3.51868 39.2645 5.282 41.4008 7.55396C44.2153 10.538 46.1482 13.9968 47.1994 17.9643C48.0472 21.1857 48.2167 24.475 47.6742 27.7643C47.3012 30.0023 46.6908 32.1386 45.7074 34.1732C44.3849 36.9199 42.6555 39.3615 40.4174 41.4639C37.7046 44.0071 34.551 45.8722 30.9905 46.9573C27.4639 48.0085 23.9033 48.2798 20.275 47.7033C17.1213 47.1946 14.1373 46.1095 11.4245 44.414C8.71169 42.7185 6.3719 40.5483 4.50686 37.9372C2.50617 35.1227 1.14978 32.0369 0.471579 28.6459C-0.0709791 26.0009 -0.138799 23.356 0.23421 20.6771C0.573309 18.3712 1.18369 16.1332 2.16707 13.9968C3.11655 11.9622 4.33731 10.0972 5.76152 8.3678C5.96498 8.13043 6.23626 7.99479 6.54145 8.09652C6.84664 8.19825 6.94837 8.46953 6.94837 8.80863C6.94837 13.6917 6.98228 18.5408 6.91446 23.4238C6.88055 26.374 7.45702 29.1885 8.81341 31.8335C10.1359 34.4106 12.0349 36.513 14.4425 38.1407C16.8501 39.7684 19.495 40.7178 22.4113 40.9552C26.9213 41.3621 30.9566 40.1753 34.5171 37.3947C37.4334 35.0888 39.4001 32.1386 40.4174 28.5442C40.9261 26.7131 41.1635 24.848 41.0278 22.9491C40.7226 18.9477 39.2645 15.3871 36.5178 12.437C34.2458 9.99548 31.4991 8.33389 28.2438 7.52005C25.8362 6.90967 23.3947 6.80794 20.9532 7.24877C20.7158 7.28268 20.648 7.38441 20.648 7.62178C20.648 9.75811 20.648 11.8944 20.648 14.0647C20.648 14.4038 20.8175 14.4038 21.0549 14.4038C22.886 14.4038 24.7511 14.4038 26.5822 14.4038C27.2943 14.4038 27.4978 14.6072 27.4978 15.2854C27.4978 16.4723 27.4978 17.6591 27.4978 18.812C27.4978 19.4224 27.3621 19.6259 26.7518 19.7615C25.0902 20.2024 23.3947 20.6432 21.7331 21.084C21.5635 21.1179 21.394 21.2197 21.2244 21.2197C20.7158 21.2875 20.648 21.5588 20.6819 21.9996C20.7497 22.9151 20.648 23.8307 20.7836 24.7124C21.021 26.0688 21.9365 26.9504 23.259 27.2556C24.5815 27.5608 25.7345 27.1539 26.6161 26.1027C26.7857 25.8992 26.9213 25.6958 27.0569 25.4584C27.3282 24.9497 27.4978 24.8819 28.0742 25.0176C28.8881 25.221 29.668 25.4245 30.4818 25.6279C31.3974 25.8653 32.313 26.1366 33.2285 26.374C33.805 26.5435 33.9746 26.8148 33.7711 27.3913C33.1946 29.0189 32.2791 30.4431 30.9905 31.5622C28.3455 33.902 25.2597 34.7497 21.8009 33.9698C18.5456 33.2577 16.1719 31.3248 14.7137 28.3068C14.0016 26.8487 13.6964 25.3228 13.7304 23.6951C13.8008 16.7948 13.6286 9.91191 13.6286 3.01004Z" fill="#A9A9A9"/>
</svg>
