<svg width="36" height="36" viewBox="0 0 36 36" fill="none" xmlns="http://www.w3.org/2000/svg">
<path fill-rule="evenodd" clip-rule="evenodd" d="M35.9996 18.0002C35.9996 27.9412 27.9408 36 17.9998 36C8.05879 36 0 27.9412 0 18.0002C0 8.05921 8.05879 0.000427246 17.9998 0.000427246C27.9408 0.000427246 35.9996 8.05921 35.9996 18.0002ZM13.0623 14.4784H13.0816C14.0958 14.4784 14.7276 13.8067 14.7276 12.9661C14.7083 12.1083 14.0958 11.4544 13.1009 11.4544C12.1053 11.4544 11.4542 12.1083 11.4542 12.9661C11.4542 13.8067 12.0874 14.4784 13.0623 14.4784ZM19.0546 19.5374V24.4257H16.1457C16.1457 24.4257 16.1843 16.4948 16.1457 15.6742H19.0546V16.9151L19.0513 16.9198C19.0459 16.9275 19.0401 16.9358 19.0367 16.9426H19.0546V16.9151C19.4412 16.3184 20.1308 15.4682 21.6769 15.4682C23.5916 15.4682 25.0268 16.718 25.0268 19.4078V24.4257H22.1179V19.7434C22.1179 18.5666 21.6962 17.7639 20.6441 17.7639C19.8401 17.7639 19.3619 18.3055 19.1518 18.8284C19.0739 19.0151 19.0546 19.2762 19.0546 19.5374ZM14.537 24.4259H11.6267V15.6743H14.537V24.4259Z" fill="#A9A9A9"/>
</svg>
