<svg width="80" height="168" viewBox="0 0 80 168" fill="none" xmlns="http://www.w3.org/2000/svg">
<rect y="42" width="80" height="10" fill="white"/>
<path d="M62.8165 163.826C53.2145 169.391 37.5021 169.391 27.7547 163.826C18.0072 158.261 18.0072 149.036 27.6092 143.471C37.2112 137.906 52.9235 137.906 62.671 143.471C72.4185 149.036 72.4185 158.261 62.8165 163.826Z" fill="#EAEAEA"/>
<path d="M45.7368 144.484C45.7368 144.484 46.2075 144.325 46.3997 144.524C46.592 144.723 45.7964 145.651 45.7964 145.651C45.7964 145.651 45.6572 145.101 45.6572 145.081C45.6572 145.061 45.7368 144.484 45.7368 144.484Z" fill="#353D44"/>
<path d="M51.5648 144.538V140.063H45.9033V145.545L49.3175 149.205L54.0508 147.985C54.0508 147.985 53.6531 147.209 53.4807 146.971C52.8868 146.125 52.2472 145.313 51.5648 144.538Z" fill="#4C565E"/>
<path d="M45.1069 146.003V148.144C45.1069 149.119 47.2217 150.643 48.9122 151.134C48.9367 151.14 48.9624 151.141 48.9871 151.135C49.0118 151.13 49.0348 151.118 49.0543 151.102C49.0737 151.086 49.089 151.065 49.0989 151.042C49.1088 151.019 49.113 150.993 49.1111 150.968V150.464C49.875 150.779 50.602 151.177 51.2789 151.651C51.3651 151.711 51.4513 152.181 51.5374 152.241C52.7639 153.162 54.0301 153.945 55.0775 154.674C56.6089 155.735 59.5524 154.575 60.3214 154.243C60.3777 154.218 60.4253 154.177 60.4584 154.125C60.4914 154.073 60.5083 154.013 60.507 153.951V153.58L57.3912 153.66L52.0877 150.59L45.8362 146.904L45.7699 146.288L45.1069 145.996" fill="#2B343A"/>
<path d="M45.7375 144.485C45.6712 144.982 48.8467 147.687 50.5505 147.74C52.2542 147.793 53.1094 146.838 52.4133 145.565C52.705 145.665 54.7933 149.085 60.3686 153.037C60.4419 153.088 60.5018 153.157 60.5434 153.236C60.5849 153.316 60.6068 153.404 60.6073 153.494C60.608 153.549 60.5918 153.602 60.561 153.647C60.5301 153.692 60.4861 153.727 60.4349 153.746C59.7189 154.024 56.9213 154.992 55.3899 153.925C53.6199 152.692 50.809 150.464 49.1119 150.053C47.4148 149.642 45.1011 148.025 45.1011 147.01V145.525C45.0944 145.309 45.1511 145.095 45.2641 144.91C45.3772 144.725 45.5417 144.577 45.7375 144.485Z" fill="#3E454C"/>
<path d="M52.6451 146.526C52.7455 146.36 52.8004 146.17 52.8042 145.976C52.6952 145.816 52.5634 145.674 52.4131 145.552C52.5887 145.845 52.6697 146.185 52.6451 146.526Z" fill="#353D44"/>
<path d="M55.5491 153.461C53.779 152.228 50.9682 150 49.271 149.589C47.5739 149.178 45.2603 147.561 45.2603 146.546V145.061C45.2563 145.006 45.2563 144.951 45.2603 144.896C45.1487 145.084 45.0892 145.299 45.0879 145.519V147.004C45.0879 148.018 47.4015 149.656 49.0987 150.047C50.7958 150.438 53.6 152.698 55.3767 153.918C56.9147 154.986 59.7057 154.018 60.4217 153.739C60.4729 153.72 60.5169 153.686 60.5477 153.641C60.5786 153.595 60.5948 153.542 60.594 153.487C60.5934 153.419 60.5799 153.352 60.5543 153.288C59.8317 153.58 57.0738 154.522 55.5491 153.461Z" fill="#353D44"/>
<path d="M48.5615 147.189C48.5615 147.189 50.6763 145.306 52.7977 145.313C53.5864 146.216 54.2062 147.253 54.6274 148.376C53.8034 149.015 52.8619 149.486 51.8563 149.761L48.5615 147.189Z" fill="#353D44"/>
<path d="M31.9019 149.602C32.1339 149.206 32.3884 148.823 32.6642 148.455C33.2211 147.68 37.623 148.131 37.623 148.131C37.623 148.131 38.107 149.178 38.1666 149.231C38.2263 149.284 38.5379 152.546 38.5379 152.546L33.7051 153.693L32.0477 151.956L31.9019 149.602Z" fill="#4C565E"/>
<path d="M31.7959 150.093L31.6699 154.336L32.2533 154.773V158.545C32.2533 158.545 32.5914 162.006 33.0555 162.941C33.1769 163.27 33.3831 163.561 33.6532 163.784C33.9233 164.008 34.2477 164.156 34.5935 164.213C35.6012 164.499 37.8286 164.876 39.6119 163.312C39.6664 162.616 39.5876 161.916 39.3799 161.25C39.1744 160.833 35.3691 160.899 35.3691 160.899L32.008 151.585L31.7959 150.093Z" fill="#2B343A"/>
<path d="M38.1995 148.15C38.9354 152.254 40.0889 161.893 39.5254 162.49C39.4326 163.113 37.4968 164.101 36.1245 163.816C35.3688 163.663 33.718 163.385 33.1148 162.191C32.6176 160.939 32.3192 154.939 32.2994 153.666C32.1668 151.492 31.0597 150.491 32.2065 148.601C32.6573 148.303 31.7756 156.205 35.9389 155.947C39.7309 155.754 37.6426 147.952 37.6426 147.952L38.1995 148.15Z" fill="#3E454C"/>
<path d="M36.3371 162.715C35.5813 162.563 33.9306 162.285 33.3273 161.091C32.8301 159.838 32.5318 153.839 32.5119 152.566C32.4257 151.114 31.902 150.179 31.9086 149.158C31.2457 150.71 32.1672 151.717 32.2865 153.666C32.2865 154.939 32.6113 160.959 33.1019 162.192C33.6986 163.385 35.3559 163.657 36.1117 163.816C37.4839 164.094 39.4263 163.107 39.5125 162.49C39.6414 162.201 39.6939 161.884 39.665 161.569C39.2739 162.178 37.5767 162.967 36.3371 162.715Z" fill="#353D44"/>
<path d="M38.1403 153.196C38.6442 151.691 38.379 149.503 38.1403 148.131L37.6299 147.958C38.0711 149.667 38.2433 151.434 38.1403 153.196Z" fill="#353D44"/>
<path d="M33.7907 156.795C35.2749 156.688 36.7515 156.494 38.2125 156.212C38.3422 154.695 38.3754 153.172 38.312 151.651C36.3917 151.515 34.462 151.676 32.5908 152.128C32.7879 153.729 33.1912 155.298 33.7907 156.795Z" fill="#353D44"/>
<path d="M38.1996 149.079C38.1466 149.026 37.656 147.965 37.656 147.965C37.656 147.965 33.2143 147.508 32.6508 148.29C32.3725 148.661 32.1158 149.049 31.8818 149.45C32.9889 150.835 36.9798 151.24 38.2858 149.675C38.2697 149.475 38.2409 149.276 38.1996 149.079Z" fill="#424C54"/>
<path d="M51.5648 144.538L51.7571 139.824H45.9033V144.418C50.6367 146.374 51.5648 144.538 51.5648 144.538Z" fill="#424C54"/>
<path d="M42.6344 56.0086C35.13 60.3973 42.3361 94.3995 44.7094 107.718C43.7681 111.57 45.1271 117.297 45.3392 124.47C45.5713 132.525 45.0011 142.966 45.0011 142.966C46.2607 143.775 50.8217 146.148 52.2935 142.907C52.2935 142.907 54.0768 118.458 54.1762 110.695C56.148 95.4453 56.8134 80.0556 56.165 64.6932C55.3496 60.9409 49.1113 52.2233 42.6344 56.0086Z" fill="#353D44"/>
<path d="M56.0983 64.6666C55.3691 61.0469 49.469 52.7204 43.1909 55.7036C48.7994 54.7291 53.7449 61.9087 54.4609 65.1969C55.1091 80.5593 54.4438 95.9491 52.4721 111.198C52.3726 118.961 50.5893 143.41 50.5893 143.41C50.4013 143.856 50.0995 144.245 49.7142 144.537C50.26 144.557 50.7986 144.409 51.2581 144.114C51.7177 143.819 52.0764 143.391 52.2864 142.887C52.2864 142.887 54.0697 118.438 54.1692 110.675C56.1214 95.4215 56.7668 80.0295 56.0983 64.6666Z" fill="#2B3238"/>
<path d="M47.4408 72.6683C47.4408 72.6683 43.6951 69.6387 39.333 69.7514C39.6645 82.0423 43.1847 99.1461 44.7094 107.691C43.7681 111.543 45.1271 117.271 45.3392 124.444C45.5713 132.499 45.0011 142.94 45.0011 142.94C45.6913 143.37 46.4218 143.732 47.1822 144.02L46.8905 114.579C46.8905 114.579 49.2904 93.763 47.4408 72.6683Z" fill="#2B3238"/>
<path d="M47.3283 72.7941C46.6808 72.2292 45.9842 71.7234 45.2466 71.2826C43.4358 70.2885 41.4055 69.7621 39.3398 69.7512C39.6713 82.0421 43.1915 99.1459 44.7163 107.691C44.3909 109.3 44.2972 110.948 44.4378 112.584C45.3328 106.909 47.726 90.0372 47.3283 72.7941Z" fill="#242B30"/>
<path d="M34.5207 70.1357C27.0162 74.5244 31.5308 101.294 32.8832 114.553C31.3054 117.417 32.3927 123.635 32.4722 129.396C32.5849 137.411 31.4844 147.958 31.4844 147.958C31.5905 150.166 38.3061 150.928 38.5911 147.892L42.0583 114.42C42.0583 114.42 46.7917 94.0082 47.3618 72.8405C47.3419 72.7941 40.9976 66.3504 34.5207 70.1357Z" fill="#353D44"/>
<path d="M45.949 71.6141C45.1406 85.6821 43.2142 99.6634 40.1881 113.426L36.2701 148.674C36.2269 149.111 36.0404 149.521 35.7397 149.841C37.185 149.742 38.4777 149.145 38.597 147.852L42.0642 114.38C42.0642 114.38 46.7976 93.9684 47.3677 72.8008C46.9228 72.373 46.4487 71.9765 45.949 71.6141Z" fill="#2B3238"/>
<g style="mix-blend-mode:multiply" opacity="0.2">
<path d="M56.3638 76.0692C56.3638 71.2231 56.2245 67.5239 56.145 65.376L55.9461 64.0501C54.6666 60.0725 48.7598 52.4553 42.6277 56.0418C40.0555 57.5467 39.2135 62.5452 39.313 68.989C37.6311 68.8937 35.9592 69.3047 34.5133 70.169C32.1333 71.5612 30.9666 75.214 30.5356 79.9673C33.0349 81.565 37.828 81.3727 42.0973 80.9418C46.7114 80.4512 53.8313 78.5618 56.3638 76.0692Z" fill="#2F373D"/>
</g>
<path d="M61.6079 75.9699C61.6079 75.9699 61.5084 72.9933 61.3228 72.0254C60.935 71.2422 60.6711 70.4035 60.5405 69.5394C60.5405 69.3471 56.7883 49.4722 56.7883 49.4722L55.7143 27.4294C55.7143 25.7124 55.5618 23.4518 53.8382 23.3921C52.1146 23.3325 51.0472 23.5247 51.0141 25.2418L50.5434 49.691V49.797C50.5389 50.0389 50.5701 50.2802 50.6362 50.513L57.0535 72.4695C57.0535 73.4573 56.9474 74.5711 57.0535 78.436C57.1595 82.3009 59.4732 81.1806 59.7583 80.6767C60.6532 78.6017 61.6079 75.9699 61.6079 75.9699Z" fill="#EBC7AD"/>
<path d="M61.0307 71.3226C60.7943 70.7529 60.6295 70.1562 60.5401 69.5459C60.5401 69.3537 56.7879 49.4788 56.7879 49.4788L55.7139 27.4294C55.7876 26.39 55.6338 25.3471 55.2631 24.3732C55.0269 24.0769 54.7676 23.7998 54.4875 23.5446C54.2805 23.4453 54.0541 23.3932 53.8245 23.3921C52.1075 23.3921 51.0336 23.5247 51.0004 25.2417L50.5297 49.6909V49.797C50.5252 50.0389 50.5565 50.2802 50.6225 50.5129L56.8939 71.9855C57.5914 72.1718 58.3202 72.2091 59.033 72.0949C59.7457 71.9807 60.4264 71.7175 61.0307 71.3226Z" fill="#EFB497"/>
<path d="M56.3246 70.3481C59.752 71.2762 61.3232 69.5658 61.3232 69.5658L57.4251 49.2069C57.4251 49.2069 58.2869 32.5141 56.8483 26.2759C55.6948 21.2574 51.6244 20.4884 51.6244 20.4884C49.2047 20.4884 49.0986 23.0672 49.1185 25.487L50.0267 50.4002L56.3246 70.3481Z" fill="#555555"/>
<path d="M56.8748 71.3489C56.8748 67.0266 54.6009 58.6868 54.4153 50.8442C54.2098 42.226 56.8748 35.6297 54.3689 29.0269C53.1623 25.8713 51.505 18.3801 46.9241 20.1965C43.3309 21.7345 41.1565 21.6218 39.5257 22.5566C34.8851 27.701 30.629 26.2094 27.9441 31.0555C24.5631 36.7369 29.5816 48.8753 34.2222 60.1983C34.2222 62.2865 31.0069 66.1316 28.7065 74.5774C28.4214 79.7616 35.674 78.7473 41.8725 78.1242C47.2688 77.5805 56.0992 74.4979 56.8748 71.3489Z" fill="#EAEAEA"/>
<path d="M44.8285 31.5196L44.1655 35.9547L47.4471 54.2386L47.6128 55.7766L47.6857 56.2009L47.8979 55.3258L48.8923 44.7585L48.3951 34.304L45.4384 31.3738L44.8285 31.5196Z" fill="#001A27"/>
<path d="M42.8394 30.3133C42.8394 30.3133 43.3233 31.9375 44.0459 32.0767C44.4956 32.08 44.9395 31.9758 45.3408 31.7728C45.742 31.5699 46.0891 31.2741 46.3529 30.91C46.5319 30.4061 46.638 29.1532 46.4457 28.9212C46.2535 28.6891 45.1994 28.7422 45.1994 28.7422L44.6094 28.8747C44.6094 28.8747 42.8924 29.9354 42.8858 29.9819C42.8791 30.0283 42.8394 30.3133 42.8394 30.3133Z" fill="#001A27"/>
<path d="M46.4791 30.0678C46.215 30.4332 45.867 30.7299 45.4644 30.9329C45.0618 31.136 44.6163 31.2394 44.1654 31.2346C43.655 31.1351 43.2572 30.2799 43.0716 29.8026C42.9913 29.8479 42.9158 29.9012 42.8462 29.9617C42.8462 30.0148 42.8462 30.3131 42.8462 30.3131C42.8462 30.3131 43.3301 31.9373 44.0527 32.0765C44.5014 32.0792 44.9442 31.9748 45.3443 31.7718C45.7444 31.5689 46.0903 31.2733 46.3531 30.9097C46.4526 30.5776 46.5127 30.2349 46.5321 29.8888C46.5122 29.9551 46.499 30.0148 46.4791 30.0678Z" fill="#343C42"/>
<path d="M46.817 75.9101C47.4822 78.6598 48.7177 81.2391 50.4432 83.4809C50.4432 83.4809 56.2837 81.7771 57.8615 78.3298C57.8615 78.3298 54.9114 53.9801 55.2827 50.8444C55.6539 47.7087 56.2572 32.4213 55.2827 26.7333C54.1093 19.905 49.0908 19.6 47.0225 19.6067C44.9541 19.6133 45.9684 22.9877 45.9684 22.9877L48.3682 27.31L49.4687 32.7925L49.7339 40.2572L48.587 48.9749L47.9705 53.8011L47.7583 55.9954L47.5793 56.5191L46.2535 62.4856L46.817 75.9101Z" fill="#555555"/>
<path d="M47.6661 56.4331V56.327L47.5998 56.5193L46.2739 62.4857L46.8242 75.8771C47.361 78.1013 48.2686 80.2192 49.5091 82.1419C50.0991 72.3237 47.6661 56.4331 47.6661 56.4331Z" fill="#363E44"/>
<path d="M47.6661 56.4329C47.6661 56.4329 50.3179 30.1474 46.3999 25.4405L44.2852 22.1722C46.9979 22.9829 49.375 24.6506 51.0604 26.9255L49.2307 29.027L51.6504 29.9883C51.6504 29.9883 48.2098 55.7766 47.6661 56.4329Z" fill="#7F7F7F"/>
<path d="M47.6664 56.4329C47.6664 56.4329 48.3691 76.2084 45.8765 85.1382C44.8224 86 35.0374 88.6186 27.9771 85.1382C27.9771 85.1382 28.1628 72.2507 29.6278 69.4265C31.0929 66.6024 33.758 60.9277 33.0486 59.1775C32.3393 57.4273 28.0501 48.6832 28.0501 48.6832L27.1021 28.4436C27.1021 28.4436 29.2102 26.0372 38.7897 21.8938L37.5367 24.5456L36.8738 27.0316L40.931 35.7691L44.829 42.9222L47.1758 52.389L47.4477 53.4232L47.6664 56.4329Z" fill="#555555"/>
<path opacity="0.3" d="M32.4319 57.8185L33.307 37.0155C33.5125 31.9373 31.8883 29.7231 30.9336 28.669C30.2044 27.847 28.6796 27.6547 27.4333 28.1254C27.3146 28.2249 27.2017 28.3311 27.0952 28.4436L28.03 48.6898C28.03 48.6898 31.0331 54.7955 32.4319 57.8185Z" fill="#001A27"/>
<path d="M10.356 107.095V89.6265L33.0484 102.726V120.195L10.356 107.095Z" fill="#33BCA6"/>
<path d="M10.356 89.6265L17.9201 85.2577L40.6125 98.3574L33.0484 102.726L10.356 89.6265Z" fill="#6FD8C6"/>
<path d="M40.1413 98.0921L32.1993 102.726V113.684L10.8262 102.149V89.8982L18.6489 85.6819L40.1413 98.0921Z" fill="#6FD8C6"/>
<path d="M32.1993 113.684V102.726L10.8262 89.8981V102.149L32.1993 113.684Z" fill="#48CDB7"/>
<path d="M40.6125 98.3572V115.826L33.0483 120.194V102.726L40.6125 98.3572Z" fill="#33BCA6"/>
<path d="M22.0503 93.0469V91.2305C22.0534 91.014 22.113 90.8022 22.2234 90.6159C22.3338 90.4297 22.491 90.2757 22.6794 90.1691C22.8678 90.0625 23.0808 90.007 23.2972 90.0083C23.5137 90.0096 23.726 90.0676 23.9132 90.1764L26.9295 91.9C27.5326 92.2482 28.0338 92.7487 28.3828 93.3513C28.7318 93.9539 28.9165 94.6376 28.9183 95.3341V96.9914" stroke="#555555" stroke-width="1.71" stroke-miterlimit="10" stroke-linecap="round"/>
<path d="M26.2263 33.8664C25.7623 35.7823 25.338 37.7048 24.9005 39.6207L23.6144 45.3949C23.1835 47.3175 22.8056 49.2466 22.4012 51.1758L21.2212 56.9632V57.056C21.1839 57.2393 21.1661 57.4259 21.1681 57.6129L21.2941 64.7859C21.3471 67.1791 21.3803 69.5657 21.4532 71.9589L21.6587 79.1319C21.7515 81.5251 21.8244 83.9117 21.9371 86.3049C21.9647 86.8988 22.2264 87.4576 22.665 87.8589C23.1036 88.2602 23.6833 88.4714 24.2773 88.4462C25.4374 88.3932 25.7755 86.9546 25.8418 85.7944C25.9678 83.4012 26.6241 81.5119 26.7302 79.1187L26.9755 71.9456C27.0683 69.5524 27.1081 67.1659 27.1744 64.7726L27.36 57.5996L27.2871 58.2626L28.6129 52.5016C29.0438 50.5791 29.4946 48.6632 29.899 46.7341L31.1387 40.9599C31.5299 39.0307 31.9409 37.1016 32.3121 35.1724C32.4594 34.3765 32.2913 33.5546 31.8432 32.8805C31.3952 32.2065 30.7024 31.7332 29.9116 31.5609C29.1208 31.3886 28.294 31.5308 27.6061 31.9574C26.9183 32.384 26.4235 33.0615 26.2263 33.8465V33.8664Z" fill="#FFCBAE"/>
<path d="M21.9778 86.5967C21.9778 86.5967 21.759 91.3699 22.3689 92.6759C22.9788 93.9819 24.8351 94.5188 26.1145 94.5785C26.4688 94.6029 26.8221 94.5182 27.1268 94.3356C27.4314 94.1531 27.6727 93.8815 27.8183 93.5576C27.4006 92.3444 25.73 91.6284 25.8626 89.58C25.8162 88.3204 26.2803 89.0098 26.2538 89.2816C26.2991 89.9168 26.5143 90.5282 26.8769 91.0517C27.215 91.3367 27.3874 91.2439 27.4006 90.0307C27.4695 89.219 27.4383 88.4019 27.3078 87.5978C27.1355 86.6962 26.2405 86.6299 26.0748 85.715C25.9772 85.1535 25.9772 84.5794 26.0748 84.0179L21.8452 83.9847C22.0874 84.834 22.1328 85.7273 21.9778 86.5967Z" fill="#EBC7AD"/>
<path d="M23.5416 86.5105C24.4611 86.6652 25.4055 86.5572 26.2663 86.199C26.1674 86.0531 26.0997 85.8883 26.0674 85.715C25.9699 85.1535 25.9699 84.5794 26.0674 84.0179L21.8379 83.9847C22.0072 84.5837 22.0789 85.206 22.05 85.8277C22.4904 86.1631 23 86.3964 23.5416 86.5105Z" fill="#EFB497"/>
<path d="M21.467 84.7007C21.7852 84.4952 22.2824 85.3637 23.542 85.609C24.6955 85.8344 26.6247 85.4764 26.7904 84.7803C27.3407 82.2943 27.3473 57.9511 27.3473 57.9511L32.6508 37.1348C33.9038 32.2092 32.7701 29.7232 32.0608 28.4769C31.1526 26.8792 27.6854 26.5278 26.5982 28.6824C24.2779 33.3892 19.876 54.7027 19.876 54.7027C19.876 54.7027 21.1554 83.9582 21.467 84.7007Z" fill="#555555"/>
<path d="M32.0942 28.4767C31.8081 28.0781 31.4307 27.754 30.9935 27.5314C30.5563 27.3088 30.0722 27.1942 29.5816 27.1972C29.9282 27.3979 30.2162 27.6859 30.4169 28.0325C31.1263 29.3584 32.2599 31.924 30.9539 37.075L25.4051 58.8526C25.4051 58.8526 25.2526 79.8876 24.7886 85.6552C25.7432 85.5756 26.678 85.2574 26.7774 84.7801C27.3276 82.2941 27.3343 57.951 27.3343 57.951L32.6378 37.1347C33.9371 32.209 32.8035 29.723 32.0942 28.4767Z" fill="#2E353A" fill-opacity="0.3"/>
<path d="M37.9279 24.0881C34.2221 27.9862 49.1647 38.58 47.6665 56.4329C47.6665 56.4329 46.102 43.4857 38.7367 37.6121L39.5985 34.5891H36.9468C36.9136 33.7008 35.369 25.3875 37.9279 24.0881Z" fill="#7F7F7F"/>
<path d="M37.9275 24.0881C36.1575 25.1621 37.4038 30.154 42.5681 32.7925C42.5681 32.7925 42.6477 29.7496 44.8221 28.8149C42.2433 28.8348 37.4303 26.183 37.9275 24.0881Z" fill="white"/>
<path d="M44.8281 28.8082C44.8281 28.8082 46.154 28.5165 47.0689 30.3131C47.7318 29.1993 47.7318 26.9453 46.5982 25.8846C46.8899 26.9984 46.9098 28.0922 44.8281 28.8082Z" fill="white"/>
<path d="M61.3228 76.0227C60.9118 76.6857 59.5196 76.1089 59.6655 73.7555C59.0622 75.4858 60.2555 77.879 61.3228 76.0227Z" fill="#E5AC8F"/>
<path d="M38.3515 18.9503C38.3821 21.3858 38.1082 23.8155 37.5361 26.183C39.1139 28.6955 45.8958 30.2667 46.9234 27.3829C46.9234 27.3829 46.6449 24.8107 47.7122 22.981C48.7796 21.1513 38.3515 18.9503 38.3515 18.9503Z" fill="#EBC7AD"/>
<path d="M38.3511 18.9503C38.3511 18.9503 38.3511 19.6133 38.3511 20.6938C39.1577 22.3283 40.3698 23.7288 41.8715 24.7617C43.3733 25.7946 45.1147 26.4254 46.9295 26.594C46.8975 25.342 47.1801 24.102 47.7516 22.9876C48.8056 21.1513 38.3511 18.9503 38.3511 18.9503Z" fill="black" fill-opacity="0.1"/>
<path d="M49.5621 5.4528C50.8348 7.80733 51.5514 10.4221 51.657 13.0965C51.5045 13.6268 52.4061 14.6411 52.1873 16.8554C52.0282 18.4597 51.7034 21.7213 51.5244 23.3853C51.497 23.685 51.3719 23.9674 51.1683 24.1891C50.9646 24.4107 50.6938 24.5592 50.3974 24.6117C47.1755 25.1819 42.0245 25.5067 38.2524 20.3954C38.2524 20.3954 36.4425 18.274 35.6006 18.0089C34.7587 17.7437 31.4639 13.5407 31.4639 10.1398C31.4639 6.53339 33.4527 1.06414 40.8577 1.06414C42.558 1.02079 44.2427 1.39884 45.7614 2.16459C47.2802 2.93033 48.5859 4.05997 49.5621 5.4528Z" fill="#EBC7AD"/>
<path d="M51.6564 13.0964C51.5509 10.422 50.8343 7.80727 49.5615 5.45273C49.1971 4.91939 48.7722 4.42999 48.2953 3.99426C48.4743 4.23292 48.5671 4.37877 48.5671 4.37877C49.8422 6.73275 50.5611 9.34751 50.6687 12.0225C50.5162 12.5528 51.4178 13.5671 51.199 15.7813C51.0399 17.3856 50.7151 20.6473 50.5361 22.3113C50.5087 22.611 50.3836 22.8934 50.1799 23.115C49.9763 23.3366 49.7054 23.4852 49.4091 23.5377C46.5584 24.0415 42.1963 24.3465 38.623 20.886C42.3554 25.5265 47.281 25.2017 50.4035 24.6514C50.6998 24.5989 50.9707 24.4504 51.1743 24.2288C51.378 24.0072 51.5031 23.7247 51.5305 23.425C51.6962 21.761 52.021 18.4994 52.1934 16.8951C52.4122 14.6411 51.504 13.6268 51.6564 13.0964Z" fill="black" fill-opacity="0.1"/>
<g style="mix-blend-mode:multiply" opacity="0.4">
<path d="M37.1127 15.6356C35.7205 14.1837 33.9571 15.4301 35.1239 17.1537C35.3692 17.525 35.9128 17.7437 36.105 18.0818C36.2111 18.2741 36.3172 18.4332 36.4166 18.5857C36.7502 18.8695 37.0688 19.1705 37.3713 19.4873C37.5407 19.5404 37.7226 19.5383 37.8907 19.4811C38.0588 19.4238 38.2042 19.3145 38.306 19.169L37.1127 15.6356Z" fill="#D39779"/>
</g>
<path d="M38.1998 15.7086C37.3247 13.8987 35.2629 14.5352 35.8132 16.5306C35.9325 16.9615 36.3767 17.3328 36.4761 17.7173C36.8606 19.6464 37.57 19.8254 38.2395 19.4343" fill="#EAB18B"/>
<path d="M40.1883 11.3664C40.1883 11.3664 38.6039 15.7683 38.9884 17.2666C38.4117 17.5185 38.0404 15.5827 37.099 15.6358C36.1577 15.6888 36.9466 16.8887 36.9466 16.8887L38.2724 19.9183L38.1995 22.0795C37.1322 20.8796 30.284 15.9274 30.9072 8.84725C31.053 6.68607 33.0684 5.18783 33.7181 5.7911C34.3677 6.39438 40.1883 11.3664 40.1883 11.3664Z" fill="#60554F"/>
<path d="M32.1335 6.46718C31.8485 4.16015 34.7323 0.321731 40.1883 0.0167787C45.6442 -0.288173 46.2674 3.68946 49.4694 1.74705C49.4694 1.74705 51.9488 4.71702 50.3047 7.6008C50.3047 7.6008 44.3383 9.43052 42.8599 10.3918C41.3815 11.353 40.3341 11.9497 39.5982 11.3663C38.8624 10.7829 33.771 7.97205 33.771 7.97205L32.1335 6.46718Z" fill="#60554F"/>
<path d="M46.9566 63.9637C47.3447 63.9637 47.6593 63.5215 47.6593 62.9759C47.6593 62.4304 47.3447 61.9882 46.9566 61.9882C46.5685 61.9882 46.2539 62.4304 46.2539 62.9759C46.2539 63.5215 46.5685 63.9637 46.9566 63.9637Z" fill="#31393F"/>
</svg>
