<svg width="80" height="168" viewBox="0 0 80 168" fill="none" xmlns="http://www.w3.org/2000/svg">
<rect y="42" width="80" height="10" fill="white"/>
<path d="M57.3003 163.737C47.4922 169.421 31.4428 169.421 21.4861 163.737C11.5295 158.053 11.5295 148.629 21.3375 142.944C31.1456 137.26 47.195 137.26 57.1516 142.944C67.1083 148.629 67.1083 158.053 57.3003 163.737Z" fill="#EAEAEA"/>
<g clip-path="url(#clip0)">
<path d="M55.2727 69.8821C55.2727 69.8821 56.1519 73.8239 55.9734 74.3298L54.5984 80.9521C54.5811 81.0134 54.5484 81.0693 54.5033 81.1146C54.4582 81.1598 54.4022 81.1929 54.3407 81.2106C54.2791 81.2284 54.214 81.2303 54.1516 81.216C54.0891 81.2018 54.0313 81.172 53.9837 81.1294L52.0864 79.4936L52.6748 69.9084H55.2793L55.2727 69.8821Z" fill="#EAB18B"/>
<path d="M52.4101 59.548C52.4101 59.548 53.686 66.1177 55.2725 69.8822C54.8626 70.8479 53.2166 76.7541 52.8861 75.7555C50.7509 69.3434 48.2124 63.4307 48.2124 63.4307L52.4101 59.548Z" fill="#EAB18B"/>
<path d="M55.3519 77.3519C54.9751 77.3519 54.4991 75.0722 54.4991 74.1721C54.4991 74.1656 54.3273 78.2979 55.3519 77.3519Z" fill="#D1916D"/>
<path d="M44.1933 50.081C44.1681 49.9666 44.1548 49.8499 44.1537 49.7328C44.0016 47.5911 42.7853 26.8439 43.01 24.9847C43.2943 22.613 44.4115 20.307 46.9103 20.3859C48.8935 20.4516 51.5773 23.4277 51.6567 27.133C51.736 30.8383 50.8105 48.5831 50.7642 49.562C50.7642 49.562 54.962 65.1651 55.0215 66.9718C54.2546 69.0741 50.2949 69.8822 50.2949 69.8822L44.1933 50.081Z" fill="#F5F5F5"/>
<path d="M50.7642 49.562C50.7642 48.5765 51.6896 30.8449 51.6103 27.1395C51.5442 23.9729 49.561 21.345 47.7563 20.6027C49.3803 22.1929 50.327 24.3428 50.4006 26.6074C50.5196 30.5032 49.8056 49.1284 49.7924 50.1598C49.7924 50.1598 53.7588 65.0797 54.2083 68.128C54.5827 67.8185 54.8735 67.4211 55.0544 66.9718C54.9751 65.1651 50.7642 49.562 50.7642 49.562Z" fill="black" fill-opacity="0.12"/>
<path d="M35.6192 22.8955C33.4363 23.6295 31.3052 24.5074 29.24 25.5234C27.9952 26.161 26.9558 27.1336 26.2405 28.3301C25.5251 29.5266 25.1626 30.8988 25.1943 32.2902C25.2802 37.546 27.4155 43.1959 30.6943 48.2743C32.6775 51.3293 32.0627 55.8952 30.8067 61.6174C33.1733 64.5804 37.5693 65.8746 41.3439 65.5593C48.1859 64.9549 50.3674 60.9211 49.5675 57.9056C49.5675 57.9056 48.9064 51.6972 48.9064 47.7225C48.8822 44.8102 49.2084 41.9055 49.8782 39.0702C52.1588 38.63 54.6444 35.5028 51.3325 29.5835C51.2201 27.744 51.1673 21.3582 46.0441 20.4253C41.8662 21.4764 37.5495 22.4553 36.3265 22.7313C36.088 22.7736 35.8519 22.8285 35.6192 22.8955Z" fill="#F5F5F5"/>
<path d="M40.0415 41.698C40.0415 41.698 45.0457 42.7031 48.1196 41.7111C48.1196 41.7111 46.4075 52.3278 48.5956 62.2546C49.0856 61.6476 49.4287 60.9367 49.5984 60.1769C49.768 59.4171 49.7596 58.6287 49.574 57.8726C49.574 57.8726 48.9129 51.6642 48.9129 47.6896C48.8886 44.7773 49.2148 41.8725 49.8846 39.0372C49.8846 39.0372 46.5331 41.9608 40.0415 41.698Z" fill="black" fill-opacity="0.12"/>
<path d="M51.3329 29.5637C51.2206 27.7242 51.1677 21.3384 46.0445 20.4055L44.5703 20.7734C44.5703 20.7734 50.5793 25.1554 51.0685 29.7805C51.0685 29.7805 53.5805 36.6524 49.8654 39.057C52.1593 38.5971 54.6448 35.4765 51.3329 29.5637Z" fill="black" fill-opacity="0.12"/>
<path d="M47.0162 7.45654C47.0162 7.45654 49.4423 24.9649 52.5427 29.5111C52.5427 29.5111 45.3768 24.7349 44.0547 21.8377C42.7326 18.9404 42.9573 8.442 42.9573 8.442L47.0162 7.45654Z" fill="#544B45"/>
<path d="M35.4406 22.994C35.4406 22.994 32.9154 25.6219 39.202 30.4112C39.202 30.4112 39.9556 26.811 41.5422 26.3577C42.5352 26.9676 43.5663 27.514 44.6293 27.9935C44.6293 27.9935 45.33 22.7377 42.7188 22.1333C40.1077 21.5289 37.1131 22.5407 37.1131 22.5407L35.4406 22.994Z" fill="black" fill-opacity="0.12"/>
<path d="M35.8243 17.0813C35.9925 19.4563 35.8054 21.843 35.269 24.1635C36.7763 26.5417 42.0912 27.7702 43.0629 25.0438C42.9274 23.6131 43.188 22.1728 43.8165 20.8786C44.8147 19.1573 35.8243 17.0813 35.8243 17.0813Z" fill="#EAB18B"/>
<path d="M35.8242 17.0813C35.8879 17.9558 35.9012 18.8332 35.8639 19.7092C36.3531 20.2085 36.7431 20.6552 36.7431 20.6552C38.2239 22.7819 40.4866 24.2449 43.043 24.7285C42.9526 23.4018 43.2196 22.0752 43.8164 20.8852C44.8146 19.1573 35.8242 17.0813 35.8242 17.0813Z" fill="#D39775"/>
<path d="M46.5002 4.30975C47.7068 6.53696 48.3852 9.00882 48.4834 11.5365C48.338 12.0357 49.1973 13.0015 48.9858 15.0907C48.8338 16.6083 48.5231 19.6895 48.3644 21.2728C48.3351 21.5545 48.215 21.8192 48.0221 22.0276C47.8291 22.2359 47.5735 22.3767 47.2935 22.4291C44.2262 22.9678 39.3145 23.2765 35.725 18.4347C35.725 18.4347 33.9996 16.4243 33.1997 16.1747C32.3999 15.925 29.2334 11.9438 29.2334 8.72461C29.2797 5.32806 31.1769 0.15112 38.204 0.15112C39.8247 0.110059 41.4305 0.468322 42.8781 1.19395C44.3257 1.91958 45.5701 2.99001 46.5002 4.30975Z" fill="#EAB18B"/>
<path d="M48.4968 11.5495C48.3986 9.0219 47.7203 6.55004 46.5137 4.32283C45.7162 3.1642 44.6624 2.20236 43.4331 1.51099C44.1095 2.05058 44.7 2.68844 45.1849 3.40307C45.1849 3.40307 48.12 7.06897 48.12 10.8334C47.9746 11.3327 48.7811 12.016 48.6026 14.1183C48.4506 15.6359 47.5978 18.947 47.4458 20.5172C47.4171 20.8019 47.2957 21.0695 47.1 21.2794C46.9044 21.4893 46.6451 21.63 46.3616 21.68C44.1471 22.0676 40.6038 22.1925 37.6621 20.4909C40.9674 23.1845 44.7619 22.9086 47.3135 22.4618C47.5966 22.4085 47.8544 22.2648 48.0477 22.0525C48.241 21.8403 48.3593 21.5711 48.3845 21.2859C48.5431 19.7091 48.8472 16.6279 49.0059 15.1037C49.2174 13.0146 48.3514 12.0488 48.4968 11.5495Z" fill="#E0A380"/>
<path d="M32.5254 15.649C32.6898 15.8248 32.8739 15.9813 33.0741 16.1155C32.9154 15.9447 32.6973 15.7673 32.5254 15.649Z" fill="#DD9E7A"/>
<path d="M34.9253 18.0075C35.2101 18.0075 35.4409 17.7781 35.4409 17.4951C35.4409 17.2121 35.2101 16.9827 34.9253 16.9827C34.6405 16.9827 34.4097 17.2121 34.4097 17.4951C34.4097 17.7781 34.6405 18.0075 34.9253 18.0075Z" fill="#FCF5FF"/>
<path d="M41.0927 139.659C42.9106 129.805 38.812 113.413 40.2068 105.497C40.2068 105.497 37.8535 85.0714 37.6816 75.7752C37.5807 70.1789 38.7939 64.6363 41.2249 59.5874C41.2249 59.5874 48.0734 60.0473 50.0698 60.77C50.0698 60.77 56.8853 78.8827 49.3162 107.356C49.7856 108.979 46.077 132.196 46.7844 140.362C47.2339 143.424 49.7856 150.217 49.812 151.347C49.8385 152.477 46.7976 153.075 46.5398 152.983C46.282 152.891 44.9003 152.753 44.9003 152.582C44.9003 152.411 41.919 143.338 41.919 143.338L41.172 140.592C41.1455 140.526 41.0927 139.659 41.0927 139.659Z" fill="#EAB18B"/>
<path d="M50.0637 60.7963C49.12 60.5169 48.1533 60.3213 47.1748 60.2115C48.2656 68.0229 50.4405 87.8964 46.8179 102.606C46.646 104.071 46.679 106.022 46.6592 106.614C46.6394 107.205 46.7121 109.241 44.8413 109.675C45.1066 109.916 45.4214 110.096 45.7638 110.204C46.1063 110.312 46.4682 110.344 46.8245 110.299C46.8245 110.299 45.2247 133.95 45.271 135.822C45.3173 137.695 44.1538 139.449 46.137 143.476C48.1202 147.503 47.9681 151.491 49.5282 151.971C49.6155 151.896 49.6859 151.803 49.7349 151.699C49.7838 151.595 49.8103 151.481 49.8125 151.366C49.8125 150.21 47.2343 143.443 46.7848 140.382C46.0841 132.216 49.7926 108.998 49.3167 107.376C56.8858 78.909 50.0637 60.7963 50.0637 60.7963Z" fill="#D69976"/>
<path d="M40.9471 150.709C40.8016 150.709 40.662 150.652 40.5591 150.55C40.4562 150.447 40.3984 150.309 40.3984 150.164V141.807H41.2049V150.447C41.2058 150.481 41.1998 150.515 41.1872 150.547C41.1747 150.579 41.1558 150.608 41.1318 150.632C41.1078 150.657 41.079 150.676 41.0473 150.689C41.0156 150.703 40.9815 150.709 40.9471 150.709Z" fill="#276C93"/>
<path d="M41.3571 137.734C41.3571 137.734 39.7573 137.971 39.7573 141.131C39.7573 144.291 41.4629 143.68 41.8925 145.138C42.3222 146.597 43.651 152.937 46.0175 153.679C48.3841 154.421 50.4797 155.269 52.1389 154.993C52.833 154.848 52.3769 153.732 51.901 153.475C51.425 153.219 50.083 150.926 49.6798 150.263C49.6721 150.248 49.6603 150.235 49.6457 150.226C49.6311 150.217 49.6143 150.212 49.5972 150.212C49.58 150.212 49.5632 150.217 49.5486 150.226C49.5341 150.235 49.5222 150.248 49.5145 150.263C49.2479 150.635 48.8917 150.936 48.4784 151.137C48.065 151.338 47.6076 151.432 47.1479 151.412C45.7002 151.268 45.1648 150.723 41.2711 138.851L41.3571 137.734Z" fill="#001A27"/>
<path d="M52.3109 154.205C50.6516 154.494 48.5627 153.653 46.1895 152.891C43.8163 152.128 42.4876 145.808 42.0645 144.35C41.6414 142.891 39.9293 143.502 39.9293 140.342C39.9284 139.975 39.9549 139.609 40.0086 139.245C39.8278 139.853 39.7431 140.484 39.7574 141.118C39.7574 144.278 41.4629 143.667 41.8926 145.125C42.3223 146.584 43.651 152.923 46.0176 153.666C48.3842 154.408 50.4798 155.256 52.139 154.98C52.5224 154.901 52.5489 154.526 52.4233 154.159C52.3882 154.179 52.3503 154.194 52.3109 154.205Z" fill="#276C93"/>
<path d="M41.1061 106.029C41.7671 86.2736 44.9997 84.7823 41.9456 65.3753C41.43 62.0839 30.2713 62.5832 30.2713 62.5832C27.5345 64.3242 25.9017 69.8099 26.305 74.8226C26.966 82.588 34.2972 98.5853 32.6577 105.858C28.6914 117.585 32.5784 132.984 30.8861 143.305C30.9522 143.489 30.7671 143.805 30.8398 143.962C30.8398 150.834 29.7557 156.235 31.3687 157.969C32.585 159.283 35.2226 160.649 36.1812 158.626C36.5381 157.87 36.2473 155.197 36.1812 153.948C36.1812 151.57 35.6722 148.548 35.6127 144.593C35.671 144.403 35.7065 144.207 35.7184 144.008C35.7184 144.008 38.9378 123.163 41.1061 106.029Z" fill="#EAB18B"/>
<path d="M41.106 106.029C41.7671 86.2736 44.9997 84.7823 41.9456 65.3753C41.6944 63.7723 38.561 63.3124 35.4077 63.2533C36.5513 70.572 39.189 89.9592 37.6685 104.373C37.8999 106.009 38.3296 105.871 38.1313 106.607C37.933 107.343 38.0123 108.354 36.2869 108.506C34.5616 108.657 36.4324 110.522 38.1775 109.997C38.1775 109.997 35.3614 140.875 34.5087 143.87C33.6559 146.866 36.2869 154.934 35.4606 156.727C34.6343 158.521 33.9005 158.114 33.6625 158.744C33.6021 158.979 33.6021 159.225 33.6625 159.46C34.6739 159.802 35.6854 159.703 36.201 158.6C36.558 157.844 36.2671 155.17 36.201 153.922C36.201 151.544 35.692 148.522 35.6325 144.567C35.6908 144.377 35.7263 144.18 35.7382 143.982C35.7382 143.982 38.9378 123.163 41.106 106.029Z" fill="#D69976"/>
<path d="M30.9326 143.029C30.9326 143.029 30.5162 153.193 31.3425 156.307C31.4368 156.781 31.6671 157.219 32.0057 157.566C32.3443 157.914 32.7768 158.157 33.251 158.266C33.7253 158.375 34.2211 158.345 34.6788 158.181C35.1366 158.016 35.5367 157.724 35.8311 157.338C36.393 156.537 36.0823 154.053 36.1682 152.641C36.1682 152.641 36.5847 155.991 36.6904 157.673C36.7305 158.292 36.6725 158.912 36.5186 159.513L35.6261 163.008C35.5531 163.289 35.3882 163.539 35.1573 163.717C34.9265 163.895 34.6427 163.992 34.3503 163.993H33.7487C33.5071 163.993 33.2702 163.926 33.064 163.801C32.8577 163.676 32.6898 163.497 32.5787 163.284L30.8467 159.94C30.1971 158.693 29.9023 157.294 29.9939 155.893C30.1394 153.725 30.9326 150.9 29.7427 147.865C29.0949 146.61 30.0666 143.22 30.9326 143.029Z" fill="#001A27"/>
<path d="M34.8393 163.1H34.2377C33.9961 163.099 33.7592 163.033 33.5529 162.908C33.3466 162.783 33.1788 162.604 33.0676 162.39L31.3291 159.053C30.6795 157.806 30.3846 156.407 30.4763 155.006C30.6217 152.838 31.415 150.013 30.2251 146.978C29.8219 146.216 30.1127 144.659 30.5953 143.502C29.8681 144.554 29.2335 146.879 29.7491 147.871C30.9324 150.9 30.1458 153.732 30.0003 155.9C29.9087 157.3 30.2035 158.7 30.8531 159.946L32.5851 163.29C32.6962 163.504 32.8641 163.683 33.0704 163.808C33.2767 163.933 33.5135 163.999 33.7551 164H34.3567C34.6491 163.999 34.9329 163.902 35.1637 163.724C35.3946 163.545 35.5595 163.296 35.6325 163.015L35.692 162.778C35.4552 162.982 35.153 163.097 34.8393 163.1Z" fill="#276C93"/>
<path d="M50.4734 60.4414C50.474 60.1336 50.4362 59.8269 50.361 59.5282C50.361 59.5282 49.5942 55.7835 49.1248 52.2358C47.3797 58.372 33.7949 58.1486 31.7192 56.7624C31.5689 57.9152 31.3054 59.0506 30.9325 60.1524C30.2754 61.8408 29.2635 63.3705 27.9644 64.6395C26.5828 66.098 25.459 68.5813 25.459 72.9173C25.459 79.3294 33.3057 98.7955 32.4067 104.248C32.5389 104.761 33.1867 105.155 34.1321 105.411C34.3899 103.44 34.7931 99.8598 34.4229 97.994C35.2982 100.471 35.7777 103.069 35.8442 105.694C39.1345 105.929 42.4327 105.358 45.4494 104.032C49.6405 102.061 51.6303 98.0531 51.7426 97.4618C54.4069 85.2073 53.9708 72.4873 50.4734 60.4414Z" fill="#48CDB7"/>
<path d="M32.4333 103.802C32.4333 103.966 32.4333 104.124 32.3804 104.268C32.424 104.418 32.5033 104.556 32.6117 104.669C32.5589 104.347 32.4928 104.058 32.4333 103.802Z" fill="#2A3A47"/>
<path d="M50.4733 60.4414C50.4739 60.1336 50.4362 59.8269 50.361 59.5282C50.361 59.5282 49.5941 55.7835 49.1248 52.2358C48.7263 53.4626 47.9014 54.5083 46.7979 55.1856C47.2011 57.8135 47.6176 59.9947 47.6176 59.9947C47.6927 60.3134 47.7305 60.6397 47.7299 60.967C51.237 73.8735 51.6715 87.4144 48.9992 100.517C48.7989 101.135 48.5189 101.724 48.1662 102.271C49.7275 100.992 50.9488 99.3522 51.7227 97.4947C54.399 85.2312 53.9697 72.4993 50.4733 60.4414Z" fill="black" fill-opacity="0.12"/>
<path d="M36.8821 58.1421C34.0858 58.1421 32.1357 57.8924 31.5474 57.4851L31.7523 56.0923C32.8959 56.8741 39.9626 57.4062 45.0065 55.5996C47.3665 54.7521 48.6754 53.471 49.1051 51.9534L49.4488 53.9243C49.2703 54.4696 48.2391 55.8295 45.4825 56.8347C42.7069 57.7351 39.8015 58.1767 36.8821 58.1421Z" fill="#337AAA"/>
<path d="M48.3052 41.4023H32.3936V60.4283H48.3052V41.4023Z" fill="white"/>
<path d="M47.4654 42.0791H31.5537V61.105H47.4654V42.0791Z" fill="#9EDE87"/>
<path d="M47.4588 49.3715C47.1279 49.3798 46.7968 49.3688 46.4672 49.3386C45.5814 49.2729 45.4756 50.7051 43.704 51.1322C43.6062 51.1557 43.511 51.1887 43.4197 51.2307C43.3275 51.0392 43.1927 50.8711 43.0255 50.7391C42.8583 50.6071 42.663 50.5146 42.4546 50.4686C37.1661 51.2307 33.7154 51.8483 31.5537 52.2819V58.707C36.8818 57.1566 43.0231 55.3631 43.856 55.0214C44.0817 54.682 44.1864 54.2772 44.1535 53.8717H44.3187C44.3187 53.8717 47.2604 54.036 47.4521 53.9768L47.4588 49.3715Z" fill="black" fill-opacity="0.12"/>
<path d="M35.692 50.232C38.3374 50.3495 40.9877 50.2881 43.6247 50.0481C44.1866 50.4751 45.0129 52.7351 44.2858 52.7811C39.7443 53.0833 35.4805 53.4052 35.4805 53.4052L35.692 50.232Z" fill="#EAB18B"/>
<path d="M44.3057 52.7811C44.3057 52.7811 47.2276 53.1227 47.4259 53.0768C47.6242 53.0308 49.9379 51.2964 49.9247 50.1795C49.918 49.8515 49.8387 49.5291 49.6925 49.235C49.5463 48.9409 49.3366 48.6824 49.0785 48.478C48.2947 48.5026 47.5102 48.4674 46.7318 48.3728C45.8526 48.2217 45.6873 49.6868 43.8628 49.989C42.0383 50.2912 43.6579 52.6563 43.6579 52.6563L44.3057 52.7811Z" fill="#EAB18B"/>
<path d="M27.2966 57.6888C26.7677 57.8076 26.2184 57.8035 25.6914 57.6769C25.1644 57.5503 24.6739 57.3045 24.2582 56.9586C23.8424 56.6128 23.5125 56.1763 23.2942 55.683C23.076 55.1898 22.9752 54.6531 22.9997 54.1148C23.3501 46.2312 24.1037 30.8514 24.7317 29.6098C25.8224 27.4746 27.6734 25.6679 29.9871 26.6337C31.8116 27.3695 33.2924 31.088 32.1025 34.5962C30.9126 38.1044 28.903 49.9891 28.5328 50.8957C28.5328 50.8957 31.7786 50.1467 42.653 49.2467C43.9751 49.4306 44.6361 53.0308 43.7767 53.8849C42.7058 54.2462 33.1271 56.3945 27.2966 57.6888Z" fill="#F5F5F5"/>
<path d="M42.6527 49.2729H42.58C43.2807 50.3898 43.4923 52.5578 42.8312 53.2148C41.7603 53.5761 32.1816 55.7244 26.351 57.0187C25.5417 57.2006 24.6937 57.0912 23.958 56.7099C24.3769 57.1431 24.9013 57.4615 25.4804 57.6341C26.0595 57.8068 26.6736 57.8279 27.2633 57.6953C33.0938 56.3814 42.6726 54.2528 43.7435 53.8915C44.6161 53.0374 43.9616 49.4372 42.6527 49.2729Z" fill="black" fill-opacity="0.12"/>
<path d="M31.1902 33.9194C29.9804 37.4474 27.984 49.3057 27.6271 50.2189C27.6271 50.2189 27.3164 51.592 28.5393 50.8759C29.2004 47.8669 31.058 37.6182 32.109 34.5764C33.3056 31.1141 31.8578 27.4482 30.0598 26.6467C31.3687 28.0921 32.1751 31.0747 31.1902 33.9194Z" fill="black" fill-opacity="0.12"/>
<path d="M39.0633 9.09894C40.0483 13.5466 47.2406 9.00039 48.4834 10.0713C48.7809 9.30917 47.6108 2.62776 42.3091 0.656846C37.8536 -0.952737 30.8266 0.170686 28.6715 6.09001C26.6883 11.4838 28.3608 19.8076 32.466 27.8949C32.7965 28.6242 35.6787 32.4083 42.5273 35.2464C38.4023 27.8752 38.204 15.1102 39.0633 9.09894Z" fill="#60554F"/>
<path d="M42.5341 35.2532C39.1032 29.1236 38.3761 19.2822 38.7264 12.673C36.6771 21.0888 39.4404 32.5004 39.4404 32.5004C39.4404 32.5004 34.4097 27.9608 33.0678 25.7402C29.6898 19.5581 29.2402 9.63124 29.2336 4.87476C29.0186 5.26795 28.833 5.67638 28.6783 6.09672C26.6952 11.4905 28.3677 19.8143 32.4728 27.9016C32.7967 28.6309 35.6856 32.4085 42.5341 35.2532Z" fill="black" fill-opacity="0.12"/>
<path d="M34.4097 28.4666C34.4097 28.4666 31.382 19.8142 32.0299 12.8503C32.0299 12.8503 32.6314 22.3042 36.73 30.4046L34.4097 28.4666Z" fill="black" fill-opacity="0.12"/>
</g>
<defs>
<clipPath id="clip0">
<rect x="22.9995" width="33" height="164" fill="white"/>
</clipPath>
</defs>
</svg>
