<svg width="80" height="168" viewBox="0 0 80 168" fill="none" xmlns="http://www.w3.org/2000/svg">
<rect y="42" width="80" height="10" fill="white"/>
<path d="M58.6621 163.737C48.8541 169.421 32.8046 169.421 22.848 163.737C12.8913 158.053 12.8913 148.629 22.6994 142.944C32.5074 137.26 48.5568 137.26 58.5135 142.944C68.4701 148.629 68.4701 158.053 58.6621 163.737Z" fill="#EAEAEA"/>
<path d="M42.4116 153.925L45.5198 152.23L42.4116 148.405V153.925Z" fill="#555555"/>
<path d="M30.3826 142.289C29.1111 142.481 28.2029 143.944 28.4955 145.983C28.7882 148.021 28.8487 157.76 28.8487 157.76L29.8074 158.769L30.3826 158.476C30.3826 158.476 31.7147 162.17 32.734 162.805C34.0459 163.611 35.6085 163.906 37.1237 163.633C38.6476 163.249 39.253 161.726 38.8595 159.748C38.4659 157.77 37.0632 153.107 36.6797 151.241C36.2962 149.374 30.3826 142.289 30.3826 142.289Z" fill="#001A27"/>
<path d="M42.9559 138.354C42.9559 138.354 42.0981 137.436 41.4624 138.142C40.8266 138.848 40.1808 141.311 40.8569 145.549C41.2474 148.109 41.3961 150.701 41.3009 153.289L42.4513 153.925L42.9559 150.01C43.7087 151.71 44.731 153.277 45.9834 154.652C46.916 155.52 48.0497 156.143 49.2825 156.466C50.5154 156.788 51.8091 156.799 53.0474 156.498C55.8427 155.731 49.8181 150.343 49.2227 146.407C48.7787 143.49 45.5696 142.168 45.5696 142.168L42.9559 138.354Z" fill="#001A27"/>
<path d="M51.0295 103.377C51.0295 103.377 50.5451 109.775 50.0204 113.347C49.4956 116.92 48.0021 127.223 48.0021 134.67C48.1204 139.898 48.7593 145.1 49.9094 150.201C49.9094 150.201 50.0405 150.776 49.1424 151.16C48.2443 151.543 46.2865 150.655 44.5003 147.981C42.8394 145.206 41.9219 142.051 41.8362 138.818C41.8362 138.818 42.4619 130.17 41.5032 124.821C40.5445 119.473 39.5757 111.47 40.1307 108.15C40.6858 104.83 51.0295 103.377 51.0295 103.377Z" fill="#EBC7AD"/>
<path d="M40.1407 108.725C40.1407 108.725 39.0508 118.181 37.8903 123.338C36.7298 128.495 35.2766 139.484 35.4683 144.086C35.6601 148.688 39.0003 157.427 36.427 158.153C33.2482 159.041 32.0372 157.397 31.3813 153.289C30.7254 149.182 30.0492 147.234 30.0492 144.984C30.0492 142.734 29.2722 134.307 28.8382 130.301C28.4043 126.295 28.263 119.392 29.6657 114.155C31.0685 108.917 30.3419 108.291 29.8978 104.063C29.4538 99.8348 33.9344 103.205 33.9344 103.205L40.1407 108.725Z" fill="#EBC7AD"/>
<path d="M27.3854 70.4384C27.3854 70.4384 24.7919 80.8528 25.801 87.1701C26.8102 93.4873 28.6367 98.2001 28.4753 102.449C28.3138 106.697 27.8799 108.221 28.4753 108.816C31.559 110.797 35.2492 111.609 38.8796 111.107C43.8546 110.259 51.5746 105.163 52.503 103.034C53.4314 100.905 53.9461 75.02 53.5122 70.4384C53.4409 68.6995 53.2146 66.9704 52.8361 65.2716L27.3854 70.4384Z" fill="white"/>
<path d="M29.8066 158.759L30.0387 154.924L30.3819 158.466L29.8066 158.759Z" fill="#555555"/>
<path d="M16.3051 76.5538L43.7841 92.9726L41.564 115.487L13.6914 99.2798L16.3051 76.5538Z" fill="#555555"/>
<path d="M19.9883 81.4181L40.5144 93.4774L38.7383 111.44L17.8994 99.5524L19.9883 81.4181Z" fill="#31B49F"/>
<path d="M18.5658 82.8917L41.2111 96.2024L39.2634 116.032L16.2549 102.903L18.5658 82.8917Z" fill="#48CDB7"/>
<path d="M38.819 109.311L39.9291 97.5543C39.9396 97.4119 39.9859 97.2745 40.0637 97.1548C40.1414 97.0352 40.2482 96.937 40.374 96.8696C40.4998 96.8022 40.6406 96.7676 40.7834 96.7691C40.9261 96.7706 41.0661 96.8081 41.1905 96.8782C41.3289 96.9597 41.4412 97.0789 41.5145 97.2218C41.5877 97.3648 41.6189 97.5256 41.6043 97.6855L40.4639 109.422C40.4489 109.56 40.4003 109.692 40.3224 109.806C40.2446 109.921 40.1398 110.014 40.0173 110.079C39.8949 110.144 39.7584 110.178 39.6198 110.177C39.4813 110.177 39.3449 110.143 39.2227 110.078C39.0926 109.998 38.9865 109.885 38.9154 109.75C38.8444 109.615 38.8111 109.463 38.819 109.311Z" fill="white"/>
<path d="M44.087 102.045L43.0779 101.379C43.0131 101.353 42.9408 101.353 42.876 101.379H42.8155L40.5752 102.075L41.4128 107.121L43.7439 106.405C43.8847 106.334 44.0017 106.224 44.0806 106.088C44.1595 105.951 44.1968 105.795 44.1879 105.638L44.3999 102.842C44.4094 102.695 44.3863 102.547 44.3322 102.409C44.2781 102.271 44.1944 102.147 44.087 102.045Z" fill="#EAEAEA"/>
<path d="M40.8583 106.97L40.4243 106.677C40.3101 106.577 40.2199 106.453 40.1605 106.313C40.1011 106.173 40.074 106.022 40.0812 105.87L40.3537 102.328C40.3537 102.035 40.5656 101.904 40.7775 102.055L41.7867 102.721C41.9009 102.822 41.9911 102.946 42.0505 103.086C42.11 103.226 42.137 103.377 42.1298 103.529L41.9179 106.324C41.817 107.071 41.3628 107.364 40.8583 106.97Z" fill="#48CDB7"/>
<path d="M53.3919 69.2679C53.2507 67.8753 53.1397 66.9368 53.0488 66.291L52.6452 65.635L50.8994 65.3625L27.3661 70.156C27.3661 70.156 27.0734 71.3569 26.7202 73.1834L27.8202 77.3209C27.8202 77.3209 33.5017 78.7539 37.2153 78.431C41.0393 78.058 44.5818 76.2561 47.1352 73.3853C47.7952 72.6932 48.2555 71.8353 48.4673 70.9028C48.4673 70.9028 50.2232 72.2348 52.2718 70.3276L53.3919 69.2679Z" fill="url(#paint0_linear)"/>
<path d="M45.0871 4.03662C46.0535 4.95002 46.7336 6.1245 47.0449 7.41726C47.2467 9.1429 46.5706 10.7878 45.4101 11.2318L44.2495 11.6759L43.1294 6.1861L45.0871 4.03662Z" fill="#DAA452"/>
<path d="M28.3454 11.9382C26.935 12.3372 25.7145 13.2286 24.9054 14.4507C24.0962 15.6728 23.7521 17.1444 23.9354 18.5986C24.3189 23.6443 29.3242 26.6718 26.2362 28.6093C24.2684 29.8506 23.6427 27.8424 24.1271 27.0351C24.6115 26.2277 25.1363 26.3993 25.1363 26.3993C24.9322 26.1971 24.6873 26.0407 24.418 25.9407C24.1487 25.8407 23.8611 25.7993 23.5745 25.8194C23.2879 25.8395 23.0089 25.9205 22.7562 26.057C22.5034 26.1936 22.2827 26.3825 22.1088 26.6112C20.7566 28.3167 20.8373 31.2836 23.7235 33.0294C26.6096 34.7752 32.2911 25.3498 32.2911 25.3498C32.2911 25.3498 33.4819 22.0802 30.0407 18.6491C26.5995 15.218 29.1426 13.2299 29.1426 13.2299L28.3454 11.9382Z" fill="#EEBB6F"/>
<g style="mix-blend-mode:multiply">
<path d="M29.0311 23.614C28.3751 19.9205 26.4981 19.2948 26.8312 16.9031C26.8898 16.3819 27.0576 15.8788 27.3236 15.4268C27.5896 14.9747 27.9479 14.5837 28.3751 14.2794C28.4895 13.9763 28.6569 13.6961 28.8696 13.4519L27.9816 12.0391C26.6521 12.4942 25.5224 13.3975 24.7859 14.5942C24.0494 15.791 23.7522 17.2066 23.945 18.5985C24.2679 22.8268 27.8201 25.6625 27.1642 27.5698C27.1642 27.5698 29.687 27.3074 29.0311 23.614Z" fill="white"/>
</g>
<path d="M52.1504 46.8949C52.1504 46.8949 52.5541 63.0412 52.1504 66.1191L51.7467 69.1466L41.5342 59.4184L52.1504 46.8949Z" fill="url(#paint1_linear)"/>
<path d="M43.3213 22.3931C43.3213 22.3931 47.8221 22.5243 49.0936 23.3417C50.3651 24.1591 52.3632 28.4681 52.5752 32.8478C52.7871 37.2275 52.5752 42.3641 52.5752 42.3641L43.3213 22.3931Z" fill="#001A27"/>
<path d="M52.5339 47.9848C53.5431 45.6335 53.422 42.9391 52.3422 39.2658C51.2624 35.5925 48.8102 25.8845 46.6002 24.1286C45.0063 23.0578 43.121 22.5045 41.2012 22.5442L39.5664 23.3415L45.9846 55.3718C45.9846 55.3718 47.6598 66.6036 48.0029 68.7631C48.346 70.9227 50.8184 69.7723 50.9395 69.7723C52.6248 68.6521 53.7247 67.5421 53.7853 66.7448C53.977 63.9495 50.6065 59.5496 50.667 55.8662C50.6648 53.1293 51.3042 50.4299 52.5339 47.9848Z" fill="#001A27"/>
<path d="M47.7916 70.0647C48.5585 68.2382 47.1861 53.3028 47.1861 53.3028L44.2797 33.4529L32.6241 26.7825L30.0003 28.0641C28.6172 29.3229 27.1052 30.4324 25.4894 31.3741C23.9353 32.0502 23.128 33.9171 23.8042 37.6106C24.4803 41.3041 29.5563 55.2404 30.0003 58.6109C30.4443 61.9815 28.2343 64.7869 27.6187 66.9465C27.3098 67.9713 27.0571 69.0123 26.8619 70.0647C26.8619 70.0647 28.0224 73.7582 34.8341 74.5857C37.7607 74.9389 41.6358 74.0509 45.1274 72.6986C46.2968 72.1602 47.2398 71.2279 47.7916 70.0647Z" fill="#001A27"/>
<path d="M28.0923 10.0109C27.8736 10.1302 27.6814 10.2927 27.5274 10.4885C27.3735 10.6844 27.261 10.9095 27.1968 11.1503C27.1326 11.391 27.118 11.6422 27.154 11.8888C27.19 12.1353 27.2758 12.3719 27.4061 12.5842C28.2336 14.4209 29.1216 15.2383 30.6656 14.2191C32.2096 13.1998 29.3739 9.77881 29.3739 9.77881L28.0923 10.0109Z" fill="url(#paint2_linear)"/>
<path d="M30.2526 5.04565C30.2526 5.04565 27.3664 6.0548 27.3765 8.77949C27.3765 10.9189 29.1425 11.0904 29.8085 12.473C30.6259 14.1582 29.5865 14.2188 30.9489 15.6215C32.3112 17.0242 32.9672 17.5288 33.4314 18.77C33.7164 19.5441 33.7896 20.3802 33.6433 21.192L35.7625 18.3967L33.3002 10.1822L30.2526 5.04565Z" fill="#DAA452"/>
<path d="M32.2194 16.9032C32.2194 16.9032 33.3597 18.5582 32.9157 19.3554C32.4717 20.1527 31.735 19.0325 31.735 19.0325C31.7311 19.3727 31.8132 19.7083 31.9738 20.0082C32.1343 20.3082 32.3681 20.5627 32.6533 20.748C33.5918 21.2123 34.167 20.6673 34.2276 19.2646C34.2881 17.8619 32.2194 16.9032 32.2194 16.9032Z" fill="url(#paint3_linear)"/>
<path d="M45.1985 59.2169L43.8564 59.4086C43.7094 59.4289 43.5603 59.3905 43.4413 59.3018C43.3224 59.213 43.2431 59.0811 43.2206 58.9344C43.2004 58.7873 43.2388 58.6382 43.3275 58.5193C43.4162 58.4003 43.5482 58.3211 43.6949 58.2986L45.0371 58.1069C45.1841 58.0866 45.3332 58.125 45.4522 58.2137C45.5711 58.3025 45.6504 58.4344 45.6728 58.5811C45.6931 58.7282 45.6547 58.8773 45.566 58.9962C45.4772 59.1152 45.3453 59.1944 45.1985 59.2169Z" fill="#3D3D3D"/>
<path d="M45.2888 58.7729L44.1384 58.9344C44.0128 58.9518 43.8854 58.9193 43.7835 58.8438C43.6816 58.7683 43.6134 58.6559 43.5935 58.5307C43.576 58.4051 43.6086 58.2777 43.684 58.1758C43.7595 58.0739 43.8719 58.0057 43.9971 57.9858L45.1476 57.8243C45.2731 57.8069 45.4006 57.8394 45.5024 57.9149C45.6043 57.9903 45.6726 58.1027 45.6925 58.228C45.7099 58.3536 45.6774 58.481 45.6019 58.5829C45.5265 58.6847 45.4141 58.753 45.2888 58.7729Z" fill="#7F7F7F"/>
<path d="M44.794 58.6215L44.1683 58.7123C44.1002 58.721 44.0313 58.7026 43.9766 58.6611C43.9219 58.6196 43.8856 58.5582 43.8756 58.4903C43.867 58.4222 43.8854 58.3534 43.9269 58.2986C43.9684 58.2439 44.0297 58.2077 44.0976 58.1976L44.7233 58.1068C44.7914 58.0982 44.8603 58.1166 44.915 58.1581C44.9697 58.1996 45.0059 58.2609 45.016 58.3288C45.0246 58.397 45.0062 58.4658 44.9647 58.5205C44.9232 58.5752 44.8619 58.6115 44.794 58.6215Z" fill="#F2F2F2"/>
<path d="M45.1766 64.0708L43.8344 64.2625C43.6874 64.2828 43.5383 64.2444 43.4193 64.1556C43.3004 64.0669 43.2211 63.9349 43.1987 63.7882C43.1784 63.6412 43.2168 63.4921 43.3055 63.3731C43.3943 63.2542 43.5262 63.1749 43.6729 63.1524L44.9747 62.9506C45.1218 62.9303 45.2709 62.9687 45.3898 63.0575C45.5088 63.1462 45.588 63.2782 45.6105 63.4249C45.6347 63.5677 45.6031 63.7142 45.5224 63.8344C45.4417 63.9546 45.3179 64.0392 45.1766 64.0708Z" fill="#3D3D3D"/>
<path d="M45.2776 63.5762L44.1272 63.7377C44.0016 63.7551 43.8742 63.7226 43.7723 63.6471C43.6704 63.5717 43.6022 63.4593 43.5822 63.334C43.5648 63.2085 43.5973 63.081 43.6728 62.9792C43.7483 62.8773 43.8607 62.809 43.9859 62.7891L45.1363 62.6276C45.2619 62.6102 45.3893 62.6427 45.4912 62.7182C45.5931 62.7937 45.6613 62.9061 45.6813 63.0313C45.6987 63.1569 45.6662 63.2843 45.5907 63.3862C45.5152 63.4881 45.4028 63.5563 45.2776 63.5762Z" fill="#7F7F7F"/>
<path d="M44.7827 63.465L44.1571 63.5558C44.0889 63.5645 44.0201 63.5461 43.9654 63.5046C43.9107 63.4631 43.8744 63.4017 43.8644 63.3338C43.8557 63.2657 43.8741 63.1969 43.9156 63.1422C43.9572 63.0874 44.0185 63.0512 44.0864 63.0412L44.7121 62.9503C44.7802 62.9417 44.849 62.9601 44.9037 63.0016C44.9585 63.0431 44.9947 63.1044 45.0047 63.1723C45.0134 63.2405 44.995 63.3093 44.9535 63.364C44.912 63.4187 44.8507 63.455 44.7827 63.465Z" fill="#F2F2F2"/>
<path d="M33.3295 23.3416L33.6524 25.6424L31.7451 27.5194V24.4213L33.3295 23.3416Z" fill="url(#paint4_linear)"/>
<path style="mix-blend-mode:multiply" d="M41.5347 22.0702V20.1831L36.489 16.2172L34.7432 16.7318C34.7432 16.7318 36.8523 21.2528 39.5871 23.3417C40.4785 24.0178 41.5149 24.4773 42.6145 24.6839C41.9653 23.9624 41.584 23.0396 41.5347 22.0702Z" fill="url(#paint5_linear)"/>
<path d="M41.5352 22.0701L41.2021 25.1782L43.9571 26.2883L43.6241 23.6141L42.2618 22.0701H41.5352Z" fill="url(#paint6_linear)"/>
<path d="M32.6634 13.23C32.6634 13.23 33.7331 14.8244 33.7331 18.6895C33.8119 21.0898 33.4494 23.4841 32.6634 25.7535L32.29 26.6819L40.8577 33.423L45.0961 26.2379L43.1888 25.2287C42.7141 24.8258 42.3235 24.3331 42.0395 23.779C41.7556 23.2249 41.5837 22.6201 41.5338 21.9995V20.183L32.6634 13.23Z" fill="#EBC7AD"/>
<path d="M34.0671 16.5198C35.3594 18.3194 37.1528 19.6987 39.2239 20.4857C42.8568 21.9692 43.5127 21.2829 44.0476 20.849C44.5824 20.4151 45.6925 16.4088 45.4907 12.3217C45.4514 10.1442 44.9887 7.99512 44.1283 5.99438L31.5947 7.8714V9.2842C31.5981 11.5796 32.2792 13.8228 33.5525 15.7326L34.0671 16.5198Z" fill="#EBC7AD"/>
<path d="M32.2503 13.8758C32.2503 13.8758 31.2412 11.6859 34.3695 10.5759C37.4979 9.46579 38.5474 11.9887 42.5134 10.3639C46.4793 8.73921 45.5408 5.38884 45.5408 5.38884C45.5408 5.38884 44.7638 0 37.5181 0C30.2724 0 29.1119 5.59067 29.1422 7.78052C29.1346 8.9711 29.4129 10.1461 29.9537 11.2068C30.4946 12.2674 31.2822 13.1827 32.2503 13.8758Z" fill="#EDBB6F"/>
<path d="M34.0966 13.3913C34.0014 12.9942 33.778 12.6395 33.4609 12.3822C33.27 12.2307 33.0335 12.1483 32.7898 12.1483C32.5461 12.1483 32.3096 12.2307 32.1187 12.3822C30.7059 13.3207 32.3912 15.8637 33.4306 16.1665C33.7173 16.253 34.0111 16.3137 34.3085 16.3481C34.3828 16.354 34.4574 16.3419 34.5261 16.3129C34.5947 16.2839 34.6553 16.2387 34.7028 16.1813C34.7503 16.1239 34.7833 16.0559 34.799 15.9831C34.8147 15.9102 34.8126 15.8347 34.7929 15.7628L34.0966 13.3913Z" fill="#E09685"/>
<path d="M33.8742 13.3613C33.8742 13.3613 33.3697 12.3521 32.5724 12.9173C31.5633 13.6035 32.8146 15.4704 33.5816 15.6924C33.7825 15.7543 33.9885 15.7982 34.1972 15.8236C34.249 15.8286 34.3012 15.821 34.3494 15.8014C34.3976 15.7818 34.4404 15.7509 34.474 15.7113C34.5077 15.6717 34.5314 15.6245 34.5429 15.5737C34.5544 15.523 34.5535 15.4703 34.5403 15.42L33.8742 13.3613Z" fill="#F4B2A3"/>
<path d="M31.0992 27.5094C30.819 28.7846 30.9865 30.1174 31.5735 31.2836C31.8965 32.0707 34.3991 33.1303 35.7716 34.9771C37.7107 37.7481 39.3992 40.6862 40.8173 43.7567L45.3988 46.0676L47.3061 47.7831L46.5089 32.2928L43.3301 27.58L42.6237 28.5892L42.442 34.7046C41.6792 33.0957 40.5404 31.6939 39.122 30.6176C37.4584 29.7719 35.6955 29.1379 33.8744 28.7305L31.0992 27.5094Z" fill="url(#paint7_linear)"/>
<path d="M41.1211 32.7668L42.2715 46.6425L43.9568 47.8535L47.1861 53.313L47.7916 44.3215L42.6651 32.0503L41.1211 32.7668Z" fill="#555555"/>
<path d="M41.2115 32.4539C39.8172 32.2961 38.5163 31.6741 37.5181 30.6879L38.5272 29.7595C38.618 29.3962 40.3739 31.2328 41.6152 31.0714C42.8564 30.9099 42.9574 28.6898 42.9574 27.8421L43.6537 26.1467L44.3096 26.2174L43.9665 27.3678C44.0472 30.0622 43.4115 32.1915 41.6253 32.4135L41.2115 32.4539Z" fill="#555555"/>
<path d="M41.9481 43.0499C40.1526 40.247 38.1949 37.5513 36.0849 34.9768C36.0849 34.9768 31.6851 30.4659 31.2108 29.7191C30.575 28.71 31.5539 26.1467 31.5539 26.1467C30.8197 26.6148 30.1712 27.2053 29.6365 27.8926C28.9604 28.9017 28.8897 33.2612 29.253 34.341C29.4649 34.9768 32.0685 34.7346 33.9657 34.7346C34.2987 34.7346 34.5914 34.7346 34.8437 34.7346C34.8437 34.7346 33.8345 39.6592 33.9153 40.4161C33.996 41.1729 39.5968 44.2811 41.171 45.6333C42.7453 46.9856 47.1553 53.2726 47.1553 53.2726C47.1553 53.2726 44.0976 46.5718 41.9481 43.0499Z" fill="#7F7F7F"/>
<path d="M33.3309 23.3416C33.1202 23.4239 32.9286 23.5485 32.7679 23.7077C32.6073 23.8669 32.481 24.0574 32.3968 24.2673C32.3127 24.4773 32.2724 24.7023 32.2786 24.9283C32.2848 25.1544 32.3372 25.3769 32.4327 25.5819C33.1492 27.1057 38.2252 28.7809 38.9114 29.5075C39.5977 30.2341 39.416 32.9487 38.9114 33.7964C38.4069 34.6441 38.2252 34.8055 37.9023 34.7248C37.5794 34.644 36.5298 33.1101 34.5317 31.4955C32.5336 29.8809 31.696 29.8708 31.1612 28.7204C30.7326 27.0957 30.9458 25.3683 31.7566 23.8966C32.2006 23.3437 32.7971 22.9331 33.4721 22.7159L33.3309 23.3416Z" fill="url(#paint8_linear)"/>
<path d="M37.7715 32.9184C38.1059 32.9184 38.377 32.6473 38.377 32.3129C38.377 31.9785 38.1059 31.7074 37.7715 31.7074C37.4371 31.7074 37.166 31.9785 37.166 32.3129C37.166 32.6473 37.4371 32.9184 37.7715 32.9184Z" fill="url(#paint9_linear)"/>
<path d="M37.8919 32.8376C38.1818 32.8376 38.4167 32.6027 38.4167 32.3128C38.4167 32.023 38.1818 31.7881 37.8919 31.7881C37.6021 31.7881 37.3672 32.023 37.3672 32.3128C37.3672 32.6027 37.6021 32.8376 37.8919 32.8376Z" fill="#555555"/>
<path d="M49.8606 33.4534C49.7193 32.8681 47.4285 31.3039 46.5909 30.759L46.8836 30.3149C47.5294 29.3058 48.4578 28.0242 48.145 27.348C47.8322 26.6719 43.3213 22.8977 43.3213 22.8977L45.713 32.0608C46.0916 33.722 46.3513 35.4082 46.49 37.1065C46.9845 41.2642 47.1863 53.3537 47.1863 53.3537C47.5794 51.515 47.8358 49.6497 47.9533 47.7732C48.1147 44.7558 50.022 34.18 49.8606 33.4534Z" fill="#7F7F7F"/>
<path d="M41.5342 22.0701C41.9784 22.209 42.3729 22.4735 42.6701 22.8316C42.9674 23.1898 43.1546 23.6262 43.2094 24.0884C43.5626 25.8746 42.4222 27.2975 42.4222 28.3874C42.4222 30.89 42.6241 30.4057 42.6241 30.4057C42.7692 29.5289 43.0059 28.6698 43.3305 27.8424C43.8855 27.58 44.491 31.4249 44.8644 31.6671C45.6313 32.1414 46.0753 28.8213 45.3488 26.1168C44.6222 23.4123 43.391 22.2013 42.614 21.8279C41.8369 21.4545 41.5342 21.5756 41.5342 21.5756V22.0701Z" fill="url(#paint10_linear)"/>
<path d="M26.5884 82.1644C26.9944 83.1125 27.2563 84.1159 27.3654 85.1414C27.4292 87.0895 27.7516 89.0204 28.3241 90.8835C28.9397 92.0541 30.6451 93.7797 31.8561 93.4467C32.8653 93.1843 32.3708 90.9137 32.3405 89.4101C32.2528 88.3725 32.2528 87.3294 32.3405 86.2918C32.4011 86.0597 32.4818 86.1001 32.5323 86.201C32.6775 86.4342 32.8743 86.631 33.1075 86.7762L34.3285 87.5936C34.2565 86.7639 34.0088 85.959 33.6019 85.2322C32.9056 83.9405 31.9772 83.769 31.4827 83.1433C31.0674 82.4185 30.7614 81.6364 30.5745 80.8223L26.5884 82.1644Z" fill="#EBC7AD"/>
<path d="M25.7014 80.8931L26.1152 82.0233C26.1529 82.1306 26.2171 82.2265 26.3018 82.3024C26.3864 82.3782 26.4889 82.4315 26.5996 82.4573C27.4201 82.6578 28.2805 82.6228 29.0821 82.3564C29.7972 82.0901 30.4135 81.6111 30.8481 80.9839C30.9114 80.892 30.951 80.7859 30.9633 80.6749C30.9757 80.564 30.9603 80.4517 30.9187 80.3482L30.3334 78.8647C30.2983 78.7795 30.2464 78.7022 30.1807 78.6375C30.1151 78.5728 30.0371 78.522 29.9514 78.4881C29.8657 78.4542 29.774 78.4379 29.6819 78.4402C29.5897 78.4424 29.499 78.4633 29.4151 78.5014L26.1051 80.0454C25.9427 80.109 25.8106 80.232 25.7356 80.3894C25.6606 80.5469 25.6484 80.727 25.7014 80.8931Z" fill="white"/>
<path d="M27.1138 32.6762C27.0469 32.5884 26.9649 32.5132 26.8716 32.4542C24.8533 31.1827 22.9461 33.1101 22.169 35.6229C21.1102 39.5812 20.3013 43.6022 19.7471 47.662C18.8388 53.3738 17.537 59.3076 17.9003 61.4571C18.6624 64.5733 19.7834 67.5906 21.2406 70.4486C22.724 73.476 24.5607 79.0969 25.0754 80.54C25.117 80.6569 25.1825 80.7639 25.2676 80.8542C25.3527 80.9445 25.4556 81.0162 25.5698 81.0648C26.5509 81.4016 27.6162 81.4016 28.5973 81.0648C29.0546 80.9132 29.4663 80.6489 29.7943 80.2961C30.1224 79.9433 30.3563 79.5135 30.4743 79.0465C30.5336 78.8662 30.5336 78.6717 30.4743 78.4915C29.7376 76.5236 24.8029 63.3543 24.1671 61.78C23.5314 60.2057 26.3469 53.9591 28.2037 48.4895C30.0605 43.02 29.6872 35.8853 28.3854 34.2101L27.1138 32.6762Z" fill="#001A27"/>
<path d="M40.4148 30.6476C41.1848 30.149 42.1193 29.9716 43.0184 30.1531C43.5533 30.4256 43.2505 32.5145 43.0184 32.8778C42.83 33.0819 42.5896 33.2311 42.323 33.3093C42.0564 33.3875 41.7736 33.3918 41.5047 33.3218C40.9799 33.1704 39.8598 31.8384 39.9304 31.3742C39.959 31.227 40.0165 31.0869 40.0996 30.9622C40.1828 30.8374 40.2899 30.7305 40.4148 30.6476Z" fill="#555555"/>
<path d="M27.5581 79.3793L26.2967 79.8838C26.2278 79.9118 26.154 79.9258 26.0797 79.9252C26.0053 79.9246 25.9318 79.9094 25.8634 79.8803C25.795 79.8512 25.7329 79.809 25.6809 79.7559C25.6288 79.7028 25.5877 79.64 25.56 79.571C25.532 79.5021 25.518 79.4284 25.5186 79.354C25.5192 79.2797 25.5345 79.2062 25.5635 79.1377C25.5926 79.0693 25.6349 79.0073 25.6879 78.9552C25.741 78.9031 25.8038 78.8621 25.8728 78.8343L27.1342 78.3298C27.2031 78.3018 27.2769 78.2877 27.3512 78.2883C27.4256 78.289 27.4991 78.3042 27.5675 78.3333C27.6359 78.3623 27.698 78.4046 27.75 78.4577C27.8021 78.5108 27.8432 78.5736 27.8709 78.6426C27.8989 78.7115 27.9129 78.7852 27.9123 78.8596C27.9117 78.9339 27.8964 79.0074 27.8674 79.0758C27.8383 79.1443 27.796 79.2063 27.743 79.2584C27.6899 79.3104 27.6271 79.3515 27.5581 79.3793Z" fill="#3D3D3D"/>
<path d="M27.5372 78.9253L26.4574 79.3592C26.3383 79.4055 26.2057 79.4029 26.0885 79.3518C25.9713 79.3008 25.879 79.2055 25.8318 79.0867C25.7854 78.9676 25.7881 78.835 25.8391 78.7178C25.8902 78.6006 25.9854 78.5083 26.1042 78.4611L27.184 78.0372C27.3032 77.9909 27.4358 77.9935 27.553 78.0446C27.6702 78.0956 27.7625 78.1909 27.8097 78.3097C27.8529 78.4276 27.8487 78.5577 27.7979 78.6725C27.747 78.7874 27.6536 78.878 27.5372 78.9253Z" fill="#7F7F7F"/>
<path d="M27.0224 78.895L26.4371 79.1271C26.4047 79.1401 26.37 79.1465 26.335 79.1459C26.3001 79.1452 26.2657 79.1377 26.2337 79.1236C26.2017 79.1095 26.1729 79.0891 26.1489 79.0637C26.1249 79.0384 26.1063 79.0084 26.094 78.9757C26.081 78.9433 26.0746 78.9086 26.0752 78.8737C26.0758 78.8388 26.0834 78.8043 26.0975 78.7724C26.1116 78.7404 26.132 78.7116 26.1573 78.6876C26.1827 78.6636 26.2126 78.6449 26.2453 78.6326L26.8105 78.4106C26.8429 78.3976 26.8776 78.3913 26.9125 78.3919C26.9474 78.3925 26.9819 78.4001 27.0139 78.4142C27.0458 78.4283 27.0746 78.4486 27.0986 78.474C27.1226 78.4994 27.1413 78.5293 27.1536 78.562C27.1779 78.6238 27.1779 78.6925 27.1536 78.7543C27.1292 78.8162 27.0824 78.8664 27.0224 78.895Z" fill="#F2F2F2"/>
<path d="M42.8667 1.40271C43.9667 5.43929 41.797 7.13466 37.1247 7.06402C32.4523 6.99338 32.6945 11.6052 32.6945 11.6052C33.1618 11.1366 33.737 10.79 34.3697 10.596C37.4678 9.48597 38.5476 12.0088 42.5135 10.3841C46.4795 8.75939 45.541 5.40902 45.541 5.40902C45.2126 3.77324 44.2515 2.33334 42.8667 1.40271Z" fill="#DAA452"/>
<path d="M25.6405 103.68L21.836 95.7477C21.4727 95.0009 21.5635 94.2743 22.0378 94.123C22.5121 93.9817 23.1782 94.4661 23.5415 95.2229L26.0139 100.38C26.2662 100.915 26.7707 101.207 27.023 100.975L33.9357 95.2633C34.299 94.9404 34.9448 95.2633 35.4393 95.9193C35.9035 96.6055 35.9842 97.433 35.6209 97.766L27.3661 104.689C26.9322 105.082 26.0744 104.588 25.6405 103.68Z" fill="white"/>
<defs>
<linearGradient id="paint0_linear" x1="30.7063" y1="58.3288" x2="45.0463" y2="78.1081" gradientUnits="userSpaceOnUse">
<stop stop-color="#393243"/>
<stop offset="1" stop-color="#17002A"/>
</linearGradient>
<linearGradient id="paint1_linear" x1="430.392" y1="1136.78" x2="261.005" y2="1495.96" gradientUnits="userSpaceOnUse">
<stop stop-color="#292929"/>
<stop offset="1" stop-color="#828282"/>
</linearGradient>
<linearGradient id="paint2_linear" x1="87.2806" y1="80.4958" x2="90.8451" y2="53.9877" gradientUnits="userSpaceOnUse">
<stop stop-color="#89AAFF"/>
<stop offset="1" stop-color="white"/>
</linearGradient>
<linearGradient id="paint3_linear" x1="39.1105" y1="-172.958" x2="31.0754" y2="-184.881" gradientUnits="userSpaceOnUse">
<stop stop-color="#522A32"/>
<stop offset="1" stop-color="#B67775"/>
</linearGradient>
<linearGradient id="paint4_linear" x1="67.1062" y1="130.044" x2="76.9834" y2="118.716" gradientUnits="userSpaceOnUse">
<stop stop-color="#89AAFF"/>
<stop offset="1" stop-color="white"/>
</linearGradient>
<linearGradient id="paint5_linear" x1="37.7605" y1="21.6968" x2="40.4549" y2="18.8208" gradientUnits="userSpaceOnUse">
<stop offset="0.15" stop-color="#EF8C93"/>
<stop offset="1" stop-color="#FFD6D1"/>
</linearGradient>
<linearGradient id="paint6_linear" x1="119.774" y1="125.923" x2="115.234" y2="104.055" gradientUnits="userSpaceOnUse">
<stop stop-color="#89AAFF"/>
<stop offset="1" stop-color="white"/>
</linearGradient>
<linearGradient id="paint7_linear" x1="577.681" y1="986.052" x2="311.728" y2="580.944" gradientUnits="userSpaceOnUse">
<stop stop-color="#89AAFF"/>
<stop offset="1" stop-color="white"/>
</linearGradient>
<linearGradient id="paint8_linear" x1="201.279" y1="402.78" x2="237.815" y2="336.162" gradientUnits="userSpaceOnUse">
<stop stop-color="#89AAFF"/>
<stop offset="1" stop-color="white"/>
</linearGradient>
<linearGradient id="paint9_linear" x1="37.4486" y1="32.3129" x2="41.9696" y2="32.3129" gradientUnits="userSpaceOnUse">
<stop stop-color="#6B87FF"/>
<stop offset="1" stop-color="#F9FAFF"/>
</linearGradient>
<linearGradient id="paint10_linear" x1="175.916" y1="318.31" x2="131.507" y2="300.676" gradientUnits="userSpaceOnUse">
<stop stop-color="#89AAFF"/>
<stop offset="1" stop-color="white"/>
</linearGradient>
</defs>
</svg>
