<svg width="88" height="558" viewBox="0 0 88 558" fill="none" xmlns="http://www.w3.org/2000/svg">
<path d="M50 535L50 39" stroke="#48CDB7" stroke-width="3"/>
<circle cx="50" cy="23" r="13" transform="rotate(90 50 23)" fill="#9EDE87" stroke="white" stroke-width="7"/>
<path d="M12.5891 32.288C11.1971 32.288 9.95713 31.944 8.86913 31.256C7.78113 30.568 6.92513 29.576 6.30113 28.28C5.69313 26.968 5.38913 25.408 5.38913 23.6C5.38913 21.792 5.69313 20.24 6.30113 18.944C6.92513 17.632 7.78113 16.632 8.86913 15.944C9.95713 15.256 11.1971 14.912 12.5891 14.912C13.9811 14.912 15.2211 15.256 16.3091 15.944C17.3971 16.632 18.2451 17.632 18.8531 18.944C19.4771 20.24 19.7891 21.792 19.7891 23.6C19.7891 25.408 19.4771 26.968 18.8531 28.28C18.2451 29.576 17.3971 30.568 16.3091 31.256C15.2211 31.944 13.9811 32.288 12.5891 32.288ZM12.5891 29C13.6131 29 14.4131 28.56 14.9891 27.68C15.5811 26.8 15.8771 25.44 15.8771 23.6C15.8771 21.76 15.5811 20.4 14.9891 19.52C14.4131 18.64 13.6131 18.2 12.5891 18.2C11.5811 18.2 10.7811 18.64 10.1891 19.52C9.61313 20.4 9.32513 21.76 9.32513 23.6C9.32513 25.44 9.61313 26.8 10.1891 27.68C10.7811 28.56 11.5811 29 12.5891 29ZM28.0176 15.2L28.0176 32H24.1296L24.1296 18.32H20.7696V15.2H28.0176Z" fill="#9EDE87"/>
<line x1="88" y1="22.5" x2="67" y2="22.5" stroke="#48CDB7" stroke-width="3"/>
<circle cx="50" cy="281" r="13" transform="rotate(90 50 281)" fill="#9EDE87" stroke="white" stroke-width="7"/>
<path fill-rule="evenodd" clip-rule="evenodd" d="M48.4995 300.443C48.9948 300.481 49.4952 300.5 50.0001 300.5C60.7696 300.5 69.5001 291.77 69.5001 281C69.5001 270.23 60.7696 261.5 50.0001 261.5C49.4952 261.5 48.9948 261.519 48.4996 261.557L48.4996 264.567C48.9938 264.523 49.4943 264.5 50.0001 264.5C59.1128 264.5 66.5001 271.887 66.5001 281C66.5001 290.113 59.1128 297.5 50.0001 297.5C49.4942 297.5 48.9937 297.477 48.4995 297.433L48.4995 300.443Z" fill="#48CDB7"/>
<path d="M9.87819 289.788C8.48619 289.788 7.24619 289.444 6.15819 288.756C5.07019 288.068 4.21419 287.076 3.59019 285.78C2.98219 284.468 2.67819 282.908 2.67819 281.1C2.67819 279.292 2.98219 277.74 3.59019 276.444C4.21419 275.132 5.07019 274.132 6.15819 273.444C7.24619 272.756 8.48619 272.412 9.87819 272.412C11.2702 272.412 12.5102 272.756 13.5982 273.444C14.6862 274.132 15.5342 275.132 16.1422 276.444C16.7662 277.74 17.0782 279.292 17.0782 281.1C17.0782 282.908 16.7662 284.468 16.1422 285.78C15.5342 287.076 14.6862 288.068 13.5982 288.756C12.5102 289.444 11.2702 289.788 9.87819 289.788ZM9.87819 286.5C10.9022 286.5 11.7022 286.06 12.2782 285.18C12.8702 284.3 13.1662 282.94 13.1662 281.1C13.1662 279.26 12.8702 277.9 12.2782 277.02C11.7022 276.14 10.9022 275.7 9.87819 275.7C8.87019 275.7 8.07019 276.14 7.47819 277.02C6.90219 277.9 6.61419 279.26 6.61419 281.1C6.61419 282.94 6.90219 284.3 7.47819 285.18C8.07019 286.06 8.87019 286.5 9.87819 286.5ZM26.5809 279.54C28.0529 279.78 29.1809 280.332 29.9649 281.196C30.7489 282.044 31.1409 283.1 31.1409 284.364C31.1409 285.34 30.8849 286.244 30.3729 287.076C29.8609 287.892 29.0769 288.548 28.0209 289.044C26.9809 289.54 25.7009 289.788 24.1809 289.788C22.9969 289.788 21.8289 289.636 20.6769 289.332C19.5409 289.012 18.5729 288.564 17.7729 287.988L19.2849 285.012C19.9249 285.492 20.6609 285.868 21.4929 286.14C22.3409 286.396 23.2049 286.524 24.0849 286.524C25.0609 286.524 25.8289 286.34 26.3889 285.972C26.9489 285.588 27.2289 285.052 27.2289 284.364C27.2289 282.988 26.1809 282.3 24.0849 282.3H22.3089V279.732L25.7649 275.82H18.6129V272.7H30.3729V275.22L26.5809 279.54Z" fill="#9EDE87"/>
<line x1="88" y1="280.5" x2="67" y2="280.5" stroke="#48CDB7" stroke-width="3"/>
<circle cx="50" cy="535" r="13" transform="rotate(90 50 535)" fill="#9EDE87" stroke="white" stroke-width="7"/>
<path d="M9.5735 543.788C8.1815 543.788 6.9415 543.444 5.8535 542.756C4.7655 542.068 3.9095 541.076 3.2855 539.78C2.6775 538.468 2.3735 536.908 2.3735 535.1C2.3735 533.292 2.6775 531.74 3.2855 530.444C3.9095 529.132 4.7655 528.132 5.8535 527.444C6.9415 526.756 8.1815 526.412 9.5735 526.412C10.9655 526.412 12.2055 526.756 13.2935 527.444C14.3815 528.132 15.2295 529.132 15.8375 530.444C16.4615 531.74 16.7735 533.292 16.7735 535.1C16.7735 536.908 16.4615 538.468 15.8375 539.78C15.2295 541.076 14.3815 542.068 13.2935 542.756C12.2055 543.444 10.9655 543.788 9.5735 543.788ZM9.5735 540.5C10.5975 540.5 11.3975 540.06 11.9735 539.18C12.5655 538.3 12.8615 536.94 12.8615 535.1C12.8615 533.26 12.5655 531.9 11.9735 531.02C11.3975 530.14 10.5975 529.7 9.5735 529.7C8.5655 529.7 7.7655 530.14 7.1735 531.02C6.5975 531.9 6.3095 533.26 6.3095 535.1C6.3095 536.94 6.5975 538.3 7.1735 539.18C7.7655 540.06 8.5655 540.5 9.5735 540.5ZM24.4226 533.012C26.7906 533.012 28.5346 533.484 29.6546 534.428C30.7906 535.372 31.3586 536.636 31.3586 538.22C31.3586 539.244 31.1026 540.18 30.5906 541.028C30.0786 541.86 29.2946 542.532 28.2386 543.044C27.1986 543.54 25.9106 543.788 24.3746 543.788C23.1906 543.788 22.0226 543.636 20.8706 543.332C19.7346 543.012 18.7666 542.564 17.9666 541.988L19.5026 539.012C20.1426 539.492 20.8786 539.868 21.7106 540.14C22.5426 540.396 23.3986 540.524 24.2786 540.524C25.2546 540.524 26.0226 540.332 26.5826 539.948C27.1426 539.564 27.4226 539.028 27.4226 538.34C27.4226 537.62 27.1266 537.076 26.5346 536.708C25.9586 536.34 24.9506 536.156 23.5106 536.156H19.2146L20.0786 526.7H30.3266V529.82H23.3186L23.0546 533.012H24.4226Z" fill="#9EDE87"/>
<line x1="88" y1="536.5" x2="67" y2="536.5" stroke="#48CDB7" stroke-width="3"/>
<line x1="88" y1="152.5" x2="67" y2="152.5" stroke="#48CDB7" stroke-width="3"/>
<circle cx="50" cy="152" r="13" transform="rotate(90 50 152)" fill="#9EDE87" stroke="white" stroke-width="7"/>
<path fill-rule="evenodd" clip-rule="evenodd" d="M70.0004 22.4995C70.0004 22.4997 70.0004 22.4999 70.0004 22.5C70.0004 33.2696 61.27 42 50.5004 42C49.8251 42 49.1577 41.9657 48.5 41.8987L48.5 38.88C49.1557 38.9593 49.8233 39 50.5004 39C59.6131 39 67.0004 31.6127 67.0004 22.5C67.0004 22.4999 67.0004 22.4997 67.0004 22.4996L70.0004 22.4995Z" fill="#48CDB7"/>
<path fill-rule="evenodd" clip-rule="evenodd" d="M70.0004 535.5C70.0004 535.5 70.0004 535.5 70.0004 535.5C70.0004 524.73 61.27 516 50.5004 516C49.8251 516 49.1577 516.034 48.5 516.101L48.5 519.12C49.1557 519.041 49.8233 519 50.5004 519C59.6131 519 67.0004 526.387 67.0004 535.5C67.0004 535.5 67.0004 535.5 67.0004 535.5L70.0004 535.5Z" fill="#48CDB7"/>
<path d="M9.83131 160.788C8.43931 160.788 7.19931 160.444 6.11131 159.756C5.02331 159.068 4.16731 158.076 3.54331 156.78C2.93531 155.468 2.63131 153.908 2.63131 152.1C2.63131 150.292 2.93531 148.74 3.54331 147.444C4.16731 146.132 5.02331 145.132 6.11131 144.444C7.19931 143.756 8.43931 143.412 9.83131 143.412C11.2233 143.412 12.4633 143.756 13.5513 144.444C14.6393 145.132 15.4873 146.132 16.0953 147.444C16.7193 148.74 17.0313 150.292 17.0313 152.1C17.0313 153.908 16.7193 155.468 16.0953 156.78C15.4873 158.076 14.6393 159.068 13.5513 159.756C12.4633 160.444 11.2233 160.788 9.83131 160.788ZM9.83131 157.5C10.8553 157.5 11.6553 157.06 12.2313 156.18C12.8233 155.3 13.1193 153.94 13.1193 152.1C13.1193 150.26 12.8233 148.9 12.2313 148.02C11.6553 147.14 10.8553 146.7 9.83131 146.7C8.82331 146.7 8.02331 147.14 7.43131 148.02C6.85531 148.9 6.56731 150.26 6.56731 152.1C6.56731 153.94 6.85531 155.3 7.43131 156.18C8.02331 157.06 8.82331 157.5 9.83131 157.5ZM31.3318 157.332L31.3318 160.5H18.6357V157.98L25.1158 151.86C25.8038 151.204 26.2678 150.644 26.5078 150.18C26.7478 149.7 26.8678 149.228 26.8678 148.764C26.8678 148.092 26.6358 147.58 26.1718 147.228C25.7238 146.86 25.0598 146.676 24.1797 146.676C23.4438 146.676 22.7798 146.82 22.1878 147.108C21.5958 147.38 21.0998 147.796 20.6998 148.356L17.8678 146.532C18.5238 145.556 19.4278 144.796 20.5798 144.252C21.7318 143.692 23.0518 143.412 24.5398 143.412C25.7878 143.412 26.8758 143.62 27.8038 144.036C28.7478 144.436 29.4758 145.012 29.9878 145.764C30.5158 146.5 30.7798 147.372 30.7798 148.38C30.7798 149.292 30.5878 150.148 30.2038 150.948C29.8198 151.748 29.0758 152.66 27.9718 153.684L24.1078 157.332H31.3318Z" fill="#9EDE87"/>
<circle cx="50" cy="410" r="13" transform="rotate(90 50 410)" fill="#9EDE87" stroke="white" stroke-width="7"/>
<path fill-rule="evenodd" clip-rule="evenodd" d="M49 390.557C49.4952 390.519 49.9957 390.5 50.5005 390.5C61.2701 390.5 70.0005 399.23 70.0005 410C70.0005 420.77 61.2701 429.5 50.5005 429.5C49.9957 429.5 49.4953 429.481 49.0001 429.443L49.0001 426.433C49.4943 426.477 49.9948 426.5 50.5005 426.5C59.6132 426.5 67.0005 419.113 67.0005 410C67.0005 400.887 59.6132 393.5 50.5005 393.5C49.9947 393.5 49.4942 393.523 49 393.567L49 390.557Z" fill="#48CDB7"/>
<line x1="88" y1="408.5" x2="67" y2="408.5" stroke="#48CDB7" stroke-width="3"/>
<path d="M8.30006 418.788C6.90806 418.788 5.66806 418.444 4.58006 417.756C3.49206 417.068 2.63606 416.076 2.01206 414.78C1.40406 413.468 1.10006 411.908 1.10006 410.1C1.10006 408.292 1.40406 406.74 2.01206 405.444C2.63606 404.132 3.49206 403.132 4.58006 402.444C5.66806 401.756 6.90806 401.412 8.30006 401.412C9.69206 401.412 10.9321 401.756 12.0201 402.444C13.1081 403.132 13.9561 404.132 14.5641 405.444C15.1881 406.74 15.5001 408.292 15.5001 410.1C15.5001 411.908 15.1881 413.468 14.5641 414.78C13.9561 416.076 13.1081 417.068 12.0201 417.756C10.9321 418.444 9.69206 418.788 8.30006 418.788ZM8.30006 415.5C9.32406 415.5 10.1241 415.06 10.7001 414.18C11.2921 413.3 11.5881 411.94 11.5881 410.1C11.5881 408.26 11.2921 406.9 10.7001 406.02C10.1241 405.14 9.32406 404.7 8.30006 404.7C7.29206 404.7 6.49206 405.14 5.90006 406.02C5.32406 406.9 5.03606 408.26 5.03606 410.1C5.03606 411.94 5.32406 413.3 5.90006 414.18C6.49206 415.06 7.29206 415.5 8.30006 415.5ZM32.7731 414.972H30.0371L30.0371 418.5H26.2451L26.2451 414.972H17.1971V412.356L25.1171 401.7H29.1971L21.8531 411.804H26.3651V408.66H30.0371V411.804H32.7731V414.972Z" fill="#9EDE87"/>
<path fill-rule="evenodd" clip-rule="evenodd" d="M48.4995 171.443C48.9948 171.481 49.4952 171.5 50.0001 171.5C60.7696 171.5 69.5001 162.77 69.5001 152C69.5001 141.23 60.7696 132.5 50.0001 132.5C49.4952 132.5 48.9948 132.519 48.4996 132.557L48.4996 135.567C48.9938 135.523 49.4943 135.5 50.0001 135.5C59.1128 135.5 66.5001 142.887 66.5001 152C66.5001 161.113 59.1128 168.5 50.0001 168.5C49.4942 168.5 48.9937 168.477 48.4995 168.433L48.4995 171.443Z" fill="#48CDB7"/>
</svg>
