<svg width="145" height="592" viewBox="0 0 145 592" fill="none" xmlns="http://www.w3.org/2000/svg">
<path d="M77 552L77 56" stroke="#48CDB7" stroke-width="3"/>
<circle cx="77" cy="40" r="13" transform="rotate(90 77 40)" fill="#9EDE87" stroke="white" stroke-width="7"/>
<path fill-rule="evenodd" clip-rule="evenodd" d="M96.4995 40C96.4995 29.2304 87.7691 20.5 76.9995 20.5C66.23 20.5 57.4995 29.2304 57.4995 40C57.4995 50.2648 65.4308 58.6772 75.4995 59.4432L75.4995 56.4327C67.0898 55.6749 60.4995 48.6071 60.4995 40C60.4995 30.8873 67.8868 23.5 76.9995 23.5C86.1122 23.5 93.4995 30.8873 93.4995 40L96.4995 40Z" fill="#48CDB7"/>
<path d="M12.5438 53.432C10.4558 53.432 8.59584 52.916 6.96384 51.884C5.33184 50.852 4.04784 49.364 3.11184 47.42C2.19984 45.452 1.74384 43.112 1.74384 40.4C1.74384 37.688 2.19984 35.36 3.11184 33.416C4.04784 31.448 5.33184 29.948 6.96384 28.916C8.59584 27.884 10.4558 27.368 12.5438 27.368C14.6318 27.368 16.4918 27.884 18.1238 28.916C19.7558 29.948 21.0278 31.448 21.9398 33.416C22.8758 35.36 23.3438 37.688 23.3438 40.4C23.3438 43.112 22.8758 45.452 21.9398 47.42C21.0278 49.364 19.7558 50.852 18.1238 51.884C16.4918 52.916 14.6318 53.432 12.5438 53.432ZM12.5438 48.5C14.0798 48.5 15.2798 47.84 16.1438 46.52C17.0318 45.2 17.4758 43.16 17.4758 40.4C17.4758 37.64 17.0318 35.6 16.1438 34.28C15.2798 32.96 14.0798 32.3 12.5438 32.3C11.0318 32.3 9.83184 32.96 8.94384 34.28C8.07984 35.6 7.64784 37.64 7.64784 40.4C7.64784 43.16 8.07984 45.2 8.94384 46.52C9.83184 47.84 11.0318 48.5 12.5438 48.5ZM35.6865 27.8V53H29.8545L29.8545 32.48H24.8145V27.8H35.6865Z" fill="#9EDE87"/>
<line x1="144" y1="41.5" x2="94" y2="41.5" stroke="#48CDB7" stroke-width="3"/>
<rect x="145" width="80" height="1" transform="rotate(90 145 0)" fill="#9EDE87"/>
<circle cx="77" cy="298" r="13" transform="rotate(90 77 298)" fill="#9EDE87" stroke="white" stroke-width="7"/>
<path fill-rule="evenodd" clip-rule="evenodd" d="M75.4995 317.443C75.9948 317.481 76.4952 317.5 77.0001 317.5C87.7696 317.5 96.5001 308.77 96.5001 298C96.5001 287.23 87.7696 278.5 77.0001 278.5C76.4952 278.5 75.9948 278.519 75.4996 278.557L75.4996 281.567C75.9938 281.523 76.4943 281.5 77.0001 281.5C86.1128 281.5 93.5001 288.887 93.5001 298C93.5001 307.113 86.1128 314.5 77.0001 314.5C76.4942 314.5 75.9937 314.477 75.4995 314.433L75.4995 317.443Z" fill="#48CDB7"/>
<path d="M12.5106 310.932C10.4226 310.932 8.56264 310.416 6.93064 309.384C5.29864 308.352 4.01464 306.864 3.07864 304.92C2.16664 302.952 1.71064 300.612 1.71064 297.9C1.71064 295.188 2.16664 292.86 3.07864 290.916C4.01464 288.948 5.29864 287.448 6.93064 286.416C8.56264 285.384 10.4226 284.868 12.5106 284.868C14.5986 284.868 16.4586 285.384 18.0906 286.416C19.7226 287.448 20.9946 288.948 21.9066 290.916C22.8426 292.86 23.3106 295.188 23.3106 297.9C23.3106 300.612 22.8426 302.952 21.9066 304.92C20.9946 306.864 19.7226 308.352 18.0906 309.384C16.4586 310.416 14.5986 310.932 12.5106 310.932ZM12.5106 306C14.0466 306 15.2466 305.34 16.1106 304.02C16.9986 302.7 17.4426 300.66 17.4426 297.9C17.4426 295.14 16.9986 293.1 16.1106 291.78C15.2466 290.46 14.0466 289.8 12.5106 289.8C10.9986 289.8 9.79864 290.46 8.91064 291.78C8.04664 293.1 7.61464 295.14 7.61464 297.9C7.61464 300.66 8.04664 302.7 8.91064 304.02C9.79864 305.34 10.9986 306 12.5106 306ZM37.5647 295.56C39.7727 295.92 41.4647 296.748 42.6407 298.044C43.8167 299.316 44.4047 300.9 44.4047 302.796C44.4047 304.26 44.0207 305.616 43.2527 306.864C42.4847 308.088 41.3087 309.072 39.7247 309.816C38.1647 310.56 36.2447 310.932 33.9647 310.932C32.1887 310.932 30.4367 310.704 28.7087 310.248C27.0047 309.768 25.5527 309.096 24.3527 308.232L26.6207 303.768C27.5807 304.488 28.6847 305.052 29.9327 305.46C31.2047 305.844 32.5007 306.036 33.8207 306.036C35.2847 306.036 36.4367 305.76 37.2767 305.208C38.1167 304.632 38.5367 303.828 38.5367 302.796C38.5367 300.732 36.9647 299.7 33.8207 299.7H31.1567V295.848L36.3407 289.98H25.6127V285.3H43.2527V289.08L37.5647 295.56Z" fill="#9EDE87"/>
<line x1="144" y1="297.5" x2="94" y2="297.5" stroke="#48CDB7" stroke-width="3"/>
<rect x="145" y="256" width="80" height="1" transform="rotate(90 145 256)" fill="#9EDE87"/>
<circle cx="77" cy="552" r="13" transform="rotate(90 77 552)" fill="#9EDE87" stroke="white" stroke-width="7"/>
<path fill-rule="evenodd" clip-rule="evenodd" d="M96.4995 552C96.4995 562.77 87.7691 571.5 76.9995 571.5C66.23 571.5 57.4995 562.77 57.4995 552C57.4995 541.735 65.4308 533.323 75.4995 532.557L75.4995 535.567C67.0898 536.325 60.4995 543.393 60.4995 552C60.4995 561.113 67.8868 568.5 76.9995 568.5C86.1122 568.5 93.4995 561.113 93.4995 552L96.4995 552Z" fill="#48CDB7"/>
<path d="M12.2821 564.932C10.1941 564.932 8.33413 564.416 6.70213 563.384C5.07013 562.352 3.78613 560.864 2.85013 558.92C1.93813 556.952 1.48213 554.612 1.48213 551.9C1.48213 549.188 1.93813 546.86 2.85013 544.916C3.78613 542.948 5.07013 541.448 6.70213 540.416C8.33413 539.384 10.1941 538.868 12.2821 538.868C14.3701 538.868 16.2301 539.384 17.8621 540.416C19.4941 541.448 20.7661 542.948 21.6781 544.916C22.6141 546.86 23.0821 549.188 23.0821 551.9C23.0821 554.612 22.6141 556.952 21.6781 558.92C20.7661 560.864 19.4941 562.352 17.8621 563.384C16.2301 564.416 14.3701 564.932 12.2821 564.932ZM12.2821 560C13.8181 560 15.0181 559.34 15.8821 558.02C16.7701 556.7 17.2141 554.66 17.2141 551.9C17.2141 549.14 16.7701 547.1 15.8821 545.78C15.0181 544.46 13.8181 543.8 12.2821 543.8C10.7701 543.8 9.57013 544.46 8.68213 545.78C7.81813 547.1 7.38613 549.14 7.38613 551.9C7.38613 554.66 7.81813 556.7 8.68213 558.02C9.57013 559.34 10.7701 560 12.2821 560ZM34.5557 548.768C38.1077 548.768 40.7237 549.476 42.4037 550.892C44.1077 552.308 44.9597 554.204 44.9597 556.58C44.9597 558.116 44.5757 559.52 43.8077 560.792C43.0397 562.04 41.8637 563.048 40.2797 563.816C38.7197 564.56 36.7877 564.932 34.4837 564.932C32.7077 564.932 30.9557 564.704 29.2277 564.248C27.5237 563.768 26.0717 563.096 24.8717 562.232L27.1757 557.768C28.1357 558.488 29.2397 559.052 30.4877 559.46C31.7357 559.844 33.0197 560.036 34.3397 560.036C35.8037 560.036 36.9557 559.748 37.7957 559.172C38.6357 558.596 39.0557 557.792 39.0557 556.76C39.0557 555.68 38.6117 554.864 37.7237 554.312C36.8597 553.76 35.3477 553.484 33.1877 553.484H26.7437L28.0397 539.3H43.4117V543.98H32.8997L32.5037 548.768H34.5557Z" fill="#9EDE87"/>
<line x1="144" y1="553.5" x2="94" y2="553.5" stroke="#48CDB7" stroke-width="3"/>
<rect x="145" y="512" width="80" height="1" transform="rotate(90 145 512)" fill="#9EDE87"/>
<line x1="144" y1="169.5" x2="94" y2="169.5" stroke="#48CDB7" stroke-width="3"/>
<rect x="145" y="128" width="80" height="1" transform="rotate(90 145 128)" fill="#9EDE87"/>
<circle cx="77" cy="169" r="13" transform="rotate(90 77 169)" fill="#9EDE87" stroke="white" stroke-width="7"/>
<path fill-rule="evenodd" clip-rule="evenodd" d="M76 149.557C76.4952 149.519 76.9957 149.5 77.5005 149.5C88.2701 149.5 97.0005 158.23 97.0005 169C97.0005 179.77 88.2701 188.5 77.5005 188.5C76.9957 188.5 76.4953 188.481 76.0001 188.443L76.0001 185.433C76.4943 185.477 76.9948 185.5 77.5005 185.5C86.6132 185.5 94.0005 178.113 94.0005 169C94.0005 159.887 86.6132 152.5 77.5005 152.5C76.9947 152.5 76.4942 152.523 76 152.567L76 149.557Z" fill="#48CDB7"/>
<path d="M12.4755 181.932C10.3875 181.932 8.52748 181.416 6.89548 180.384C5.26348 179.352 3.97948 177.864 3.04348 175.92C2.13148 173.952 1.67548 171.612 1.67548 168.9C1.67548 166.188 2.13148 163.86 3.04348 161.916C3.97948 159.948 5.26348 158.448 6.89548 157.416C8.52748 156.384 10.3875 155.868 12.4755 155.868C14.5635 155.868 16.4235 156.384 18.0555 157.416C19.6875 158.448 20.9595 159.948 21.8715 161.916C22.8075 163.86 23.2755 166.188 23.2755 168.9C23.2755 171.612 22.8075 173.952 21.8715 175.92C20.9595 177.864 19.6875 179.352 18.0555 180.384C16.4235 181.416 14.5635 181.932 12.4755 181.932ZM12.4755 177C14.0115 177 15.2115 176.34 16.0755 175.02C16.9635 173.7 17.4075 171.66 17.4075 168.9C17.4075 166.14 16.9635 164.1 16.0755 162.78C15.2115 161.46 14.0115 160.8 12.4755 160.8C10.9635 160.8 9.76349 161.46 8.87548 162.78C8.01148 164.1 7.57948 166.14 7.57948 168.9C7.57948 171.66 8.01148 173.7 8.87548 175.02C9.76349 176.34 10.9635 177 12.4755 177ZM44.7261 176.748V181.5H25.6821V177.72L35.4021 168.54C36.4341 167.556 37.1301 166.716 37.4901 166.02C37.8501 165.3 38.0301 164.592 38.0301 163.896C38.0301 162.888 37.6821 162.12 36.9861 161.592C36.3141 161.04 35.3181 160.764 33.9981 160.764C32.8941 160.764 31.8981 160.98 31.0101 161.412C30.1221 161.82 29.3781 162.444 28.7781 163.284L24.5301 160.548C25.5141 159.084 26.8701 157.944 28.5981 157.128C30.3261 156.288 32.3061 155.868 34.5381 155.868C36.4101 155.868 38.0421 156.18 39.4341 156.804C40.8501 157.404 41.9421 158.268 42.7101 159.396C43.5021 160.5 43.8981 161.808 43.8981 163.32C43.8981 164.688 43.6101 165.972 43.0341 167.172C42.4581 168.372 41.3421 169.74 39.6861 171.276L33.8901 176.748H44.7261Z" fill="#9EDE87"/>
<circle cx="77" cy="427" r="13" transform="rotate(90 77 427)" fill="#9EDE87" stroke="white" stroke-width="7"/>
<path fill-rule="evenodd" clip-rule="evenodd" d="M78.5 407.557C78.0048 407.519 77.5043 407.5 76.9995 407.5C66.2299 407.5 57.4995 416.23 57.4995 427C57.4995 437.77 66.2299 446.5 76.9995 446.5C77.5043 446.5 78.0047 446.481 78.4999 446.443L78.4999 443.433C78.0057 443.477 77.5052 443.5 76.9995 443.5C67.8868 443.5 60.4995 436.113 60.4995 427C60.4995 417.887 67.8868 410.5 76.9995 410.5C77.5053 410.5 78.0058 410.523 78.5 410.567L78.5 407.557Z" fill="#48CDB7"/>
<line x1="144" y1="425.5" x2="94" y2="425.5" stroke="#48CDB7" stroke-width="3"/>
<rect x="145" y="384" width="80" height="1" transform="rotate(90 145 384)" fill="#9EDE87"/>
<path d="M12.577 439.932C10.489 439.932 8.62905 439.416 6.99705 438.384C5.36505 437.352 4.08105 435.864 3.14505 433.92C2.23305 431.952 1.77705 429.612 1.77705 426.9C1.77705 424.188 2.23305 421.86 3.14505 419.916C4.08105 417.948 5.36505 416.448 6.99705 415.416C8.62905 414.384 10.489 413.868 12.577 413.868C14.665 413.868 16.525 414.384 18.157 415.416C19.789 416.448 21.061 417.948 21.973 419.916C22.909 421.86 23.377 424.188 23.377 426.9C23.377 429.612 22.909 431.952 21.973 433.92C21.061 435.864 19.789 437.352 18.157 438.384C16.525 439.416 14.665 439.932 12.577 439.932ZM12.577 435C14.113 435 15.313 434.34 16.177 433.02C17.065 431.7 17.509 429.66 17.509 426.9C17.509 424.14 17.065 422.1 16.177 420.78C15.313 419.46 14.113 418.8 12.577 418.8C11.065 418.8 9.86505 419.46 8.97705 420.78C8.11305 422.1 7.68105 424.14 7.68105 426.9C7.68105 429.66 8.11305 431.7 8.97705 433.02C9.86505 434.34 11.065 435 12.577 435ZM49.2866 434.208H45.1826V439.5H39.4946V434.208H25.9226L25.9226 430.284L37.8026 414.3H43.9226L32.9066 429.456H39.6746V424.74H45.1826V429.456H49.2866V434.208Z" fill="#9EDE87"/>
</svg>
