<svg width="1160" height="181" viewBox="0 0 1160 181" fill="none" xmlns="http://www.w3.org/2000/svg">
<rect x="420" width="320" height="1" fill="#9EDE87"/>
<rect x="840" width="320" height="1" fill="#9EDE87"/>
<rect x="630" y="180" width="320" height="1" fill="#9EDE87"/>
<line x1="1000" y1="90.5" x2="166" y2="90.5" stroke="#48CDB7" stroke-width="3"/>
<line x1="580.5" y1="1" x2="580.5" y2="74" stroke="#48CDB7" stroke-width="3"/>
<line x1="1001.5" y1="1" x2="1001.5" y2="74" stroke="#48CDB7" stroke-width="3"/>
<line x1="791.5" y1="107" x2="791.5" y2="180" stroke="#48CDB7" stroke-width="3"/>
<circle cx="580.5" cy="90.5" r="13" fill="#9EDE87" stroke="white" stroke-width="7"/>
<circle cx="1000.5" cy="90.5" r="13" fill="#9EDE87" stroke="white" stroke-width="7"/>
<circle cx="790.5" cy="90.5" r="13" fill="#9EDE87" stroke="white" stroke-width="7"/>
<path fill-rule="evenodd" clip-rule="evenodd" d="M1000.5 71.0002C1011.27 71.0002 1020 79.7307 1020 90.5002C1020 101.27 1011.27 110 1000.5 110C990.235 110 981.823 102.069 981.057 92.0002H984.067C984.825 100.41 991.893 107 1000.5 107C1009.61 107 1017 99.6129 1017 90.5002C1017 81.3875 1009.61 74.0002 1000.5 74.0002V71.0002Z" fill="#48CDB7"/>
<path fill-rule="evenodd" clip-rule="evenodd" d="M599.943 92.0005C599.981 91.5052 600 91.0048 600 90.4999C600 79.7304 591.27 70.9999 580.5 70.9999C569.73 70.9999 561 79.7304 561 90.4999C561 91.0048 561.019 91.5052 561.057 92.0004L564.067 92.0004C564.023 91.5062 564 91.0057 564 90.4999C564 81.3872 571.387 73.9999 580.5 73.9999C589.613 73.9999 597 81.3872 597 90.4999C597 91.0058 596.977 91.5063 596.933 92.0005L599.943 92.0005Z" fill="#48CDB7"/>
<path fill-rule="evenodd" clip-rule="evenodd" d="M771.057 89C771.019 89.4952 771 89.9957 771 90.5005C771 101.27 779.73 110.001 790.5 110.001C801.27 110.001 810 101.27 810 90.5005C810 89.9957 809.981 89.4953 809.943 89.0001L806.933 89.0001C806.977 89.4943 807 89.9948 807 90.5005C807 99.6132 799.613 107.001 790.5 107.001C781.387 107.001 774 99.6132 774 90.5005C774 89.9947 774.023 89.4942 774.067 89L771.057 89Z" fill="#48CDB7"/>
<rect width="320" height="1" fill="#9EDE87"/>
<line x1="161.5" y1="1" x2="161.5" y2="74" stroke="#48CDB7" stroke-width="3"/>
<circle cx="160.5" cy="90.5" r="13" fill="#9EDE87" stroke="white" stroke-width="7"/>
<path fill-rule="evenodd" clip-rule="evenodd" d="M160.5 71.0002C149.73 71.0002 141 79.7307 141 90.5002C141 101.27 149.73 110 160.5 110C170.765 110 179.177 102.069 179.943 92.0002H176.933C176.175 100.41 169.107 107 160.5 107C151.387 107 144 99.6129 144 90.5002C144 81.3875 151.387 74.0002 160.5 74.0002V71.0002Z" fill="#48CDB7"/>
<path d="M153.544 151.432C151.456 151.432 149.596 150.916 147.964 149.884C146.332 148.852 145.048 147.364 144.112 145.42C143.2 143.452 142.744 141.112 142.744 138.4C142.744 135.688 143.2 133.36 144.112 131.416C145.048 129.448 146.332 127.948 147.964 126.916C149.596 125.884 151.456 125.368 153.544 125.368C155.632 125.368 157.492 125.884 159.124 126.916C160.756 127.948 162.028 129.448 162.94 131.416C163.876 133.36 164.344 135.688 164.344 138.4C164.344 141.112 163.876 143.452 162.94 145.42C162.028 147.364 160.756 148.852 159.124 149.884C157.492 150.916 155.632 151.432 153.544 151.432ZM153.544 146.5C155.08 146.5 156.28 145.84 157.144 144.52C158.032 143.2 158.476 141.16 158.476 138.4C158.476 135.64 158.032 133.6 157.144 132.28C156.28 130.96 155.08 130.3 153.544 130.3C152.032 130.3 150.832 130.96 149.944 132.28C149.08 133.6 148.648 135.64 148.648 138.4C148.648 141.16 149.08 143.2 149.944 144.52C150.832 145.84 152.032 146.5 153.544 146.5ZM176.687 125.8V151H170.854V130.48H165.815V125.8H176.687Z" fill="#9EDE87"/>
<path d="M569.511 146.432C567.423 146.432 565.563 145.916 563.931 144.884C562.299 143.852 561.015 142.364 560.079 140.42C559.167 138.452 558.711 136.112 558.711 133.4C558.711 130.688 559.167 128.36 560.079 126.416C561.015 124.448 562.299 122.948 563.931 121.916C565.563 120.884 567.423 120.368 569.511 120.368C571.599 120.368 573.459 120.884 575.091 121.916C576.723 122.948 577.995 124.448 578.907 126.416C579.843 128.36 580.311 130.688 580.311 133.4C580.311 136.112 579.843 138.452 578.907 140.42C577.995 142.364 576.723 143.852 575.091 144.884C573.459 145.916 571.599 146.432 569.511 146.432ZM569.511 141.5C571.047 141.5 572.247 140.84 573.111 139.52C573.999 138.2 574.443 136.16 574.443 133.4C574.443 130.64 573.999 128.6 573.111 127.28C572.247 125.96 571.047 125.3 569.511 125.3C567.999 125.3 566.799 125.96 565.911 127.28C565.047 128.6 564.615 130.64 564.615 133.4C564.615 136.16 565.047 138.2 565.911 139.52C566.799 140.84 567.999 141.5 569.511 141.5ZM594.565 131.06C596.773 131.42 598.465 132.248 599.641 133.544C600.817 134.816 601.405 136.4 601.405 138.296C601.405 139.76 601.021 141.116 600.253 142.364C599.485 143.588 598.309 144.572 596.725 145.316C595.165 146.06 593.245 146.432 590.965 146.432C589.189 146.432 587.437 146.204 585.709 145.748C584.005 145.268 582.553 144.596 581.353 143.732L583.621 139.268C584.581 139.988 585.685 140.552 586.933 140.96C588.205 141.344 589.501 141.536 590.821 141.536C592.285 141.536 593.437 141.26 594.277 140.708C595.117 140.132 595.537 139.328 595.537 138.296C595.537 136.232 593.965 135.2 590.821 135.2H588.157V131.348L593.341 125.48H582.613V120.8H600.253V124.58L594.565 131.06Z" fill="#9EDE87"/>
<path d="M989.282 151.432C987.194 151.432 985.334 150.916 983.702 149.884C982.07 148.852 980.786 147.364 979.85 145.42C978.938 143.452 978.482 141.112 978.482 138.4C978.482 135.688 978.938 133.36 979.85 131.416C980.786 129.448 982.07 127.948 983.702 126.916C985.334 125.884 987.194 125.368 989.282 125.368C991.37 125.368 993.23 125.884 994.862 126.916C996.494 127.948 997.766 129.448 998.678 131.416C999.614 133.36 1000.08 135.688 1000.08 138.4C1000.08 141.112 999.614 143.452 998.678 145.42C997.766 147.364 996.494 148.852 994.862 149.884C993.23 150.916 991.37 151.432 989.282 151.432ZM989.282 146.5C990.818 146.5 992.018 145.84 992.882 144.52C993.77 143.2 994.214 141.16 994.214 138.4C994.214 135.64 993.77 133.6 992.882 132.28C992.018 130.96 990.818 130.3 989.282 130.3C987.77 130.3 986.57 130.96 985.682 132.28C984.818 133.6 984.386 135.64 984.386 138.4C984.386 141.16 984.818 143.2 985.682 144.52C986.57 145.84 987.77 146.5 989.282 146.5ZM1011.56 135.268C1015.11 135.268 1017.72 135.976 1019.4 137.392C1021.11 138.808 1021.96 140.704 1021.96 143.08C1021.96 144.616 1021.58 146.02 1020.81 147.292C1020.04 148.54 1018.86 149.548 1017.28 150.316C1015.72 151.06 1013.79 151.432 1011.48 151.432C1009.71 151.432 1007.96 151.204 1006.23 150.748C1004.52 150.268 1003.07 149.596 1001.87 148.732L1004.18 144.268C1005.14 144.988 1006.24 145.552 1007.49 145.96C1008.74 146.344 1010.02 146.536 1011.34 146.536C1012.8 146.536 1013.96 146.248 1014.8 145.672C1015.64 145.096 1016.06 144.292 1016.06 143.26C1016.06 142.18 1015.61 141.364 1014.72 140.812C1013.86 140.26 1012.35 139.984 1010.19 139.984H1003.74L1005.04 125.8H1020.41V130.48H1009.9L1009.5 135.268H1011.56Z" fill="#9EDE87"/>
<rect x="210" y="180" width="320" height="1" fill="#9EDE87"/>
<line x1="371.5" y1="107" x2="371.5" y2="180" stroke="#48CDB7" stroke-width="3"/>
<circle cx="370.5" cy="90.5" r="13" fill="#9EDE87" stroke="white" stroke-width="7"/>
<path fill-rule="evenodd" clip-rule="evenodd" d="M351.057 89C351.019 89.4952 351 89.9957 351 90.5005C351 101.27 359.73 110.001 370.5 110.001C381.27 110.001 390 101.27 390 90.5005C390 89.9957 389.981 89.4953 389.943 89.0001L386.933 89.0001C386.977 89.4943 387 89.9948 387 90.5005C387 99.6132 379.613 107.001 370.5 107.001C361.387 107.001 354 99.6132 354 90.5005C354 89.9947 354.023 89.4942 354.067 89L351.057 89Z" fill="#48CDB7"/>
<path d="M359.475 61.432C357.387 61.432 355.527 60.916 353.895 59.884C352.263 58.852 350.979 57.364 350.043 55.42C349.131 53.452 348.675 51.112 348.675 48.4C348.675 45.688 349.131 43.36 350.043 41.416C350.979 39.448 352.263 37.948 353.895 36.916C355.527 35.884 357.387 35.368 359.475 35.368C361.563 35.368 363.423 35.884 365.055 36.916C366.687 37.948 367.959 39.448 368.871 41.416C369.807 43.36 370.275 45.688 370.275 48.4C370.275 51.112 369.807 53.452 368.871 55.42C367.959 57.364 366.687 58.852 365.055 59.884C363.423 60.916 361.563 61.432 359.475 61.432ZM359.475 56.5C361.011 56.5 362.211 55.84 363.075 54.52C363.963 53.2 364.407 51.16 364.407 48.4C364.407 45.64 363.963 43.6 363.075 42.28C362.211 40.96 361.011 40.3 359.475 40.3C357.963 40.3 356.763 40.96 355.875 42.28C355.011 43.6 354.579 45.64 354.579 48.4C354.579 51.16 355.011 53.2 355.875 54.52C356.763 55.84 357.963 56.5 359.475 56.5ZM391.726 56.248V61H372.682V57.22L382.402 48.04C383.434 47.056 384.13 46.216 384.49 45.52C384.85 44.8 385.03 44.092 385.03 43.396C385.03 42.388 384.682 41.62 383.986 41.092C383.314 40.54 382.318 40.264 380.998 40.264C379.894 40.264 378.898 40.48 378.01 40.912C377.122 41.32 376.378 41.944 375.778 42.784L371.53 40.048C372.514 38.584 373.87 37.444 375.598 36.628C377.326 35.788 379.306 35.368 381.538 35.368C383.41 35.368 385.042 35.68 386.434 36.304C387.85 36.904 388.942 37.768 389.71 38.896C390.502 40 390.898 41.308 390.898 42.82C390.898 44.188 390.61 45.472 390.034 46.672C389.458 47.872 388.342 49.24 386.686 50.776L380.89 56.248H391.726Z" fill="#9EDE87"/>
<path d="M777.577 61.432C775.489 61.432 773.629 60.916 771.997 59.884C770.365 58.852 769.081 57.364 768.145 55.42C767.233 53.452 766.777 51.112 766.777 48.4C766.777 45.688 767.233 43.36 768.145 41.416C769.081 39.448 770.365 37.948 771.997 36.916C773.629 35.884 775.489 35.368 777.577 35.368C779.665 35.368 781.525 35.884 783.157 36.916C784.789 37.948 786.061 39.448 786.973 41.416C787.909 43.36 788.377 45.688 788.377 48.4C788.377 51.112 787.909 53.452 786.973 55.42C786.061 57.364 784.789 58.852 783.157 59.884C781.525 60.916 779.665 61.432 777.577 61.432ZM777.577 56.5C779.113 56.5 780.313 55.84 781.177 54.52C782.065 53.2 782.509 51.16 782.509 48.4C782.509 45.64 782.065 43.6 781.177 42.28C780.313 40.96 779.113 40.3 777.577 40.3C776.065 40.3 774.865 40.96 773.977 42.28C773.113 43.6 772.681 45.64 772.681 48.4C772.681 51.16 773.113 53.2 773.977 54.52C774.865 55.84 776.065 56.5 777.577 56.5ZM814.287 55.708H810.183V61H804.495V55.708H790.923V51.784L802.803 35.8H808.923L797.907 50.956H804.675V46.24H810.183V50.956H814.287V55.708Z" fill="#9EDE87"/>
</svg>
